<?xml version="1.0" standalone="no"?>
<!DOCTYPE svg PUBLIC "-//W3C//DTD SVG 1.1//EN" "http://www.w3.org/Graphics/SVG/1.1/DTD/svg11.dtd" >
<svg xmlns="http://www.w3.org/2000/svg" xmlns:xlink="http://www.w3.org/1999/xlink" version="1.1">
<metadata>
Created by FontForge 20170731 at Fri Jan  9 05:38:34 2004
 By Aleksey,,,
 1993-2002 PARACHUTE FONTS. All rights reserved. Designed by Panos Vassiliou. Based on the US federal highway signs. {www.parachute.gr}
</metadata>
<defs>
<font id="PFHighwayGothicCompThin-Italic" horiz-adv-x="283" >
  <font-face 
    font-family="PF Highway Gothic Comp Thin"
    font-weight="400"
    font-style="italic"
    font-stretch="normal"
    units-per-em="1000"
    panose-1="2 0 3 8 3 0 0 9 0 4"
    ascent="780"
    descent="-220"
    x-height="488"
    cap-height="651"
    bbox="-99 -193 831.257 815"
    underline-thickness="40"
    underline-position="-190"
    slope="-11"
    unicode-range="U+0020-2122"
  />
<missing-glyph horiz-adv-x="449" 
 />
    <glyph glyph-name=".notdef" horiz-adv-x="449" 
 />
    <glyph glyph-name=".null" horiz-adv-x="0" 
 />
    <glyph glyph-name="nonmarkingreturn" horiz-adv-x="333" 
 />
    <glyph glyph-name="space" unicode=" " horiz-adv-x="151" 
 />
    <glyph glyph-name="exclam" unicode="!" horiz-adv-x="159" 
d="M79 145l61 249l50 257h-46l-50 -256l-38 -250h23zM10 25q-2 -14 6 -24t22 -10t26 10t14 24q3 14 -5 24t-22 10t-26 -10t-15 -24z" />
    <glyph glyph-name="quotedbl" unicode="&#x22;" horiz-adv-x="267" 
d="M221 450h24l53 201h-52z" />
    <glyph glyph-name="numbersign" unicode="#" horiz-adv-x="445" 
d="M454 394h-83l-37 -126h82l-12 -40h-82l-68 -228h-44l67 228h-124l-68 -228h-44l67 228h-82l12 40h82l38 126h-83l12 40h83l65 217h45l-66 -217h125l66 217h44l-65 -217h82zM202 394l-37 -126h124l38 126h-125z" />
    <glyph glyph-name="dollar" unicode="$" horiz-adv-x="285" 
d="M102 -61l10 52q115 35 138 157q21 108 -67 208q-40 45 -51 80.5t-4 75.5q9 39 34 67t58 28q42 0 80 -59l25 50q-24 47 -85 60l11 54h-45l-12 -58q-94 -40 -115 -149q-11 -60 6 -103t62 -97q31 -36 45 -66t13 -52t-4 -47q-7 -38 -36.5 -71.5t-73.5 -33.5q-46 0 -79 49
l-20 -50q25 -34 75 -45l-10 -50h45z" />
    <glyph glyph-name="percent" unicode="%" horiz-adv-x="584" 
d="M410 -8q103 0 139 185q18 87 1 136.5t-68 49.5q-50 0 -85.5 -49.5t-53.5 -136.5t-0.5 -136t67.5 -49zM35 0h45l510 651h-46zM145 290q51 0 86 48.5t53 136.5t1 137t-67 49t-85.5 -49.5t-53.5 -136.5t-1 -136t67 -49zM474 327q58 0 30 -150q-30 -149 -86 -149
q-59 0 -29 149q29 150 85 150zM210 625q58 0 29 -150q-30 -149 -86 -149q-59 0 -29 149q28 150 86 150z" />
    <glyph glyph-name="ampersand" unicode="&#x26;" horiz-adv-x="427" 
d="M288 92l38 -91h54l-59 135q47 68 75 155h-40q-14 -42 -56 -115l-67 175q45 41 63 59t44 56t33 76q11 51 -12.5 86.5t-74.5 35.5q-53 0 -89.5 -39t-49.5 -101q-2 -11 -3 -21.5t1 -23.5t3.5 -21t7 -24t7.5 -21.5t9.5 -25t9.5 -23.5q-70 -54 -112.5 -105t-55.5 -115
q-14 -72 13.5 -112.5t82.5 -40.5q43 0 83 23t95 78zM280 623q28 0 40.5 -21.5t10 -43t-2.5 -32.5q-11 -57 -109 -142q-40 101 -30 146q4 18 11.5 36t29 37.5t50.5 19.5zM196 325l77 -193q-81 -101 -146 -101q-39 0 -59 33t-10 85q11 53 41 88t97 88z" />
    <glyph glyph-name="quotesingle" unicode="'" horiz-adv-x="173" 
d="M115 450h25l52 201h-51z" />
    <glyph glyph-name="parenleft" unicode="(" horiz-adv-x="193" 
d="M114 -59l25 17q-79 192 -45 366q35 170 186 360l-18 16q-86 -99 -138.5 -188.5t-72.5 -190.5q-10 -50 -10 -102q0 -129 73 -278z" />
    <glyph glyph-name="parenright" unicode=")" horiz-adv-x="193" 
d="M-31 -42l19 -17q87 100 139.5 190.5t71.5 189.5q16 66 9 135.5t-24 124t-49 119.5l-24 -16q56 -136 56 -262q0 -51 -10 -98q-34 -174 -188 -366z" />
    <glyph glyph-name="asterisk" unicode="*" horiz-adv-x="291" 
d="M285 423l-52 87l110 32l-5 41l-111 -43l27 110h-39l-17 -110l-92 43l-21 -41l96 -32l-83 -87l29 -27l77 96l42 -96z" />
    <glyph glyph-name="plus" unicode="+" horiz-adv-x="317" 
d="M174 166l24 125h113l8 42h-113l24 125h-42l-24 -125h-113l-8 -42h113l-24 -125h42z" />
    <glyph glyph-name="comma" unicode="," horiz-adv-x="204" 
d="M37 -49l16 -11q47 42 53 77q6 22 -1.5 38.5t-27.5 16.5q-16 0 -29.5 -10.5t-16.5 -27.5t6 -28t36 -8q-13 -27 -36 -47z" />
    <glyph glyph-name="hyphen" unicode="-" horiz-adv-x="220" 
d="M59 332l-8 -41h159l9 41h-160z" />
    <glyph glyph-name="period" unicode="." horiz-adv-x="178" 
d="M20 30q-3 -16 6 -27t25 -11q15 0 28 11t16 27q3 15 -5.5 26t-24.5 11t-29 -11t-16 -26z" />
    <glyph glyph-name="slash" unicode="/" horiz-adv-x="410" 
d="M-45 -74h-49l585 792h49z" />
    <glyph glyph-name="zero" unicode="0" horiz-adv-x="324" 
d="M124 -10q74 0 119.5 80t78.5 256q35 171 20.5 253t-88.5 82q-73 0 -118 -80t-80 -256q-35 -170 -20.5 -252.5t88.5 -82.5zM245 617q46 0 52 -73t-24 -219q-29 -150 -61.5 -220.5t-78.5 -70.5q-44 0 -50.5 73t22.5 219q31 151 62.5 221t77.5 70z" />
    <glyph glyph-name="one" unicode="1" horiz-adv-x="324" 
d="M107 0l111 574h-69l6 28q57 10 91 49h36l-127 -651h-48z" />
    <glyph glyph-name="two" unicode="2" horiz-adv-x="324" 
d="M208 318q119 121 135 204q12 63 -12.5 101t-77.5 38q-52 0 -89.5 -26.5t-68.5 -92.5l45 -9q41 84 97 84q36 0 50.5 -27.5t5.5 -70.5q-16 -72 -103 -159q-83 -83 -125 -157t-68 -203h238l9 43h-189q20 90 52.5 148.5t100.5 126.5z" />
    <glyph glyph-name="three" unicode="3" horiz-adv-x="324" 
d="M113 -10q58 0 104.5 52t64.5 142q15 66 5 112t-52 57q47 21 69.5 57t35.5 101q12 64 -12 107t-77 43q-51 0 -85 -29.5t-65 -91.5l44 -7q42 84 94 84q30 0 45.5 -32t5.5 -76q-14 -70 -42 -103.5t-73 -33.5h-6l-9 -44h7q48 0 64 -35t1 -112q-9 -53 -40 -100t-67 -47
q-29 0 -43 20t-18 70l-48 -8q5 -70 27.5 -98t69.5 -28z" />
    <glyph glyph-name="four" unicode="4" horiz-adv-x="324" 
d="M222 0l36 183h43l9 45h-44l83 423h-44l-285 -430l-7 -38h197l-36 -183h48zM75 228l204 310l-61 -310h-143z" />
    <glyph glyph-name="five" unicode="5" horiz-adv-x="324" 
d="M105 -10q68 0 114 61.5t66 167.5q39 203 -68 203h-17q-27 0 -69 -32l54 215h163l9 46h-206l-73 -309l47 -7q33 43 71 43q37 0 46 -51t-6 -111q-15 -80 -45.5 -131t-73.5 -51q-52 0 -57 89l-46 -7q0 -126 91 -126z" />
    <glyph glyph-name="six" unicode="6" horiz-adv-x="324" 
d="M121 -10q62 0 105.5 55.5t58.5 137.5q6 45 6.5 88t-21.5 74.5t-63 31.5t-78 -39q96 184 232 284l-16 33q-41 -29 -81 -66.5t-86 -93t-81.5 -131t-51.5 -158.5q-42 -216 76 -216zM190 328q76 0 49 -147q-14 -69 -43 -107.5t-65 -38.5q-73 0 -46 148q31 145 105 145z" />
    <glyph glyph-name="seven" unicode="7" horiz-adv-x="324" 
d="M94 0h-46q36 177 96.5 327.5t170.5 280.5h-205l8 43h250l-11 -54q-107 -130 -165 -265.5t-98 -331.5z" />
    <glyph glyph-name="eight" unicode="8" horiz-adv-x="324" 
d="M118 -10q57 0 99 50t62 152q24 111 -33 167q68 44 88 139q15 74 -4 118.5t-78 44.5q-53 0 -93 -45.5t-54 -118.5q-10 -44 -3 -79t36 -61q-43 -28 -64.5 -67.5t-33.5 -98.5q-40 -201 78 -201zM242 617q35 0 45.5 -36.5t-1.5 -83.5q-9 -50 -31.5 -83t-58.5 -33
q-65 0 -43 117q24 119 89 119zM187 337q35 0 46 -44t-2 -102q-33 -157 -101 -157q-71 0 -42 158q13 62 38.5 103.5t60.5 41.5z" />
    <glyph glyph-name="nine" unicode="9" horiz-adv-x="324" 
d="M255 660q118 0 76 -216q-50 -261 -300 -449l-17 33q137 99 233 284q-37 -39 -78 -39t-63 31.5t-22 74.5t6 88q17 83 59.5 138t105.5 55zM186 322q41 0 67.5 44.5t36.5 100.5q7 39 7.5 72t-13.5 54.5t-40 21.5q-37 0 -65.5 -38.5t-41.5 -107.5q-27 -147 49 -147z" />
    <glyph glyph-name="colon" unicode=":" horiz-adv-x="178" 
d="M17 30q-3 -16 6 -27t25 -11q15 0 28 11t16 27q3 15 -5.5 26t-24.5 11t-29 -11t-16 -26zM79 348q-3 -16 6 -26.5t25 -10.5q28 -2 40 29q11 29 -7 42q-8 5 -19 4q-16 0 -29 -11t-16 -27z" />
    <glyph glyph-name="semicolon" unicode=";" horiz-adv-x="180" 
d="M26 -49l16 -11q47 42 53 77q6 22 -1.5 38.5t-27.5 16.5q-16 0 -29.5 -10.5t-16.5 -27.5t6 -28t36 -8q-13 -27 -36 -47zM82 348q-3 -16 6 -26.5t25 -10.5q28 -2 40 29q11 29 -7 42q-8 5 -19 4q-16 0 -29 -11t-16 -27z" />
    <glyph glyph-name="semicolon" unicode="&#x37e;" horiz-adv-x="180" 
d="M26 -49l16 -11q47 42 53 77q6 22 -1.5 38.5t-27.5 16.5q-16 0 -29.5 -10.5t-16.5 -27.5t6 -28t36 -8q-13 -27 -36 -47zM82 348q-3 -16 6 -26.5t25 -10.5q28 -2 40 29q11 29 -7 42q-8 5 -19 4q-16 0 -29 -11t-16 -27z" />
    <glyph glyph-name="less" unicode="&#x3c;" horiz-adv-x="292" 
d="M37 289l11 58l280 169l-10 -52l-236 -144l180 -146l-11 -56z" />
    <glyph glyph-name="equal" unicode="=" horiz-adv-x="314" 
d="M68 371l9 47h243l-10 -47h-242zM39 222l9 47h243l-10 -47h-242z" />
    <glyph glyph-name="greater" unicode="&#x3e;" horiz-adv-x="292" 
d="M4 118l11 56l236 146l-180 144l10 52l214 -169l-11 -58z" />
    <glyph glyph-name="question" unicode="?" horiz-adv-x="415" 
d="M341 365q65 65 76 126q15 78 -16.5 122.5t-103.5 44.5q-55 0 -106 -44.5t-80 -129.5h39q54 134 134 134q112 0 89 -135q-2 -11 -7.5 -22.5t-14.5 -24.5t-16 -23t-21 -25t-20 -21.5t-21 -22t-17 -18.5q-58 -65 -79 -142h39q14 53 47 97q15 22 36 40q7 9 22.5 24.5zM159 -9
q32 0 39 33q6 34 -26 34q-14 0 -25 -9.5t-14 -24.5q-3 -14 4.5 -23.5t21.5 -9.5z" />
    <glyph glyph-name="at" unicode="@" horiz-adv-x="691" 
d="M481 135q69 0 124 68.5t74 163.5q27 138 -40.5 221t-191.5 83q-138 0 -245.5 -101t-135.5 -250q-32 -163 42 -260t219 -97q86 0 189 41l-2 37q-60 -22 -96 -30.5t-88 -8.5q-130 0 -191 86t-33 232q26 138 120 225.5t218 87.5q102 0 164 -70t37 -193q-14 -70 -55.5 -133
t-94.5 -63q-25 0 -30 24.5t6 44.5l81 232h-35l-19 -49q-21 64 -93 64q-68 0 -126.5 -63.5t-72.5 -139.5q-11 -63 11.5 -111.5t81.5 -48.5q77 0 131 70q-1 -25 10 -40.5t21.5 -18.5t19.5 -3zM397 451q88 0 66 -120q-4 -19 -14 -44.5t-27.5 -54t-45.5 -48t-61 -19.5
q-39 0 -56 24t-17 59q0 24 4 40q5 27 22 62t52.5 68t76.5 33z" />
    <glyph glyph-name="A" unicode="A" horiz-adv-x="321" 
d="M226 176l-1 -176h47l1 651h-52l-253 -651h45l68 176h145zM96 215l131 341l-1 -341h-130z" />
    <glyph glyph-name="B" unicode="B" horiz-adv-x="316" 
d="M7 0h93q152 0 187 189q24 120 -51 161q77 35 99 142q15 78 -11 118.5t-102 40.5h-88zM172 607h40q98 0 74 -117q-24 -119 -121 -119h-39zM118 327h36q113 0 85 -141q-15 -73 -44 -107.5t-84 -34.5h-48z" />
    <glyph glyph-name="C" unicode="C" horiz-adv-x="306" 
d="M299 504l46 22q-5 135 -94 135q-67 0 -114.5 -82.5t-80.5 -253.5q-34 -171 -19.5 -253t82.5 -82q91 0 148 132l-40 19q-20 -52 -46 -80.5t-49 -28.5q-45 0 -51 73t24 221q29 147 61.5 219.5t75.5 72.5q25 0 42 -27t15 -87z" />
    <glyph glyph-name="D" unicode="D" horiz-adv-x="324" 
d="M7 0h86q87 0 140.5 78.5t86.5 251.5q16 82 20 138.5t-4.5 99.5t-35 63t-72.5 20h-94zM172 608h47q59 0 70.5 -70.5t-17.5 -210.5q-29 -150 -68 -217t-98 -67h-43z" />
    <glyph glyph-name="E" unicode="E" horiz-adv-x="281" 
d="M134 651l-127 -651h217l8 44h-169l55 282h112l9 44h-113l46 237h160l8 44h-206z" />
    <glyph glyph-name="F" unicode="F" horiz-adv-x="276" 
d="M172 607l-46 -241h114l-9 -45h-114l-63 -321h-47l127 651h208l-9 -44h-161z" />
    <glyph glyph-name="G" unicode="G" horiz-adv-x="322" 
d="M118 -10q130 0 169 215l20 101h-119l-8 -43h73l-13 -64q-32 -165 -109 -165q-46 0 -50.5 73t24.5 219q29 149 60.5 220t75.5 71q25 0 42 -27.5t15 -85.5l47 22q-5 135 -94 135q-68 0 -114.5 -82.5t-80.5 -253.5q-23 -117 -25 -189t19 -109t68 -37z" />
    <glyph glyph-name="H" unicode="H" horiz-adv-x="357" 
d="M220 0l63 326h-166l-63 -326h-47l127 651h47l-55 -281h165l55 281h47l-126 -651h-47z" />
    <glyph glyph-name="I" unicode="I" horiz-adv-x="159" 
d="M18 0l126 651h46l-127 -651h-45z" />
    <glyph glyph-name="J" unicode="J" horiz-adv-x="288" 
d="M231 148l98 503h-47l-98 -502q-11 -56 -41 -85.5t-62 -29.5q-67 0 -72 110l-44 -20q5 -134 106 -134q53 0 99 41.5t61 116.5z" />
    <glyph glyph-name="K" unicode="K" horiz-adv-x="305" 
d="M210 0l-32 369l-71 -99l-53 -270h-47l127 651h47l-55 -283l203 283h51l-157 -219l37 -432h-50z" />
    <glyph glyph-name="L" unicode="L" horiz-adv-x="256" 
d="M134 651l-127 -651h199l9 44h-152l118 607h-47z" />
    <glyph glyph-name="M" unicode="M" horiz-adv-x="406" 
d="M386 547l-106 -547h41l127 651h-50l-166 -308l-46 308h-50l-127 -651h41l107 549l51 -326z" />
    <glyph glyph-name="N" unicode="N" horiz-adv-x="349" 
d="M149 516l71 -516h42l126 651h-42l-100 -517l-71 517h-41l-127 -651h42z" />
    <glyph glyph-name="O" unicode="O" horiz-adv-x="332" 
d="M124 -10q74 0 118 78.5t79 256.5q23 119 24.5 191t-20.5 108.5t-71 36.5q-73 0 -116.5 -78.5t-79.5 -257.5q-36 -172 -21.5 -253.5t87.5 -81.5zM245 620q47 0 53 -74.5t-23 -220.5q-31 -152 -63.5 -223t-78.5 -71q-47 0 -53 74.5t24 219.5q29 152 61.5 223.5t79.5 71.5z
" />
    <glyph glyph-name="P" unicode="P" horiz-adv-x="302" 
d="M155 298h-43l-58 -298h-47l127 651h94q66 0 97 -42.5t14 -128.5q-17 -91 -68.5 -136.5t-115.5 -45.5zM218 607h-46l-51 -264h46q47 0 79.5 35.5t44.5 98.5q11 62 -7.5 96t-65.5 34z" />
    <glyph glyph-name="Q" unicode="Q" horiz-adv-x="332" 
d="M220 37q62 85 101 289q23 118 24.5 189.5t-20.5 108.5t-71 37q-71 0 -116.5 -80t-79.5 -255q-36 -172 -21.5 -254t87.5 -82q25 0 61 16l15 -35l38 23q-3 6 -8.5 20t-9.5 23zM245 620q47 0 53 -74.5t-23 -219.5q-30 -146 -73 -246l-23 52l-38 -24q2 -3 29 -65
q-23 -11 -37 -11q-47 0 -53 74t24 220q29 151 62 222.5t79 71.5z" />
    <glyph glyph-name="R" unicode="R" horiz-adv-x="311" 
d="M202 0l-14 314q-26 -2 -35 -2h-38l-61 -312h-47l127 651h94q64 0 96 -41.5t16 -122.5q-12 -59 -34.5 -95t-67.5 -59l19 -333h-55zM218 607h-46l-49 -253h46q98 0 122 128q24 125 -73 125z" />
    <glyph glyph-name="S" unicode="S" horiz-adv-x="295" 
d="M95 -13q59 0 106.5 44.5t61.5 115.5q21 107 -67 209q-40 45 -51 81t-4 76q9 39 34 67t58 28q43 0 81 -59l24 51q-33 60 -96 60q-54 0 -94.5 -43.5t-55.5 -111.5q-11 -59 6 -103t62 -97q31 -36 45 -66t13 -52t-4 -47q-7 -39 -36.5 -72.5t-73.5 -33.5q-46 0 -79 49l-20 -50
q33 -46 90 -46z" />
    <glyph glyph-name="T" unicode="T" horiz-adv-x="272" 
d="M238 609l-118 -609h-47l118 609h-99l8 42h245l-8 -42h-99z" />
    <glyph glyph-name="U" unicode="U" horiz-adv-x="347" 
d="M130 -10q60 0 101.5 37.5t55.5 110.5l100 513h-47l-99 -512q-22 -105 -101 -105t-60 105l100 512h-47l-100 -513q-14 -73 12 -110.5t85 -37.5z" />
    <glyph glyph-name="V" unicode="V" horiz-adv-x="311" 
d="M91 0h49l240 651h-45l-199 -550l20 550h-48z" />
    <glyph glyph-name="W" unicode="W" horiz-adv-x="402" 
d="M269 0h-42l28 489l-161 -489h-41l48 651h44l-41 -506l166 506h35l-30 -506l156 506h44z" />
    <glyph glyph-name="X" unicode="X" horiz-adv-x="287" 
d="M155 266l36 -266h48l-46 339l165 312h-46l-128 -243l-34 243h-48l43 -315l-177 -336h46z" />
    <glyph glyph-name="Y" unicode="Y" horiz-adv-x="322" 
d="M145 0l56 289l201 362h-47l-168 -316l-45 316h-48l60 -364l-56 -287h47z" />
    <glyph glyph-name="Z" unicode="Z" horiz-adv-x="268" 
d="M218 43h-196l314 560l9 48h-224l-9 -43h181l-312 -560l-9 -48h238z" />
    <glyph glyph-name="bracketleft" unicode="[" horiz-adv-x="212" 
d="M146 700l-146 -752h127l8 39h-83l131 674h83l8 39h-128z" />
    <glyph glyph-name="backslash" unicode="\" horiz-adv-x="410" 
d="M386 -74h-49l-277 792h49z" />
    <glyph glyph-name="bracketright" unicode="]" horiz-adv-x="212" 
d="M-6 -52h127l147 752h-128l-8 -39h83l-131 -674h-83z" />
    <glyph glyph-name="asciicircum" unicode="^" horiz-adv-x="336" 
d="M241 600l58 -237h51l-71 287h-56l-185 -287h53z" />
    <glyph glyph-name="underscore" unicode="_" horiz-adv-x="500" 
d="M-57 -70l-7 -40h503l7 40h-503z" />
    <glyph glyph-name="grave" unicode="`" 
d="M210 561l-62 117h58l32 -117h-28z" />
    <glyph glyph-name="a" unicode="a" 
d="M24 247q-25 -122 -11 -186.5t70 -64.5q43 0 83 35l-7 -31h45l92 476q-43 21 -89 21q-74 0 -116.5 -65t-66.5 -185zM71 249q5 28 14 58.5t24 67.5t38 60.5t49 23.5q25 0 52 -17l-75 -371q-44 -33 -75 -33q-39 0 -44 54t17 157z" />
    <glyph glyph-name="b" unicode="b" horiz-adv-x="299" 
d="M280 244q49 251 -59 251q-41 0 -82 -35l39 200l-50 -26l-120 -619q41 -21 86 -21q77 0 120.5 65t65.5 185zM234 242q-6 -32 -14.5 -62t-23.5 -67t-37.5 -59t-49.5 -22q-24 0 -51 18l73 370q46 33 76 33q38 0 43.5 -54t-16.5 -157z" />
    <glyph glyph-name="c" unicode="c" horiz-adv-x="268" 
d="M243 379l44 19q-6 51 -25.5 75.5t-57.5 24.5q-118 0 -169 -257q-48 -251 69 -251q71 0 123 102l-35 15q-30 -74 -78 -74q-76 0 -32 209q41 213 111 213q50 0 50 -76z" />
    <glyph glyph-name="d" unicode="d" horiz-adv-x="293" 
d="M175 21l-4 -20h46l128 661l-50 -27q-7 -42 -22 -109q-11 -58 -16 -60q-2 -1 -4 1q-15 17 -34 24q-9 4 -27 4q-107 0 -157 -251q-49 -253 62 -253q35 0 78 30zM253 420l-69 -353q-48 -35 -80 -35q-38 0 -40 63t17 147q21 108 46.5 159.5t62.5 51.5q30 0 63 -33z" />
    <glyph glyph-name="e" unicode="e" 
d="M83 223q97 2 154 49t57 120q0 45 -22 75.5t-60 30.5q-109 0 -165 -214q-11 -44 -16 -89.5t-3.5 -95t23.5 -80.5t62 -31q74 0 125 75l-20 26q-19 -28 -45 -44.5t-45 -16.5q-77 0 -45 195zM201 456q26 0 38.5 -23.5t12.5 -46.5q0 -54 -47 -89t-115 -35q8 41 21.5 82.5
t38 76.5t51.5 35z" />
    <glyph glyph-name="f" unicode="f" horiz-adv-x="177" 
d="M-94 -143q72 32 94 87q9 25 16 66q21 90 86 439h-37l8 39h37l18 91q24 118 130 85l-8 -40q-36 8 -53.5 -2.5t-25.5 -47.5l-17 -86h66l-7 -39h-66q-3 -15 -62 -320q-3 -12 -19 -97q-17 -90 -47.5 -135t-100.5 -75z" />
    <glyph glyph-name="g" unicode="g" horiz-adv-x="299" 
d="M309 477l-86 -445q-19 -100 -53.5 -146t-123.5 -75l-8 35q65 24 91 52t40 90l10 45q-41 -35 -83 -35q-56 0 -70 64.5t11 186.5q24 120 66.5 184.5t119.5 64.5q48 0 86 -21zM259 442q-29 19 -51 19q-83 0 -124 -210q-22 -103 -17.5 -157.5t43.5 -54.5q33 0 76 34z" />
    <glyph glyph-name="h" unicode="h" horiz-adv-x="301" 
d="M175 0l71 365q10 46 1 67t-41 21t-78 -33l-81 -420h-46l124 634l50 27l-38 -197q55 31 96 31q44 0 57.5 -31t1.5 -95l-71 -369h-46z" />
    <glyph glyph-name="i" unicode="i" horiz-adv-x="148" 
d="M8 0l95 488h46l-95 -488h-46zM155 613q-13 0 -20.5 9t-4.5 22q2 13 13 22t24 9t20.5 -9t5.5 -22q-3 -13 -14 -22t-24 -9z" />
    <glyph glyph-name="j" unicode="j" horiz-adv-x="148" 
d="M59 -3l96 491h-47l-95 -489q-12 -64 -34.5 -94t-69.5 -41l-8 -44q127 20 158 177zM155 613q13 0 24 9t14 22q2 13 -5.5 22t-20.5 9t-24 -9t-13 -22q-3 -13 4.5 -22t20.5 -9z" />
    <glyph glyph-name="k" unicode="k" horiz-adv-x="278" 
d="M157 273l27 -273h45l-30 329l117 159h-53l-165 -230l80 414l-50 -27l-126 -645h46l32 168z" />
    <glyph glyph-name="l" unicode="l" horiz-adv-x="161" 
d="M187 672l-50 -27l-111 -572q-3 -17 -3 -32q0 -51 51 -51q18 0 45 15l10 41q-24 -18 -42 -18q-17 0 -19.5 12.5t2.5 28.5z" />
    <glyph glyph-name="m" unicode="m" horiz-adv-x="448" 
d="M321 0l72 369q9 49 0.5 69t-39.5 20q-24 0 -68 -35q-1 -9 -2.5 -25.5t-3.5 -24.5l-73 -373h-45l73 373q9 46 0.5 65.5t-40.5 19.5q-24 0 -66 -34l-82 -424h-45l95 488h45l-4 -19q48 31 85 31q48 0 64 -42q50 42 94 42q43 0 56 -31t1 -96l-72 -373h-45z" />
    <glyph glyph-name="n" unicode="n" horiz-adv-x="301" 
d="M175 0l72 369q10 46 1 67.5t-41 21.5q-34 0 -78 -34l-82 -424h-46l95 488h46l-4 -19q55 31 97 31q44 0 57 -31t1 -96l-72 -373h-46z" />
    <glyph glyph-name="o" unicode="o" horiz-adv-x="304" 
d="M110 -10q121 0 170 254t-71 254q-122 0 -170 -254q-50 -254 71 -254zM199 455q77 0 35 -211q-40 -211 -115 -211t-34 211q21 107 47.5 159t66.5 52z" />
    <glyph glyph-name="p" unicode="p" horiz-adv-x="299" 
d="M113 -6q-32 0 -61 31l-32 -170l-51 -29l128 662h46l-5 -25q46 35 77 35q60 0 74.5 -65t-10.5 -186q-50 -253 -166 -253zM195 457q-23 0 -65 -34l-69 -353q12 -14 17.5 -20t15.5 -10.5t23 -4.5q74 0 115 211t-37 211z" />
    <glyph glyph-name="q" unicode="q" horiz-adv-x="299" 
d="M37 250q-25 -122 -11 -186.5t70 -64.5q41 0 82 35l-39 -204l51 27l120 621q-43 21 -87 21q-76 0 -118.5 -64t-67.5 -185zM84 252q45 209 124 209q23 0 52 -18l-74 -369q-43 -34 -75 -34q-39 0 -44 54.5t17 157.5z" />
    <glyph glyph-name="r" unicode="r" horiz-adv-x="189" 
d="M240 434q-27 19 -51 19q-31 0 -59 -33l-82 -420h-46l95 488h46l-5 -29q39 39 78 39q21 0 38 -19z" />
    <glyph glyph-name="s" unicode="s" horiz-adv-x="256" 
d="M75 -10q52 0 91.5 34t50.5 88q9 49 -4.5 82t-43.5 68q-9 9 -25 27q-45 52 -36 98q6 30 26.5 49.5t46.5 19.5q35 0 69 -47l23 43q-30 46 -85 46q-48 0 -82 -33t-44 -84q-9 -44 6.5 -77.5t54.5 -73.5q38 -38 46.5 -64t1.5 -60q-7 -30 -30 -53.5t-58 -23.5q-38 0 -68 41
l-19 -44q30 -36 79 -36z" />
    <glyph glyph-name="t" unicode="t" horiz-adv-x="195" 
d="M131 5l10 39q-35 -18 -42 -18q-22 0 -28 11.5t1 31.5l73 379h75l7 39h-74l33 173l-49 -26l-28 -147h-44l-8 -39h44l-73 -375q-7 -36 5.5 -59.5t47.5 -23.5q22 0 50 15z" />
    <glyph glyph-name="u" unicode="u" horiz-adv-x="301" 
d="M177 19l-3 -19h45l95 488h-45l-83 -424q-44 -34 -78 -34q-31 0 -40 21.5t0 67.5l72 369h-45l-73 -373q-12 -64 1.5 -95.5t57.5 -31.5q42 0 96 31z" />
    <glyph glyph-name="v" unicode="v" horiz-adv-x="273" 
d="M72 0h49l196 488h-48l-158 -415l4 415h-49z" />
    <glyph glyph-name="w" unicode="w" horiz-adv-x="375" 
d="M213 0h42l162 488h-46l-118 -386l13 386h-43l-137 -386l32 386h-47l-27 -488h42l139 388z" />
    <glyph glyph-name="x" unicode="x" horiz-adv-x="282" 
d="M141 210l50 -210h47l-63 264l140 224h-46l-107 -172l-41 172h-46l54 -225l-164 -263h45z" />
    <glyph glyph-name="y" unicode="y" horiz-adv-x="289" 
d="M110 -61l229 549h-48l-165 -403l-14 403h-49l23 -499l-10 -26q-18 -48 -44 -73t-83 -44l9 -35q63 20 97.5 49.5t54.5 78.5z" />
    <glyph glyph-name="z" unicode="z" horiz-adv-x="249" 
d="M-21 38l-8 -38h221l7 39h-175l255 411l7 38h-206l-8 -39h162z" />
    <glyph glyph-name="braceleft" unicode="{" horiz-adv-x="221" 
d="M135 -51h16l6 33h-10q-54 0 -36 107l16 84q26 123 -30 144l1 5q62 20 86 145l18 90q7 41 27 73.5t51 32.5h10l6 33h-15q-41 0 -72 -29.5t-42 -84.5l-19 -98q-12 -63 -32.5 -101t-63.5 -47l-6 -30q40 -9 46.5 -53.5t-7.5 -91.5l-19 -97q-11 -55 9 -85t60 -30z" />
    <glyph glyph-name="bar" unicode="|" horiz-adv-x="162" 
d="M57 747v-870h47v870h-47z" />
    <glyph glyph-name="braceright" unicode="}" horiz-adv-x="221" 
d="M220 306l6 30q-40 9 -46 54t8 94l19 98q11 55 -9 84.5t-61 29.5h-15l-6 -33h9q55 0 37 -106l-17 -90q-26 -124 30 -145l-1 -5q-61 -20 -87 -144l-16 -84q-7 -42 -27.5 -74.5t-50.5 -32.5h-10l-6 -33h16q40 0 71 30t42 85l19 97q8 40 16 65t28.5 49.5t50.5 30.5z" />
    <glyph glyph-name="asciitilde" unicode="~" horiz-adv-x="353" 
d="M261 272q47 0 94 80l-26 21q-4 -5 -11 -15.5t-10 -14.5t-9 -9.5t-12.5 -7.5t-14.5 -2q-28 0 -63 35q-26 30 -60 30q-50 0 -91 -73l27 -18q14 23 25 30t31 7q32 0 61 -34q25 -29 59 -29z" />
    <glyph glyph-name="nbspace" unicode="&#xa0;" horiz-adv-x="68" 
 />
    <glyph glyph-name="sterling" unicode="&#xa3;" horiz-adv-x="305" 
d="M295 515h47q4 79 -19 112.5t-73 33.5q-54 0 -92.5 -37.5t-51.5 -102.5q-9 -44 -3 -94q6 -48 6 -94h-51l-8 -43h53q-28 -138 -100 -242l-9 -48h244l9 43h-198q74 123 100 247h78l9 43h-81q2 30 -1.5 71.5t-3.5 46.5q-1 36 5 76q7 36 29 63t55 27q62 0 56 -102z" />
    <glyph glyph-name="yen" unicode="&#xa5;" horiz-adv-x="322" 
d="M260 396h66l-7 -36h-79l-28 -50h97l-7 -36h-104l-53 -274h-47l53 274h-101l7 36h93l-8 50h-76l7 36h63l-42 255h48l45 -316l168 316h47z" />
    <glyph glyph-name="brokenbar" unicode="&#xa6;" horiz-adv-x="304" 
d="M110 -10q121 0 170 254t-71 254q-122 0 -170 -254q-50 -254 71 -254zM199 455q77 0 35 -211q-40 -211 -115 -211t-34 211q21 107 47.5 159t66.5 52zM284 568q41 2 72 53l-22 19q-21 -28 -39 -32.5t-42 13.5q-32 27 -67 24q-34 -5 -67 -58l22 -13q17 27 43 31q29 2 53 -22
q9 -8 24 -12.5t23 -2.5z" />
    <glyph glyph-name="section" unicode="&#xa7;" horiz-adv-x="339" 
d="M217 158q100 44 117 127q8 42 -16 81t-79 90q-41 38 -54 69t-7 63q7 34 32 57.5t57 23.5q42 0 83 -51l22 42q-38 48 -99 48q-54 0 -94 -35.5t-50 -90.5q-11 -52 28 -115q-94 -43 -108 -123q-9 -49 9 -85.5t65 -79.5q51 -45 69 -76t12 -63q-7 -34 -35 -62t-72 -28
q-45 0 -81 43l-18 -41q34 -37 92 -37q61 0 106.5 36.5t57.5 95.5q10 45 -37 111zM204 418q50 -47 68.5 -78t12.5 -61q-17 -73 -96 -90q-23 20 -36 33q-67 65 -55 128q6 34 30.5 56.5t61.5 24.5q11 -11 14 -13z" />
    <glyph glyph-name="dieresis" unicode="&#xa8;" 
d="M287 577q12 0 22.5 8.5t12.5 20.5q2 13 -5 21.5t-19 8.5t-22.5 -8.5t-13.5 -21.5q-2 -12 5 -20.5t20 -8.5zM141 577q13 0 23.5 8.5t12.5 20.5q2 13 -5 21.5t-19 8.5q-13 0 -23.5 -8.5t-12.5 -21.5q-2 -12 5 -20.5t19 -8.5z" />
    <glyph glyph-name="copyright" unicode="&#xa9;" horiz-adv-x="566" 
d="M285 -10q111 0 175 93.5t64 241.5q0 147 -65 241.5t-174 94.5q-110 0 -174.5 -94.5t-64.5 -241.5q0 -148 64 -241.5t175 -93.5zM285 628q92 0 148 -87t56 -216q0 -130 -55 -216t-149 -86q-95 0 -150 86t-55 216t55.5 216.5t149.5 86.5zM340 414l32 18q-13 47 -32 71.5
t-52 24.5q-48 0 -68.5 -45.5t-20.5 -158.5q0 -114 20 -158.5t68 -44.5q35 0 54 23.5t31 70.5l-33 15q-16 -76 -49 -76q-30 0 -42 34.5t-12 135.5q0 96 12 133t40 37q19 0 31 -17t21 -63z" />
    <glyph glyph-name="guillemotleft" unicode="&#xab;" horiz-adv-x="367" 
d="M178 245l83 -175h49l-79 175l147 175h-49zM45 245l82 -175h49l-79 175l147 175h-49z" />
    <glyph glyph-name="sfthyphen" unicode="&#xad;" horiz-adv-x="220" 
d="M59 332l-8 -41h159l9 41h-160z" />
    <glyph glyph-name="registered" unicode="&#xae;" horiz-adv-x="420" 
d="M206 258q70 0 118.5 60.5t48.5 150.5q0 89 -48.5 149.5t-118.5 60.5t-118.5 -60.5t-48.5 -149.5q0 -90 48.5 -150.5t118.5 -60.5zM206 652q62 0 99.5 -52t37.5 -131t-37.5 -131t-99.5 -52t-99.5 52t-37.5 131t37.5 131t99.5 52zM205 441l39 -94h31l-43 103q38 23 38 70
q0 74 -70 74h-49v-247h28v93q6 0 14 0.5t12 0.5zM179 573h13q50 0 50 -55q0 -57 -50 -57h-13v112z" />
    <glyph glyph-name="degree" unicode="&#xb0;" horiz-adv-x="300" 
d="M151 421q50 0 81.5 34t31.5 86q0 51 -31.5 84.5t-81.5 33.5t-81.5 -33.5t-31.5 -84.5t32 -85.5t81 -34.5zM151 623q33 0 54.5 -23t21.5 -59q0 -37 -21 -61t-55 -24q-33 0 -54 24t-21 61q0 35 21 58.5t54 23.5z" />
    <glyph glyph-name="plusminus" unicode="&#xb1;" horiz-adv-x="1004" 
 />
    <glyph glyph-name="twosuperior" unicode="&#xb2;" horiz-adv-x="306" 
d="M114 -53l22 44q44 6 74.5 39t56.5 92l-40 19q-20 -52 -46 -80.5t-49 -28.5q-45 0 -51 73t24 221q29 147 61.5 219.5t75.5 72.5q25 0 42 -27t15 -87l46 22q-5 135 -94 135q-67 0 -114.5 -82.5t-80.5 -253.5q-33 -162 -21.5 -244t70.5 -90l-34 -72h18q15 0 27.5 -8t8.5 -25
q-4 -20 -18.5 -33.5t-31.5 -13.5q-9 0 -42 16l-18 -32q29 -16 54 -16q34 0 57.5 24t30.5 53q14 56 -43 63z" />
    <glyph glyph-name="threesuperior" unicode="&#xb3;" horiz-adv-x="349" 
d="M220 0l-71 516l-100 -516h-42l127 651h41l71 -517l100 517h42l-126 -651h-42zM317 684q-28 -2 -48 16q-28 25 -53 21q-24 -4 -43 -31l-21 13q31 52 67 58q35 3 67 -24q23 -18 41.5 -13.5t38.5 32.5l23 -19q-28 -46 -72 -53z" />
    <glyph glyph-name="mu" unicode="&#xb5;" horiz-adv-x="301" 
d="M174 5l6 31q-57 -35 -76 -38q-27 -5 -56 19l-32 -163l-50 -28l128 662h46l-71 -365q-8 -41 3 -64.5t37 -23.5q35 0 78 33l81 420h46l-94 -483h-46z" />
    <glyph glyph-name="mu" unicode="&#x3bc;" horiz-adv-x="301" 
d="M174 5l6 31q-57 -35 -76 -38q-27 -5 -56 19l-32 -163l-50 -28l128 662h46l-71 -365q-8 -41 3 -64.5t37 -23.5q35 0 78 33l81 420h46l-94 -483h-46z" />
    <glyph glyph-name="periodcentered" unicode="&#xb7;" horiz-adv-x="178" 
d="M79 348q-3 -16 6 -26.5t25 -10.5q28 -2 40 29q11 29 -7 42q-8 5 -19 4q-16 0 -29 -11t-16 -27z" />
    <glyph glyph-name="periodcentered" unicode="&#x22c5;" horiz-adv-x="178" 
d="M79 348q-3 -16 6 -26.5t25 -10.5q28 -2 40 29q11 29 -7 42q-8 5 -19 4q-16 0 -29 -11t-16 -27z" />
    <glyph glyph-name="onesuperior" unicode="&#xb9;" horiz-adv-x="321" 
d="M225 0h47l1 651h-52l-253 -651h45l68 176h145zM227 556l-1 -341h-130zM250 676q29 0 52.5 20t29.5 50q5 29 -10.5 49t-44.5 20t-53 -20t-29 -49q-6 -30 10 -50t45 -20zM271 788q18 0 27.5 -12.5t5.5 -29.5q-3 -18 -17.5 -30.5t-31.5 -12.5t-27 12.5t-6 30.5
q3 17 17.5 29.5t31.5 12.5z" />
    <glyph glyph-name="guillemotright" unicode="&#xbb;" horiz-adv-x="367" 
d="M149 70h49l151 175l-83 175h-49l79 -175zM15 70h49l151 175l-83 175h-49l80 -175z" />
    <glyph glyph-name="onehalf" unicode="&#xbd;" horiz-adv-x="531" 
d="M425 173q70 66 79 114q7 36 -9 58.5t-51 22.5q-32 0 -56 -16.5t-47 -59.5l42 -8q25 46 49 46q16 0 23.5 -12t2.5 -33q-8 -37 -55 -81q-48 -46 -72 -87t-41 -117h155l7 38h-109q12 45 29.5 73.5t52.5 61.5zM-17 0h50l509 651h-50zM166 591l-60 -306h44l71 366h-33
q-20 -23 -54 -29l-6 -31h38z" />
    <glyph glyph-name="Adieresis" unicode="&#xc4;" horiz-adv-x="321" 
d="M226 176l-1 -176h47l1 651h-52l-253 -651h45l68 176h145zM96 215l131 341l-1 -341h-130zM330 695q12 0 22.5 8.5t13.5 21.5q2 12 -5 21t-20 9q-12 0 -22.5 -9t-12.5 -21q-2 -13 5 -21.5t19 -8.5zM185 695q12 0 22.5 8.5t12.5 21.5q3 12 -4 21t-20 9q-12 0 -22.5 -9
t-12.5 -21q-3 -13 4 -21.5t20 -8.5z" />
    <glyph glyph-name="Eacute" unicode="&#xc9;" horiz-adv-x="281" 
d="M7 0l127 651h206l-8 -44h-160l-46 -237h113l-9 -44h-112l-55 -282h169l-8 -44h-217zM233 669l107 117h-58l-77 -117h28z" />
    <glyph glyph-name="Odieresis" unicode="&#xd6;" horiz-adv-x="332" 
d="M124 -10q-73 0 -87.5 81.5t21.5 253.5q36 179 79.5 257.5t116.5 78.5q49 0 71 -36.5t20.5 -108.5t-24.5 -191q-35 -178 -79 -256.5t-118 -78.5zM245 620q-47 0 -79.5 -71.5t-61.5 -223.5q-30 -145 -24 -219.5t53 -74.5q46 0 78.5 71t63.5 223q29 146 23 220.5t-53 74.5z
M334 695q-12 0 -19 8.5t-5 21.5q2 12 12.5 21t22.5 9q13 0 20 -9t5 -21q-3 -13 -13.5 -21.5t-22.5 -8.5zM189 695q-13 0 -20 8.5t-4 21.5q2 12 12.5 21t22.5 9q13 0 20 -9t4 -21q-2 -13 -12.5 -21.5t-22.5 -8.5z" />
    <glyph glyph-name="Udieresis" unicode="&#xdc;" horiz-adv-x="347" 
d="M130 -10q60 0 101.5 37.5t55.5 110.5l100 513h-47l-99 -512q-22 -105 -101 -105t-60 105l100 512h-47l-100 -513q-14 -73 12 -110.5t85 -37.5zM338 695q12 0 22.5 8.5t13.5 21.5q2 12 -5 21t-20 9q-12 0 -22.5 -9t-12.5 -21q-2 -13 5 -21.5t19 -8.5zM193 695
q12 0 22.5 8.5t12.5 21.5q3 12 -4 21t-20 9q-12 0 -22.5 -9t-12.5 -21q-3 -13 4 -21.5t20 -8.5z" />
    <glyph glyph-name="germandbls" unicode="&#xdf;" horiz-adv-x="319" 
d="M123 30l-13 -40q69 -2 110 52.5t63 164.5q15 69 4 111.5t-56 68.5q39 22 58 49.5t29 77.5q32 161 -75 161q-109 0 -141 -164l-103 -529l50 27l99 505q12 61 30.5 89.5t53.5 28.5t43.5 -39.5t-3.5 -79.5q-18 -96 -87 -108l-9 -45q29 -5 45.5 -21.5t19 -44t1 -47
t-6.5 -47.5q-32 -170 -112 -170z" />
    <glyph glyph-name="agrave" unicode="&#xe0;" 
d="M162 678l62 -117h28l-32 117h-58zM24 247q-25 -122 -11 -186.5t70 -64.5q43 0 83 35l-7 -31h45l92 476q-43 21 -89 21q-74 0 -116.5 -65t-66.5 -185zM71 249q5 28 14 58.5t24 67.5t38 60.5t49 23.5q25 0 52 -17l-75 -371q-44 -33 -75 -33q-39 0 -44 54t17 157z" />
    <glyph glyph-name="acircumflex" unicode="&#xe2;" 
d="M244 636l49 -64h40l-61 108h-36l-104 -108h36zM24 247q-25 -122 -11 -186.5t70 -64.5q43 0 83 35l-7 -31h45l92 476q-43 21 -89 21q-74 0 -116.5 -65t-66.5 -185zM71 249q5 28 14 58.5t24 67.5t38 60.5t49 23.5q25 0 52 -17l-75 -371q-44 -33 -75 -33q-39 0 -44 54
t17 157z" />
    <glyph glyph-name="adieresis" unicode="&#xe4;" 
d="M307 577q12 0 22.5 8.5t12.5 20.5q2 13 -5 21.5t-19 8.5t-22.5 -8.5t-13.5 -21.5q-2 -12 5 -20.5t20 -8.5zM161 577q13 0 23.5 8.5t12.5 20.5q2 13 -5 21.5t-19 8.5q-13 0 -23.5 -8.5t-12.5 -21.5q-2 -12 5 -20.5t19 -8.5zM24 247q-25 -122 -11 -186.5t70 -64.5
q43 0 83 35l-7 -31h45l92 476q-43 21 -89 21q-74 0 -116.5 -65t-66.5 -185zM71 249q5 28 14 58.5t24 67.5t38 60.5t49 23.5q25 0 52 -17l-75 -371q-44 -33 -75 -33q-39 0 -44 54t17 157z" />
    <glyph glyph-name="ccedilla" unicode="&#xe7;" horiz-adv-x="268" 
d="M94 -53l22 44q62 8 111 101l-35 15q-30 -74 -78 -74q-76 0 -32 209q41 213 111 213q50 0 50 -76l44 19q-6 51 -25.5 75.5t-57.5 24.5q-118 0 -169 -257q-44 -230 50 -249l-34 -73h18q15 0 27.5 -8t8.5 -25q-4 -20 -18.5 -33.5t-31.5 -13.5q-9 0 -42 16l-18 -32
q29 -16 54 -16q34 0 57.5 24t30.5 53q14 56 -43 63z" />
    <glyph glyph-name="egrave" unicode="&#xe8;" 
d="M148 678l62 -117h28l-32 117h-58zM83 223q97 2 154 49t57 120q0 45 -22 75.5t-60 30.5q-109 0 -165 -214q-11 -44 -16 -89.5t-3.5 -95t23.5 -80.5t62 -31q74 0 125 75l-20 26q-19 -28 -45 -44.5t-45 -16.5q-77 0 -45 195zM201 456q26 0 38.5 -23.5t12.5 -46.5
q0 -54 -47 -89t-115 -35q8 41 21.5 82.5t38 76.5t51.5 35z" />
    <glyph glyph-name="eacute" unicode="&#xe9;" 
d="M219 561l108 117h-59l-77 -117h28zM83 223q-32 -195 45 -195q19 0 45 16.5t45 44.5l20 -26q-51 -75 -125 -75q-40 0 -62 31t-23.5 80.5t3.5 95t16 89.5q56 214 165 214q38 0 60 -30.5t22 -75.5q0 -73 -57 -120t-154 -49zM201 456q-27 0 -51.5 -35t-38 -76.5t-21.5 -82.5
q68 0 115 35t47 89q0 23 -12.5 46.5t-38.5 23.5z" />
    <glyph glyph-name="ecircumflex" unicode="&#xea;" 
d="M231 636l49 -64h40l-61 108h-36l-104 -108h36zM83 223q97 2 154 49t57 120q0 45 -22 75.5t-60 30.5q-109 0 -165 -214q-11 -44 -16 -89.5t-3.5 -95t23.5 -80.5t62 -31q74 0 125 75l-20 26q-19 -28 -45 -44.5t-45 -16.5q-77 0 -45 195zM201 456q26 0 38.5 -23.5
t12.5 -46.5q0 -54 -47 -89t-115 -35q8 41 21.5 82.5t38 76.5t51.5 35z" />
    <glyph glyph-name="edieresis" unicode="&#xeb;" 
d="M287 577q12 0 22.5 8.5t12.5 20.5q2 13 -5 21.5t-19 8.5t-22.5 -8.5t-13.5 -21.5q-2 -12 5 -20.5t20 -8.5zM141 577q13 0 23.5 8.5t12.5 20.5q2 13 -5 21.5t-19 8.5q-13 0 -23.5 -8.5t-12.5 -21.5q-2 -12 5 -20.5t19 -8.5zM83 223q97 2 154 49t57 120q0 45 -22 75.5
t-60 30.5q-109 0 -165 -214q-11 -44 -16 -89.5t-3.5 -95t23.5 -80.5t62 -31q74 0 125 75l-20 26q-19 -28 -45 -44.5t-45 -16.5q-77 0 -45 195zM201 456q26 0 38.5 -23.5t12.5 -46.5q0 -54 -47 -89t-115 -35q8 41 21.5 82.5t38 76.5t51.5 35z" />
    <glyph glyph-name="icircumflex" unicode="&#xee;" horiz-adv-x="148" 
d="M8 0l95 488h46l-95 -488h-46zM197 572l-49 64l-77 -64h-35l104 108h36l61 -108h-40z" />
    <glyph glyph-name="idieresis" unicode="&#xef;" horiz-adv-x="148" 
d="M8 0l95 488h46l-95 -488h-46zM216 577q-13 0 -20 8.5t-5 20.5q3 13 13.5 21.5t22.5 8.5t19 -8.5t5 -21.5q-2 -12 -12.5 -20.5t-22.5 -8.5zM70 577q-12 0 -19 8.5t-5 20.5q2 13 12.5 21.5t23.5 8.5q12 0 19 -8.5t5 -21.5q-2 -12 -12.5 -20.5t-23.5 -8.5z" />
    <glyph glyph-name="ocircumflex" unicode="&#xf4;" horiz-adv-x="304" 
d="M110 -10q121 0 170 254t-71 254q-122 0 -170 -254q-50 -254 71 -254zM199 455q77 0 35 -211q-40 -211 -115 -211t-34 211q21 107 47.5 159t66.5 52zM235 636l49 -64h40l-61 108h-36l-104 -108h36z" />
    <glyph glyph-name="odieresis" unicode="&#xf6;" horiz-adv-x="304" 
d="M110 -10q121 0 170 254t-71 254q-122 0 -170 -254q-50 -254 71 -254zM199 455q77 0 35 -211q-40 -211 -115 -211t-34 211q21 107 47.5 159t66.5 52zM299 577q12 0 22.5 8.5t12.5 20.5q2 13 -5 21.5t-19 8.5t-22.5 -8.5t-13.5 -21.5q-2 -12 5 -20.5t20 -8.5zM153 577
q13 0 23.5 8.5t12.5 20.5q2 13 -5 21.5t-19 8.5q-13 0 -23.5 -8.5t-12.5 -21.5q-2 -12 5 -20.5t19 -8.5z" />
    <glyph glyph-name="ugrave" unicode="&#xf9;" horiz-adv-x="301" 
d="M177 19l-3 -19h45l95 488h-45l-83 -424q-44 -34 -78 -34q-31 0 -40 21.5t0 67.5l72 369h-45l-73 -373q-12 -64 1.5 -95.5t57.5 -31.5q42 0 96 31zM148 678l62 -117h28l-32 117h-58z" />
    <glyph glyph-name="ucircumflex" unicode="&#xfb;" horiz-adv-x="301" 
d="M177 19l-3 -19h45l95 488h-45l-83 -424q-44 -34 -78 -34q-31 0 -40 21.5t0 67.5l72 369h-45l-73 -373q-12 -64 1.5 -95.5t57.5 -31.5q42 0 96 31zM227 636l49 -64h40l-61 108h-36l-104 -108h36z" />
    <glyph glyph-name="udieresis" unicode="&#xfc;" horiz-adv-x="301" 
d="M177 19l-3 -19h45l95 488h-45l-83 -424q-44 -34 -78 -34q-31 0 -40 21.5t0 67.5l72 369h-45l-73 -373q-12 -64 1.5 -95.5t57.5 -31.5q42 0 96 31zM287 577q12 0 22.5 8.5t12.5 20.5q2 13 -5 21.5t-19 8.5t-22.5 -8.5t-13.5 -21.5q-2 -12 5 -20.5t20 -8.5zM141 577
q13 0 23.5 8.5t12.5 20.5q2 13 -5 21.5t-19 8.5q-13 0 -23.5 -8.5t-12.5 -21.5q-2 -12 5 -20.5t19 -8.5z" />
    <glyph glyph-name="oe" unicode="&#x153;" horiz-adv-x="493" 
d="M199 455q77 0 35 -211q-40 -211 -115 -211t-34 211q21 107 47.5 159t66.5 52zM279 223q97 2 153.5 49t56.5 120q0 45 -22 75.5t-60 30.5q-69 0 -116 -84q-13 84 -82 84q-122 0 -170 -254q-50 -254 71 -254q70 0 116 87q16 -89 83 -89q72 0 125 75l-21 26
q-19 -28 -45 -44.5t-45 -16.5q-76 0 -44 195zM396 456q26 0 39 -24t13 -46q0 -54 -47 -89t-115 -35q13 69 42.5 131.5t67.5 62.5z" />
    <glyph glyph-name="tonos" unicode="&#x384;" 
d="M169 561l108 117h-59l-77 -117h28z" />
    <glyph glyph-name="dieresistonos" unicode="&#x385;" 
d="M287 577q-13 0 -20 8.5t-5 20.5q3 13 13.5 21.5t22.5 8.5t19 -8.5t5 -21.5q-2 -12 -12.5 -20.5t-22.5 -8.5zM141 577q-12 0 -19 8.5t-5 20.5q2 13 12.5 21.5t23.5 8.5q12 0 19 -8.5t5 -21.5q-2 -12 -12.5 -20.5t-23.5 -8.5zM192 561l108 117h-59l-77 -117h28z" />
    <glyph glyph-name="Alphatonos" unicode="&#x386;" horiz-adv-x="321" 
d="M225 0l1 176h-145l-68 -176h-45l253 651h52l-1 -651h-47zM227 556l-131 -341h130zM64 552l108 117h-59l-77 -117h28z" />
    <glyph glyph-name="Epsilontonos" unicode="&#x388;" horiz-adv-x="281" 
d="M7 0l127 651h206l-8 -44h-160l-46 -237h113l-9 -44h-112l-55 -282h169l-8 -44h-217zM4 552l108 117h-59l-77 -117h28z" />
    <glyph glyph-name="Etatonos" unicode="&#x389;" horiz-adv-x="357" 
d="M220 0l63 326h-166l-63 -326h-47l127 651h47l-55 -281h165l55 281h47l-126 -651h-47zM4 552l108 117h-59l-77 -117h28z" />
    <glyph glyph-name="Iotatonos" unicode="&#x38a;" horiz-adv-x="159" 
d="M18 0l126 651h46l-127 -651h-45zM4 552l108 117h-59l-77 -117h28z" />
    <glyph glyph-name="Omicrontonos" unicode="&#x38c;" horiz-adv-x="332" 
d="M124 -10q-73 0 -87.5 81.5t21.5 253.5q36 179 79.5 257.5t116.5 78.5q49 0 71 -36.5t20.5 -108.5t-24.5 -191q-35 -178 -79 -256.5t-118 -78.5zM245 620q-47 0 -79.5 -71.5t-61.5 -223.5q-30 -145 -24 -219.5t53 -74.5q46 0 78.5 71t63.5 223q29 146 23 220.5t-53 74.5z
M34 552l108 117h-59l-77 -117h28z" />
    <glyph glyph-name="Upsilontonos" unicode="&#x38e;" horiz-adv-x="322" 
d="M201 289l-56 -289h-47l56 287l-60 364h48l45 -316l168 316h47zM-26 552l108 117h-59l-77 -117h28z" />
    <glyph glyph-name="Omegatonos" unicode="&#x38f;" horiz-adv-x="332" 
d="M194 43h70l-8 -43h-105l12 62q75 42 112 273q57 282 -30 282q-44 0 -76 -67t-62 -215q-45 -224 5 -271l-13 -64h-104l8 43h68q-34 31 -34 116q0 69 21 176q33 170 79.5 248t116.5 78q71 0 87 -78t-17 -248q-23 -115 -50.5 -187.5t-79.5 -104.5zM34 552l108 117h-59
l-77 -117h28z" />
    <glyph glyph-name="iotadieresistonos" unicode="&#x390;" horiz-adv-x="153" 
d="M103 488h45l-80 -419q-5 -16 -2.5 -28.5t19.5 -12.5q18 0 42 18l-10 -41q-27 -15 -45 -15q-51 0 -51 51q0 15 3 32zM220 577q-13 0 -20 8.5t-5 20.5q3 13 13.5 21.5t22.5 8.5t19 -8.5t5 -21.5q-2 -12 -12.5 -20.5t-22.5 -8.5zM74 577q-12 0 -19 8.5t-5 20.5
q2 13 12.5 21.5t23.5 8.5q12 0 19 -8.5t5 -21.5q-2 -12 -12.5 -20.5t-23.5 -8.5zM125 561l108 117h-59l-77 -117h28z" />
    <glyph glyph-name="Alpha" unicode="&#x391;" horiz-adv-x="321" 
d="M226 176l-1 -176h47l1 651h-52l-253 -651h45l68 176h145zM96 215l131 341l-1 -341h-130z" />
    <glyph glyph-name="Beta" unicode="&#x392;" horiz-adv-x="316" 
d="M7 0h93q152 0 187 189q24 120 -51 161q77 35 99 142q15 78 -11 118.5t-102 40.5h-88zM172 607h40q98 0 74 -117q-24 -119 -121 -119h-39zM118 327h36q113 0 85 -141q-15 -73 -44 -107.5t-84 -34.5h-48z" />
    <glyph glyph-name="Gamma" unicode="&#x393;" horiz-adv-x="253" 
d="M172 607l-118 -607h-47l127 651h209l-9 -44h-162z" />
    <glyph glyph-name="Delta" unicode="&#x394;" horiz-adv-x="321" 
d="M221 651l-253 -651h304l1 651h-52zM28 39l200 518l-3 -518h-197z" />
    <glyph glyph-name="Epsilon" unicode="&#x395;" horiz-adv-x="281" 
d="M134 651l-127 -651h217l8 44h-169l55 282h112l9 44h-113l46 237h160l8 44h-206z" />
    <glyph glyph-name="Zeta" unicode="&#x396;" horiz-adv-x="268" 
d="M218 43h-196l314 560l9 48h-224l-9 -43h181l-312 -560l-9 -48h238z" />
    <glyph glyph-name="Eta" unicode="&#x397;" horiz-adv-x="357" 
d="M220 0l63 326h-166l-63 -326h-47l127 651h47l-55 -281h165l55 281h47l-126 -651h-47z" />
    <glyph glyph-name="Theta" unicode="&#x398;" horiz-adv-x="332" 
d="M124 -10q70 0 117.5 81t80.5 255q34 171 18 253t-86 82q-69 0 -117 -81.5t-81 -254.5q-34 -171 -18 -253t86 -82zM245 617q40 0 48 -60t-12 -188h-166q30 129 60.5 188.5t69.5 59.5zM105 326h168q-31 -153 -64 -222.5t-76 -69.5q-42 0 -48.5 71t20.5 221z" />
    <glyph glyph-name="Iota" unicode="&#x399;" horiz-adv-x="159" 
d="M18 0l126 651h46l-127 -651h-45z" />
    <glyph glyph-name="Kappa" unicode="&#x39a;" horiz-adv-x="305" 
d="M210 0l-32 369l-71 -99l-53 -270h-47l127 651h47l-55 -283l203 283h51l-157 -219l37 -432h-50z" />
    <glyph glyph-name="Lambda" unicode="&#x39b;" horiz-adv-x="311" 
d="M223 550l-15 -550h46l13 651h-49l-237 -651h48z" />
    <glyph glyph-name="Mu" unicode="&#x39c;" horiz-adv-x="406" 
d="M386 547l-106 -547h41l127 651h-50l-166 -308l-46 308h-50l-127 -651h41l107 549l51 -326z" />
    <glyph glyph-name="Nu" unicode="&#x39d;" horiz-adv-x="349" 
d="M149 516l71 -516h42l126 651h-42l-100 -517l-71 517h-41l-127 -651h42z" />
    <glyph glyph-name="Xi" unicode="&#x39e;" horiz-adv-x="308" 
d="M2 44l-9 -44h244l8 44h-101l55 282h64l9 44h-64l46 237h91l9 44h-225l-8 -44h86l-46 -237h-59l-9 -44h59l-55 -282h-95z" />
    <glyph glyph-name="Omicron" unicode="&#x39f;" horiz-adv-x="332" 
d="M124 -10q74 0 118 78.5t79 256.5q23 119 24.5 191t-20.5 108.5t-71 36.5q-73 0 -116.5 -78.5t-79.5 -257.5q-36 -172 -21.5 -253.5t87.5 -81.5zM245 620q47 0 53 -74.5t-23 -220.5q-31 -152 -63.5 -223t-78.5 -71q-47 0 -53 74.5t24 219.5q29 152 61.5 223.5t79.5 71.5z
" />
    <glyph glyph-name="Pi" unicode="&#x3a0;" horiz-adv-x="349" 
d="M214 0l119 608h-161l-118 -608h-47l127 651h254l-126 -651h-48z" />
    <glyph glyph-name="Rho" unicode="&#x3a1;" horiz-adv-x="302" 
d="M155 298h-43l-58 -298h-47l127 651h94q66 0 97 -42.5t14 -128.5q-17 -91 -68.5 -136.5t-115.5 -45.5zM218 607h-46l-51 -264h46q47 0 79.5 35.5t44.5 98.5q11 62 -7.5 96t-65.5 34z" />
    <glyph glyph-name="Sigma" unicode="&#x3a3;" horiz-adv-x="268" 
d="M-7 46l-9 -46h215l9 43h-168l135 309l-32 256h155l8 43h-200l-9 -46l30 -253z" />
    <glyph glyph-name="Tau" unicode="&#x3a4;" horiz-adv-x="272" 
d="M238 609l-118 -609h-47l118 609h-99l8 42h245l-8 -42h-99z" />
    <glyph glyph-name="Upsilon" unicode="&#x3a5;" horiz-adv-x="322" 
d="M145 0l56 289l201 362h-47l-168 -316l-45 316h-48l60 -364l-56 -287h47z" />
    <glyph glyph-name="Phi" unicode="&#x3a6;" horiz-adv-x="417" 
d="M192 0l12 60q81 13 132 81.5t76 195.5q49 256 -100 277l7 37h-47l-7 -37q-83 -12 -132.5 -80.5t-74.5 -196.5q-49 -255 99 -277l-11 -60h46zM212 103l92 469q52 -16 66 -70.5t-7 -164.5q-40 -210 -151 -234zM257 572l-91 -469q-53 18 -66.5 72.5t7.5 161.5
q20 107 55.5 162.5t94.5 72.5z" />
    <glyph glyph-name="Chi" unicode="&#x3a7;" horiz-adv-x="287" 
d="M155 266l36 -266h48l-46 339l165 312h-46l-128 -243l-34 243h-48l43 -315l-177 -336h46z" />
    <glyph glyph-name="Psi" unicode="&#x3a8;" horiz-adv-x="407" 
d="M187 0l24 125q69 11 113 55t58 114l69 357h-47l-69 -355q-20 -106 -115 -127l93 482h-46l-94 -482q-84 22 -65 127l69 355h-46l-70 -357q-14 -69 13.5 -113.5t89.5 -55.5l-24 -125h47z" />
    <glyph glyph-name="Omega" unicode="&#x3a9;" horiz-adv-x="332" 
d="M264 43h-70q52 32 79.5 104.5t50.5 187.5q33 170 17 248t-87 78q-70 0 -116.5 -78t-79.5 -248q-21 -107 -21 -176q0 -85 34 -116h-68l-8 -43h104l13 64q-50 47 -5 271q30 148 62 215t76 67q87 0 30 -282q-37 -231 -112 -273l-12 -62h105z" />
    <glyph glyph-name="Iotadieresis" unicode="&#x3aa;" horiz-adv-x="159" 
d="M18 0l126 651h46l-127 -651h-45zM248 695q-12 0 -19 8.5t-5 21.5q2 12 12.5 21t22.5 9q13 0 20 -9t5 -21q-3 -13 -13.5 -21.5t-22.5 -8.5zM103 695q-13 0 -20 8.5t-4 21.5q2 12 12.5 21t22.5 9q13 0 20 -9t4 -21q-2 -13 -12.5 -21.5t-22.5 -8.5z" />
    <glyph glyph-name="Upsilondieresis" unicode="&#x3ab;" horiz-adv-x="322" 
d="M201 289l-56 -289h-47l56 287l-60 364h48l45 -316l168 316h47zM330 695q-12 0 -19 8.5t-5 21.5q2 12 12.5 21t22.5 9q13 0 20 -9t5 -21q-3 -13 -13.5 -21.5t-22.5 -8.5zM185 695q-13 0 -20 8.5t-4 21.5q2 12 12.5 21t22.5 9q13 0 20 -9t4 -21q-2 -13 -12.5 -21.5
t-22.5 -8.5z" />
    <glyph glyph-name="alphatonos" unicode="&#x3ac;" horiz-adv-x="299" 
d="M232 561l108 117h-59l-77 -117h28zM24 247q24 120 66.5 185t116.5 65q46 0 89 -21l-92 -476h-45l7 31q-40 -35 -83 -35q-56 0 -70 64.5t11 186.5zM71 249q-22 -103 -17 -157t44 -54q31 0 75 33l75 371q-27 17 -52 17q-26 0 -49 -23.5t-38 -60.5t-24 -67.5t-14 -58.5z" />
    <glyph glyph-name="epsilontonos" unicode="&#x3ad;" horiz-adv-x="259" 
d="M100 -10q-111 0 -82 149q18 94 87 129q-32 14 -38 46.5t4 70.5q7 41 42 77.5t82 36.5t67 -25t27 -76l-44 -19q-4 79 -55 79q-24 0 -45 -23t-27 -52q-11 -53 3 -77t54 -24h27l-7 -36h-14q-95 0 -116 -109q-4 -19 -4 -41q0 -29 12.5 -48t35.5 -19q51 0 85 78l35 -15
q-55 -102 -129 -102zM211 561l108 117h-59l-77 -117h28z" />
    <glyph glyph-name="etatonos" unicode="&#x3ae;" horiz-adv-x="301" 
d="M175 0l72 369q10 46 1 67.5t-41 21.5q-34 0 -78 -34l-82 -424h-46l95 488h46l-4 -19q55 31 97 31q44 0 57 -31t1 -96l-72 -373h-46zM197 561l108 117h-59l-77 -117h28z" />
    <glyph glyph-name="iotatonos" unicode="&#x3af;" horiz-adv-x="153" 
d="M103 488h45l-80 -419q-5 -16 -2.5 -28.5t19.5 -12.5q18 0 42 18l-10 -41q-27 -15 -45 -15q-51 0 -51 51q0 15 3 32zM139 561l108 117h-59l-77 -117h28z" />
    <glyph glyph-name="upsilondieresistonos" unicode="&#x3b0;" horiz-adv-x="301" 
d="M296 577q-13 0 -20 8.5t-5 20.5q3 13 13.5 21.5t22.5 8.5t19 -8.5t5 -21.5q-2 -12 -12.5 -20.5t-22.5 -8.5zM150 577q-12 0 -19 8.5t-5 20.5q2 13 12.5 21.5t23.5 8.5q12 0 19 -8.5t5 -21.5q-2 -12 -12.5 -20.5t-23.5 -8.5zM201 561l108 117h-59l-77 -117h28zM197 120
q-8 -42 -30 -65.5t-54 -23.5q-31 0 -42.5 24t-2.5 65l72 368h-46l-72 -372q-11 -58 14 -92t72 -34q48 0 84.5 33.5t48.5 92.5l75 382l-48 -21z" />
    <glyph glyph-name="alpha" unicode="&#x3b1;" 
d="M24 247q-25 -122 -11 -186.5t70 -64.5q43 0 83 35l-7 -31h45l92 476q-43 21 -89 21q-74 0 -116.5 -65t-66.5 -185zM71 249q5 28 14 58.5t24 67.5t38 60.5t49 23.5q25 0 52 -17l-75 -371q-44 -33 -75 -33q-39 0 -44 54t17 157z" />
    <glyph glyph-name="beta" unicode="&#x3b2;" horiz-adv-x="319" 
d="M123 -8q59 0 98 50.5t60 164.5q15 75 5.5 117.5t-45.5 70.5q37 25 53.5 52.5t26.5 76.5q15 76 -6.5 113.5t-71.5 37.5q-109 0 -139 -152l-127 -653l51 27l24 125q32 -30 57 -30h14zM150 368h20q15 0 26.5 -3t23.5 -13.5t17.5 -27.5t5.5 -47.5t-8 -71.5
q-33 -172 -108 -172q-32 0 -66 34l89 459q22 106 82 106q30 0 40.5 -27.5t-0.5 -81.5q-11 -60 -35.5 -90t-79.5 -30z" />
    <glyph glyph-name="gamma" unicode="&#x3b3;" horiz-adv-x="273" 
d="M121 8l-30 -154l-50 -28l34 177l-4 485h49l-7 -405l151 405h48z" />
    <glyph glyph-name="delta" unicode="&#x3b4;" horiz-adv-x="304" 
d="M110 -10q59 0 103 61.5t66 174.5q30 148 -26 213q-6 7 -24.5 25t-27 28.5t-15 31.5t-1.5 45q6 30 28 47.5t52 17.5q17 0 41 -5l8 40q-23 6 -49 6q-50 0 -84.5 -31t-43.5 -80q-14 -66 37 -113q-107 -47 -142 -225q-22 -109 -1.5 -172.5t79.5 -63.5zM244 350
q6 -46 -11 -124q-35 -193 -114 -193q-77 0 -41 193q18 90 47.5 137t65.5 47q5 0 16 -3q29 -32 37 -57z" />
    <glyph glyph-name="epsilon" unicode="&#x3b5;" horiz-adv-x="259" 
d="M100 -10q74 0 129 102l-35 15q-34 -78 -85 -78q-23 0 -35.5 19t-12.5 48q0 22 4 41q21 109 116 109h14l7 36h-27q-40 0 -54 24t-3 77q6 29 27 52t45 23q51 0 55 -79l44 19q-7 51 -27 76t-67 25t-82 -36.5t-42 -77.5q-10 -38 -4 -70.5t38 -46.5q-69 -35 -87 -129
q-29 -149 82 -149z" />
    <glyph glyph-name="zeta" unicode="&#x3b6;" horiz-adv-x="255" 
d="M64 189q18 91 107.5 214.5t183.5 214.5l8 42h-238l-8 -39h196q-117 -109 -195 -229t-96 -204q-31 -171 134 -187l-25 -130l51 27l27 143h-33q-62 0 -94 37t-18 111z" />
    <glyph glyph-name="eta" unicode="&#x3b7;" horiz-adv-x="301" 
d="M175 0l72 369q10 46 1 67.5t-41 21.5q-34 0 -78 -34l-82 -424h-46l95 488h46l-4 -19q55 31 97 31q44 0 57 -31t1 -96l-72 -373h-46z" />
    <glyph glyph-name="theta" unicode="&#x3b8;" horiz-adv-x="327" 
d="M120 -14q133 0 199 342q33 174 15.5 258.5t-81.5 84.5q-132 0 -199 -343q-66 -342 66 -342zM244 628q40 0 50.5 -68.5t-10.5 -166.5l-4 -21h-170l4 21q19 101 54.5 168t75.5 67zM102 332h171q-28 -150 -62.5 -226.5t-81.5 -76.5q-45 0 -50 80.5t23 222.5z" />
    <glyph glyph-name="iota" unicode="&#x3b9;" horiz-adv-x="153" 
d="M103 488h45l-80 -419q-5 -16 -2.5 -28.5t19.5 -12.5q18 0 42 18l-10 -41q-27 -15 -45 -15q-51 0 -51 51q0 15 3 32z" />
    <glyph glyph-name="kappa" unicode="&#x3ba;" horiz-adv-x="278" 
d="M158 276l26 -276h45l-29 333l114 156h-52l-165 -233l46 233h-46l-95 -489h46l33 171z" />
    <glyph glyph-name="lambda" unicode="&#x3bb;" horiz-adv-x="303" 
d="M277 -7l19 35q-61 35 -61 116l-19 396q-2 49 -26.5 80.5t-81.5 54.5l-22 -37q83 -35 83 -112l2 -60l-207 -466h49l163 367q14 -197 14 -231v-10t1 -15.5t3 -17t7 -23t13 -25.5q20 -36 63 -52z" />
    <glyph glyph-name="nu" unicode="&#x3bd;" horiz-adv-x="273" 
d="M72 0h49l196 488h-48l-158 -415l4 415h-49z" />
    <glyph glyph-name="xi" unicode="&#x3be;" horiz-adv-x="259" 
d="M283 556q-4 78 -56 78q-25 0 -47.5 -33t-31.5 -75q-13 -63 -2 -95t52 -32h56l-8 -40h-49q-54 0 -86 -50.5t-41 -102.5q-33 -161 86 -161h44l-28 -147l-51 -27l26 130q-48 0 -78 16.5t-40.5 45t-12.5 65t7 77.5q9 45 38.5 99t76.5 75q-35 13 -43 53t4 93q12 56 48 102.5
t85 46.5q47 0 67.5 -25t27.5 -75z" />
    <glyph glyph-name="omicron" unicode="&#x3bf;" horiz-adv-x="304" 
d="M110 -10q121 0 170 254t-71 254q-122 0 -170 -254q-50 -254 71 -254zM199 455q77 0 35 -211q-40 -211 -115 -211t-34 211q21 107 47.5 159t66.5 52z" />
    <glyph glyph-name="pi" unicode="&#x3c0;" horiz-adv-x="301" 
d="M176 0l87 448h-128l-87 -448h-46l95 488h219l-94 -488h-46z" />
    <glyph glyph-name="rho" unicode="&#x3c1;" horiz-adv-x="299" 
d="M123 -6q56 0 93.5 62t62.5 191q48 251 -64 251q-81 0 -125 -101q-8 -18 -15 -40.5t-10 -36t-8.5 -43t-7.5 -38.5l-80 -413l50 27l33 171q35 -30 57 -30h14zM196 457q77 0 36 -211q-19 -99 -43 -155t-62 -56q-33 0 -66 34l36 183q23 115 46.5 160t52.5 45z" />
    <glyph glyph-name="sigma1" unicode="&#x3c2;" horiz-adv-x="256" 
d="M74 -10q69 0 109 38.5t40 106.5q0 60 -57 126q-19 21 -29 33.5t-20.5 34t-10.5 41.5q0 32 21.5 59.5t52.5 27.5q34 0 69 -48l23 43q-30 46 -85 46q-61 0 -95 -41.5t-34 -100.5q1 -55 64 -126q51 -58 51 -100q-1 -44 -24.5 -72t-67.5 -28q-36 0 -73 24l-24 -44
q35 -20 90 -20z" />
    <glyph glyph-name="sigma" unicode="&#x3c3;" horiz-adv-x="311" 
d="M273 449h75l7 38h-153q-56 0 -99.5 -62t-67.5 -187q-48 -248 74 -248t172 248q10 50 14 80t-0.5 67.5t-21.5 63.5zM199 444q41 0 49 -52t-13 -154q-21 -105 -48 -155t-68 -50t-50 51t12 154q21 105 49 155.5t69 50.5z" />
    <glyph glyph-name="tau" unicode="&#x3c4;" horiz-adv-x="209" 
d="M247 448l7 39h-192l-8 -39h67l-73 -375q-7 -36 5.5 -59.5t47.5 -23.5q22 0 50 15l10 39q-35 -18 -42 -18q-22 0 -28 11.5t1 31.5l73 379h82z" />
    <glyph glyph-name="upsilon" unicode="&#x3c5;" horiz-adv-x="301" 
d="M241 116l75 382l-48 -21l-71 -357q-8 -42 -30 -65.5t-54 -23.5q-31 0 -42.5 24t-2.5 65l72 368h-46l-72 -372q-11 -58 14 -92t72 -34q48 0 84.5 33.5t48.5 92.5z" />
    <glyph glyph-name="phi" unicode="&#x3c6;" horiz-adv-x="369" 
d="M137 -146l28 139q46 3 81 29t55 70t30 77.5t18 76.5q23 128 3.5 189t-78.5 60q-23 -1 -57 -1l-89 -459q-46 12 -56.5 65t9.5 146q28 144 82 192l-8 41q-86 -62 -120 -233q-8 -43 -11 -74.5t0.5 -74.5t27.5 -70t68 -34l-33 -167zM173 35l81 417q48 -9 59 -61t-10 -145
q-35 -206 -130 -211z" />
    <glyph glyph-name="chi" unicode="&#x3c7;" horiz-adv-x="282" 
d="M141 210l50 -210h47l-63 264l140 224h-46l-107 -172l-41 172h-46l54 -225l-164 -263h45z" />
    <glyph glyph-name="psi" unicode="&#x3c8;" horiz-adv-x="374" 
d="M137 -147l27 139q130 11 155 136l72 374l-50 -27l-66 -342q-21 -90 -102 -101l104 533l-51 -27l-98 -507q-75 16 -59 102l69 354h-45l-69 -359q-11 -55 14.5 -92.5t81.5 -43.5l-32 -165z" />
    <glyph glyph-name="omega" unicode="&#x3c9;" horiz-adv-x="440" 
d="M262 -10q-19 0 -30 2t-25.5 15.5t-19.5 39.5q-40 -57 -92 -57q-107 0 -59 251q40 205 135 247l7 -35q-34 -22 -56.5 -72t-39.5 -140q-22 -100 -18 -154t40 -54q59 0 91 162l24 129h47l-25 -129q-4 -22 -6.5 -44.5t-2.5 -51.5t10 -47.5t29 -18.5q36 0 58 49.5t44 158.5
q18 90 14.5 139.5t-29.5 71.5l19 37q81 -39 41 -248q-48 -251 -156 -251z" />
    <glyph glyph-name="iotadieresis" unicode="&#x3ca;" horiz-adv-x="153" 
d="M103 488h45l-80 -419q-5 -16 -2.5 -28.5t19.5 -12.5q18 0 42 18l-10 -41q-27 -15 -45 -15q-51 0 -51 51q0 15 3 32zM212 577q-13 0 -20 8.5t-5 20.5q3 13 13.5 21.5t22.5 8.5t19 -8.5t5 -21.5q-2 -12 -12.5 -20.5t-22.5 -8.5zM66 577q-12 0 -19 8.5t-5 20.5
q2 13 12.5 21.5t23.5 8.5q12 0 19 -8.5t5 -21.5q-2 -12 -12.5 -20.5t-23.5 -8.5z" />
    <glyph glyph-name="upsilondieresis" unicode="&#x3cb;" horiz-adv-x="301" 
d="M296 577q12 0 22.5 8.5t12.5 20.5q2 13 -5 21.5t-19 8.5t-22.5 -8.5t-13.5 -21.5q-2 -12 5 -20.5t20 -8.5zM150 577q13 0 23.5 8.5t12.5 20.5q2 13 -5 21.5t-19 8.5q-13 0 -23.5 -8.5t-12.5 -21.5q-2 -12 5 -20.5t19 -8.5zM197 120q-8 -42 -30 -65.5t-54 -23.5
q-31 0 -42.5 24t-2.5 65l72 368h-46l-72 -372q-11 -58 14 -92t72 -34q48 0 84.5 33.5t48.5 92.5l75 382l-48 -21z" />
    <glyph glyph-name="omicrontonos" unicode="&#x3cc;" horiz-adv-x="304" 
d="M110 -10q-121 0 -71 254q48 254 170 254q120 0 71 -254t-170 -254zM199 455q-40 0 -66.5 -52t-47.5 -159q-41 -211 34 -211t115 211q42 211 -35 211zM218 561l108 117h-59l-77 -117h28z" />
    <glyph glyph-name="upsilontonos" unicode="&#x3cd;" horiz-adv-x="301" 
d="M219 561l108 117h-59l-77 -117h28zM197 120q-8 -42 -30 -65.5t-54 -23.5q-31 0 -42.5 24t-2.5 65l72 368h-46l-72 -372q-11 -58 14 -92t72 -34q48 0 84.5 33.5t48.5 92.5l75 382l-48 -21z" />
    <glyph glyph-name="omegatonos" unicode="&#x3ce;" horiz-adv-x="440" 
d="M291 582h-25l77 117h54zM262 -10q-19 0 -30 2t-25.5 15.5t-19.5 39.5q-40 -57 -92 -57q-107 0 -59 251q40 205 135 247l7 -35q-34 -22 -56.5 -72t-39.5 -140q-22 -100 -18 -154t40 -54q59 0 91 162l24 129h47l-25 -129q-4 -22 -6.5 -44.5t-2.5 -51.5t10 -47.5t29 -18.5
q36 0 58 49.5t44 158.5q18 90 14.5 139.5t-29.5 71.5l19 37q81 -39 41 -248q-48 -251 -156 -251z" />
    <glyph glyph-name="endash" unicode="&#x2013;" horiz-adv-x="350" 
d="M56 352l-10 -40h293l10 40h-293z" />
    <glyph glyph-name="emdash" unicode="&#x2014;" horiz-adv-x="700" 
d="M56 352l-10 -40h643l10 40h-643z" />
    <glyph glyph-name="uni2015" unicode="&#x2015;" horiz-adv-x="700" 
d="M56 352l-10 -40h643l10 40h-643z" />
    <glyph glyph-name="quoteleft" unicode="&#x2018;" horiz-adv-x="150" 
d="M173 633l-17 12q-46 -43 -53 -77q-4 -24 3 -40t27 -16q16 0 29.5 10.5t16.5 27.5q5 15 -5 27.5t-37 9.5q12 25 36 46z" />
    <glyph glyph-name="quoteright" unicode="&#x2019;" horiz-adv-x="150" 
d="M117 523l17 -11q45 41 53 77q4 23 -3 39.5t-27 16.5q-16 0 -29.5 -11t-16.5 -28q-3 -16 6.5 -27.5t35.5 -8.5q-13 -27 -36 -47z" />
    <glyph glyph-name="quotedblleft" unicode="&#x201c;" horiz-adv-x="254" 
d="M173 633l-17 12q-46 -43 -53 -77q-4 -24 3 -40t27 -16q16 0 29.5 10.5t16.5 27.5q5 15 -5 27.5t-37 9.5q12 25 36 46zM284 633l-16 12q-48 -45 -53 -77q-6 -23 1.5 -39.5t27.5 -16.5q16 0 29.5 10.5t16.5 27.5q5 15 -5 27.5t-37 9.5q12 25 36 46z" />
    <glyph glyph-name="quotedblright" unicode="&#x201d;" horiz-adv-x="254" 
d="M228 523l17 -11q45 41 53 77q4 23 -3 39.5t-27 16.5q-16 0 -29.5 -11t-16.5 -28q-3 -16 6.5 -27.5t35.5 -8.5q-10 -25 -36 -47zM117 523l17 -11q45 41 53 77q4 23 -3 39.5t-27 16.5q-16 0 -29.5 -11t-16.5 -28q-3 -16 6.5 -27.5t35.5 -8.5q-13 -27 -36 -47z" />
    <glyph glyph-name="dagger" unicode="&#x2020;" horiz-adv-x="303" 
d="M117 -73l95 489h124l7 37h-123l38 198h-40l-39 -198h-118l-8 -37h119l-95 -489h40z" />
    <glyph glyph-name="bullet" unicode="&#x2022;" horiz-adv-x="257" 
d="M128 386q-28 0 -47.5 -20.5t-19.5 -48.5t20 -49t47 -21q28 0 48 21t20 49t-19.5 48.5t-48.5 20.5z" />
    <glyph glyph-name="ellipsis" unicode="&#x2026;" horiz-adv-x="530" 
d="M15 30q-3 -16 6 -27t25 -11q15 0 28 11t16 27q3 15 -5.5 26t-24.5 11t-29 -11t-16 -26zM185 30q-3 -16 6 -27t25 -11q15 0 28 11t16 27q3 15 -5.5 26t-24.5 11q-15 0 -28.5 -11t-16.5 -26zM360 30q-3 -16 6 -27t24 -11q16 0 29 11t16 27q3 15 -5.5 26t-24.5 11t-29 -11
t-16 -26z" />
    <glyph glyph-name="perthousand" unicode="&#x2030;" horiz-adv-x="865" 
d="M681 -8q-52 0 -69 50t1 136q18 87 53.5 137t87.5 50t69 -50.5t-1 -136.5q-37 -186 -141 -186zM419 -8q-105 0 -68 186q16 86 52.5 136.5t87.5 50.5q52 0 69 -50.5t-1 -136.5q-37 -186 -140 -186zM93 0h-50l508 651h51zM157 287q-105 0 -68 187q16 86 52.5 136.5
t87.5 50.5q105 0 68 -187q-38 -187 -140 -187zM745 325q-54 0 -82 -147q-29 -145 27 -145q52 0 82 145q28 147 -27 147zM482 325q-54 0 -82 -147q-29 -145 27 -145q52 0 82 145q29 147 -27 147zM220 620q-53 0 -82 -146t27 -146q53 0 82 146t-27 146z" />
    <glyph glyph-name="Euro" unicode="&#x20ac;" horiz-adv-x="306" 
d="M313 504l46 22q-5 135 -93 135q-60 0 -103.5 -67t-78.5 -213h-31l-28 -36h51l-4 -19l-5 -31h-31l-27 -35h52q-14 -95 -10.5 -155t24 -87.5t59.5 -27.5q50 0 85 34.5t62 97.5l-40 19q-22 -56 -44 -82.5t-50 -26.5q-38 0 -47 55t9 173h129l27 35h-150l6 30l4 20h129l28 36
h-150q29 121 58.5 179t66.5 58q31 0 44.5 -25t11.5 -89z" />
    <glyph glyph-name="trademark" unicode="&#x2122;" horiz-adv-x="402" 
d="M344 557v-274h34v368h-37l-55 -172l-54 172h-37v-368h33v275l58 -180zM102 284v335h59v32h-151v-32h58v-335h34z" />
    <glyph glyph-name="CR" horiz-adv-x="500" 
 />
  </font>
</defs>
</svg>
