<?xml version="1.0" standalone="no"?>
<!DOCTYPE svg PUBLIC "-//W3C//DTD SVG 1.1//EN" "http://www.w3.org/Graphics/SVG/1.1/DTD/svg11.dtd" >
<svg xmlns="http://www.w3.org/2000/svg" xmlns:xlink="http://www.w3.org/1999/xlink" version="1.1">
<metadata>
Created by FontForge 20170731 at Wed May 23 17:03:32 2007
 By Aleksey,,,
Copyright (c) 2007 Luc(as) de Groot, published by LucasFonts, www.lucasfonts.com   All rights reserved
</metadata>
<defs>
<font id="TheSansAmstel-Black" horiz-adv-x="550" >
  <font-face 
    font-family="TheSansAmstel Black"
    font-weight="900"
    font-stretch="normal"
    units-per-em="1000"
    panose-1="2 11 10 2 5 3 2 2 2 3"
    ascent="740"
    descent="-260"
    x-height="497"
    cap-height="675"
    bbox="-165 -316.683 2017 980"
    underline-thickness="148"
    underline-position="-464"
    unicode-range="U+000D-FB04"
  />
<missing-glyph 
d="M300 150h-150v250h50v-200h100v-50zM500 50h-450v450h450v-450zM350 350h-100v50h150v-250h-50v100h-100v50h100v50zM100 100h350v350h-350v-350z" />
    <glyph glyph-name="ellipsis" unicode="&#x2e;&#x2e;&#x2e;" horiz-adv-x="808" 
d="M768 90q0 -43 -30.5 -73.5t-73.5 -30.5t-73.5 30.5t-30.5 73.5t30.5 73.5t73.5 30.5t73.5 -30.5t30.5 -73.5zM508 90q0 -43 -30.5 -73.5t-73.5 -30.5t-73.5 30.5t-30.5 73.5t30.5 73.5t73.5 30.5t73.5 -30.5t30.5 -73.5zM248 90q0 -43 -30.5 -73.5t-73.5 -30.5
t-73.5 30.5t-30.5 73.5t30.5 73.5t73.5 30.5t73.5 -30.5t30.5 -73.5z" />
    <glyph glyph-name="f_b" unicode="fb" horiz-adv-x="886" 
d="M861 277q0 -125 -73 -207.5t-205 -82.5q-111 0 -209 28v574q-20 4 -46 4q-34 0 -53.5 -16.5t-19.5 -47.5v-32h73v-140h-73v-357h-182v357h-63v140h63v35q0 96 64.5 153.5t205.5 57.5q81 0 213 -21v-166q0 -56 -7 -103h1q37 56 129 56q89 0 135.5 -62t46.5 -170zM669 258
q0 53 -12 76t-37 23q-27 0 -45.5 -30t-18.5 -85v-105q16 -4 35 -4q78 0 78 125z" />
    <glyph glyph-name="f_h" unicode="fh" horiz-adv-x="887" 
d="M844 0h-182v314q0 41 -28 41q-30 0 -54 -36t-24 -78v-241h-182v589q-20 4 -46 4q-34 0 -53.5 -16.5t-19.5 -47.5v-32h73v-140h-73v-357h-182v357h-63v140h63v35q0 96 64.5 153.5t205.5 57.5q81 0 213 -21v-174q0 -61 -9 -103h1q50 64 149 64q77 0 112 -43.5t35 -113.5
v-352z" />
    <glyph glyph-name="f_j" unicode="fj" horiz-adv-x="599" 
d="M556 -11q0 -228 -224 -228q-37 0 -74 10l9 153q28 -11 55 -11q52 0 52 55v389h-119v-357h-182v357h-63v140h63v12q0 119 64.5 176.5t200.5 57.5q86 0 175 -19l-29 -151q-66 19 -123 19q-56 0 -81 -18.5t-25 -58.5v-18h301v-508z" />
    <glyph glyph-name="f_k" unicode="fk" horiz-adv-x="892" 
d="M374 589q-20 4 -46 4q-34 0 -53.5 -16.5t-19.5 -47.5v-32h73v-140h-73v-357h-182v357h-63v140h63v35q0 96 64.5 153.5t205.5 57.5q81 0 213 -21v-416l102 191h224l-151 -228l161 -269h-225l-111 230v-230h-182v589z" />
    <glyph glyph-name="ff" unicode="ff" horiz-adv-x="662" 
d="M664 733l-11 -148q-20 8 -46 8q-27 0 -39 -11t-12 -38v-47h85v-140h-85v-357h-182v357h-119v-357h-182v357h-63v140h63v22q0 213 255 213q69 0 128 -16q43 25 128 25q45 0 80 -8zM375 576q-22 7 -53 7q-67 0 -67 -60v-26h119v46q0 22 1 33z" />
    <glyph glyph-name="fi" unicode="fi" horiz-adv-x="603" 
d="M556 0h-182v357h-119v-357h-182v357h-63v140h63v12q0 118 64 175t201 57q86 0 175 -19l-29 -151q-66 19 -123 19t-81.5 -17.5t-24.5 -57.5v-18h301v-497z" />
    <glyph glyph-name="fl" unicode="fl" horiz-adv-x="603" 
d="M556 0h-182v587q-20 4 -46 4q-73 0 -73 -62v-32h73v-140h-73v-357h-182v357h-63v140h63v35q0 96 64.5 152.5t205.5 56.5q81 0 213 -21v-720z" />
    <glyph glyph-name="ffi" unicode="ffi" horiz-adv-x="904" 
d="M857 0h-182v357h-119v-357h-182v357h-119v-357h-182v357h-63v140h63v22q0 213 257 213q72 0 146 -21q61 32 169 32q83 0 181 -19l-31 -151q-76 19 -129 19q-57 0 -83.5 -18.5t-26.5 -58.5v-18h301v-497zM380 575q-24 8 -58 8q-67 0 -67 -60v-26h119v12q0 36 6 66z" />
    <glyph glyph-name="ffl" unicode="ffl" horiz-adv-x="904" 
d="M857 0h-182v589q-20 4 -46 4q-34 0 -53.5 -16.5t-19.5 -47.5v-32h73v-140h-73v-357h-182v357h-119v-357h-182v357h-63v140h63v22q0 213 257 213q74 0 148 -21q64 32 166 32q81 0 213 -21v-722zM377 576q-23 7 -55 7q-67 0 -67 -60v-26h119v35q0 22 3 44z" />
    <glyph glyph-name=".notdef" 
d="M300 150h-150v250h50v-200h100v-50zM500 50h-450v450h450v-450zM350 350h-100v50h150v-250h-50v100h-100v50h100v50zM100 100h350v350h-350v-350z" />
    <glyph glyph-name=".null" horiz-adv-x="0" 
 />
    <glyph glyph-name=".null" horiz-adv-x="0" 
 />
    <glyph glyph-name="nonmarkingreturn" horiz-adv-x="333" 
 />
    <glyph glyph-name="CR" unicode="&#xd;" horiz-adv-x="500" 
 />
    <glyph glyph-name="space" unicode=" " horiz-adv-x="218" 
 />
    <glyph glyph-name="exclam" unicode="!" horiz-adv-x="324" 
d="M276 715l-25 -499h-160l-28 499h213zM272 86q0 -42 -30 -71t-74 -29t-74 29t-30 71t30 71t74 29t74 -29t30 -71z" />
    <glyph glyph-name="quotedbl" unicode="&#x22;" horiz-adv-x="461" 
d="M429 707l-20 -290h-137l-20 290h177zM209 707l-20 -290h-137l-20 290h177z" />
    <glyph glyph-name="numbersign" unicode="#" horiz-adv-x="591" 
d="M571 385h-76l-10 -94h63v-129h-76l-17 -162h-144l17 162h-101l-17 -162h-144l17 162h-62v129h75l10 94h-62v129h75l17 161h144l-17 -161h101l17 161h144l-17 -161h63v-129zM351 385h-101l-10 -94h101z" />
    <glyph glyph-name="dollar" unicode="$" horiz-adv-x="500" 
d="M590 241q0 -109 -67.5 -174.5t-209.5 -77.5l-21 -140h-119l22 142q-58 2 -130 20l16 176q67 -24 138 -35l17 112q-206 31 -206 192q0 95 65 159t206 73l15 104h119l-16 -107q41 -3 101 -15l-19 -145q-64 16 -104 18l-18 -119q94 -16 152.5 -63t58.5 -120zM278 541
q-66 -4 -66 -51q0 -21 11.5 -30.5t40.5 -14.5zM403 198q0 40 -51 48l-15 -101q66 3 66 53z" />
    <glyph glyph-name="percent" unicode="%" horiz-adv-x="775" 
d="M745 157q0 -76 -50 -123.5t-117 -47.5q-73 0 -116 43.5t-43 117.5t49 120.5t117 46.5q70 0 115 -39.5t45 -117.5zM695 617l-507 -642l-112 82l507 642zM356 533q0 -76 -50 -123.5t-117 -47.5q-73 0 -116 43.5t-43 117.5t49 120.5t117 46.5q70 0 115 -39.5t45 -117.5z
M615 151q0 32 -8 43t-23 11q-14 0 -24 -14t-10 -41q0 -55 32 -55q13 0 23 14.5t10 41.5zM226 527q0 32 -8 43t-23 11q-14 0 -24 -14t-10 -41q0 -55 32 -55q13 0 23 14.5t10 41.5z" />
    <glyph glyph-name="ampersand" unicode="&#x26;" horiz-adv-x="800" 
d="M777 109l-121 -138q-86 59 -130 91q-113 -76 -252 -76q-122 0 -180.5 59t-58.5 145q0 107 108 194q-73 90 -73 172q0 79 61 132t168 53q98 0 151.5 -43.5t53.5 -120.5q0 -99 -112 -189q57 -47 125 -96v-1q48 83 48 183h180q0 -158 -88 -282q76 -54 120 -83zM324 567
q0 17 -9.5 28t-26.5 11q-16 0 -27 -11.5t-11 -28.5q0 -36 33 -75q41 39 41 76zM389 163q-67 50 -136 111q-28 -31 -28 -63q0 -27 20.5 -48t56.5 -21q45 0 87 21z" />
    <glyph glyph-name="quotesingle" unicode="'" horiz-adv-x="241" 
d="M209 707l-20 -290h-137l-20 290h177z" />
    <glyph glyph-name="parenleft" unicode="(" horiz-adv-x="310" 
d="M317 -162l-141 -61q-150 235 -150 509q0 275 151 509l136 -59q-107 -200 -107 -446q0 -247 111 -452z" />
    <glyph glyph-name="parenright" unicode=")" horiz-adv-x="310" 
d="M283 286q0 -276 -152 -509l-136 59q108 199 108 446q0 245 -109 452l141 61q148 -237 148 -509z" />
    <glyph glyph-name="asterisk" unicode="*" horiz-adv-x="400" 
d="M380 526l-63 -108l-77 71l23 -103h-126l23 103l-78 -70l-62 107l100 32l-100 32l63 108l77 -71l-23 103h125l-22 -103l77 71l63 -108l-100 -32z" />
    <glyph glyph-name="plus" unicode="+" 
d="M515 222h-153v-166h-174v166h-153v152h153v164h174v-164h153v-152z" />
    <glyph glyph-name="comma" unicode="," horiz-adv-x="300" 
d="M150 200q63 0 94 -59q38 -74 -8 -176q-39 -87 -133 -165l-73 65q55 59 63 95.5t-25 72.5q-19 21 -22.5 50t6.5 55t36 44t62 18z" />
    <glyph glyph-name="hyphen" unicode="-" horiz-adv-x="340" 
d="M300 191h-260v145h260v-145z" />
    <glyph glyph-name="period" unicode="." horiz-adv-x="300" 
d="M260 96q0 -45 -32.5 -77.5t-77.5 -32.5t-77.5 32.5t-32.5 77.5t32.5 77.5t77.5 32.5t77.5 -32.5t32.5 -77.5z" />
    <glyph glyph-name="slash" unicode="/" horiz-adv-x="500" 
d="M503 757l-350 -918h-184l351 918h183z" />
    <glyph glyph-name="zero" unicode="0" horiz-adv-x="594" 
d="M576 346q0 -169 -84 -262.5t-204 -93.5q-270 0 -270 338q0 169 84 262.5t204 93.5q270 0 270 -338zM381 337q0 105 -19 149.5t-62 44.5q-87 0 -87 -194q0 -105 19 -149.5t62 -44.5q87 0 87 194z" />
    <glyph glyph-name="one" unicode="1" horiz-adv-x="370" 
d="M322 0h-189v483l-99 -39l-26 174l172 57h142v-675z" />
    <glyph glyph-name="two" unicode="2" horiz-adv-x="495" 
d="M465 0h-431v156l66 69q147 153 147 229q0 28 -17.5 45t-49.5 17q-61 0 -114 -35l-28 166q84 40 194 40q108 0 164 -56t56 -143q0 -136 -152 -295l-18 -19l1 -1q84 5 182 5v-178z" />
    <glyph glyph-name="three" unicode="3" horiz-adv-x="450" 
d="M430 220q0 -106 -81 -169t-211 -63q-70 0 -118 15l17 156q41 -14 101 -14q44 0 69.5 17.5t25.5 46.5q0 61 -98 61q-44 0 -80 -6v145q61 -2 100 10t51 27t12 32q0 53 -70 53q-51 0 -102 -24l-15 149q76 31 170 31q98 0 154 -46.5t56 -122.5q0 -51 -27.5 -88.5t-72.5 -53.5
l-2 -3q58 -15 89.5 -57.5t31.5 -95.5z" />
    <glyph glyph-name="four" unicode="4" horiz-adv-x="569" 
d="M554 134h-85v-134h-179v134h-259l-14 147l208 394h244v-374h85v-167zM294 297v214h-1l-107 -215q22 1 108 1z" />
    <glyph glyph-name="five" unicode="5" horiz-adv-x="458" 
d="M434 237q0 -113 -86 -179.5t-224 -66.5q-56 0 -100 10l16 160q33 -11 91 -11q52 0 80.5 20.5t28.5 52.5q0 67 -120 67q-44 0 -76 -6v391h365v-173l-194 2v-71q99 0 159 -51.5t60 -144.5z" />
    <glyph glyph-name="six" unicode="6" horiz-adv-x="580" 
d="M559 239q0 -117 -76.5 -185t-200.5 -68q-112 0 -181 75t-69 224q0 185 100.5 292t258.5 107q71 0 104 -5v-163q-48 12 -101 12q-52 0 -95 -22.5t-64 -70.5q-2 -4 -4.5 -12t-3.5 -11h1q53 29 121 29q98 0 154 -55.5t56 -146.5zM366 215q0 74 -68 74q-31 0 -49.5 -19
t-18.5 -47q0 -79 65 -79q35 0 53 20t18 51z" />
    <glyph glyph-name="seven" unicode="7" horiz-adv-x="464" 
d="M447 518q-98 -225 -151 -518h-202q22 123 65 266t82 233q-141 -3 -224 -3v179h430v-157z" />
    <glyph glyph-name="eight" unicode="8" horiz-adv-x="566" 
d="M544 197q0 -103 -79.5 -157.5t-194.5 -54.5q-114 0 -181 51t-67 140q0 97 101 160q-41 22 -65 60.5t-24 84.5q0 96 74 153t187 57q104 0 169.5 -50t65.5 -126q0 -90 -93 -157q107 -61 107 -161zM344 500q0 18 -15 31t-47 13q-31 0 -47 -13t-16 -34q0 -35 70 -68
q55 33 55 71zM355 188q0 39 -85 76q-58 -36 -58 -72q0 -26 19.5 -41.5t52.5 -15.5q32 0 51.5 15.5t19.5 37.5z" />
    <glyph glyph-name="nine" unicode="9" horiz-adv-x="580" 
d="M550 392q0 -89 -20.5 -160.5t-63.5 -127t-116 -85.5t-172 -30q-57 0 -101 8v162q46 -15 113 -15q94 0 132 61q7 12 16 48h-1q-33 -31 -109 -31q-94 0 -149 57t-55 156q0 111 75 182t191 71q121 0 190.5 -74t69.5 -222zM346 448q0 82 -64 82q-32 0 -50 -20.5t-18 -52.5
q0 -73 66 -73q28 0 47 21.5t19 42.5z" />
    <glyph glyph-name="colon" unicode=":" horiz-adv-x="315" 
d="M275 365q0 -45 -32.5 -77.5t-77.5 -32.5t-77.5 32.5t-32.5 77.5t32.5 77.5t77.5 32.5t77.5 -32.5t32.5 -77.5zM275 96q0 -45 -32.5 -77.5t-77.5 -32.5t-77.5 32.5t-32.5 77.5t32.5 77.5t77.5 32.5t77.5 -32.5t32.5 -77.5z" />
    <glyph glyph-name="semicolon" unicode=";" horiz-adv-x="315" 
d="M275 365q0 -45 -32.5 -77.5t-77.5 -32.5t-77.5 32.5t-32.5 77.5t32.5 77.5t77.5 32.5t77.5 -32.5t32.5 -77.5zM165 200q63 0 94 -59q38 -74 -8 -176q-39 -87 -133 -165l-73 65q55 59 63 95.5t-25 72.5q-19 21 -22.5 50t6.5 55t36 44t62 18z" />
    <glyph glyph-name="less" unicode="&#x3c;" 
d="M494 110l-120 -123l-323 311l321 310l121 -121l-207 -188z" />
    <glyph glyph-name="equal" unicode="=" 
d="M500 334h-450v145h450v-145zM500 114h-450v145h450v-145z" />
    <glyph glyph-name="greater" unicode="&#x3e;" 
d="M499 297l-321 -310l-121 121l207 188l-208 189l120 123z" />
    <glyph glyph-name="question" unicode="?" horiz-adv-x="459" 
d="M431 507q0 -47 -19 -83t-44.5 -58t-50 -42.5t-35.5 -47t-1 -60.5h-178q-24 61 -7 106t47 68t59.5 49t29.5 49q0 37 -47 54.5t-142 19.5l22 165q188 -3 277 -66t89 -154zM299 86q0 -42 -30 -71t-74 -29t-74 29t-30 71t30 71t74 29t74 -29t30 -71z" />
    <glyph glyph-name="at" unicode="@" horiz-adv-x="959" 
d="M877 424q0 -143 -71 -218.5t-191 -75.5q-45 0 -72 20.5t-30 57.5h-4q-50 -78 -128 -78q-48 0 -77.5 39.5t-29.5 117.5q0 118 61.5 191t183.5 73q71 0 123 -27l-30 -177q-8 -44 -4 -60.5t25 -16.5q83 0 83 145q0 79 -49 129t-156 50q-118 0 -197 -82t-79 -218
q0 -111 58 -166.5t191 -55.5q86 0 183 33l28 -138q-115 -42 -234 -42q-193 0 -291 94t-98 260q0 200 127.5 331t320.5 131q170 0 263.5 -87.5t93.5 -229.5zM497 429q-10 5 -23 5q-28 0 -47.5 -39t-19.5 -82q0 -46 16 -46q18 0 36.5 32t31.5 99z" />
    <glyph glyph-name="A" unicode="A" horiz-adv-x="641" 
d="M653 0h-203l-34 110h-210l-33 -110h-184l215 675h223zM371 256l-37 124q-15 49 -24 95h-2q-11 -56 -23 -96l-36 -123h122z" />
    <glyph glyph-name="B" unicode="B" horiz-adv-x="594" 
d="M569 216q0 -96 -73.5 -157t-212.5 -61q-11 0 -90 1t-145 1v674q102 6 263 6q113 0 176.5 -44t63.5 -130q0 -46 -21.5 -83.5t-59.5 -57.5v-3q43 -15 71 -56t28 -90zM353 477q0 26 -19.5 40.5t-52.5 14.5q-21 0 -47 -2v-116q11 -1 40 -1q79 0 79 64zM368 214q0 28 -22 45
t-64 17q-37 0 -48 -1v-125q24 -2 50 -2q38 0 61 17.5t23 48.5z" />
    <glyph glyph-name="C" unicode="C" horiz-adv-x="541" 
d="M507 16q-69 -25 -160 -25q-76 0 -134.5 20.5t-93 52t-56 75.5t-29 85t-7.5 86q0 171 92 270.5t256 99.5q71 0 130 -18l-23 -170q-48 19 -107 19q-67 0 -105 -44.5t-38 -125.5q0 -180 150 -180q58 0 100 21z" />
    <glyph glyph-name="D" unicode="D" horiz-adv-x="651" 
d="M626 354q0 -171 -98.5 -265t-265.5 -94q-112 0 -214 6v672q106 6 243 6q335 0 335 -325zM425 339q0 90 -29 136.5t-115 46.5q-33 0 -47 -2v-361q12 -3 43 -3q66 0 107 46.5t41 136.5z" />
    <glyph glyph-name="E" unicode="E" horiz-adv-x="480" 
d="M443 0h-395v675h395v-158h-209v-95h198v-152h-198v-109h209v-161z" />
    <glyph glyph-name="F" unicode="F" horiz-adv-x="460" 
d="M433 515h-199v-109h188v-153h-188v-253h-186v675h385v-160z" />
    <glyph glyph-name="G" unicode="G" horiz-adv-x="664" 
d="M617 35q-105 -47 -243 -47q-172 0 -260 86t-88 236q0 175 103 275.5t289 100.5q107 0 198 -28l-36 -170q-77 30 -169 30t-137.5 -50t-45.5 -136q0 -82 41 -128t124 -46q21 0 38 5v205h186v-333z" />
    <glyph glyph-name="H" unicode="H" horiz-adv-x="670" 
d="M622 0h-186v266h-202v-266h-186v675h186v-246h202v246h186v-675z" />
    <glyph glyph-name="I" unicode="I" horiz-adv-x="282" 
d="M234 0h-186v675h186v-675z" />
    <glyph glyph-name="J" unicode="J" horiz-adv-x="343" 
d="M297 207q0 -43 -10 -80t-31.5 -69t-62.5 -50.5t-98 -18.5q-53 0 -95 8v156q24 -8 51 -8q60 0 60 66v464h186v-468z" />
    <glyph glyph-name="K" unicode="K" horiz-adv-x="615" 
d="M616 0h-239l-143 308v-308h-186v675h186v-289l146 289h225l-193 -325z" />
    <glyph glyph-name="L" unicode="L" horiz-adv-x="432" 
d="M420 0h-372v675h186v-509h186v-166z" />
    <glyph glyph-name="M" unicode="M" horiz-adv-x="870" 
d="M864 0h-193l-37 232q-8 52 -20 167h-2q-22 -116 -43 -194l-57 -205h-168l-56 187q-33 114 -46 212h-2q-11 -128 -19 -183l-28 -216h-186l112 675h211l71 -238q20 -64 36 -153h2q18 91 38 156l71 235h205z" />
    <glyph glyph-name="N" unicode="N" horiz-adv-x="686" 
d="M638 0h-243l-131 284q-33 74 -46 129q7 -70 7 -238v-175h-177v675h244l126 -272q32 -68 50 -134q-7 64 -7 240v166h177v-675z" />
    <glyph glyph-name="O" unicode="O" horiz-adv-x="701" 
d="M680 351q0 -163 -99 -264t-244 -101q-156 0 -236 88.5t-80 249.5q0 163 99 264t244 101q156 0 236 -88.5t80 -249.5zM482 333q0 186 -130 186q-62 0 -97.5 -46.5t-35.5 -130.5q0 -185 130 -185q62 0 97.5 46t35.5 130z" />
    <glyph glyph-name="P" unicode="P" horiz-adv-x="542" 
d="M531 454q0 -105 -70 -176t-199 -71q-15 0 -28 1v-208h-186v675q103 5 204 5q136 0 207.5 -57.5t71.5 -168.5zM339 448q0 36 -21 58.5t-66 22.5q-10 0 -18 -1v-165q7 -1 14 -1q38 0 64.5 23t26.5 63z" />
    <glyph glyph-name="Q" unicode="Q" horiz-adv-x="701" 
d="M698 -66q-78 -13 -132.5 0t-101.5 32.5t-94 19.5h-33q-156 0 -236 88.5t-80 249.5q0 163 99 264t244 101q156 0 236 -88.5t80 -249.5q0 -89 -29 -155t-75 -99q14 -1 36.5 -5t36 -5t49.5 3v-156zM482 333q0 186 -130 186q-62 0 -97.5 -46.5t-35.5 -130.5q0 -185 130 -185
q62 0 97.5 46t35.5 130z" />
    <glyph glyph-name="R" unicode="R" horiz-adv-x="586" 
d="M594 0h-226l-125 246h-9v-246h-186v675q79 5 231 5q133 0 200.5 -50.5t67.5 -160.5q0 -61 -32.5 -112.5t-88.5 -72.5q30 -45 49 -78zM351 455q0 72 -82 72q-23 0 -35 -2v-145q14 -2 31 -2q39 0 62.5 20t23.5 57z" />
    <glyph glyph-name="S" unicode="S" horiz-adv-x="502" 
d="M485 221q0 -100 -78 -167t-199 -67q-98 0 -167 17l16 177q76 -32 155 -32q28 0 46.5 12.5t18.5 35.5q0 22 -18.5 38t-46.5 24.5t-61 23.5t-61 34t-46.5 58t-18.5 93q0 101 74.5 160.5t206.5 59.5q66 0 124 -13l-16 -161q-57 20 -115 20q-74 0 -74 -45q0 -23 27 -39.5
t65 -30.5t76 -34.5t65 -62t27 -101.5z" />
    <glyph glyph-name="T" unicode="T" horiz-adv-x="502" 
d="M490 515h-146v-515h-186v515h-146v160h478v-160z" />
    <glyph glyph-name="U" unicode="U" horiz-adv-x="664" 
d="M616 268q0 -143 -77 -212.5t-217 -69.5q-151 0 -212.5 69t-61.5 189v431h186v-422q0 -57 22 -84t77 -27q56 0 77.5 26t21.5 90v417h184v-407z" />
    <glyph glyph-name="V" unicode="V" horiz-adv-x="644" 
d="M652 675l-219 -675h-219l-222 675h200l103 -338q22 -71 31 -120h2q14 65 34 130l100 328h190z" />
    <glyph glyph-name="W" unicode="W" horiz-adv-x="950" 
d="M940 675l-164 -675h-226l-56 253q-14 62 -26 172h-1q-5 -78 -25 -165l-59 -260h-211l-162 675h197l62 -276q14 -61 21 -147h1q11 86 25 144l71 279h187l68 -269q19 -75 27 -148h1q12 86 27 157l56 260h187z" />
    <glyph glyph-name="X" unicode="X" horiz-adv-x="671" 
d="M671 0h-235l-107 204l-107 -204h-222l206 342l-194 333h215l106 -200l103 200h212l-191 -336z" />
    <glyph glyph-name="Y" unicode="Y" horiz-adv-x="597" 
d="M604 675l-214 -442v-233h-186v232l-211 443h202l63 -146q24 -55 40 -103h2q12 37 49 118l58 131h197z" />
    <glyph glyph-name="Z" unicode="Z" horiz-adv-x="534" 
d="M491 0h-448v147l186 324q16 26 26 38q-11 -1 -85 -1h-121v167h437v-154l-196 -322q-17 -25 -19 -28q10 1 113 1h107v-172z" />
    <glyph glyph-name="bracketleft" unicode="[" horiz-adv-x="336" 
d="M303 -213h-253v998h253v-147h-81v-703h81v-148z" />
    <glyph glyph-name="backslash" unicode="\" horiz-adv-x="534" 
d="M534 -161h-184l-350 918h183z" />
    <glyph glyph-name="bracketright" unicode="]" horiz-adv-x="336" 
d="M286 -213h-253v148h81v703h-81v147h253v-998z" />
    <glyph glyph-name="asciicircum" unicode="^" 
d="M508 392l-128 -64l-112 221l-107 -221l-119 62l161 285h136z" />
    <glyph glyph-name="underscore" unicode="_" 
d="M550 -242h-550v148h550v-148z" />
    <glyph glyph-name="grave" unicode="`" horiz-adv-x="380" 
d="M333 645l-60 -101l-226 101l74 123z" />
    <glyph glyph-name="a" unicode="a" horiz-adv-x="529" 
d="M484 0h-170q0 40 4 63h-1q-18 -35 -57 -55t-87 -20q-71 0 -109.5 43.5t-38.5 109.5q0 177 271 177v11q0 24 -15 33.5t-50 9.5q-70 0 -151 -31l-26 137q92 33 201 33q126 0 175.5 -43t49.5 -134v-228q0 -69 4 -106zM296 190v15q-56 0 -76.5 -10.5t-20.5 -35.5
q0 -14 9.5 -24t26.5 -10q26 0 43.5 19.5t17.5 45.5z" />
    <glyph glyph-name="b" unicode="b" horiz-adv-x="559" 
d="M534 277q0 -125 -73.5 -207.5t-208.5 -82.5q-109 0 -205 28v715h182v-174q0 -56 -7 -103h1q37 56 129 56q89 0 135.5 -62t46.5 -170zM342 258q0 53 -12 76t-37 23q-27 0 -45.5 -30t-18.5 -85v-105q16 -4 35 -4q78 0 78 125z" />
    <glyph glyph-name="c" unicode="c" horiz-adv-x="409" 
d="M384 7q-51 -19 -126 -19q-234 0 -234 245q0 119 68 197.5t202 78.5q48 0 90 -13l-25 -158q-34 14 -64 14q-80 0 -80 -107q0 -48 21 -73t59 -25q40 0 69 14z" />
    <glyph glyph-name="d" unicode="d" horiz-adv-x="559" 
d="M512 0h-165q0 34 3 56h-2q-46 -69 -143 -69q-87 0 -133.5 62.5t-46.5 169.5q0 124 72.5 207t199.5 83q15 0 33 -2v223h182v-730zM330 258v102q-15 4 -35 4q-78 0 -78 -125q0 -100 49 -100q27 0 45.5 31t18.5 88z" />
    <glyph glyph-name="e" unicode="e" horiz-adv-x="524" 
d="M496 288q0 -60 -7 -98h-281q5 -63 107 -63q72 0 147 30l16 -135q-97 -34 -192 -34q-262 0 -262 254q0 116 68.5 191.5t184.5 75.5q110 0 164.5 -60t54.5 -161zM319 308q3 69 -51 69q-26 0 -42.5 -19t-18.5 -50h112z" />
    <glyph glyph-name="f" unicode="f" horiz-adv-x="361" 
d="M363 733l-11 -148q-20 8 -46 8q-27 0 -39 -11t-12 -38v-47h85v-140h-85v-357h-182v357h-63v140h63v46q0 101 48.5 149.5t161.5 48.5q45 0 80 -8z" />
    <glyph glyph-name="g" unicode="g" horiz-adv-x="552" 
d="M531 -33q0 -87 -79 -149.5t-208 -62.5q-219 0 -219 148q0 31 20 63t47 45q-47 24 -47 79q0 32 18 59t45 37q-75 38 -75 133q0 82 59.5 136.5t172.5 54.5q47 0 96 -13h169v-143h-46q2 -6 2 -21q0 -85 -55.5 -131t-162.5 -46h-18q-12 -6 -12 -17q0 -12 11 -15t54 -5l56 -2
q172 -6 172 -150zM316 327q0 24 -14.5 38.5t-42.5 14.5q-25 0 -39.5 -14t-14.5 -37q0 -24 14.5 -38.5t42.5 -14.5q25 0 39.5 14t14.5 37zM353 -57q0 37 -45 38l-70 2h-15q-20 -20 -20 -44q0 -21 17 -34t50 -13q40 0 61.5 14.5t21.5 36.5z" />
    <glyph glyph-name="h" unicode="h" horiz-adv-x="564" 
d="M517 0h-182v314q0 41 -28 41q-30 0 -54 -36t-24 -78v-241h-182v730h182v-182q0 -61 -9 -103h1q50 64 149 64q77 0 112 -43.5t35 -113.5v-352z" />
    <glyph glyph-name="i" unicode="i" horiz-adv-x="276" 
d="M247 640q0 -43 -32 -74t-77 -31t-77 31t-32 74t32 74t77 31t77 -31t32 -74zM229 0h-182v497h182v-497z" />
    <glyph glyph-name="j" unicode="j" horiz-adv-x="277" 
d="M247 640q0 -43 -32 -74t-77 -31t-77 31t-32 74t32 74t77 31t77 -31t32 -74zM230 -11q0 -228 -224 -228q-37 0 -74 10l9 153q28 -11 55 -11q52 0 52 55v529h182v-508z" />
    <glyph glyph-name="k" unicode="k" horiz-adv-x="565" 
d="M565 0h-225l-111 230v-230h-182v730h182v-424l102 191h224l-151 -228z" />
    <glyph glyph-name="l" unicode="l" horiz-adv-x="276" 
d="M229 0h-182v730h182v-730z" />
    <glyph glyph-name="m" unicode="m" horiz-adv-x="848" 
d="M801 0h-182v308q0 47 -28 47q-27 0 -52 -34.5t-25 -80.5v-240h-180v308q0 47 -28 47q-27 0 -52 -34.5t-25 -80.5v-240h-182v497h169q0 -35 -5 -67h1q50 79 153 79q105 0 135 -79q21 37 61 58t89 21q151 0 151 -170v-339z" />
    <glyph glyph-name="n" unicode="n" horiz-adv-x="564" 
d="M517 0h-182v314q0 41 -28 41q-30 0 -54 -35.5t-24 -77.5v-242h-182v497h168q0 -39 -5 -66h1q55 78 159 78q77 0 112 -43.5t35 -113.5v-352z" />
    <glyph glyph-name="o" unicode="o" horiz-adv-x="564" 
d="M541 260q0 -122 -78 -197t-193 -75q-247 0 -247 246q0 124 77.5 199.5t194.5 75.5q121 0 183.5 -64.5t62.5 -184.5zM352 249q0 54 -15.5 79t-52.5 25q-30 0 -51 -25t-21 -74q0 -58 15.5 -83t52.5 -25q35 0 53.5 28t18.5 75z" />
    <glyph glyph-name="p" unicode="p" horiz-adv-x="559" 
d="M534 278q0 -132 -67 -209.5t-203 -77.5q-22 0 -35 3v-227h-182v730h165q0 -34 -2 -56h2q43 68 142 68q87 0 133.5 -62t46.5 -169zM342 258q0 100 -49 100q-27 0 -45.5 -31t-18.5 -88v-102q20 -4 35 -4q78 0 78 125z" />
    <glyph glyph-name="q" unicode="q" horiz-adv-x="559" 
d="M512 -233h-182v177q0 59 7 108h-2q-38 -65 -125 -65q-91 0 -138 59t-47 172q0 126 73.5 208.5t210.5 82.5q104 0 203 -17v-725zM330 262v99q-24 3 -35 3q-78 0 -78 -125q0 -100 48 -100q27 0 46 31.5t19 91.5z" />
    <glyph glyph-name="r" unicode="r" horiz-adv-x="356" 
d="M351 510l-9 -180q-56 15 -84.5 -14t-28.5 -108v-208h-182v497h168q0 -29 -5 -74h1q48 90 140 87z" />
    <glyph glyph-name="s" unicode="s" horiz-adv-x="405" 
d="M381 163q0 -82 -63.5 -128.5t-168.5 -46.5q-59 0 -110 14l8 146q43 -21 100 -21q40 0 40 22q0 14 -16.5 24t-40 19.5t-47 24t-40 45t-16.5 75.5q0 76 57.5 124.5t172.5 48.5q40 0 83 -8l-4 -140q-36 12 -82 12q-37 0 -37 -23q0 -12 17 -21.5t41 -20t48 -26t41 -46.5
t17 -74z" />
    <glyph glyph-name="t" unicode="t" horiz-adv-x="380" 
d="M353 4q-64 -16 -120 -16q-92 0 -126 34.5t-34 130.5v204h-63v140h63v140l182 49v-189h93v-140h-93v-167q0 -28 9.5 -39.5t32.5 -11.5t46 6z" />
    <glyph glyph-name="u" unicode="u" horiz-adv-x="562" 
d="M516 0h-168q0 38 5 66h-1q-55 -78 -159 -78q-77 0 -112 43.5t-35 113.5v352h182v-314q0 -41 28 -41q30 0 54 35.5t24 77.5v242h182v-497z" />
    <glyph glyph-name="v" unicode="v" horiz-adv-x="535" 
d="M545 497l-180 -497h-184l-181 497h198l40 -119q26 -81 39 -133h2q16 72 34 128l39 124h193z" />
    <glyph glyph-name="w" unicode="w" horiz-adv-x="800" 
d="M800 497l-151 -497h-192l-33 116q-15 52 -30 128h-1q-10 -53 -31 -125l-34 -119h-178l-150 497h197l20 -77q30 -113 44 -178h2q12 78 38 168l24 87h163l23 -77q32 -111 45 -178h2q15 87 35 168l22 87h185z" />
    <glyph glyph-name="x" unicode="x" horiz-adv-x="542" 
d="M545 0h-225l-54 133l-54 -133h-215l155 253l-144 244h214l58 -131l57 131h199l-132 -245z" />
    <glyph glyph-name="y" unicode="y" horiz-adv-x="534" 
d="M539 497l-189 -505q-51 -135 -113.5 -184t-158.5 -49q-40 0 -86 8l21 154q35 -11 69 -11q26 0 51.5 14t34.5 47l8 29l-176 497h200l29 -91q22 -70 40 -156h2q21 95 45 164l28 83h195z" />
    <glyph glyph-name="z" unicode="z" horiz-adv-x="455" 
d="M413 0h-371v130l144 205q-14 -2 -70 -2h-68v164h362v-131l-138 -200q12 1 80 1h61v-167z" />
    <glyph glyph-name="braceleft" unicode="{" horiz-adv-x="392" 
d="M361 -213h-26q-116 0 -167.5 60.5t-51.5 202.5v77q0 63 -24 87.5t-68 26.5v134q45 2 68.5 24t23.5 84v42q0 141 51.5 200.5t167.5 59.5h26v-147q-46 0 -60.5 -20t-14.5 -93v-42q0 -161 -91 -174v-2q91 -13 91 -180v-76q0 -74 14.5 -95t60.5 -21v-148z" />
    <glyph glyph-name="bar" unicode="|" horiz-adv-x="292" 
d="M215 -233h-145v1000h145v-1000z" />
    <glyph glyph-name="braceright" unicode="}" horiz-adv-x="392" 
d="M368 241q-44 -2 -68 -26.5t-24 -87.5v-77q0 -142 -51.5 -202.5t-167.5 -60.5h-26v148q46 0 60.5 21t14.5 95v76q0 167 91 180v2q-91 13 -91 174v42q0 73 -14.5 93t-60.5 20v147h26q116 0 167.5 -59.5t51.5 -200.5v-42q0 -62 23.5 -84t68.5 -24v-134z" />
    <glyph glyph-name="asciitilde" unicode="~" 
d="M525 568q0 -82 -47 -130.5t-128 -48.5q-40 0 -69.5 15t-42 33t-25.5 33t-25 15q-15 0 -21.5 -15.5t-6.5 -53.5h-135v30q0 82 47 130.5t128 48.5q40 0 69.5 -15t42 -33t25.5 -33t25 -15q15 0 21.5 15.5t6.5 53.5h135v-30z" />
    <glyph glyph-name="uni00A0" unicode="&#xa0;" horiz-adv-x="218" 
 />
    <glyph glyph-name="exclamdown" unicode="&#xa1;" horiz-adv-x="324" 
d="M260 411q0 -42 -30 -71t-74 -29t-74 29t-30 71t30 71t74 29t74 -29t30 -71zM261 -218h-213l25 499h160z" />
    <glyph glyph-name="cent" unicode="&#xa2;" horiz-adv-x="451" 
d="M509 105q-57 -21 -134 -29l-35 -227h-119l35 230q-108 10 -164.5 71t-56.5 172q0 129 84 210t218 81l27 179h119l-28 -186q29 -3 53 -11l-15 -157q-30 11 -61 16l-34 -223q58 5 95 23zM281 242l32 214q-39 -4 -63 -36t-24 -77q0 -88 55 -101z" />
    <glyph glyph-name="sterling" unicode="&#xa3;" horiz-adv-x="484" 
d="M465 0h-424v126q72 41 72 108q0 25 -2 37h-82v139h67q-9 66 -9 81q0 99 58.5 149t165.5 50q73 0 121 -15l-30 -148q-34 13 -71 13q-59 0 -59 -56q0 -13 7 -74h111v-139h-95v-21q0 -26 -13 -54t-32 -45q32 7 115 7h100v-158z" />
    <glyph glyph-name="currency" unicode="&#xa4;" 
d="M534 131l-144 -102l-71 96q-28 -5 -55 -5q-12 0 -36 2l-65 -91l-145 100l62 79q-26 44 -26 113q0 68 31 118l-66 87l143 99l67 -91q32 5 58 5q15 0 41 -2l63 90l143 -103l-60 -78q22 -46 22 -110t-32 -117zM340 334q0 41 -15.5 59t-48.5 18q-26 0 -46 -20.5t-20 -60.5
q0 -37 16.5 -58.5t46.5 -21.5q67 0 67 84z" />
    <glyph glyph-name="yen" unicode="&#xa5;" horiz-adv-x="615" 
d="M615 675l-173 -339h97v-111h-141v-41h141v-113h-141v-71h-184v71h-141v113h141v41h-141v111h98l-171 339h201l63 -128q24 -50 42 -103h2q15 49 52 118l59 113h196z" />
    <glyph glyph-name="brokenbar" unicode="&#xa6;" horiz-adv-x="292" 
d="M215 399h-145v368h145v-368zM215 -233h-145v378h145v-378z" />
    <glyph glyph-name="section" unicode="&#xa7;" horiz-adv-x="544" 
d="M493 264q0 -45 -21.5 -85t-53.5 -64q36 -41 36 -105q0 -74 -66.5 -127.5t-211.5 -53.5q-44 0 -89 9l10 152q36 -11 79 -11q41 0 60.5 11t19.5 27q0 19 -22 37.5t-53.5 38.5t-63.5 46t-54 69t-22 98q0 46 20.5 86t53.5 63q-35 41 -35 103q0 80 60.5 131.5t193.5 51.5
q53 0 91 -7l-8 -151q-31 10 -73 10q-67 0 -67 -33q0 -14 16 -30.5t40 -31.5t52 -37.5t52 -48t40 -64.5t16 -84zM332 240q0 15 -4 26t-15.5 23.5t-21.5 21t-33 26.5t-39 32q-16 -16 -16 -40q0 -28 20 -51t93 -77q16 14 16 39z" />
    <glyph glyph-name="dieresis" unicode="&#xa8;" horiz-adv-x="546" 
d="M463 640q0 -38 -26.5 -64.5t-64.5 -26.5t-64.5 26.5t-26.5 64.5t26.5 64.5t64.5 26.5t64.5 -26.5t26.5 -64.5zM246 640q0 -38 -27 -64.5t-64 -26.5t-64 26.5t-27 64.5t27 64.5t64 26.5t64 -26.5t27 -64.5z" />
    <glyph glyph-name="copyright" unicode="&#xa9;" horiz-adv-x="770" 
d="M736 332q0 -146 -103 -248.5t-248 -102.5t-248 102.5t-103 248.5t103 248.5t248 102.5t248 -102.5t103 -248.5zM603 332q0 90 -64 154t-154 64t-154 -64t-64 -154t64 -154t154 -64t154 64t64 154zM487 179q-47 -24 -106 -24q-71 0 -117.5 47t-46.5 128q0 79 46 130
t131 51q51 0 87 -18l-22 -115q-15 17 -50 17q-47 0 -47 -64q0 -53 41 -53q33 0 57 14z" />
    <glyph glyph-name="ordfeminine" unicode="&#xaa;" horiz-adv-x="425" 
d="M372 299h-130q0 29 3 43h-1q-13 -25 -40.5 -40t-60.5 -15q-58 0 -87 31t-29 81q0 51 31.5 84t75 45t97.5 11v11q0 27 -49 27q-57 0 -116 -27l-14 114q70 24 153 24q165 0 165 -124v-183q0 -47 2 -82zM384 124h-345v140h345v-140zM231 442v11q-38 0 -56 -7t-18 -28
q0 -10 7.5 -17t19.5 -7q20 0 33.5 14.5t13.5 33.5z" />
    <glyph glyph-name="guillemotleft" unicode="&#xab;" horiz-adv-x="570" 
d="M535 146l-145 -62l-112 207l115 209l139 -61l-82 -148zM274 136l-150 -60l-100 215l103 217l144 -59l-75 -158z" />
    <glyph glyph-name="logicalnot" unicode="&#xac;" 
d="M500 84h-163v138h-302v152h465v-290z" />
    <glyph glyph-name="uni00AD" unicode="&#xad;" horiz-adv-x="340" 
d="M300 191h-260v145h260v-145z" />
    <glyph glyph-name="registered" unicode="&#xae;" horiz-adv-x="566" 
d="M537 533q0 -104 -74 -176t-180 -72t-180 72t-74 176t74 176t180 72t180 -72t74 -176zM434 533q0 62 -44.5 106.5t-106.5 44.5t-106.5 -44.5t-44.5 -106.5t44.5 -106.5t106.5 -44.5t106.5 44.5t44.5 106.5zM384 426h-90l-16 70h-11v-70h-77v215h112q81 0 81 -65
q0 -41 -31 -59q6 -6 11 -22zM296 567q0 17 -21 17h-8v-35h7q22 0 22 18z" />
    <glyph glyph-name="macron" unicode="&#xaf;" horiz-adv-x="395" 
d="M345 575h-295v130h295v-130z" />
    <glyph glyph-name="macron" unicode="&#x2c9;" horiz-adv-x="395" 
d="M345 575h-295v130h295v-130z" />
    <glyph glyph-name="degree" unicode="&#xb0;" horiz-adv-x="405" 
d="M370 593q0 -77 -52 -119t-126 -42q-77 0 -121.5 42t-44.5 116q0 72 53.5 115t121.5 43q87 0 128 -43t41 -112zM240 594q0 18 -11 31t-28 13q-20 0 -32.5 -13t-12.5 -34q0 -22 11.5 -34.5t31.5 -12.5t30.5 14t10.5 36z" />
    <glyph glyph-name="plusminus" unicode="&#xb1;" 
d="M515 362h-153v-164h-174v164h-153v150h153v163h174v-163h153v-150zM509 0h-468v152h468v-152z" />
    <glyph glyph-name="twosuperior" unicode="&#xb2;" horiz-adv-x="369" 
d="M285 350h-256v98l35 25q57 41 57 63q0 17 -21 17q-25 0 -54 -13l-15 104q64 18 114 18q135 0 135 -98q0 -49 -69 -100l-12 -9h86v-105z" />
    <glyph glyph-name="threesuperior" unicode="&#xb3;" horiz-adv-x="349" 
d="M273 442q0 -104 -169 -104q-45 0 -87 9l11 82q19 -7 49 -7q40 0 40 21q0 32 -83 18v74h4q74 0 74 27q0 16 -26 16q-33 0 -55 -13l-12 81q50 16 109 16q71 0 102 -23.5t31 -60.5q0 -54 -45 -74q25 -2 41 -21t16 -41z" />
    <glyph glyph-name="acute" unicode="&#xb4;" horiz-adv-x="400" 
d="M383 645l-226 -101l-60 100l212 124z" />
    <glyph glyph-name="mu" unicode="&#xb5;" horiz-adv-x="577" 
d="M565 -3q-40 -9 -70 -9q-68 0 -96 20.5t-37 53.5h-1q-35 -69 -113 -69q-20 0 -36 8l21 -234h-186v730h182v-314q0 -41 28 -41q34 0 56 32t22 85v238h182v-307q0 -31 9 -41t39 -10v-142z" />
    <glyph glyph-name="mu" unicode="&#x3bc;" horiz-adv-x="577" 
d="M565 -3q-40 -9 -70 -9q-68 0 -96 20.5t-37 53.5h-1q-35 -69 -113 -69q-20 0 -36 8l21 -234h-186v730h182v-314q0 -41 28 -41q34 0 56 32t22 85v238h182v-307q0 -31 9 -41t39 -10v-142z" />
    <glyph glyph-name="paragraph" unicode="&#xb6;" horiz-adv-x="622" 
d="M585 527h-57v-623h-214v148h65v623h206v-148zM298 206q-131 0 -195.5 66t-64.5 168q0 111 72 173t188 62v-469z" />
    <glyph glyph-name="periodcentered" unicode="&#xb7;" horiz-adv-x="320" 
d="M270 298q0 -45 -32.5 -77.5t-77.5 -32.5t-77.5 32.5t-32.5 77.5t32.5 77.5t77.5 32.5t77.5 -32.5t32.5 -77.5z" />
    <glyph glyph-name="periodcentered" unicode="&#x2219;" horiz-adv-x="320" 
d="M270 298q0 -45 -32.5 -77.5t-77.5 -32.5t-77.5 32.5t-32.5 77.5t32.5 77.5t77.5 32.5t77.5 -32.5t32.5 -77.5z" />
    <glyph glyph-name="cedilla" unicode="&#xb8;" horiz-adv-x="400" 
d="M252 -39q38 -59 32 -107.5t-50 -86.5h-130q34 37 35.5 72t-33.5 84z" />
    <glyph glyph-name="onesuperior" unicode="&#xb9;" horiz-adv-x="310" 
d="M231 350h-144v193l-59 -22l-22 99l90 30h135v-300z" />
    <glyph glyph-name="ordmasculine" unicode="&#xba;" horiz-adv-x="435" 
d="M410 492q0 -92 -58 -148t-145 -56q-80 0 -131 47t-51 148q0 96 58 151t143 55q184 0 184 -197zM396 124h-357v140h357v-140zM270 488q0 41 -12.5 59.5t-40.5 18.5q-22 0 -37.5 -19t-15.5 -59q0 -78 51 -78q55 0 55 78z" />
    <glyph glyph-name="guillemotright" unicode="&#xbb;" horiz-adv-x="570" 
d="M546 293l-103 -217l-144 59l75 158l-78 155l150 60zM292 293l-115 -209l-139 61l82 148l-85 145l145 62z" />
    <glyph glyph-name="onequarter" unicode="&#xbc;" horiz-adv-x="732" 
d="M675 618l-529 -643l-112 82l529 643zM713 40h-36v-40h-140v40h-151l-6 90l94 194h203v-179h36v-105zM241 351h-146v196l-41 -18l-20 114l80 32h127v-324zM535 143v92l-43 -92h43z" />
    <glyph glyph-name="onehalf" unicode="&#xbd;" horiz-adv-x="732" 
d="M693 0h-252v113l33 22q55 37 55 60q0 16 -20 16q-28 0 -51 -11l-14 114q58 20 116 20q129 0 129 -100q0 -54 -60 -109l-11 -10q25 2 75 2v-117zM675 618l-529 -643l-112 82l529 643zM241 351h-146v196l-41 -18l-20 114l80 32h127v-324z" />
    <glyph glyph-name="threequarters" unicode="&#xbe;" horiz-adv-x="742" 
d="M686 618l-529 -643l-112 82l529 643zM724 40h-36v-40h-140v40h-151l-6 90l94 194h203v-179h36v-105zM295 452q0 -51 -41.5 -81t-126.5 -30q-47 0 -86 7l11 92q25 -7 57 -7q37 0 37 19q0 6 -5.5 10.5t-25.5 8.5t-57 -4v83q86 0 86 30q0 14 -26 14q-34 0 -63 -14l-13 88
q51 17 118 17q69 0 99.5 -24.5t30.5 -62.5q0 -45 -48 -74q23 -8 38 -28t15 -44zM546 143v92l-43 -92h43z" />
    <glyph glyph-name="questiondown" unicode="&#xbf;" horiz-adv-x="459" 
d="M368 411q0 -42 -30 -71t-74 -29t-74 29t-30 71t30 71t74 29t74 -29t30 -71zM416 -65l-22 -165q-188 3 -277 66t-89 154q0 47 19 83t44.5 58t50 42.5t35.5 47t1 60.5h178q24 -61 7 -106t-47 -68t-59.5 -49t-29.5 -49q0 -37 47 -54.5t142 -19.5z" />
    <glyph glyph-name="Agrave" unicode="&#xc0;" horiz-adv-x="641" 
d="M653 0h-203l-34 110h-210l-33 -110h-184l215 675h223zM371 256l-37 124q-15 49 -24 95h-2q-11 -56 -23 -96l-36 -123h122zM425 799l-26 -96l-253 49l35 123z" />
    <glyph glyph-name="Aacute" unicode="&#xc1;" horiz-adv-x="641" 
d="M653 0h-203l-34 110h-210l-33 -110h-184l215 675h223zM371 256l-37 124q-15 49 -24 95h-2q-11 -56 -23 -96l-36 -123h122zM483 752l-253 -49l-26 96l244 76z" />
    <glyph glyph-name="Acircumflex" unicode="&#xc2;" horiz-adv-x="641" 
d="M653 0h-203l-34 110h-210l-33 -110h-184l215 675h223zM371 256l-37 124q-15 49 -24 95h-2q-11 -56 -23 -96l-36 -123h122zM492 793l-38 -90l-142 48l-137 -47l-35 85l176 87z" />
    <glyph glyph-name="Atilde" unicode="&#xc3;" horiz-adv-x="641" 
d="M653 0h-203l-34 110h-210l-33 -110h-184l215 675h223zM371 256l-37 124q-15 49 -24 95h-2q-11 -56 -23 -96l-36 -123h122zM519 812q-54 -95 -145 -95q-40 0 -74 20t-47 20q-30 0 -51 -39l-88 58q54 95 145 95q39 0 74 -20t47 -20q30 0 51 39z" />
    <glyph glyph-name="Adieresis" unicode="&#xc4;" horiz-adv-x="641" 
d="M653 0h-203l-34 110h-210l-33 -110h-184l215 675h223zM371 256l-37 124q-15 49 -24 95h-2q-11 -56 -23 -96l-36 -123h122zM511 791q0 -36 -25.5 -61t-61.5 -25t-61.5 25t-25.5 61t25.5 61.5t61.5 25.5t61.5 -25.5t25.5 -61.5zM293 791q0 -36 -25.5 -61t-61.5 -25
t-61.5 25t-25.5 61t25.5 61.5t61.5 25.5t61.5 -25.5t25.5 -61.5z" />
    <glyph glyph-name="Aring" unicode="&#xc5;" horiz-adv-x="641" 
d="M653 0h-203l-34 110h-210l-33 -110h-184l215 675h223zM371 256l-37 124q-15 49 -24 95h-2q-11 -56 -23 -96l-36 -123h122zM452 835q0 -54 -38.5 -89.5t-94.5 -35.5q-55 0 -93.5 35.5t-38.5 89.5t38.5 89.5t93.5 35.5q56 0 94.5 -35.5t38.5 -89.5zM363 835q0 17 -13.5 30
t-30.5 13t-30 -13t-13 -30t13 -30t30 -13t30.5 13t13.5 30z" />
    <glyph glyph-name="AE" unicode="&#xc6;" horiz-adv-x="792" 
d="M755 0h-389v129h-158l-52 -129h-188l299 675h484v-158h-207v-95h200v-152h-200v-109h211v-161zM366 273v246h-1q-28 -77 -57 -147l-41 -99h99z" />
    <glyph glyph-name="Ccedilla" unicode="&#xc7;" horiz-adv-x="541" 
d="M507 16q-69 -25 -160 -25q-76 0 -134.5 20.5t-93 52t-56 75.5t-29 85t-7.5 86q0 171 92 270.5t256 99.5q71 0 130 -18l-23 -170q-48 19 -107 19q-67 0 -105 -44.5t-38 -125.5q0 -180 150 -180q58 0 100 21zM369 -39q38 -59 32 -107.5t-50 -86.5h-130q34 37 35.5 72
t-33.5 84z" />
    <glyph glyph-name="Egrave" unicode="&#xc8;" horiz-adv-x="480" 
d="M443 0h-395v675h395v-158h-209v-95h198v-152h-198v-109h209v-161zM351 799l-26 -96l-253 49l35 123z" />
    <glyph glyph-name="Eacute" unicode="&#xc9;" horiz-adv-x="480" 
d="M443 0h-395v675h395v-158h-209v-95h198v-152h-198v-109h209v-161zM411 752l-253 -49l-26 96l244 76z" />
    <glyph glyph-name="Ecircumflex" unicode="&#xca;" horiz-adv-x="480" 
d="M443 0h-395v675h395v-158h-209v-95h198v-152h-198v-109h209v-161zM421 793l-38 -90l-142 48l-137 -47l-35 85l176 87z" />
    <glyph glyph-name="Edieresis" unicode="&#xcb;" horiz-adv-x="480" 
d="M443 0h-395v675h395v-158h-209v-95h198v-152h-198v-109h209v-161zM440 791q0 -36 -25.5 -61t-61.5 -25t-61.5 25t-25.5 61t25.5 61.5t61.5 25.5t61.5 -25.5t25.5 -61.5zM222 791q0 -36 -25.5 -61t-61.5 -25t-61.5 25t-25.5 61t25.5 61.5t61.5 25.5t61.5 -25.5t25.5 -61.5
z" />
    <glyph glyph-name="Igrave" unicode="&#xcc;" horiz-adv-x="282" 
d="M234 0h-186v675h186v-675zM251 799l-26 -96l-253 49l35 123z" />
    <glyph glyph-name="Iacute" unicode="&#xcd;" horiz-adv-x="282" 
d="M234 0h-186v675h186v-675zM310 752l-253 -49l-26 96l244 76z" />
    <glyph glyph-name="Icircumflex" unicode="&#xce;" horiz-adv-x="282" 
d="M234 0h-186v675h186v-675zM318 793l-38 -90l-142 48l-137 -47l-35 85l176 87z" />
    <glyph glyph-name="Idieresis" unicode="&#xcf;" horiz-adv-x="282" 
d="M234 0h-186v675h186v-675zM336 791q0 -36 -25.5 -61t-61.5 -25t-61.5 25t-25.5 61t25.5 61.5t61.5 25.5t61.5 -25.5t25.5 -61.5zM118 791q0 -36 -25.5 -61t-61.5 -25t-61.5 25t-25.5 61t25.5 61.5t61.5 25.5t61.5 -25.5t25.5 -61.5z" />
    <glyph glyph-name="Eth" unicode="&#xd0;" horiz-adv-x="661" 
d="M636 354q0 -167 -96 -262.5t-268 -96.5q-112 0 -214 6v267h-52v140h52v265q106 6 243 6q335 0 335 -325zM435 339q0 91 -29.5 137t-116.5 46q-33 0 -48 -2v-112h91v-140h-91v-109q13 -3 44 -3q67 0 108.5 46t41.5 137z" />
    <glyph glyph-name="Ntilde" unicode="&#xd1;" horiz-adv-x="686" 
d="M638 0h-243l-131 284q-33 74 -46 129q7 -70 7 -238v-175h-177v675h244l126 -272q32 -68 50 -134q-7 64 -7 240v166h177v-675zM548 812q-54 -95 -145 -95q-39 0 -74 20t-47 20q-30 0 -51 -39l-88 58q54 95 145 95q40 0 74 -20t47 -20q30 0 51 39z" />
    <glyph glyph-name="Ograve" unicode="&#xd2;" horiz-adv-x="701" 
d="M680 351q0 -163 -99 -264t-244 -101q-156 0 -236 88.5t-80 249.5q0 163 99 264t244 101q156 0 236 -88.5t80 -249.5zM482 333q0 186 -130 186q-62 0 -97.5 -46.5t-35.5 -130.5q0 -185 130 -185q62 0 97.5 46t35.5 130zM465 799l-26 -96l-253 49l35 123z" />
    <glyph glyph-name="Oacute" unicode="&#xd3;" horiz-adv-x="701" 
d="M680 351q0 -163 -99 -264t-244 -101q-156 0 -236 88.5t-80 249.5q0 163 99 264t244 101q156 0 236 -88.5t80 -249.5zM482 333q0 186 -130 186q-62 0 -97.5 -46.5t-35.5 -130.5q0 -185 130 -185q62 0 97.5 46t35.5 130zM529 752l-253 -49l-26 96l244 76z" />
    <glyph glyph-name="Ocircumflex" unicode="&#xd4;" horiz-adv-x="701" 
d="M680 351q0 -163 -99 -264t-244 -101q-156 0 -236 88.5t-80 249.5q0 163 99 264t244 101q156 0 236 -88.5t80 -249.5zM482 333q0 186 -130 186q-62 0 -97.5 -46.5t-35.5 -130.5q0 -185 130 -185q62 0 97.5 46t35.5 130zM537 793l-38 -90l-142 48l-137 -47l-35 85l176 87z
" />
    <glyph glyph-name="Otilde" unicode="&#xd5;" horiz-adv-x="701" 
d="M680 351q0 -163 -99 -264t-244 -101q-156 0 -236 88.5t-80 249.5q0 163 99 264t244 101q156 0 236 -88.5t80 -249.5zM482 333q0 186 -130 186q-62 0 -97.5 -46.5t-35.5 -130.5q0 -185 130 -185q62 0 97.5 46t35.5 130zM556 812q-54 -95 -145 -95q-39 0 -74 20t-47 20
q-30 0 -51 -39l-88 58q54 95 145 95q40 0 74 -20t47 -20q30 0 51 39z" />
    <glyph glyph-name="Odieresis" unicode="&#xd6;" horiz-adv-x="701" 
d="M680 351q0 -163 -99 -264t-244 -101q-156 0 -236 88.5t-80 249.5q0 163 99 264t244 101q156 0 236 -88.5t80 -249.5zM482 333q0 186 -130 186q-62 0 -97.5 -46.5t-35.5 -130.5q0 -185 130 -185q62 0 97.5 46t35.5 130zM554 791q0 -36 -25.5 -61t-61.5 -25t-61.5 25
t-25.5 61t25.5 61.5t61.5 25.5t61.5 -25.5t25.5 -61.5zM336 791q0 -36 -25.5 -61t-61.5 -25t-61.5 25t-25.5 61t25.5 61.5t61.5 25.5t61.5 -25.5t25.5 -61.5z" />
    <glyph glyph-name="multiply" unicode="&#xd7;" 
d="M515 169l-112 -112l-135 135l-134 -135l-99 99l134 135l-134 134l112 112l134 -134l135 134l99 -99l-135 -134z" />
    <glyph glyph-name="Oslash" unicode="&#xd8;" horiz-adv-x="701" 
d="M680 349q0 -162 -98 -262.5t-245 -100.5q-43 0 -85 8l-48 -97l-126 58l48 96q-105 86 -105 277q0 160 99 260.5t244 100.5q34 0 76 -7l50 100l127 -57l-48 -97q111 -85 111 -279zM490 340q0 27 -4 55.5t-6 38.5t1 24l-151 -307q2 0 8 -0.5t8 -0.5q57 0 100.5 45t43.5 145
zM363 525h-1q-2 0 -6 0.5t-6 0.5q-58 0 -98.5 -46t-40.5 -138q0 -21 3.5 -48.5t4.5 -38.5t-2 -27z" />
    <glyph glyph-name="Ugrave" unicode="&#xd9;" horiz-adv-x="664" 
d="M616 268q0 -143 -77 -212.5t-217 -69.5q-151 0 -212.5 69t-61.5 189v431h186v-422q0 -57 22 -84t77 -27q56 0 77.5 26t21.5 90v417h184v-407zM411 799l-26 -96l-253 49l35 123z" />
    <glyph glyph-name="Uacute" unicode="&#xda;" horiz-adv-x="664" 
d="M616 268q0 -143 -77 -212.5t-217 -69.5q-151 0 -212.5 69t-61.5 189v431h186v-422q0 -57 22 -84t77 -27q56 0 77.5 26t21.5 90v417h184v-407zM554 752l-253 -49l-26 96l244 76z" />
    <glyph glyph-name="Ucircumflex" unicode="&#xdb;" horiz-adv-x="664" 
d="M616 268q0 -143 -77 -212.5t-217 -69.5q-151 0 -212.5 69t-61.5 189v431h186v-422q0 -57 22 -84t77 -27q56 0 77.5 26t21.5 90v417h184v-407zM510 793l-38 -90l-142 48l-137 -47l-35 85l176 87z" />
    <glyph glyph-name="Udieresis" unicode="&#xdc;" horiz-adv-x="664" 
d="M616 268q0 -143 -77 -212.5t-217 -69.5q-151 0 -212.5 69t-61.5 189v431h186v-422q0 -57 22 -84t77 -27q56 0 77.5 26t21.5 90v417h184v-407zM528 791q0 -36 -25.5 -61t-61.5 -25t-61.5 25t-25.5 61t25.5 61.5t61.5 25.5t61.5 -25.5t25.5 -61.5zM310 791q0 -36 -25.5 -61
t-61.5 -25t-61.5 25t-25.5 61t25.5 61.5t61.5 25.5t61.5 -25.5t25.5 -61.5z" />
    <glyph glyph-name="Yacute" unicode="&#xdd;" horiz-adv-x="597" 
d="M604 675l-214 -442v-233h-186v232l-211 443h202l63 -146q24 -55 40 -103h2q12 37 49 118l58 131h197zM509 752l-253 -49l-26 96l244 76z" />
    <glyph glyph-name="Thorn" unicode="&#xde;" horiz-adv-x="564" 
d="M553 362q0 -108 -76.5 -181t-207.5 -73q-24 0 -35 1v-109h-186v675h186v-83q30 2 58 2q123 0 192 -58.5t69 -173.5zM361 353q0 39 -22 64.5t-69 25.5q-10 0 -36 -2v-179q20 -3 41 -3q36 0 61 24t25 70z" />
    <glyph glyph-name="germandbls" unicode="&#xdf;" horiz-adv-x="629" 
d="M611 168q0 -84 -61.5 -133t-156.5 -49q-74 0 -117 19l8 144q43 -25 91 -25q46 0 46 28q0 16 -15.5 29.5t-37.5 26.5t-44.5 30.5t-38 48.5t-15.5 73q0 38 13 69t28 47.5t28 39t13 46.5q0 37 -47 37q-35 0 -55.5 -27.5t-20.5 -78.5v-493h-182v486q0 128 74 190.5t188 62.5
q105 0 170 -43.5t65 -123.5q0 -41 -14 -71t-30 -44t-30 -33t-14 -40q0 -16 16 -30.5t39 -28.5t45.5 -32.5t38.5 -50.5t16 -74z" />
    <glyph glyph-name="agrave" unicode="&#xe0;" horiz-adv-x="529" 
d="M484 0h-170q0 40 4 63h-1q-18 -35 -57 -55t-87 -20q-71 0 -109.5 43.5t-38.5 109.5q0 177 271 177v11q0 24 -15 33.5t-50 9.5q-70 0 -151 -31l-26 137q92 33 201 33q126 0 175.5 -43t49.5 -134v-228q0 -69 4 -106zM296 190v15q-56 0 -76.5 -10.5t-20.5 -35.5
q0 -14 9.5 -24t26.5 -10q26 0 43.5 19.5t17.5 45.5zM379 645l-60 -101l-226 101l74 123z" />
    <glyph glyph-name="aacute" unicode="&#xe1;" horiz-adv-x="529" 
d="M484 0h-170q0 40 4 63h-1q-18 -35 -57 -55t-87 -20q-71 0 -109.5 43.5t-38.5 109.5q0 177 271 177v11q0 24 -15 33.5t-50 9.5q-70 0 -151 -31l-26 137q92 33 201 33q126 0 175.5 -43t49.5 -134v-228q0 -69 4 -106zM296 190v15q-56 0 -76.5 -10.5t-20.5 -35.5
q0 -14 9.5 -24t26.5 -10q26 0 43.5 19.5t17.5 45.5zM454 645l-226 -101l-60 100l212 124z" />
    <glyph glyph-name="acircumflex" unicode="&#xe2;" horiz-adv-x="529" 
d="M484 0h-170q0 40 4 63h-1q-18 -35 -57 -55t-87 -20q-71 0 -109.5 43.5t-38.5 109.5q0 177 271 177v11q0 24 -15 33.5t-50 9.5q-70 0 -151 -31l-26 137q92 33 201 33q126 0 175.5 -43t49.5 -134v-228q0 -69 4 -106zM296 190v15q-56 0 -76.5 -10.5t-20.5 -35.5
q0 -14 9.5 -24t26.5 -10q26 0 43.5 19.5t17.5 45.5zM449 626l-65 -82l-109 77l-109 -77l-65 82l174 142z" />
    <glyph glyph-name="atilde" unicode="&#xe3;" horiz-adv-x="529" 
d="M484 0h-170q0 40 4 63h-1q-18 -35 -57 -55t-87 -20q-71 0 -109.5 43.5t-38.5 109.5q0 177 271 177v11q0 24 -15 33.5t-50 9.5q-70 0 -151 -31l-26 137q92 33 201 33q126 0 175.5 -43t49.5 -134v-228q0 -69 4 -106zM296 190v15q-56 0 -76.5 -10.5t-20.5 -35.5
q0 -14 9.5 -24t26.5 -10q26 0 43.5 19.5t17.5 45.5zM470 660q-51 -106 -139 -106q-38 0 -71.5 22.5t-45.5 22.5q-28 0 -49 -43l-84 64q51 106 139 106q38 0 71.5 -22.5t45.5 -22.5q16 0 27 10t22 33z" />
    <glyph glyph-name="adieresis" unicode="&#xe4;" horiz-adv-x="529" 
d="M484 0h-170q0 40 4 63h-1q-18 -35 -57 -55t-87 -20q-71 0 -109.5 43.5t-38.5 109.5q0 177 271 177v11q0 24 -15 33.5t-50 9.5q-70 0 -151 -31l-26 137q92 33 201 33q126 0 175.5 -43t49.5 -134v-228q0 -69 4 -106zM296 190v15q-56 0 -76.5 -10.5t-20.5 -35.5
q0 -14 9.5 -24t26.5 -10q26 0 43.5 19.5t17.5 45.5zM474 640q0 -38 -27 -64.5t-64 -26.5t-64 26.5t-27 64.5t27 64.5t64 26.5t64 -26.5t27 -64.5zM257 640q0 -38 -26.5 -64.5t-64.5 -26.5t-64.5 26.5t-26.5 64.5t26.5 64.5t64.5 26.5t64.5 -26.5t26.5 -64.5z" />
    <glyph glyph-name="aring" unicode="&#xe5;" horiz-adv-x="529" 
d="M484 0h-170q0 40 4 63h-1q-18 -35 -57 -55t-87 -20q-71 0 -109.5 43.5t-38.5 109.5q0 177 271 177v11q0 24 -15 33.5t-50 9.5q-70 0 -151 -31l-26 137q92 33 201 33q126 0 175.5 -43t49.5 -134v-228q0 -69 4 -106zM296 190v15q-56 0 -76.5 -10.5t-20.5 -35.5
q0 -14 9.5 -24t26.5 -10q26 0 43.5 19.5t17.5 45.5zM422 675q0 -60 -42.5 -99.5t-104.5 -39.5t-104.5 39.5t-42.5 99.5t42.5 99.5t104.5 39.5t104.5 -39.5t42.5 -99.5zM323 675q0 19 -14.5 33.5t-33.5 14.5t-33.5 -14.5t-14.5 -33.5t14.5 -33.5t33.5 -14.5t33.5 14.5
t14.5 33.5z" />
    <glyph glyph-name="ae" unicode="&#xe6;" horiz-adv-x="791" 
d="M763 269q0 -37 -6 -78h-282q2 -28 29 -45.5t78 -17.5q77 0 147 31l16 -136q-87 -35 -192 -35q-155 0 -202 84h-1q-51 -84 -174 -84q-73 0 -112 43.5t-39 109.5q0 94 74 136.5t197 42.5v13q0 21 -18 30t-61 9q-65 0 -134 -31l-29 141q90 29 195 29q107 0 159 -40h1
q49 39 130 39q111 0 167.5 -66t56.5 -175zM586 309q3 69 -51 69q-26 0 -42.5 -19t-18.5 -50h112zM296 190v17q-57 0 -78.5 -11.5t-21.5 -36.5q0 -14 10 -24t27 -10q27 0 45 19.5t18 45.5z" />
    <glyph glyph-name="ccedilla" unicode="&#xe7;" horiz-adv-x="409" 
d="M384 7q-51 -19 -126 -19q-234 0 -234 245q0 119 68 197.5t202 78.5q48 0 90 -13l-25 -158q-34 14 -64 14q-80 0 -80 -107q0 -48 21 -73t59 -25q40 0 69 14zM283 -39q38 -59 32 -107.5t-50 -86.5h-130q34 37 35.5 72t-33.5 84z" />
    <glyph glyph-name="egrave" unicode="&#xe8;" horiz-adv-x="524" 
d="M496 288q0 -60 -7 -98h-281q5 -63 107 -63q72 0 147 30l16 -135q-97 -34 -192 -34q-262 0 -262 254q0 116 68.5 191.5t184.5 75.5q110 0 164.5 -60t54.5 -161zM319 308q3 69 -51 69q-26 0 -42.5 -19t-18.5 -50h112zM380 645l-60 -101l-226 101l74 123z" />
    <glyph glyph-name="eacute" unicode="&#xe9;" horiz-adv-x="524" 
d="M496 288q0 -60 -7 -98h-281q5 -63 107 -63q72 0 147 30l16 -135q-97 -34 -192 -34q-262 0 -262 254q0 116 68.5 191.5t184.5 75.5q110 0 164.5 -60t54.5 -161zM319 308q3 69 -51 69q-26 0 -42.5 -19t-18.5 -50h112zM451 645l-226 -101l-60 100l212 124z" />
    <glyph glyph-name="ecircumflex" unicode="&#xea;" horiz-adv-x="524" 
d="M496 288q0 -60 -7 -98h-281q5 -63 107 -63q72 0 147 30l16 -135q-97 -34 -192 -34q-262 0 -262 254q0 116 68.5 191.5t184.5 75.5q110 0 164.5 -60t54.5 -161zM319 308q3 69 -51 69q-26 0 -42.5 -19t-18.5 -50h112zM447 626l-65 -82l-109 77l-109 -77l-65 82l174 142z
" />
    <glyph glyph-name="edieresis" unicode="&#xeb;" horiz-adv-x="524" 
d="M496 288q0 -60 -7 -98h-281q5 -63 107 -63q72 0 147 30l16 -135q-97 -34 -192 -34q-262 0 -262 254q0 116 68.5 191.5t184.5 75.5q110 0 164.5 -60t54.5 -161zM319 308q3 69 -51 69q-26 0 -42.5 -19t-18.5 -50h112zM472 640q0 -38 -27 -64.5t-64 -26.5t-64 26.5t-27 64.5
t27 64.5t64 26.5t64 -26.5t27 -64.5zM255 640q0 -38 -26.5 -64.5t-64.5 -26.5t-64.5 26.5t-26.5 64.5t26.5 64.5t64.5 26.5t64.5 -26.5t26.5 -64.5z" />
    <glyph glyph-name="igrave" unicode="&#xec;" horiz-adv-x="276" 
d="M229 0h-182v497h182v-497zM268 645l-60 -101l-226 101l74 123z" />
    <glyph glyph-name="iacute" unicode="&#xed;" horiz-adv-x="276" 
d="M229 0h-182v497h182v-497zM295 645l-226 -101l-60 100l212 124z" />
    <glyph glyph-name="icircumflex" unicode="&#xee;" horiz-adv-x="276" 
d="M229 0h-182v497h182v-497zM312 626l-65 -82l-109 77l-109 -77l-65 82l174 142z" />
    <glyph glyph-name="idieresis" unicode="&#xef;" horiz-adv-x="276" 
d="M229 0h-182v497h182v-497zM338 640q0 -38 -27 -64.5t-64 -26.5t-64 26.5t-27 64.5t27 64.5t64 26.5t64 -26.5t27 -64.5zM121 640q0 -38 -26.5 -64.5t-64.5 -26.5t-64.5 26.5t-26.5 64.5t26.5 64.5t64.5 26.5t64.5 -26.5t26.5 -64.5z" />
    <glyph glyph-name="eth" unicode="&#xf0;" horiz-adv-x="567" 
d="M539 286q0 -143 -75 -220.5t-189 -77.5t-182.5 61.5t-68.5 184.5q0 126 72 198.5t176 72.5q27 0 42 -9q-3 4 -17 25q-14 22 -37 45l-79 -34l-71 79l68 29q-30 23 -68 45l176 74q35 -26 59 -49l73 31l71 -79l-72 -30q122 -152 122 -346zM349 260q0 93 -68 93
q-30 0 -49 -26.5t-19 -77.5t19 -77t52 -26q65 0 65 114z" />
    <glyph glyph-name="ntilde" unicode="&#xf1;" horiz-adv-x="564" 
d="M517 0h-182v314q0 41 -28 41q-30 0 -54 -35.5t-24 -77.5v-242h-182v497h168q0 -39 -5 -66h1q55 78 159 78q77 0 112 -43.5t35 -113.5v-352zM478 660q-51 -106 -139 -106q-38 0 -71.5 22.5t-45.5 22.5q-28 0 -49 -43l-84 64q51 106 139 106q38 0 71.5 -22.5t45.5 -22.5
q16 0 27 10t22 33z" />
    <glyph glyph-name="ograve" unicode="&#xf2;" horiz-adv-x="564" 
d="M541 260q0 -122 -78 -197t-193 -75q-247 0 -247 246q0 124 77.5 199.5t194.5 75.5q121 0 183.5 -64.5t62.5 -184.5zM352 249q0 54 -15.5 79t-52.5 25q-30 0 -51 -25t-21 -74q0 -58 15.5 -83t52.5 -25q35 0 53.5 28t18.5 75zM390 645l-60 -101l-226 101l74 123z" />
    <glyph glyph-name="oacute" unicode="&#xf3;" horiz-adv-x="564" 
d="M541 260q0 -122 -78 -197t-193 -75q-247 0 -247 246q0 124 77.5 199.5t194.5 75.5q121 0 183.5 -64.5t62.5 -184.5zM352 249q0 54 -15.5 79t-52.5 25q-30 0 -51 -25t-21 -74q0 -58 15.5 -83t52.5 -25q35 0 53.5 28t18.5 75zM460 645l-226 -101l-60 100l212 124z" />
    <glyph glyph-name="ocircumflex" unicode="&#xf4;" horiz-adv-x="564" 
d="M541 260q0 -122 -78 -197t-193 -75q-247 0 -247 246q0 124 77.5 199.5t194.5 75.5q121 0 183.5 -64.5t62.5 -184.5zM352 249q0 54 -15.5 79t-52.5 25q-30 0 -51 -25t-21 -74q0 -58 15.5 -83t52.5 -25q35 0 53.5 28t18.5 75zM467 626l-65 -82l-109 77l-109 -77l-65 82
l174 142z" />
    <glyph glyph-name="otilde" unicode="&#xf5;" horiz-adv-x="564" 
d="M541 260q0 -122 -78 -197t-193 -75q-247 0 -247 246q0 124 77.5 199.5t194.5 75.5q121 0 183.5 -64.5t62.5 -184.5zM352 249q0 54 -15.5 79t-52.5 25q-30 0 -51 -25t-21 -74q0 -58 15.5 -83t52.5 -25q35 0 53.5 28t18.5 75zM488 660q-51 -106 -139 -106q-38 0 -71.5 22.5
t-45.5 22.5q-28 0 -49 -43l-84 64q51 106 139 106q38 0 71.5 -22.5t45.5 -22.5q16 0 27 10t22 33z" />
    <glyph glyph-name="odieresis" unicode="&#xf6;" horiz-adv-x="564" 
d="M541 260q0 -122 -78 -197t-193 -75q-247 0 -247 246q0 124 77.5 199.5t194.5 75.5q121 0 183.5 -64.5t62.5 -184.5zM352 249q0 54 -15.5 79t-52.5 25q-30 0 -51 -25t-21 -74q0 -58 15.5 -83t52.5 -25q35 0 53.5 28t18.5 75zM492 640q0 -38 -27 -64.5t-64 -26.5t-64 26.5
t-27 64.5t27 64.5t64 26.5t64 -26.5t27 -64.5zM275 640q0 -38 -26.5 -64.5t-64.5 -26.5t-64.5 26.5t-26.5 64.5t26.5 64.5t64.5 26.5t64.5 -26.5t26.5 -64.5z" />
    <glyph glyph-name="divide" unicode="&#xf7;" 
d="M379 498q0 -43 -30.5 -73.5t-73.5 -30.5t-73.5 30.5t-30.5 73.5t30.5 73.5t73.5 30.5t73.5 -30.5t30.5 -73.5zM515 222h-480v152h480v-152zM379 98q0 -43 -30.5 -73.5t-73.5 -30.5t-73.5 30.5t-30.5 73.5t30.5 73.5t73.5 30.5t73.5 -30.5t30.5 -73.5z" />
    <glyph glyph-name="oslash" unicode="&#xf8;" horiz-adv-x="568" 
d="M545 260q0 -123 -76.5 -197.5t-196.5 -74.5q-46 0 -86 9l-56 -92l-90 45l55 91q-72 61 -72 193q0 125 76.5 200t197.5 75q40 0 80 -8l52 84l90 -45l-51 -83q77 -65 77 -197zM373 249q0 26 -3 47l-100 -163h12q91 0 91 116zM294 366h-7q-40 0 -66 -28t-26 -83q0 -25 3 -46
z" />
    <glyph glyph-name="ugrave" unicode="&#xf9;" horiz-adv-x="562" 
d="M516 0h-168q0 38 5 66h-1q-55 -78 -159 -78q-77 0 -112 43.5t-35 113.5v352h182v-314q0 -41 28 -41q30 0 54 35.5t24 77.5v242h182v-497zM380 645l-60 -101l-226 101l74 123z" />
    <glyph glyph-name="uacute" unicode="&#xfa;" horiz-adv-x="562" 
d="M516 0h-168q0 38 5 66h-1q-55 -78 -159 -78q-77 0 -112 43.5t-35 113.5v352h182v-314q0 -41 28 -41q30 0 54 35.5t24 77.5v242h182v-497zM471 645l-226 -101l-60 100l212 124z" />
    <glyph glyph-name="ucircumflex" unicode="&#xfb;" horiz-adv-x="562" 
d="M516 0h-168q0 38 5 66h-1q-55 -78 -159 -78q-77 0 -112 43.5t-35 113.5v352h182v-314q0 -41 28 -41q30 0 54 35.5t24 77.5v242h182v-497zM455 626l-65 -82l-109 77l-109 -77l-65 82l174 142z" />
    <glyph glyph-name="udieresis" unicode="&#xfc;" horiz-adv-x="562" 
d="M516 0h-168q0 38 5 66h-1q-55 -78 -159 -78q-77 0 -112 43.5t-35 113.5v352h182v-314q0 -41 28 -41q30 0 54 35.5t24 77.5v242h182v-497zM481 640q0 -38 -26.5 -64.5t-64.5 -26.5t-64.5 26.5t-26.5 64.5t26.5 64.5t64.5 26.5t64.5 -26.5t26.5 -64.5zM264 640
q0 -38 -27 -64.5t-64 -26.5t-64 26.5t-27 64.5t27 64.5t64 26.5t64 -26.5t27 -64.5z" />
    <glyph glyph-name="yacute" unicode="&#xfd;" horiz-adv-x="534" 
d="M539 497l-189 -505q-51 -135 -113.5 -184t-158.5 -49q-40 0 -86 8l21 154q35 -11 69 -11q26 0 51.5 14t34.5 47l8 29l-176 497h200l29 -91q22 -70 40 -156h2q21 95 45 164l28 83h195zM460 645l-226 -101l-60 100l212 124z" />
    <glyph glyph-name="thorn" unicode="&#xfe;" horiz-adv-x="559" 
d="M534 278q0 -132 -67 -209.5t-203 -77.5q-22 0 -35 3v-227h-182v963h182v-182q0 -56 -4 -90h2q42 51 127 51q87 0 133.5 -62t46.5 -169zM342 258q0 100 -49 100q-27 0 -45.5 -31t-18.5 -88v-102q20 -4 35 -4q78 0 78 125z" />
    <glyph glyph-name="ydieresis" unicode="&#xff;" horiz-adv-x="534" 
d="M539 497l-189 -505q-51 -135 -113.5 -184t-158.5 -49q-40 0 -86 8l21 154q35 -11 69 -11q26 0 51.5 14t34.5 47l8 29l-176 497h200l29 -91q22 -70 40 -156h2q21 95 45 164l28 83h195zM472 640q0 -38 -27 -64.5t-64 -26.5t-64 26.5t-27 64.5t27 64.5t64 26.5t64 -26.5
t27 -64.5zM255 640q0 -38 -26.5 -64.5t-64.5 -26.5t-64.5 26.5t-26.5 64.5t26.5 64.5t64.5 26.5t64.5 -26.5t26.5 -64.5z" />
    <glyph glyph-name="Amacron" unicode="&#x100;" horiz-adv-x="641" 
d="M653 0h-203l-34 110h-210l-33 -110h-184l215 675h223zM371 256l-37 124q-15 49 -24 95h-2q-11 -56 -23 -96l-36 -123h122zM471 731h-318v109h318v-109z" />
    <glyph glyph-name="amacron" unicode="&#x101;" horiz-adv-x="529" 
d="M484 0h-170q0 40 4 63h-1q-18 -35 -57 -55t-87 -20q-71 0 -109.5 43.5t-38.5 109.5q0 177 271 177v11q0 24 -15 33.5t-50 9.5q-70 0 -151 -31l-26 137q92 33 201 33q126 0 175.5 -43t49.5 -134v-228q0 -69 4 -106zM296 190v15q-56 0 -76.5 -10.5t-20.5 -35.5
q0 -14 9.5 -24t26.5 -10q26 0 43.5 19.5t17.5 45.5zM422 575h-295v130h295v-130z" />
    <glyph glyph-name="Abreve" unicode="&#x102;" horiz-adv-x="641" 
d="M653 0h-203l-34 110h-210l-33 -110h-184l215 675h223zM371 256l-37 124q-15 49 -24 95h-2q-11 -56 -23 -96l-36 -123h122zM476 869q0 -67 -41.5 -112t-119.5 -45q-75 0 -117 45.5t-42 111.5h102q0 -22 16.5 -36.5t41.5 -14.5q26 0 41.5 14.5t15.5 36.5h103z" />
    <glyph glyph-name="abreve" unicode="&#x103;" horiz-adv-x="529" 
d="M484 0h-170q0 40 4 63h-1q-18 -35 -57 -55t-87 -20q-71 0 -109.5 43.5t-38.5 109.5q0 177 271 177v11q0 24 -15 33.5t-50 9.5q-70 0 -151 -31l-26 137q92 33 201 33q126 0 175.5 -43t49.5 -134v-228q0 -69 4 -106zM296 190v15q-56 0 -76.5 -10.5t-20.5 -35.5
q0 -14 9.5 -24t26.5 -10q26 0 43.5 19.5t17.5 45.5zM429 724q0 -78 -38.5 -129t-116.5 -51t-115 51.5t-37 128.5h113q0 -53 40 -53t40 53h114z" />
    <glyph glyph-name="Aogonek" unicode="&#x104;" horiz-adv-x="641" 
d="M701 -166q-73 -75 -181 -75q-71 0 -107.5 30t-36.5 77q0 70 74 134l-34 110h-210l-33 -110h-184l215 675h223l226 -675q-55 -13 -81.5 -34.5t-26.5 -45.5q0 -12 9.5 -20t23.5 -8q34 0 59 28zM371 256l-37 124q-15 49 -24 95h-2q-11 -56 -23 -96l-36 -123h122z" />
    <glyph glyph-name="aogonek" unicode="&#x105;" horiz-adv-x="529" 
d="M562 -155q-72 -86 -190 -86q-56 0 -91.5 27t-35.5 80q0 79 78 146q-6 21 -8 47h-1q-19 -34 -56.5 -52.5t-84.5 -18.5q-71 0 -109.5 43.5t-38.5 109.5q0 94 74 136.5t197 42.5v13q0 21 -15 30t-50 9q-71 0 -151 -29l-26 137q91 31 201 31q126 0 175.5 -43t49.5 -134v-188
q0 -86 14 -146q-86 -38 -86 -77q0 -25 32 -25q35 0 58 32zM296 190v17q-57 0 -78.5 -11.5t-21.5 -36.5q0 -14 10 -24t27 -10q27 0 45 19.5t18 45.5z" />
    <glyph glyph-name="Cacute" unicode="&#x106;" horiz-adv-x="541" 
d="M507 16q-69 -25 -160 -25q-76 0 -134.5 20.5t-93 52t-56 75.5t-29 85t-7.5 86q0 171 92 270.5t256 99.5q71 0 130 -18l-23 -170q-48 19 -107 19q-67 0 -105 -44.5t-38 -125.5q0 -180 150 -180q58 0 100 21zM502 752l-253 -49l-26 96l244 76z" />
    <glyph glyph-name="cacute" unicode="&#x107;" horiz-adv-x="409" 
d="M384 7q-51 -19 -126 -19q-234 0 -234 245q0 119 68 197.5t202 78.5q48 0 90 -13l-25 -158q-34 14 -64 14q-80 0 -80 -107q0 -48 21 -73t59 -25q40 0 69 14zM412 645l-226 -101l-60 100l212 124z" />
    <glyph glyph-name="Ccircumflex" unicode="&#x108;" horiz-adv-x="541" 
d="M507 16q-69 -25 -160 -25q-76 0 -134.5 20.5t-93 52t-56 75.5t-29 85t-7.5 86q0 171 92 270.5t256 99.5q71 0 130 -18l-23 -170q-48 19 -107 19q-67 0 -105 -44.5t-38 -125.5q0 -180 150 -180q58 0 100 21zM505 793l-38 -90l-142 48l-137 -47l-35 85l176 87z" />
    <glyph glyph-name="ccircumflex" unicode="&#x109;" horiz-adv-x="409" 
d="M384 7q-51 -19 -126 -19q-234 0 -234 245q0 119 68 197.5t202 78.5q48 0 90 -13l-25 -158q-34 14 -64 14q-80 0 -80 -107q0 -48 21 -73t59 -25q40 0 69 14zM411 626l-65 -82l-109 77l-109 -77l-65 82l174 142z" />
    <glyph glyph-name="Cdotaccent" unicode="&#x10a;" horiz-adv-x="541" 
d="M507 16q-69 -25 -160 -25q-76 0 -134.5 20.5t-93 52t-56 75.5t-29 85t-7.5 86q0 171 92 270.5t256 99.5q71 0 130 -18l-23 -170q-48 19 -107 19q-67 0 -105 -44.5t-38 -125.5q0 -180 150 -180q58 0 100 21zM431 792q0 -37 -27.5 -63t-65.5 -26t-65.5 26t-27.5 63
t27.5 63.5t65.5 26.5t65.5 -26.5t27.5 -63.5z" />
    <glyph glyph-name="cdotaccent" unicode="&#x10b;" horiz-adv-x="409" 
d="M384 7q-51 -19 -126 -19q-234 0 -234 245q0 119 68 197.5t202 78.5q48 0 90 -13l-25 -158q-34 14 -64 14q-80 0 -80 -107q0 -48 21 -73t59 -25q40 0 69 14zM364 640q0 -43 -32 -74t-77 -31t-77 31t-32 74t32 74t77 31t77 -31t32 -74z" />
    <glyph glyph-name="Ccaron" unicode="&#x10c;" horiz-adv-x="541" 
d="M507 16q-69 -25 -160 -25q-76 0 -134.5 20.5t-93 52t-56 75.5t-29 85t-7.5 86q0 171 92 270.5t256 99.5q71 0 130 -18l-23 -170q-48 19 -107 19q-67 0 -105 -44.5t-38 -125.5q0 -180 150 -180q58 0 100 21zM506 790l-176 -87l-176 83l38 90l142 -48l137 47z" />
    <glyph glyph-name="ccaron" unicode="&#x10d;" horiz-adv-x="409" 
d="M384 7q-51 -19 -126 -19q-234 0 -234 245q0 119 68 197.5t202 78.5q48 0 90 -13l-25 -158q-34 14 -64 14q-80 0 -80 -107q0 -48 21 -73t59 -25q40 0 69 14zM418 686l-174 -142l-174 142l65 82l109 -77l109 77z" />
    <glyph glyph-name="Dcaron" unicode="&#x10e;" horiz-adv-x="651" 
d="M626 354q0 -171 -98.5 -265t-265.5 -94q-112 0 -214 6v672q106 6 243 6q335 0 335 -325zM425 339q0 90 -29 136.5t-115 46.5q-33 0 -47 -2v-361q12 -3 43 -3q66 0 107 46.5t41 136.5zM460 790l-176 -87l-176 83l38 90l142 -48l137 47z" />
    <glyph glyph-name="dcaron" unicode="&#x10f;" horiz-adv-x="643" 
d="M512 0h-165q0 34 3 56h-2q-46 -69 -143 -69q-87 0 -133.5 62.5t-46.5 169.5q0 124 72.5 207t199.5 83q15 0 33 -2v223h182v-730zM330 258v102q-15 4 -35 4q-78 0 -78 -125q0 -100 49 -100q27 0 45.5 31t18.5 88zM712 772l-69 -236l-115 21l43 240z" />
    <glyph glyph-name="Dcroat" unicode="&#x110;" horiz-adv-x="661" 
d="M636 354q0 -167 -96 -262.5t-268 -96.5q-112 0 -214 6v267h-52v140h52v265q106 6 243 6q335 0 335 -325zM435 339q0 91 -29.5 137t-116.5 46q-33 0 -48 -2v-112h91v-140h-91v-109q13 -3 44 -3q67 0 108.5 46t41.5 137z" />
    <glyph glyph-name="dcroat" unicode="&#x111;" horiz-adv-x="559" 
d="M559 570h-47v-570h-165q0 34 3 56h-2q-46 -69 -143 -69q-87 0 -133.5 62.5t-46.5 169.5q0 124 72.5 207t199.5 83q15 0 33 -2v63h-89v109h89v51h182v-51h47v-109zM330 258v102q-15 4 -35 4q-78 0 -78 -125q0 -100 49 -100q27 0 45.5 31t18.5 88z" />
    <glyph glyph-name="Emacron" unicode="&#x112;" horiz-adv-x="480" 
d="M443 0h-395v675h395v-158h-209v-95h198v-152h-198v-109h209v-161zM403 731h-318v109h318v-109z" />
    <glyph glyph-name="emacron" unicode="&#x113;" horiz-adv-x="524" 
d="M496 288q0 -60 -7 -98h-281q5 -63 107 -63q72 0 147 30l16 -135q-97 -34 -192 -34q-262 0 -262 254q0 116 68.5 191.5t184.5 75.5q110 0 164.5 -60t54.5 -161zM319 308q3 69 -51 69q-26 0 -42.5 -19t-18.5 -50h112zM418 575h-295v130h295v-130z" />
    <glyph glyph-name="Ebreve" unicode="&#x114;" horiz-adv-x="480" 
d="M443 0h-395v675h395v-158h-209v-95h198v-152h-198v-109h209v-161zM413 869q0 -67 -41.5 -112t-119.5 -45q-75 0 -117 45.5t-42 111.5h102q0 -22 16.5 -36.5t41.5 -14.5q26 0 41.5 14.5t15.5 36.5h103z" />
    <glyph glyph-name="ebreve" unicode="&#x115;" horiz-adv-x="524" 
d="M496 288q0 -60 -7 -98h-281q5 -63 107 -63q72 0 147 30l16 -135q-97 -34 -192 -34q-262 0 -262 254q0 116 68.5 191.5t184.5 75.5q110 0 164.5 -60t54.5 -161zM319 308q3 69 -51 69q-26 0 -42.5 -19t-18.5 -50h112zM419 724q0 -78 -38.5 -129t-116.5 -51t-115 51.5
t-37 128.5h113q0 -53 40 -53t40 53h114z" />
    <glyph glyph-name="Edotaccent" unicode="&#x116;" horiz-adv-x="480" 
d="M443 0h-395v675h395v-158h-209v-95h198v-152h-198v-109h209v-161zM341 792q0 -37 -27.5 -63t-65.5 -26t-65.5 26t-27.5 63t27.5 63.5t65.5 26.5t65.5 -26.5t27.5 -63.5z" />
    <glyph glyph-name="edotaccent" unicode="&#x117;" horiz-adv-x="524" 
d="M496 288q0 -60 -7 -98h-281q5 -63 107 -63q72 0 147 30l16 -135q-97 -34 -192 -34q-262 0 -262 254q0 116 68.5 191.5t184.5 75.5q110 0 164.5 -60t54.5 -161zM319 308q3 69 -51 69q-26 0 -42.5 -19t-18.5 -50h112zM382 640q0 -43 -32 -74t-77 -31t-77 31t-32 74t32 74
t77 31t77 -31t32 -74z" />
    <glyph glyph-name="Eogonek" unicode="&#x118;" horiz-adv-x="480" 
d="M498 -166q-73 -75 -181 -75q-71 0 -107.5 30t-36.5 77q0 72 75 134h-200v675h392v-158h-206v-95h195v-152h-195v-109h213v-159q-54 -13 -79.5 -35.5t-25.5 -46.5q0 -12 9.5 -20t23.5 -8q34 0 59 28z" />
    <glyph glyph-name="eogonek" unicode="&#x119;" horiz-adv-x="524" 
d="M478 22q-52 -14 -80.5 -42.5t-28.5 -59.5q0 -28 29 -28q33 0 67 25l45 -101q-69 -57 -168 -57q-71 0 -106.5 30t-35.5 77q0 70 69 129q-9 -3 -19 -3q-29 0 -56.5 5.5t-59.5 22t-55.5 43t-39 73t-15.5 106.5q0 116 68.5 191.5t184.5 75.5q110 0 164.5 -60t54.5 -161
q0 -60 -7 -98h-281q5 -63 107 -63q72 0 147 30zM319 308q3 69 -51 69q-26 0 -42.5 -19t-18.5 -50h112z" />
    <glyph glyph-name="Ecaron" unicode="&#x11a;" horiz-adv-x="480" 
d="M443 0h-395v675h395v-158h-209v-95h198v-152h-198v-109h209v-161zM421 790l-176 -87l-176 83l38 90l142 -48l137 47z" />
    <glyph glyph-name="ecaron" unicode="&#x11b;" horiz-adv-x="524" 
d="M496 288q0 -60 -7 -98h-281q5 -63 107 -63q72 0 147 30l16 -135q-97 -34 -192 -34q-262 0 -262 254q0 116 68.5 191.5t184.5 75.5q110 0 164.5 -60t54.5 -161zM319 308q3 69 -51 69q-26 0 -42.5 -19t-18.5 -50h112zM446 686l-174 -142l-174 142l65 82l109 -77l109 77z
" />
    <glyph glyph-name="Gcircumflex" unicode="&#x11c;" horiz-adv-x="664" 
d="M617 35q-105 -47 -243 -47q-172 0 -260 86t-88 236q0 175 103 275.5t289 100.5q107 0 198 -28l-36 -170q-77 30 -169 30t-137.5 -50t-45.5 -136q0 -82 41 -128t124 -46q21 0 38 5v205h186v-333zM558 793l-38 -90l-142 48l-137 -47l-35 85l176 87z" />
    <glyph glyph-name="gcircumflex" unicode="&#x11d;" horiz-adv-x="552" 
d="M531 -33q0 -87 -79 -149.5t-208 -62.5q-219 0 -219 148q0 31 20 63t47 45q-47 24 -47 79q0 32 18 59t45 37q-75 38 -75 133q0 82 59.5 136.5t172.5 54.5q47 0 96 -13h169v-143h-46q2 -6 2 -21q0 -85 -55.5 -131t-162.5 -46h-18q-12 -6 -12 -17q0 -12 11 -15t54 -5l56 -2
q172 -6 172 -150zM316 327q0 24 -14.5 38.5t-42.5 14.5q-25 0 -39.5 -14t-14.5 -37q0 -24 14.5 -38.5t42.5 -14.5q25 0 39.5 14t14.5 37zM353 -57q0 37 -45 38l-70 2h-15q-20 -20 -20 -44q0 -21 17 -34t50 -13q40 0 61.5 14.5t21.5 36.5zM437 626l-65 -82l-109 77l-109 -77
l-65 82l174 142z" />
    <glyph glyph-name="Gbreve" unicode="&#x11e;" horiz-adv-x="664" 
d="M617 35q-105 -47 -243 -47q-172 0 -260 86t-88 236q0 175 103 275.5t289 100.5q107 0 198 -28l-36 -170q-77 30 -169 30t-137.5 -50t-45.5 -136q0 -82 41 -128t124 -46q21 0 38 5v205h186v-333zM556 869q0 -67 -41.5 -112t-119.5 -45q-75 0 -117 45.5t-42 111.5h102
q0 -22 16.5 -36.5t41.5 -14.5q26 0 41.5 14.5t15.5 36.5h103z" />
    <glyph glyph-name="gbreve" unicode="&#x11f;" horiz-adv-x="552" 
d="M531 -33q0 -87 -79 -149.5t-208 -62.5q-219 0 -219 148q0 31 20 63t47 45q-47 24 -47 79q0 32 18 59t45 37q-75 38 -75 133q0 82 59.5 136.5t172.5 54.5q47 0 96 -13h169v-143h-46q2 -6 2 -21q0 -85 -55.5 -131t-162.5 -46h-18q-12 -6 -12 -17q0 -12 11 -15t54 -5l56 -2
q172 -6 172 -150zM316 327q0 24 -14.5 38.5t-42.5 14.5q-25 0 -39.5 -14t-14.5 -37q0 -24 14.5 -38.5t42.5 -14.5q25 0 39.5 14t14.5 37zM353 -57q0 37 -45 38l-70 2h-15q-20 -20 -20 -44q0 -21 17 -34t50 -13q40 0 61.5 14.5t21.5 36.5zM425 724q0 -78 -38.5 -129
t-116.5 -51t-115 51.5t-37 128.5h113q0 -53 40 -53t40 53h114z" />
    <glyph glyph-name="Gdotaccent" unicode="&#x120;" horiz-adv-x="664" 
d="M617 35q-105 -47 -243 -47q-172 0 -260 86t-88 236q0 175 103 275.5t289 100.5q107 0 198 -28l-36 -170q-77 30 -169 30t-137.5 -50t-45.5 -136q0 -82 41 -128t124 -46q21 0 38 5v205h186v-333zM481 792q0 -37 -27.5 -63t-65.5 -26t-65.5 26t-27.5 63t27.5 63.5
t65.5 26.5t65.5 -26.5t27.5 -63.5z" />
    <glyph glyph-name="gdotaccent" unicode="&#x121;" horiz-adv-x="552" 
d="M531 -33q0 -87 -79 -149.5t-208 -62.5q-219 0 -219 148q0 31 20 63t47 45q-47 24 -47 79q0 32 18 59t45 37q-75 38 -75 133q0 82 59.5 136.5t172.5 54.5q47 0 96 -13h169v-143h-46q2 -6 2 -21q0 -85 -55.5 -131t-162.5 -46h-18q-12 -6 -12 -17q0 -12 11 -15t54 -5l56 -2
q172 -6 172 -150zM316 327q0 24 -14.5 38.5t-42.5 14.5q-25 0 -39.5 -14t-14.5 -37q0 -24 14.5 -38.5t42.5 -14.5q25 0 39.5 14t14.5 37zM353 -57q0 37 -45 38l-70 2h-15q-20 -20 -20 -44q0 -21 17 -34t50 -13q40 0 61.5 14.5t21.5 36.5zM370 640q0 -43 -32 -74t-77 -31
t-77 31t-32 74t32 74t77 31t77 -31t32 -74z" />
    <glyph glyph-name="Gcommaaccent" unicode="&#x122;" horiz-adv-x="664" 
d="M617 35q-105 -47 -243 -47q-172 0 -260 86t-88 236q0 175 103 275.5t289 100.5q107 0 198 -28l-36 -170q-77 30 -169 30t-137.5 -50t-45.5 -136q0 -82 41 -128t124 -46q21 0 38 5v205h186v-333zM401 -44q34 0 54 -21.5t20 -56.5q0 -50 -46.5 -86.5t-137.5 -36.5l-18 65
q32 7 43.5 14t11.5 21q0 5 -1.5 15t-1.5 16q0 29 20 49.5t56 20.5z" />
    <glyph glyph-name="gcommaaccent" unicode="&#x123;" horiz-adv-x="552" 
d="M531 -33q0 -87 -79 -149.5t-208 -62.5q-219 0 -219 148q0 31 20 63t47 45q-47 24 -47 79q0 32 18 59t45 37q-75 38 -75 133q0 82 59.5 136.5t172.5 54.5q47 0 96 -13h169v-143h-46q2 -6 2 -21q0 -85 -55.5 -131t-162.5 -46h-18q-12 -6 -12 -17q0 -12 11 -15t54 -5l56 -2
q172 -6 172 -150zM316 327q0 24 -14.5 38.5t-42.5 14.5q-25 0 -39.5 -14t-14.5 -37q0 -24 14.5 -38.5t42.5 -14.5q25 0 39.5 14t14.5 37zM353 -57q0 37 -45 38l-70 2h-15q-20 -20 -20 -44q0 -21 17 -34t50 -13q40 0 61.5 14.5t21.5 36.5zM245 555q-34 0 -54 23.5t-20 55.5
q0 47 45 84.5t139 37.5l18 -65q-55 -11 -55 -34q0 -6 1.5 -15.5t1.5 -16.5q0 -32 -21.5 -51t-54.5 -19z" />
    <glyph glyph-name="Hcircumflex" unicode="&#x124;" horiz-adv-x="670" 
d="M622 0h-186v266h-202v-266h-186v675h186v-246h202v246h186v-675zM512 793l-38 -90l-142 48l-137 -47l-35 85l176 87z" />
    <glyph glyph-name="hcircumflex" unicode="&#x125;" horiz-adv-x="564" 
d="M517 0h-182v314q0 41 -28 41q-30 0 -54 -36t-24 -78v-241h-182v730h182v-182q0 -61 -9 -103h1q50 64 149 64q77 0 112 -43.5t35 -113.5v-352zM450 833l-38 -90l-142 48l-137 -47l-35 85l176 87z" />
    <glyph glyph-name="Hbar" unicode="&#x126;" horiz-adv-x="690" 
d="M632 617h50v-152h-50v-465h-186v239h-202v-239h-186v465h-50v152h50v58h186v-58h202v58h186v-58zM446 465h-202v-74h202v74z" />
    <glyph glyph-name="hbar" unicode="&#x127;" horiz-adv-x="575" 
d="M527 0h-182v309q0 41 -28 41q-30 0 -54 -36t-24 -78v-236h-182v535h-57v140h57v55h182v-55h96v-140h-96v-9q0 -43 -9 -86h1q50 64 149 64q77 0 112 -43.5t35 -113.5v-347z" />
    <glyph glyph-name="Itilde" unicode="&#x128;" horiz-adv-x="282" 
d="M234 0h-186v675h186v-675zM344 812q-54 -95 -145 -95q-39 0 -74 20t-47 20q-30 0 -51 -39l-88 58q54 95 145 95q40 0 74 -20t47 -20q30 0 51 39z" />
    <glyph glyph-name="itilde" unicode="&#x129;" horiz-adv-x="276" 
d="M229 0h-182v497h182v-497zM333 660q-51 -106 -139 -106q-38 0 -71.5 22.5t-45.5 22.5q-16 0 -27 -10t-22 -33l-84 64q51 106 139 106q38 0 71.5 -22.5t45.5 -22.5q28 0 49 43z" />
    <glyph glyph-name="Imacron" unicode="&#x12a;" horiz-adv-x="282" 
d="M234 0h-186v675h186v-675zM300 731h-318v109h318v-109z" />
    <glyph glyph-name="imacron" unicode="&#x12b;" horiz-adv-x="276" 
d="M229 0h-182v497h182v-497zM286 575h-295v130h295v-130z" />
    <glyph glyph-name="Ibreve" unicode="&#x12c;" horiz-adv-x="282" 
d="M234 0h-186v675h186v-675zM300 869q0 -67 -41.5 -112t-119.5 -45q-75 0 -117 45.5t-42 111.5h102q0 -22 16.5 -36.5t41.5 -14.5q26 0 41.5 14.5t15.5 36.5h103z" />
    <glyph glyph-name="ibreve" unicode="&#x12d;" horiz-adv-x="276" 
d="M229 0h-182v497h182v-497zM293 724q0 -78 -38.5 -129t-116.5 -51t-115 51.5t-37 128.5h113q0 -53 40 -53t40 53h114z" />
    <glyph glyph-name="Iogonek" unicode="&#x12e;" horiz-adv-x="282" 
d="M300 -158q-70 -83 -189 -83q-56 0 -91.5 27.5t-35.5 79.5q0 73 64 135v674h186v-675q-87 -35 -87 -78q0 -12 9 -19.5t22 -7.5q36 0 58 31z" />
    <glyph glyph-name="iogonek" unicode="&#x12f;" horiz-adv-x="276" 
d="M247 640q0 -43 -32 -74t-77 -31t-77 31t-32 74t32 74t77 31t77 -31t32 -74zM297 -158q-70 -83 -189 -83q-56 0 -91.5 27t-35.5 80q0 75 66 134v497h182v-497q-85 -33 -85 -78q0 -12 9 -19.5t22 -7.5q36 0 58 31z" />
    <glyph glyph-name="Idotaccent" unicode="&#x130;" horiz-adv-x="282" 
d="M234 0h-186v675h186v-675zM235 792q0 -37 -27.5 -63t-65.5 -26t-65.5 26t-27.5 63t27.5 63.5t65.5 26.5t65.5 -26.5t27.5 -63.5z" />
    <glyph glyph-name="dotlessi" unicode="&#x131;" horiz-adv-x="276" 
d="M229 0h-182v497h182v-497z" />
    <glyph glyph-name="IJ" unicode="&#x132;" horiz-adv-x="625" 
d="M234 0h-186v675h186v-675zM579 207q0 -43 -10 -80t-31.5 -69t-62.5 -50.5t-98 -18.5q-53 0 -95 8v156q24 -8 51 -8q60 0 60 66v464h186v-468z" />
    <glyph glyph-name="ij" unicode="&#x133;" horiz-adv-x="553" 
d="M247 640q0 -43 -32 -74t-77 -31t-77 31t-32 74t32 74t77 31t77 -31t32 -74zM229 0h-182v497h182v-497zM523 640q0 -43 -32 -74t-77 -31t-77 31t-32 74t32 74t77 31t77 -31t32 -74zM506 -11q0 -228 -224 -228q-37 0 -74 10l9 153q28 -11 55 -11q52 0 52 55v529h182v-508z
" />
    <glyph glyph-name="Jcircumflex" unicode="&#x134;" horiz-adv-x="343" 
d="M297 207q0 -43 -10 -80t-31.5 -69t-62.5 -50.5t-98 -18.5q-53 0 -95 8v156q24 -8 51 -8q60 0 60 66v464h186v-468zM380 793l-38 -90l-142 48l-137 -47l-35 85l176 87z" />
    <glyph glyph-name="jcircumflex" unicode="&#x135;" horiz-adv-x="277" 
d="M230 -11q0 -228 -224 -228q-37 0 -74 10l9 153q28 -11 55 -11q52 0 52 55v529h182v-508zM314 626l-65 -82l-109 77l-109 -77l-65 82l174 142z" />
    <glyph glyph-name="Kcommaaccent" unicode="&#x136;" horiz-adv-x="615" 
d="M616 0h-239l-143 308v-308h-186v675h186v-289l146 289h225l-193 -325zM306 -44q34 0 54 -21.5t20 -56.5q0 -50 -46.5 -86.5t-137.5 -36.5l-18 65q32 7 43.5 14t11.5 21q0 5 -1.5 15t-1.5 16q0 29 20 49.5t56 20.5z" />
    <glyph glyph-name="kcommaaccent" unicode="&#x137;" horiz-adv-x="565" 
d="M565 0h-225l-111 230v-230h-182v730h182v-424l102 191h224l-151 -228zM288 -44q34 0 54 -21.5t20 -56.5q0 -50 -46.5 -86.5t-137.5 -36.5l-18 65q32 7 43.5 14t11.5 21q0 5 -1.5 15t-1.5 16q0 29 20 49.5t56 20.5z" />
    <glyph glyph-name="kgreenlandic" unicode="&#x138;" horiz-adv-x="565" 
d="M565 0h-225l-111 230v-230h-182v497h182v-191l102 191h224l-151 -228z" />
    <glyph glyph-name="Lacute" unicode="&#x139;" horiz-adv-x="432" 
d="M420 0h-372v675h186v-509h186v-166zM340 752l-253 -49l-26 96l244 76z" />
    <glyph glyph-name="lacute" unicode="&#x13a;" horiz-adv-x="276" 
d="M229 0h-182v730h182v-730zM329 808l-253 -49l-26 96l244 76z" />
    <glyph glyph-name="Lcommaaccent" unicode="&#x13b;" horiz-adv-x="432" 
d="M420 0h-372v675h186v-509h186v-166zM246 -44q34 0 54 -21.5t20 -56.5q0 -50 -46.5 -86.5t-137.5 -36.5l-18 65q32 7 43.5 14t11.5 21q0 5 -1.5 15t-1.5 16q0 29 20 49.5t56 20.5z" />
    <glyph glyph-name="lcommaaccent" unicode="&#x13c;" horiz-adv-x="276" 
d="M229 0h-182v730h182v-730zM144 -44q34 0 54 -21.5t20 -56.5q0 -50 -46.5 -86.5t-137.5 -36.5l-18 65q32 7 43.5 14t11.5 21q0 5 -1.5 15t-1.5 16q0 29 20 49.5t56 20.5z" />
    <glyph glyph-name="Lcaron" unicode="&#x13d;" horiz-adv-x="442" 
d="M420 0h-372v675h186v-509h186v-166zM487 773l-126 -211l-106 50l103 221z" />
    <glyph glyph-name="lcaron" unicode="&#x13e;" horiz-adv-x="360" 
d="M229 0h-182v730h182v-730zM429 772l-69 -236l-115 21l43 240z" />
    <glyph glyph-name="Ldot" unicode="&#x13f;" horiz-adv-x="732" 
d="M420 0h-372v675h186v-509h186v-166zM682 298q0 -45 -32.5 -77.5t-77.5 -32.5t-77.5 32.5t-32.5 77.5t32.5 77.5t77.5 32.5t77.5 -32.5t32.5 -77.5z" />
    <glyph glyph-name="ldot" unicode="&#x140;" horiz-adv-x="596" 
d="M229 0h-182v730h182v-730zM546 298q0 -45 -32.5 -77.5t-77.5 -32.5t-77.5 32.5t-32.5 77.5t32.5 77.5t77.5 32.5t77.5 -32.5t32.5 -77.5z" />
    <glyph glyph-name="Lslash" unicode="&#x141;" horiz-adv-x="442" 
d="M430 0h-372v266l-48 -23l-30 145l78 37v250h186v-163l79 36l30 -145l-109 -50v-187h186v-166z" />
    <glyph glyph-name="lslash" unicode="&#x142;" horiz-adv-x="312" 
d="M312 399l-65 -33v-366h-182v272l-35 -18l-30 138l65 33v305h182v-211l35 18z" />
    <glyph glyph-name="Nacute" unicode="&#x143;" horiz-adv-x="686" 
d="M638 0h-243l-131 284q-33 74 -46 129q7 -70 7 -238v-175h-177v675h244l126 -272q32 -68 50 -134q-7 64 -7 240v166h177v-675zM554 752l-253 -49l-26 96l244 76z" />
    <glyph glyph-name="nacute" unicode="&#x144;" horiz-adv-x="564" 
d="M517 0h-182v314q0 41 -28 41q-30 0 -54 -35.5t-24 -77.5v-242h-182v497h168q0 -39 -5 -66h1q55 78 159 78q77 0 112 -43.5t35 -113.5v-352zM470 645l-226 -101l-60 100l212 124z" />
    <glyph glyph-name="Ncommaaccent" unicode="&#x145;" horiz-adv-x="686" 
d="M638 0h-243l-131 284q-33 74 -46 129q7 -70 7 -238v-175h-177v675h244l126 -272q32 -68 50 -134q-7 64 -7 240v166h177v-675zM348 -44q34 0 54 -21.5t20 -56.5q0 -50 -46.5 -86.5t-137.5 -36.5l-18 65q32 7 43.5 14t11.5 21q0 5 -1.5 15t-1.5 16q0 29 20 49.5t56 20.5z
" />
    <glyph glyph-name="ncommaaccent" unicode="&#x146;" horiz-adv-x="564" 
d="M517 0h-182v314q0 41 -28 41q-30 0 -54 -35.5t-24 -77.5v-242h-182v497h168q0 -39 -5 -66h1q55 78 159 78q77 0 112 -43.5t35 -113.5v-352zM286 -44q34 0 54 -21.5t20 -56.5q0 -50 -46.5 -86.5t-137.5 -36.5l-18 65q32 7 43.5 14t11.5 21q0 5 -1.5 15t-1.5 16
q0 29 20 49.5t56 20.5z" />
    <glyph glyph-name="Ncaron" unicode="&#x147;" horiz-adv-x="686" 
d="M638 0h-243l-131 284q-33 74 -46 129q7 -70 7 -238v-175h-177v675h244l126 -272q32 -68 50 -134q-7 64 -7 240v166h177v-675zM518 790l-176 -87l-176 83l38 90l142 -48l137 47z" />
    <glyph glyph-name="ncaron" unicode="&#x148;" horiz-adv-x="564" 
d="M517 0h-182v314q0 41 -28 41q-30 0 -54 -35.5t-24 -77.5v-242h-182v497h168q0 -39 -5 -66h1q55 78 159 78q77 0 112 -43.5t35 -113.5v-352zM447 686l-174 -142l-174 142l65 82l109 -77l109 77z" />
    <glyph glyph-name="napostrophe" unicode="&#x149;" horiz-adv-x="710" 
d="M111 753q55 0 80 -53q32 -69 -17 -160q-34 -63 -102 -120l-61 54q46 49 52.5 79.5t-20.5 60.5q-19 26 -20 57t24 56.5t64 25.5zM663 0h-182v314q0 41 -28 41q-30 0 -54 -35.5t-24 -77.5v-242h-182v497h168q0 -39 -5 -66h1q55 78 159 78q77 0 112 -43.5t35 -113.5v-352z
" />
    <glyph glyph-name="Eng" unicode="&#x14a;" horiz-adv-x="686" 
d="M638 675v-685q0 -104 -53.5 -161.5t-171.5 -73.5l-41 148q41 4 62.5 20.5t21.5 40.5l-185 312q-31 53 -53 113q7 -70 7 -214v-175h-177v675h203l160 -265q42 -69 57 -112q-7 64 -7 211v166h177z" />
    <glyph glyph-name="eng" unicode="&#x14b;" horiz-adv-x="564" 
d="M522 164q0 -149 -17 -219t-59 -112q-46 -46 -142 -71l-44 144q33 10 48 25q19 19 25.5 55t6.5 147v21q0 91 -4.5 135t-12 55t-23.5 11q-25 0 -48 -34t-23 -76v-245h-182v497h168q0 -38 -5 -65h1q25 36 64.5 56.5t83.5 20.5q92 0 127.5 -67.5t35.5 -249.5v-28z" />
    <glyph glyph-name="Omacron" unicode="&#x14c;" horiz-adv-x="701" 
d="M680 351q0 -163 -99 -264t-244 -101q-156 0 -236 88.5t-80 249.5q0 163 99 264t244 101q156 0 236 -88.5t80 -249.5zM482 333q0 186 -130 186q-62 0 -97.5 -46.5t-35.5 -130.5q0 -185 130 -185q62 0 97.5 46t35.5 130zM513 731h-318v109h318v-109z" />
    <glyph glyph-name="omacron" unicode="&#x14d;" horiz-adv-x="564" 
d="M541 260q0 -122 -78 -197t-193 -75q-247 0 -247 246q0 124 77.5 199.5t194.5 75.5q121 0 183.5 -64.5t62.5 -184.5zM352 249q0 54 -15.5 79t-52.5 25q-30 0 -51 -25t-21 -74q0 -58 15.5 -83t52.5 -25q35 0 53.5 28t18.5 75zM440 575h-295v130h295v-130z" />
    <glyph glyph-name="Obreve" unicode="&#x14e;" horiz-adv-x="701" 
d="M680 351q0 -163 -99 -264t-244 -101q-156 0 -236 88.5t-80 249.5q0 163 99 264t244 101q156 0 236 -88.5t80 -249.5zM482 333q0 186 -130 186q-62 0 -97.5 -46.5t-35.5 -130.5q0 -185 130 -185q62 0 97.5 46t35.5 130zM510 869q0 -67 -41.5 -112t-119.5 -45
q-75 0 -117 45.5t-42 111.5h102q0 -22 16.5 -36.5t41.5 -14.5q26 0 41.5 14.5t15.5 36.5h103z" />
    <glyph glyph-name="obreve" unicode="&#x14f;" horiz-adv-x="564" 
d="M541 260q0 -122 -78 -197t-193 -75q-247 0 -247 246q0 124 77.5 199.5t194.5 75.5q121 0 183.5 -64.5t62.5 -184.5zM352 249q0 54 -15.5 79t-52.5 25q-30 0 -51 -25t-21 -74q0 -58 15.5 -83t52.5 -25q35 0 53.5 28t18.5 75zM437 724q0 -78 -38.5 -129t-116.5 -51
t-115 51.5t-37 128.5h113q0 -53 40 -53t40 53h114z" />
    <glyph glyph-name="Ohungarumlaut" unicode="&#x150;" horiz-adv-x="701" 
d="M680 351q0 -163 -99 -264t-244 -101q-156 0 -236 88.5t-80 249.5q0 163 99 264t244 101q156 0 236 -88.5t80 -249.5zM482 333q0 186 -130 186q-62 0 -97.5 -46.5t-35.5 -130.5q0 -185 130 -185q62 0 97.5 46t35.5 130zM678 785l-197 -85l-48 82l187 106zM424 800
l-189 -102l-50 77l176 124z" />
    <glyph glyph-name="ohungarumlaut" unicode="&#x151;" horiz-adv-x="564" 
d="M541 260q0 -122 -78 -197t-193 -75q-247 0 -247 246q0 124 77.5 199.5t194.5 75.5q121 0 183.5 -64.5t62.5 -184.5zM352 249q0 54 -15.5 79t-52.5 25q-30 0 -51 -25t-21 -74q0 -58 15.5 -83t52.5 -25q35 0 53.5 28t18.5 75zM591 688l-179 -144l-76 70l164 164zM361 707
l-163 -163l-81 69l145 177z" />
    <glyph glyph-name="OE" unicode="&#x152;" horiz-adv-x="856" 
d="M819 0h-375q-54 -14 -107 -14q-156 0 -236 89.5t-80 252.5q0 160 97.5 260.5t237.5 100.5q58 0 111 -14h352v-158h-209v-95h198v-152h-198v-109h209v-161zM424 176v330q-34 13 -74 13q-54 0 -92.5 -44t-38.5 -133q0 -185 127 -185q37 0 78 19z" />
    <glyph glyph-name="oe" unicode="&#x153;" horiz-adv-x="841" 
d="M813 269q0 -37 -6 -78h-282q2 -28 29 -45.5t78 -17.5q77 0 147 31l16 -136q-87 -35 -192 -35q-111 0 -175 52q-62 -52 -158 -52q-247 0 -247 246q0 125 77 200t195 75q93 0 150 -44q59 45 144 45q111 0 167.5 -66t56.5 -175zM636 309q3 69 -51 69q-26 0 -42.5 -19
t-18.5 -50h112zM352 249q0 54 -15.5 79t-52.5 25q-30 0 -51 -25t-21 -74q0 -58 15.5 -83t52.5 -25q35 0 53.5 28t18.5 75z" />
    <glyph glyph-name="Racute" unicode="&#x154;" horiz-adv-x="586" 
d="M594 0h-226l-125 246h-9v-246h-186v675q79 5 231 5q133 0 200.5 -50.5t67.5 -160.5q0 -61 -32.5 -112.5t-88.5 -72.5q30 -45 49 -78zM351 455q0 72 -82 72q-23 0 -35 -2v-145q14 -2 31 -2q39 0 62.5 20t23.5 57zM469 752l-253 -49l-26 96l244 76z" />
    <glyph glyph-name="racute" unicode="&#x155;" horiz-adv-x="356" 
d="M351 510l-9 -180q-56 15 -84.5 -14t-28.5 -108v-208h-182v497h168q0 -29 -5 -74h1q48 90 140 87zM381 645l-226 -101l-60 100l212 124z" />
    <glyph glyph-name="Rcommaaccent" unicode="&#x156;" horiz-adv-x="586" 
d="M594 0h-226l-125 246h-9v-246h-186v675q79 5 231 5q133 0 200.5 -50.5t67.5 -160.5q0 -61 -32.5 -112.5t-88.5 -72.5q30 -45 49 -78zM351 455q0 72 -82 72q-23 0 -35 -2v-145q14 -2 31 -2q39 0 62.5 20t23.5 57zM296 -44q34 0 54 -21.5t20 -56.5q0 -50 -46.5 -86.5
t-137.5 -36.5l-18 65q32 7 43.5 14t11.5 21q0 5 -1.5 15t-1.5 16q0 29 20 49.5t56 20.5z" />
    <glyph glyph-name="rcommaaccent" unicode="&#x157;" horiz-adv-x="356" 
d="M351 510l-9 -180q-56 15 -84.5 -14t-28.5 -108v-208h-182v497h168q0 -29 -5 -74h1q48 90 140 87zM156 -44q34 0 54 -21.5t20 -56.5q0 -50 -46.5 -86.5t-137.5 -36.5l-18 65q32 7 43.5 14t11.5 21q0 5 -1.5 15t-1.5 16q0 29 20 49.5t56 20.5z" />
    <glyph glyph-name="Rcaron" unicode="&#x158;" horiz-adv-x="586" 
d="M594 0h-226l-125 246h-9v-246h-186v675q79 5 231 5q133 0 200.5 -50.5t67.5 -160.5q0 -61 -32.5 -112.5t-88.5 -72.5q30 -45 49 -78zM351 455q0 72 -82 72q-23 0 -35 -2v-145q14 -2 31 -2q39 0 62.5 20t23.5 57zM452 790l-176 -87l-176 83l38 90l142 -48l137 47z" />
    <glyph glyph-name="rcaron" unicode="&#x159;" horiz-adv-x="356" 
d="M351 510l-9 -180q-56 15 -84.5 -14t-28.5 -108v-208h-182v497h168q0 -29 -5 -74h1q48 90 140 87zM372 686l-174 -142l-174 142l65 82l109 -77l109 77z" />
    <glyph glyph-name="Sacute" unicode="&#x15a;" horiz-adv-x="502" 
d="M485 221q0 -100 -78 -167t-199 -67q-98 0 -167 17l16 177q76 -32 155 -32q28 0 46.5 12.5t18.5 35.5q0 22 -18.5 38t-46.5 24.5t-61 23.5t-61 34t-46.5 58t-18.5 93q0 101 74.5 160.5t206.5 59.5q66 0 124 -13l-16 -161q-57 20 -115 20q-74 0 -74 -45q0 -23 27 -39.5
t65 -30.5t76 -34.5t65 -62t27 -101.5zM446 752l-253 -49l-26 96l244 76z" />
    <glyph glyph-name="sacute" unicode="&#x15b;" horiz-adv-x="405" 
d="M381 163q0 -82 -63.5 -128.5t-168.5 -46.5q-59 0 -110 14l8 146q43 -21 100 -21q40 0 40 22q0 14 -16.5 24t-40 19.5t-47 24t-40 45t-16.5 75.5q0 76 57.5 124.5t172.5 48.5q40 0 83 -8l-4 -140q-36 12 -82 12q-37 0 -37 -23q0 -12 17 -21.5t41 -20t48 -26t41 -46.5
t17 -74zM393 645l-226 -101l-60 100l212 124z" />
    <glyph glyph-name="Scircumflex" unicode="&#x15c;" horiz-adv-x="502" 
d="M485 221q0 -100 -78 -167t-199 -67q-98 0 -167 17l16 177q76 -32 155 -32q28 0 46.5 12.5t18.5 35.5q0 22 -18.5 38t-46.5 24.5t-61 23.5t-61 34t-46.5 58t-18.5 93q0 101 74.5 160.5t206.5 59.5q66 0 124 -13l-16 -161q-57 20 -115 20q-74 0 -74 -45q0 -23 27 -39.5
t65 -30.5t76 -34.5t65 -62t27 -101.5zM440 793l-38 -90l-142 48l-137 -47l-35 85l176 87z" />
    <glyph glyph-name="scircumflex" unicode="&#x15d;" horiz-adv-x="405" 
d="M381 163q0 -82 -63.5 -128.5t-168.5 -46.5q-59 0 -110 14l8 146q43 -21 100 -21q40 0 40 22q0 14 -16.5 24t-40 19.5t-47 24t-40 45t-16.5 75.5q0 76 57.5 124.5t172.5 48.5q40 0 83 -8l-4 -140q-36 12 -82 12q-37 0 -37 -23q0 -12 17 -21.5t41 -20t48 -26t41 -46.5
t17 -74zM370 626l-65 -82l-109 77l-109 -77l-65 82l174 142z" />
    <glyph glyph-name="Scedilla" unicode="&#x15e;" horiz-adv-x="502" 
d="M485 221q0 -100 -78 -167t-199 -67q-98 0 -167 17l16 177q76 -32 155 -32q28 0 46.5 12.5t18.5 35.5q0 22 -18.5 38t-46.5 24.5t-61 23.5t-61 34t-46.5 58t-18.5 93q0 101 74.5 160.5t206.5 59.5q66 0 124 -13l-16 -161q-57 20 -115 20q-74 0 -74 -45q0 -23 27 -39.5
t65 -30.5t76 -34.5t65 -62t27 -101.5zM308 -39q38 -59 32 -107.5t-50 -86.5h-130q34 37 35.5 72t-33.5 84z" />
    <glyph glyph-name="scedilla" unicode="&#x15f;" horiz-adv-x="405" 
d="M381 163q0 -82 -63.5 -128.5t-168.5 -46.5q-59 0 -110 14l8 146q43 -21 100 -21q40 0 40 22q0 14 -16.5 24t-40 19.5t-47 24t-40 45t-16.5 75.5q0 76 57.5 124.5t172.5 48.5q40 0 83 -8l-4 -140q-36 12 -82 12q-37 0 -37 -23q0 -12 17 -21.5t41 -20t48 -26t41 -46.5
t17 -74zM271 -39q38 -59 32 -107.5t-50 -86.5h-130q34 37 35.5 72t-33.5 84z" />
    <glyph glyph-name="Scaron" unicode="&#x160;" horiz-adv-x="502" 
d="M485 221q0 -100 -78 -167t-199 -67q-98 0 -167 17l16 177q76 -32 155 -32q28 0 46.5 12.5t18.5 35.5q0 22 -18.5 38t-46.5 24.5t-61 23.5t-61 34t-46.5 58t-18.5 93q0 101 74.5 160.5t206.5 59.5q66 0 124 -13l-16 -161q-57 20 -115 20q-74 0 -74 -45q0 -23 27 -39.5
t65 -30.5t76 -34.5t65 -62t27 -101.5zM432 790l-176 -87l-176 83l38 90l142 -48l137 47z" />
    <glyph glyph-name="scaron" unicode="&#x161;" horiz-adv-x="405" 
d="M381 163q0 -82 -63.5 -128.5t-168.5 -46.5q-59 0 -110 14l8 146q43 -21 100 -21q40 0 40 22q0 14 -16.5 24t-40 19.5t-47 24t-40 45t-16.5 75.5q0 76 57.5 124.5t172.5 48.5q40 0 83 -8l-4 -140q-36 12 -82 12q-37 0 -37 -23q0 -12 17 -21.5t41 -20t48 -26t41 -46.5
t17 -74zM380 686l-174 -142l-174 142l65 82l109 -77l109 77z" />
    <glyph glyph-name="uni0162" unicode="&#x162;" horiz-adv-x="502" 
d="M490 515h-146v-515h-186v515h-146v160h478v-160zM312 -39q38 -59 32 -107.5t-50 -86.5h-130q34 37 35.5 72t-33.5 84z" />
    <glyph glyph-name="uni0163" unicode="&#x163;" horiz-adv-x="380" 
d="M353 4q-64 -16 -120 -16q-92 0 -126 34.5t-34 130.5v204h-63v140h63v140l182 49v-189h93v-140h-93v-167q0 -28 9.5 -39.5t32.5 -11.5t46 6zM273 -39q38 -59 32 -107.5t-50 -86.5h-130q34 37 35.5 72t-33.5 84z" />
    <glyph glyph-name="Tcaron" unicode="&#x164;" horiz-adv-x="502" 
d="M490 515h-146v-515h-186v515h-146v160h478v-160zM427 790l-176 -87l-176 83l38 90l142 -48l137 47z" />
    <glyph glyph-name="tcaron" unicode="&#x165;" horiz-adv-x="386" 
d="M353 4q-64 -16 -120 -16q-92 0 -126 34.5t-34 130.5v204h-63v140h63v140l182 49v-189h93v-140h-93v-167q0 -28 9.5 -39.5t32.5 -11.5t46 6zM455 772l-69 -236l-115 21l43 240z" />
    <glyph glyph-name="Tbar" unicode="&#x166;" horiz-adv-x="502" 
d="M158 422v93h-146v160h478v-160h-146v-93h88v-152h-88v-270h-186v270h-88v152h88z" />
    <glyph glyph-name="tbar" unicode="&#x167;" horiz-adv-x="401" 
d="M262 319h93v-130h-93v-9q0 -41 42 -41q24 0 46 6l10 -141q-64 -16 -120 -16q-92 0 -126 34.5t-34 130.5v36h-63v130h63v48h-63v130h63v140l182 49v-189h93v-130h-93v-48z" />
    <glyph glyph-name="Utilde" unicode="&#x168;" horiz-adv-x="664" 
d="M616 268q0 -143 -77 -212.5t-217 -69.5q-151 0 -212.5 69t-61.5 189v431h186v-422q0 -57 22 -84t77 -27q56 0 77.5 26t21.5 90v417h184v-407zM535 812q-54 -95 -145 -95q-40 0 -74 20t-47 20q-30 0 -51 -39l-88 58q54 95 145 95q39 0 74 -20t47 -20q30 0 51 39z" />
    <glyph glyph-name="utilde" unicode="&#x169;" horiz-adv-x="562" 
d="M516 0h-168q0 38 5 66h-1q-55 -78 -159 -78q-77 0 -112 43.5t-35 113.5v352h182v-314q0 -41 28 -41q30 0 54 35.5t24 77.5v242h182v-497zM476 660q-51 -106 -139 -106q-38 0 -71.5 22.5t-45.5 22.5q-28 0 -49 -43l-84 64q51 106 139 106q38 0 71.5 -22.5t45.5 -22.5
q16 0 27 10t22 33z" />
    <glyph glyph-name="Umacron" unicode="&#x16a;" horiz-adv-x="664" 
d="M616 268q0 -143 -77 -212.5t-217 -69.5q-151 0 -212.5 69t-61.5 189v431h186v-422q0 -57 22 -84t77 -27q56 0 77.5 26t21.5 90v417h184v-407zM493 731h-318v109h318v-109z" />
    <glyph glyph-name="umacron" unicode="&#x16b;" horiz-adv-x="562" 
d="M516 0h-168q0 38 5 66h-1q-55 -78 -159 -78q-77 0 -112 43.5t-35 113.5v352h182v-314q0 -41 28 -41q30 0 54 35.5t24 77.5v242h182v-497zM429 575h-295v130h295v-130z" />
    <glyph glyph-name="Ubreve" unicode="&#x16c;" horiz-adv-x="664" 
d="M616 268q0 -143 -77 -212.5t-217 -69.5q-151 0 -212.5 69t-61.5 189v431h186v-422q0 -57 22 -84t77 -27q56 0 77.5 26t21.5 90v417h184v-407zM493 869q0 -67 -41.5 -112t-119.5 -45q-75 0 -117 45.5t-42 111.5h102q0 -22 16.5 -36.5t41.5 -14.5q26 0 41.5 14.5t15.5 36.5
h103z" />
    <glyph glyph-name="ubreve" unicode="&#x16d;" horiz-adv-x="562" 
d="M516 0h-168q0 38 5 66h-1q-55 -78 -159 -78q-77 0 -112 43.5t-35 113.5v352h182v-314q0 -41 28 -41q30 0 54 35.5t24 77.5v242h182v-497zM434 724q0 -78 -38.5 -129t-116.5 -51t-115 51.5t-37 128.5h113q0 -53 40 -53t40 53h114z" />
    <glyph glyph-name="Uring" unicode="&#x16e;" horiz-adv-x="664" 
d="M616 268q0 -143 -77 -212.5t-217 -69.5q-151 0 -212.5 69t-61.5 189v431h186v-422q0 -57 22 -84t77 -27q56 0 77.5 26t21.5 90v417h184v-407zM467 795q0 -54 -38.5 -89.5t-94.5 -35.5q-55 0 -93.5 35.5t-38.5 89.5t38.5 89.5t93.5 35.5q56 0 94.5 -35.5t38.5 -89.5z
M378 795q0 17 -13.5 30t-30.5 13t-30 -13t-13 -30t13 -30t30 -13t30.5 13t13.5 30z" />
    <glyph glyph-name="uring" unicode="&#x16f;" horiz-adv-x="562" 
d="M516 0h-168q0 38 5 66h-1q-55 -78 -159 -78q-77 0 -112 43.5t-35 113.5v352h182v-314q0 -41 28 -41q30 0 54 35.5t24 77.5v242h182v-497zM426 668q0 -60 -42.5 -99.5t-104.5 -39.5t-104.5 39.5t-42.5 99.5t42.5 99.5t104.5 39.5t104.5 -39.5t42.5 -99.5zM327 668
q0 20 -14.5 34t-33.5 14t-33.5 -14t-14.5 -34t14.5 -34t33.5 -14t33.5 14t14.5 34z" />
    <glyph glyph-name="Uhungarumlaut" unicode="&#x170;" horiz-adv-x="664" 
d="M616 268q0 -143 -77 -212.5t-217 -69.5q-151 0 -212.5 69t-61.5 189v431h186v-422q0 -57 22 -84t77 -27q56 0 77.5 26t21.5 90v417h184v-407zM644 785l-197 -85l-48 82l187 106zM390 800l-189 -102l-50 77l176 124z" />
    <glyph glyph-name="uhungarumlaut" unicode="&#x171;" horiz-adv-x="562" 
d="M516 0h-168q0 38 5 66h-1q-55 -78 -159 -78q-77 0 -112 43.5t-35 113.5v352h182v-314q0 -41 28 -41q30 0 54 35.5t24 77.5v242h182v-497zM579 688l-179 -144l-76 70l164 164zM349 707l-163 -163l-81 69l145 177z" />
    <glyph glyph-name="Uogonek" unicode="&#x172;" horiz-adv-x="664" 
d="M616 268q0 -177 -119 -243q-37 -20 -59 -50t-22 -55q0 -12 9.5 -20t23.5 -8q34 0 59 28l64 -86q-73 -75 -181 -75q-71 0 -107.5 30t-36.5 77q0 65 63 124h-16q-122 0 -184 65t-62 189v431h186v-422q0 -57 22 -84t77 -27q56 0 77.5 26t21.5 90v417h184v-407z" />
    <glyph glyph-name="uogonek" unicode="&#x173;" horiz-adv-x="562" 
d="M598 -155q-72 -86 -190 -86q-56 0 -91.5 27.5t-35.5 79.5q0 79 78 146q-8 26 -8 51h-1q-55 -75 -157 -75q-77 0 -112 43.5t-35 113.5v352h182v-314q0 -41 28 -41q30 0 54 35.5t24 77.5v242h182v-351q0 -86 14 -146q-86 -38 -86 -77q0 -25 32 -25q35 0 58 32z" />
    <glyph glyph-name="Wcircumflex" unicode="&#x174;" horiz-adv-x="950" 
d="M940 675l-164 -675h-226l-56 253q-14 62 -26 172h-1q-5 -78 -25 -165l-59 -260h-211l-162 675h197l62 -276q14 -61 21 -147h1q11 86 25 144l71 279h187l68 -269q19 -75 27 -148h1q12 86 27 157l56 260h187zM650 793l-38 -90l-142 48l-137 -47l-35 85l176 87z" />
    <glyph glyph-name="wcircumflex" unicode="&#x175;" horiz-adv-x="800" 
d="M800 497l-151 -497h-192l-33 116q-15 52 -30 128h-1q-10 -53 -31 -125l-34 -119h-178l-150 497h197l20 -77q30 -113 44 -178h2q12 78 38 168l24 87h163l23 -77q32 -111 45 -178h2q15 87 35 168l22 87h185zM573 626l-65 -82l-109 77l-109 -77l-65 82l174 142z" />
    <glyph glyph-name="Ycircumflex" unicode="&#x176;" horiz-adv-x="597" 
d="M604 675l-214 -442v-233h-186v232l-211 443h202l63 -146q24 -55 40 -103h2q12 37 49 118l58 131h197zM474 793l-38 -90l-142 48l-137 -47l-35 85l176 87z" />
    <glyph glyph-name="ycircumflex" unicode="&#x177;" horiz-adv-x="534" 
d="M539 497l-189 -505q-51 -135 -113.5 -184t-158.5 -49q-40 0 -86 8l21 154q35 -11 69 -11q26 0 51.5 14t34.5 47l8 29l-176 497h200l29 -91q22 -70 40 -156h2q21 95 45 164l28 83h195zM445 626l-65 -82l-109 77l-109 -77l-65 82l174 142z" />
    <glyph glyph-name="Ydieresis" unicode="&#x178;" horiz-adv-x="597" 
d="M604 675l-214 -442v-233h-186v232l-211 443h202l63 -146q24 -55 40 -103h2q12 37 49 118l58 131h197zM498 791q0 -36 -25.5 -61t-61.5 -25t-61.5 25t-25.5 61t25.5 61.5t61.5 25.5t61.5 -25.5t25.5 -61.5zM280 791q0 -36 -25.5 -61t-61.5 -25t-61.5 25t-25.5 61
t25.5 61.5t61.5 25.5t61.5 -25.5t25.5 -61.5z" />
    <glyph glyph-name="Zacute" unicode="&#x179;" horiz-adv-x="534" 
d="M491 0h-448v147l186 324q16 26 26 38q-11 -1 -85 -1h-121v167h437v-154l-196 -322q-17 -25 -19 -28q10 1 113 1h107v-172zM442 752l-253 -49l-26 96l244 76z" />
    <glyph glyph-name="zacute" unicode="&#x17a;" horiz-adv-x="455" 
d="M413 0h-371v130l144 205q-14 -2 -70 -2h-68v164h362v-131l-138 -200q12 1 80 1h61v-167zM403 645l-226 -101l-60 100l212 124z" />
    <glyph glyph-name="Zdotaccent" unicode="&#x17b;" horiz-adv-x="534" 
d="M491 0h-448v147l186 324q16 26 26 38q-11 -1 -85 -1h-121v167h437v-154l-196 -322q-17 -25 -19 -28q10 1 113 1h107v-172zM364 792q0 -37 -27.5 -63t-65.5 -26t-65.5 26t-27.5 63t27.5 63.5t65.5 26.5t65.5 -26.5t27.5 -63.5z" />
    <glyph glyph-name="zdotaccent" unicode="&#x17c;" horiz-adv-x="455" 
d="M413 0h-371v130l144 205q-14 -2 -70 -2h-68v164h362v-131l-138 -200q12 1 80 1h61v-167zM337 640q0 -43 -32 -74t-77 -31t-77 31t-32 74t32 74t77 31t77 -31t32 -74z" />
    <glyph glyph-name="Zcaron" unicode="&#x17d;" horiz-adv-x="534" 
d="M491 0h-448v147l186 324q16 26 26 38q-11 -1 -85 -1h-121v167h437v-154l-196 -322q-17 -25 -19 -28q10 1 113 1h107v-172zM444 790l-176 -87l-176 83l38 90l142 -48l137 47z" />
    <glyph glyph-name="zcaron" unicode="&#x17e;" horiz-adv-x="455" 
d="M413 0h-371v130l144 205q-14 -2 -70 -2h-68v164h362v-131l-138 -200q12 1 80 1h61v-167zM403 686l-174 -142l-174 142l65 82l109 -77l109 77z" />
    <glyph glyph-name="longs" unicode="&#x17f;" horiz-adv-x="268" 
d="M320 738l-14 -148q-14 3 -29 3q-27 0 -39.5 -16t-12.5 -53v-524h-182v514q0 227 216 227q29 0 61 -3z" />
    <glyph glyph-name="florin" unicode="&#x192;" horiz-adv-x="471" 
d="M292 299l-17 -181q-15 -160 -75.5 -224.5t-176.5 -64.5q-42 0 -75 10l25 156q36 -13 55 -13q29 0 43 22.5t19 77.5l20 217h-97v140h110l6 58q13 129 70.5 187.5t168.5 58.5q37 0 73 -9l-19 -149q-22 8 -51 8q-27 0 -42 -18.5t-19 -68.5l-6 -67h120v-140h-132z" />
    <glyph glyph-name="Gcaron" unicode="&#x1e6;" horiz-adv-x="664" 
d="M617 35q-105 -47 -243 -47q-172 0 -260 86t-88 236q0 175 103 275.5t289 100.5q107 0 198 -28l-36 -170q-77 30 -169 30t-137.5 -50t-45.5 -136q0 -82 41 -128t124 -46q21 0 38 5v205h186v-333zM553 790l-176 -87l-176 83l38 90l142 -48l137 47z" />
    <glyph glyph-name="gcaron" unicode="&#x1e7;" horiz-adv-x="552" 
d="M531 -33q0 -87 -79 -149.5t-208 -62.5q-219 0 -219 148q0 31 20 63t47 45q-47 24 -47 79q0 32 18 59t45 37q-75 38 -75 133q0 82 59.5 136.5t172.5 54.5q47 0 96 -13h169v-143h-46q2 -6 2 -21q0 -85 -55.5 -131t-162.5 -46h-18q-12 -6 -12 -17q0 -12 11 -15t54 -5l56 -2
q172 -6 172 -150zM316 327q0 24 -14.5 38.5t-42.5 14.5q-25 0 -39.5 -14t-14.5 -37q0 -24 14.5 -38.5t42.5 -14.5q25 0 39.5 14t14.5 37zM353 -57q0 37 -45 38l-70 2h-15q-20 -20 -20 -44q0 -21 17 -34t50 -13q40 0 61.5 14.5t21.5 36.5zM450 686l-174 -142l-174 142l65 82
l109 -77l109 77z" />
    <glyph glyph-name="Aringacute" unicode="&#x1fa;" horiz-adv-x="641" 
d="M653 0h-203l-34 110h-210l-33 -110h-184l215 675h223zM371 256l-37 124q-15 49 -24 95h-2q-11 -56 -23 -96l-36 -123h122zM427 774q0 -37 -33.5 -61.5t-80.5 -24.5t-79 24.5t-32 61.5t33.5 61.5t80.5 24.5t79 -24.5t32 -61.5zM348 774q0 13 -9.5 22.5t-23.5 9.5t-24 -9.5
t-10 -22.5t9.5 -22.5t23.5 -9.5t24 9.5t10 22.5zM472 900l-222 -30l-18 60l213 50z" />
    <glyph glyph-name="aringacute" unicode="&#x1fb;" horiz-adv-x="529" 
d="M484 0h-170q0 40 4 63h-1q-18 -35 -57 -55t-87 -20q-71 0 -109.5 43.5t-38.5 109.5q0 177 271 177v11q0 24 -15 33.5t-50 9.5q-70 0 -151 -31l-26 137q92 33 201 33q126 0 175.5 -43t49.5 -134v-228q0 -69 4 -106zM296 190v15q-56 0 -76.5 -10.5t-20.5 -35.5
q0 -14 9.5 -24t26.5 -10q26 0 43.5 19.5t17.5 45.5zM366 647q0 -48 -34.5 -80t-83.5 -32t-83.5 32t-34.5 80t34.5 79.5t83.5 31.5t83.5 -31.5t34.5 -79.5zM287 647q0 16 -11.5 27t-27.5 11q-15 0 -26.5 -11t-11.5 -27t11.5 -27.5t26.5 -11.5q16 0 27.5 11.5t11.5 27.5z
M425 815l-241 -39l-24 77l231 61z" />
    <glyph glyph-name="AEacute" unicode="&#x1fc;" horiz-adv-x="792" 
d="M755 0h-389v129h-158l-52 -129h-188l299 675h484v-158h-207v-95h200v-152h-200v-109h211v-161zM366 273v246h-1q-28 -77 -57 -147l-41 -99h99zM656 752l-253 -49l-26 96l244 76z" />
    <glyph glyph-name="aeacute" unicode="&#x1fd;" horiz-adv-x="791" 
d="M763 269q0 -37 -6 -78h-282q2 -28 29 -45.5t78 -17.5q77 0 147 31l16 -136q-87 -35 -192 -35q-155 0 -202 84h-1q-51 -84 -174 -84q-73 0 -112 43.5t-39 109.5q0 94 74 136.5t197 42.5v13q0 21 -18 30t-61 9q-65 0 -134 -31l-29 141q90 29 195 29q107 0 159 -40h1
q49 39 130 39q111 0 167.5 -66t56.5 -175zM586 309q3 69 -51 69q-26 0 -42.5 -19t-18.5 -50h112zM296 190v17q-57 0 -78.5 -11.5t-21.5 -36.5q0 -14 10 -24t27 -10q27 0 45 19.5t18 45.5zM623 645l-226 -101l-60 100l212 124z" />
    <glyph glyph-name="Oslashacute" unicode="&#x1fe;" horiz-adv-x="701" 
d="M680 349q0 -162 -98 -262.5t-245 -100.5q-43 0 -85 8l-48 -97l-126 58l48 96q-105 86 -105 277q0 160 99 260.5t244 100.5q34 0 76 -7l50 100l127 -57l-48 -97q111 -85 111 -279zM490 340q0 27 -4 55.5t-6 38.5t1 24l-151 -307q2 0 8 -0.5t8 -0.5q57 0 100.5 45t43.5 145
zM363 525h-1q-2 0 -6 0.5t-6 0.5q-58 0 -98.5 -46t-40.5 -138q0 -21 3.5 -48.5t4.5 -38.5t-2 -27zM471 809l-253 -49l-26 96l244 76z" />
    <glyph glyph-name="oslashacute" unicode="&#x1ff;" horiz-adv-x="568" 
d="M545 260q0 -123 -76.5 -197.5t-196.5 -74.5q-46 0 -86 9l-56 -92l-90 45l55 91q-72 61 -72 193q0 125 76.5 200t197.5 75q40 0 80 -8l52 84l90 -45l-51 -83q77 -65 77 -197zM373 249q0 26 -3 47l-100 -163h12q91 0 91 116zM294 366h-7q-40 0 -66 -28t-26 -83q0 -25 3 -46
zM449 645l-226 -101l-60 100l212 124z" />
    <glyph glyph-name="Scommaaccent" unicode="&#x218;" horiz-adv-x="502" 
d="M485 221q0 -100 -78 -167t-199 -67q-98 0 -167 17l16 177q76 -32 155 -32q28 0 46.5 12.5t18.5 35.5q0 22 -18.5 38t-46.5 24.5t-61 23.5t-61 34t-46.5 58t-18.5 93q0 101 74.5 160.5t206.5 59.5q66 0 124 -13l-16 -161q-57 20 -115 20q-74 0 -74 -45q0 -23 27 -39.5
t65 -30.5t76 -34.5t65 -62t27 -101.5zM259 -44q34 0 54 -21.5t20 -56.5q0 -50 -46.5 -86.5t-137.5 -36.5l-18 65q32 7 43.5 14t11.5 21q0 5 -1.5 15t-1.5 16q0 29 20 49.5t56 20.5z" />
    <glyph glyph-name="scommaaccent" unicode="&#x219;" horiz-adv-x="405" 
d="M381 163q0 -82 -63.5 -128.5t-168.5 -46.5q-59 0 -110 14l8 146q43 -21 100 -21q40 0 40 22q0 14 -16.5 24t-40 19.5t-47 24t-40 45t-16.5 75.5q0 76 57.5 124.5t172.5 48.5q40 0 83 -8l-4 -140q-36 12 -82 12q-37 0 -37 -23q0 -12 17 -21.5t41 -20t48 -26t41 -46.5
t17 -74zM219 -44q34 0 54 -21.5t20 -56.5q0 -50 -46.5 -86.5t-137.5 -36.5l-18 65q32 7 43.5 14t11.5 21q0 5 -1.5 15t-1.5 16q0 29 20 49.5t56 20.5z" />
    <glyph glyph-name="Tcommaaccent" unicode="&#x21a;" horiz-adv-x="502" 
d="M490 515h-146v-515h-186v515h-146v160h478v-160zM260 -44q34 0 54 -21.5t20 -56.5q0 -50 -46.5 -86.5t-137.5 -36.5l-18 65q32 7 43.5 14t11.5 21q0 5 -1.5 15t-1.5 16q0 29 20 49.5t56 20.5z" />
    <glyph glyph-name="tcommaaccent" unicode="&#x21b;" horiz-adv-x="380" 
d="M353 4q-64 -16 -120 -16q-92 0 -126 34.5t-34 130.5v204h-63v140h63v140l182 49v-189h93v-140h-93v-167q0 -28 9.5 -39.5t32.5 -11.5t46 6zM231 -44q34 0 54 -21.5t20 -56.5q0 -50 -46.5 -86.5t-137.5 -36.5l-18 65q32 7 43.5 14t11.5 21q0 5 -1.5 15t-1.5 16
q0 29 20 49.5t56 20.5z" />
    <glyph glyph-name="dotlessj" unicode="&#x237;" horiz-adv-x="277" 
d="M230 -11q0 -228 -224 -228q-37 0 -74 10l9 153q28 -11 55 -11q52 0 52 55v529h182v-508z" />
    <glyph glyph-name="uni02BF" unicode="&#x2bf;" horiz-adv-x="215" 
d="M195 444v-112q-86 0 -130.5 41.5t-44.5 116.5q0 72 53.5 115t121.5 43v-110q-20 0 -32.5 -13t-12.5 -34q0 -47 45 -47z" />
    <glyph glyph-name="circumflex" unicode="&#x2c6;" horiz-adv-x="416" 
d="M382 626l-65 -82l-109 77l-109 -77l-65 82l174 142z" />
    <glyph glyph-name="caron" unicode="&#x2c7;" horiz-adv-x="416" 
d="M382 686l-174 -142l-174 142l65 82l109 -77l109 77z" />
    <glyph glyph-name="breve" unicode="&#x2d8;" horiz-adv-x="333" 
d="M319 724q0 -78 -38.5 -129t-116.5 -51t-115 51.5t-37 128.5h113q0 -53 40 -53t40 53h114z" />
    <glyph glyph-name="dotaccent" unicode="&#x2d9;" horiz-adv-x="292" 
d="M247 640q0 -43 -32 -74t-77 -31t-77 31t-32 74t32 74t77 31t77 -31t32 -74z" />
    <glyph glyph-name="ring" unicode="&#x2da;" horiz-adv-x="340" 
d="M317 668q0 -60 -42.5 -99.5t-104.5 -39.5t-104.5 39.5t-42.5 99.5t42.5 99.5t104.5 39.5t104.5 -39.5t42.5 -99.5zM218 668q0 20 -14 34t-34 14t-34 -14t-14 -34t14 -34t34 -14t34 14t14 34z" />
    <glyph glyph-name="ogonek" unicode="&#x2db;" horiz-adv-x="276" 
d="M61 12l168 -12q-85 -33 -85 -78q0 -12 9 -19.5t22 -7.5q36 0 58 31l64 -84q-70 -83 -189 -83q-56 0 -91.5 27.5t-35.5 79.5q0 81 80 146z" />
    <glyph glyph-name="tilde" unicode="&#x2dc;" horiz-adv-x="425" 
d="M411 660q-51 -106 -139 -106q-38 0 -71.5 22.5t-45.5 22.5q-16 0 -27 -10t-22 -33l-84 64q51 106 139 106q38 0 71.5 -22.5t45.5 -22.5q28 0 49 43z" />
    <glyph glyph-name="hungarumlaut" unicode="&#x2dd;" horiz-adv-x="520" 
d="M515 688l-179 -144l-76 70l164 164zM285 707l-163 -163l-81 69l145 177z" />
    <glyph glyph-name="uni0312" unicode="&#x312;" horiz-adv-x="552" 
d="M245 555q-34 0 -54 23.5t-20 55.5q0 47 45 84.5t139 37.5l18 -65q-55 -11 -55 -34q0 -6 1.5 -15.5t1.5 -16.5q0 -32 -21.5 -51t-54.5 -19z" />
    <glyph glyph-name="uni0326" unicode="&#x326;" horiz-adv-x="400" 
d="M210 -44q34 0 54 -21.5t20 -56.5q0 -50 -46.5 -86.5t-137.5 -36.5l-18 65q32 7 43.5 14t11.5 21q0 5 -1.5 15t-1.5 16q0 29 20 49.5t56 20.5z" />
    <glyph glyph-name="uni037E" unicode="&#x37e;" horiz-adv-x="315" 
d="M275 365q0 -45 -32.5 -77.5t-77.5 -32.5t-77.5 32.5t-32.5 77.5t32.5 77.5t77.5 32.5t77.5 -32.5t32.5 -77.5zM165 200q63 0 94 -59q38 -74 -8 -176q-39 -87 -133 -165l-73 65q55 59 63 95.5t-25 72.5q-19 21 -22.5 50t6.5 55t36 44t62 18z" />
    <glyph glyph-name="tonos" unicode="&#x384;" horiz-adv-x="384" 
d="M276 740l-45 -202l-127 11l19 202z" />
    <glyph glyph-name="dieresistonos" unicode="&#x385;" horiz-adv-x="546" 
d="M493 635q0 -32 -22 -54.5t-53 -22.5q-32 0 -54.5 22.5t-22.5 54.5q0 31 22.5 53t54.5 22q31 0 53 -22t22 -53zM342 729l-41 -193l-105 8l15 193zM186 635q0 -32 -22 -54.5t-54 -22.5t-54 22.5t-22 54.5q0 31 22.5 53t53.5 22t53.5 -22t22.5 -53z" />
    <glyph glyph-name="Alphatonos" unicode="&#x386;" horiz-adv-x="641" 
d="M653 0h-203l-34 110h-210l-33 -110h-184l215 675h223zM371 256l-37 124q-15 49 -24 95h-2q-11 -56 -23 -96l-36 -123h122zM124 740l-45 -202l-127 11l19 202z" />
    <glyph glyph-name="anoteleia" unicode="&#x387;" horiz-adv-x="300" 
d="M255 497q0 -44 -31 -75.5t-76 -31.5t-76 31.5t-31 75.5t31 75.5t76 31.5t76 -31.5t31 -75.5z" />
    <glyph glyph-name="Epsilontonos" unicode="&#x388;" horiz-adv-x="480" 
d="M443 0h-395v675h395v-158h-209v-95h198v-152h-198v-109h209v-161zM38 740l-45 -202l-127 11l19 202z" />
    <glyph glyph-name="Etatonos" unicode="&#x389;" horiz-adv-x="670" 
d="M622 0h-186v266h-202v-266h-186v675h186v-246h202v246h186v-675zM38 740l-45 -202l-127 11l19 202z" />
    <glyph glyph-name="Iotatonos" unicode="&#x38a;" horiz-adv-x="282" 
d="M234 0h-186v675h186v-675zM38 740l-45 -202l-127 11l19 202z" />
    <glyph glyph-name="Omicrontonos" unicode="&#x38c;" horiz-adv-x="701" 
d="M680 351q0 -163 -99 -264t-244 -101q-156 0 -236 88.5t-80 249.5q0 163 99 264t244 101q156 0 236 -88.5t80 -249.5zM482 333q0 186 -130 186q-62 0 -97.5 -46.5t-35.5 -130.5q0 -185 130 -185q62 0 97.5 46t35.5 130zM93 740l-45 -202l-127 11l19 202z" />
    <glyph glyph-name="Upsilontonos" unicode="&#x38e;" horiz-adv-x="597" 
d="M604 675l-214 -442v-233h-186v232l-211 443h202l63 -146q24 -55 40 -103h2q12 37 49 118l58 131h197zM7 740l-45 -202l-127 11l19 202z" />
    <glyph glyph-name="Omegatonos" unicode="&#x38f;" horiz-adv-x="704" 
d="M675 0h-292v143q48 33 68.5 83.5t20.5 127.5q0 166 -123 166q-56 0 -88 -43.5t-32 -120.5q0 -82 20 -128.5t71 -83.5v-144h-291v146h94q-92 61 -92 218q0 140 91.5 232.5t241.5 92.5q136 0 221 -75.5t85 -232.5q0 -162 -95 -235h100v-146zM97 740l-45 -202l-127 11
l19 202z" />
    <glyph glyph-name="iotadieresistonos" unicode="&#x390;" horiz-adv-x="286" 
d="M277 -3q-40 -9 -70 -9q-92 0 -126 34.5t-34 130.5v344h182v-307q0 -31 9 -41t39 -10v-142zM385 635q0 -32 -22 -54.5t-53 -22.5q-32 0 -54.5 22.5t-22.5 54.5q0 31 22.5 53t54.5 22q31 0 53 -22t22 -53zM234 729l-41 -193l-105 8l15 193zM78 635q0 -32 -22 -54.5
t-54 -22.5t-54 22.5t-22 54.5q0 31 22.5 53t53.5 22t53.5 -22t22.5 -53z" />
    <glyph glyph-name="Alpha" unicode="&#x391;" horiz-adv-x="641" 
d="M653 0h-203l-34 110h-210l-33 -110h-184l215 675h223zM371 256l-37 124q-15 49 -24 95h-2q-11 -56 -23 -96l-36 -123h122z" />
    <glyph glyph-name="Beta" unicode="&#x392;" horiz-adv-x="594" 
d="M569 216q0 -96 -73.5 -157t-212.5 -61q-11 0 -90 1t-145 1v674q102 6 263 6q113 0 176.5 -44t63.5 -130q0 -46 -21.5 -83.5t-59.5 -57.5v-3q43 -15 71 -56t28 -90zM353 477q0 26 -19.5 40.5t-52.5 14.5q-21 0 -47 -2v-116q11 -1 40 -1q79 0 79 64zM368 214q0 28 -22 45
t-64 17q-37 0 -48 -1v-125q24 -2 50 -2q38 0 61 17.5t23 48.5z" />
    <glyph glyph-name="Gamma" unicode="&#x393;" horiz-adv-x="445" 
d="M433 515h-199v-515h-186v675h385v-160z" />
    <glyph glyph-name="Delta" unicode="&#x394;" horiz-adv-x="624" 
d="M600 0h-576v143l169 532h229l178 -532v-143zM393 168l-56 186q-23 78 -35 140h-2q-13 -68 -35 -143l-53 -183h181z" />
    <glyph glyph-name="Epsilon" unicode="&#x395;" horiz-adv-x="480" 
d="M443 0h-395v675h395v-158h-209v-95h198v-152h-198v-109h209v-161z" />
    <glyph glyph-name="Zeta" unicode="&#x396;" horiz-adv-x="534" 
d="M491 0h-448v147l186 324q16 26 26 38q-11 -1 -85 -1h-121v167h437v-154l-196 -322q-17 -25 -19 -28q10 1 113 1h107v-172z" />
    <glyph glyph-name="Eta" unicode="&#x397;" horiz-adv-x="670" 
d="M622 0h-186v266h-202v-266h-186v675h186v-246h202v246h186v-675z" />
    <glyph glyph-name="Theta" unicode="&#x398;" horiz-adv-x="701" 
d="M680 349q0 -162 -98 -262.5t-245 -100.5q-156 0 -236 89.5t-80 252.5q0 160 99 260.5t244 100.5q142 0 229 -83t87 -257zM486 340q0 181 -136 181q-57 0 -96 -45t-39 -134q0 -187 131 -187q56 0 98 44t42 141zM442 274h-183v140h183v-140z" />
    <glyph glyph-name="Iota" unicode="&#x399;" horiz-adv-x="282" 
d="M234 0h-186v675h186v-675z" />
    <glyph glyph-name="Kappa" unicode="&#x39a;" horiz-adv-x="615" 
d="M616 0h-239l-143 308v-308h-186v675h186v-289l146 289h225l-193 -325z" />
    <glyph glyph-name="Lambda" unicode="&#x39b;" horiz-adv-x="644" 
d="M644 0h-204l-94 338q-26 93 -32 126h-2q-15 -70 -35 -136l-91 -328h-186l206 675h229z" />
    <glyph glyph-name="Mu" unicode="&#x39c;" horiz-adv-x="870" 
d="M864 0h-193l-37 232q-8 52 -20 167h-2q-22 -116 -43 -194l-57 -205h-168l-56 187q-33 114 -46 212h-2q-11 -128 -19 -183l-28 -216h-186l112 675h211l71 -238q20 -64 36 -153h2q18 91 38 156l71 235h205z" />
    <glyph glyph-name="Nu" unicode="&#x39d;" horiz-adv-x="686" 
d="M638 0h-243l-131 284q-33 74 -46 129q7 -70 7 -238v-175h-177v675h244l126 -272q32 -68 50 -134q-7 64 -7 240v166h177v-675z" />
    <glyph glyph-name="Xi" unicode="&#x39e;" horiz-adv-x="544" 
d="M496 508h-447v167h447v-167zM435 266h-329v158h329v-158zM501 0h-458v170h458v-170z" />
    <glyph glyph-name="Omicron" unicode="&#x39f;" horiz-adv-x="701" 
d="M680 351q0 -163 -99 -264t-244 -101q-156 0 -236 88.5t-80 249.5q0 163 99 264t244 101q156 0 236 -88.5t80 -249.5zM482 333q0 186 -130 186q-62 0 -97.5 -46.5t-35.5 -130.5q0 -185 130 -185q62 0 97.5 46t35.5 130z" />
    <glyph glyph-name="Pi" unicode="&#x3a0;" horiz-adv-x="662" 
d="M614 0h-186v515h-194v-515h-186v675h566v-675z" />
    <glyph glyph-name="Rho" unicode="&#x3a1;" horiz-adv-x="554" 
d="M544 452q0 -110 -73.5 -181.5t-211.5 -71.5q-11 0 -25 2v-201h-186v675q103 5 217 5q136 0 207.5 -57.5t71.5 -170.5zM352 437q0 91 -92 91q-18 0 -26 -1v-171q12 -3 33 -3q38 0 61.5 21.5t23.5 62.5z" />
    <glyph glyph-name="Sigma" unicode="&#x3a3;" horiz-adv-x="523" 
d="M491 0h-448v142l162 188l-156 185v160h437v-163h-207l143 -169l-153 -176h222v-167z" />
    <glyph glyph-name="Tau" unicode="&#x3a4;" horiz-adv-x="502" 
d="M490 515h-146v-515h-186v515h-146v160h478v-160z" />
    <glyph glyph-name="Upsilon" unicode="&#x3a5;" horiz-adv-x="597" 
d="M604 675l-214 -442v-233h-186v232l-211 443h202l63 -146q24 -55 40 -103h2q12 37 49 118l58 131h197z" />
    <glyph glyph-name="Phi" unicode="&#x3a6;" horiz-adv-x="843" 
d="M822 345q0 -135 -87.5 -224.5t-224.5 -107.5v-74h-177v71q-154 7 -233 91.5t-79 230.5q0 133 88 222.5t224 107.5v73h177v-70q141 -7 226.5 -86t85.5 -234zM631 340q0 145 -121 167v-336q52 14 86.5 55t34.5 114zM333 168v338q-53 -12 -87 -53.5t-34 -110.5
q0 -153 121 -174z" />
    <glyph glyph-name="Chi" unicode="&#x3a7;" horiz-adv-x="671" 
d="M671 0h-235l-107 204l-107 -204h-222l206 342l-194 333h215l106 -200l103 200h212l-191 -336z" />
    <glyph glyph-name="Psi" unicode="&#x3a8;" horiz-adv-x="812" 
d="M780 426q0 -137 -75 -217t-206 -99v-110h-186v108q-281 28 -281 291v276h186v-261q0 -121 95 -140v401h186v-402q99 14 99 148v254h182v-249z" />
    <glyph glyph-name="Omega" unicode="&#x3a9;" horiz-adv-x="704" 
d="M675 0h-292v143q48 33 68.5 83.5t20.5 127.5q0 166 -123 166q-56 0 -88 -43.5t-32 -120.5q0 -82 20 -128.5t71 -83.5v-144h-291v146h94q-92 61 -92 218q0 140 91.5 232.5t241.5 92.5q136 0 221 -75.5t85 -232.5q0 -162 -95 -235h100v-146z" />
    <glyph glyph-name="Iotadieresis" unicode="&#x3aa;" horiz-adv-x="282" 
d="M234 0h-186v675h186v-675zM336 791q0 -36 -25.5 -61t-61.5 -25t-61.5 25t-25.5 61t25.5 61.5t61.5 25.5t61.5 -25.5t25.5 -61.5zM118 791q0 -36 -25.5 -61t-61.5 -25t-61.5 25t-25.5 61t25.5 61.5t61.5 25.5t61.5 -25.5t25.5 -61.5z" />
    <glyph glyph-name="Upsilondieresis" unicode="&#x3ab;" horiz-adv-x="597" 
d="M604 675l-214 -442v-233h-186v232l-211 443h202l63 -146q24 -55 40 -103h2q12 37 49 118l58 131h197zM491 791q0 -36 -25.5 -61t-61.5 -25t-61.5 25t-25.5 61t25.5 61.5t61.5 25.5t61.5 -25.5t25.5 -61.5zM273 791q0 -36 -25.5 -61t-61.5 -25t-61.5 25t-25.5 61
t25.5 61.5t61.5 25.5t61.5 -25.5t25.5 -61.5z" />
    <glyph glyph-name="alphatonos" unicode="&#x3ac;" horiz-adv-x="601" 
d="M587 139v-142q-40 -9 -70 -9q-68 0 -92 18.5t-24 71.5h-2q-17 -41 -63 -65.5t-105 -24.5q-96 0 -150 62.5t-54 184.5q0 124 68 199.5t172 75.5q95 0 139 -66q2 29 10 53h159q-38 -133 -38 -282q0 -52 8 -64t42 -12zM356 248v4q0 46 -20 73.5t-49 27.5t-50 -26t-21 -79
q0 -102 69 -102q29 0 50 29t21 73zM396 740l-45 -202l-127 11l19 202z" />
    <glyph glyph-name="epsilontonos" unicode="&#x3ad;" horiz-adv-x="449" 
d="M439 11q-98 -24 -187 -24q-127 0 -181.5 36t-54.5 104q0 43 26 73.5t62 43.5v1q-32 12 -50 38t-18 60q0 76 63 121.5t187 45.5q71 0 144 -15l-30 -131q-63 19 -120 19q-67 0 -67 -37q0 -35 64 -35h116v-120h-130q-25 0 -39 -10t-14 -26q0 -38 78 -38q55 0 125 21z
M376 740l-45 -202l-127 11l19 202z" />
    <glyph glyph-name="etatonos" unicode="&#x3ae;" horiz-adv-x="574" 
d="M27 497h174q7 -40 9 -66h1q55 78 153 78q80 0 121.5 -46.5t41.5 -123.5v-362q0 -130 16 -210h-179q-19 83 -19 181v356q0 51 -34 51q-30 0 -51 -31t-21 -73v-251h-182v229q0 143 -30 268zM426 740l-45 -202l-127 11l19 202z" />
    <glyph glyph-name="iotatonos" unicode="&#x3af;" horiz-adv-x="286" 
d="M277 -3q-40 -9 -70 -9q-92 0 -126 34.5t-34 130.5v344h182v-307q0 -31 9 -41t39 -10v-142zM247 740l-45 -202l-127 11l19 202z" />
    <glyph glyph-name="upsilondieresistonos" unicode="&#x3b0;" horiz-adv-x="558" 
d="M524 298q0 -159 -70.5 -234.5t-181.5 -75.5q-126 0 -177.5 58.5t-51.5 163.5v287h182v-263q0 -55 12.5 -75.5t42.5 -20.5q32 0 46.5 30t14.5 111q0 96 -22 218h187q18 -91 18 -199zM511 635q0 -32 -22 -54.5t-53 -22.5q-32 0 -54.5 22.5t-22.5 54.5q0 31 22.5 53t54.5 22
q31 0 53 -22t22 -53zM360 729l-41 -193l-105 8l15 193zM204 635q0 -32 -22 -54.5t-54 -22.5t-54 22.5t-22 54.5q0 31 22.5 53t53.5 22t53.5 -22t22.5 -53z" />
    <glyph glyph-name="alpha" unicode="&#x3b1;" horiz-adv-x="601" 
d="M587 139v-142q-40 -9 -70 -9q-68 0 -92 18.5t-24 71.5h-2q-17 -41 -63 -65.5t-105 -24.5q-96 0 -150 62.5t-54 184.5q0 124 68 199.5t172 75.5q95 0 139 -66q2 29 10 53h159q-38 -133 -38 -282q0 -52 8 -64t42 -12zM356 248v4q0 46 -20 73.5t-49 27.5t-50 -26t-21 -79
q0 -102 69 -102q29 0 50 29t21 73z" />
    <glyph glyph-name="beta" unicode="&#x3b2;" horiz-adv-x="598" 
d="M230 165q27 -25 67 -25q39 0 59 21.5t20 57.5q0 35 -18.5 55t-56.5 20h-32v148q36 2 59.5 23.5t23.5 57.5q0 28 -14 46t-42 18q-66 0 -66 -88v-334zM229 -23q0 -130 16 -210h-179q-19 83 -19 181v538q0 123 71.5 188t191.5 65q110 0 169 -52.5t59 -141.5q0 -57 -27 -95
t-74 -52v-1q65 -10 99 -54t34 -111q0 -113 -77.5 -178.5t-220.5 -65.5q-21 0 -43 4v-15z" />
    <glyph glyph-name="gamma" unicode="&#x3b3;" horiz-adv-x="538" 
d="M347 -12v-221h-182v121q0 84 -26.5 182t-140.5 427h197q87 -247 87 -307h2q30 55 39.5 138t-7.5 169h189q18 -124 -25.5 -256t-132.5 -253z" />
    <glyph glyph-name="delta" unicode="&#x3b4;" horiz-adv-x="565" 
d="M307 742q103 0 181 -44l-71 -126q-59 34 -105 34q-31 0 -31 -22q0 -15 16 -28t83 -50q91 -52 126 -111.5t35 -145.5q0 -114 -78.5 -187.5t-192.5 -73.5q-247 0 -247 246q0 163 114 231q-53 36 -53 112q0 71 54 118t169 47zM352 237q0 89 -79 120q-26 -6 -43.5 -32.5
t-17.5 -70.5q0 -108 72 -108q28 0 48 23.5t20 67.5z" />
    <glyph glyph-name="epsilon" unicode="&#x3b5;" horiz-adv-x="449" 
d="M439 11q-98 -24 -187 -24q-127 0 -181.5 36t-54.5 104q0 43 26 73.5t62 43.5v1q-32 12 -50 38t-18 60q0 76 63 121.5t187 45.5q71 0 144 -15l-30 -131q-63 19 -120 19q-67 0 -67 -37q0 -35 64 -35h116v-120h-130q-25 0 -39 -10t-14 -26q0 -38 78 -38q55 0 125 21z" />
    <glyph glyph-name="zeta" unicode="&#x3b6;" horiz-adv-x="425" 
d="M425 18q0 -119 -119 -236l-120 76q57 74 57 114q0 17 -9 23t-39 12q-91 17 -130.5 56t-39.5 130q0 127 51.5 234.5t111.5 154.5h-148v148h359v-136q-87 -64 -137 -166.5t-50 -186.5q0 -38 15 -51t65 -23q71 -14 102 -51.5t31 -97.5z" />
    <glyph glyph-name="eta" unicode="&#x3b7;" horiz-adv-x="574" 
d="M27 497h174q7 -40 9 -66h1q55 78 153 78q80 0 121.5 -46.5t41.5 -123.5v-362q0 -130 16 -210h-179q-19 83 -19 181v356q0 51 -34 51q-30 0 -51 -31t-21 -73v-251h-182v229q0 143 -30 268z" />
    <glyph glyph-name="theta" unicode="&#x3b8;" horiz-adv-x="584" 
d="M556 380q0 -204 -75 -298t-198 -94q-60 0 -103.5 15.5t-79.5 53t-54 109t-18 176.5q0 208 74.5 302t199.5 94q126 0 190 -85t64 -273zM370 436q-2 86 -22 120.5t-56 34.5q-33 0 -54 -31t-24 -124h156zM370 296h-156q4 -92 23 -125.5t55 -33.5q35 0 54.5 34.5t23.5 124.5z
" />
    <glyph glyph-name="iota" unicode="&#x3b9;" horiz-adv-x="286" 
d="M277 -3q-40 -9 -70 -9q-92 0 -126 34.5t-34 130.5v344h182v-307q0 -31 9 -41t39 -10v-142z" />
    <glyph glyph-name="kappa" unicode="&#x3ba;" horiz-adv-x="565" 
d="M565 0h-225l-111 224v-224h-182v497h182v-197l107 197h222l-155 -231z" />
    <glyph glyph-name="lambda" unicode="&#x3bb;" horiz-adv-x="535" 
d="M183 485l-20 59q-17 49 -65 49q-9 0 -33 -2l-5 141q37 9 83 9q73 0 119 -28.5t73 -110.5l200 -602h-200l-73 252h-1q-13 -68 -36 -137l-38 -115h-194z" />
    <glyph glyph-name="nu" unicode="&#x3bd;" horiz-adv-x="534" 
d="M530 497q-34 -252 -192 -497h-177l-160 497h198l34 -119q26 -96 37 -152h2q52 127 63 271h195z" />
    <glyph glyph-name="xi" unicode="&#x3be;" horiz-adv-x="413" 
d="M412 18q0 -119 -119 -236l-120 76q57 74 57 114q0 18 -8.5 24.5t-34.5 10.5q-88 12 -131.5 53.5t-43.5 125.5q0 66 36.5 113.5t90.5 60.5q-47 9 -72.5 42.5t-25.5 76.5q0 37 20 65.5t59 40.5q-21 -3 -41 -3h-52v148h358v-148h-40q-125 0 -125 -77q0 -25 18.5 -41
t54.5 -16h68v-147h-47q-115 0 -115 -67q0 -28 15 -42.5t49 -20.5q79 -14 114 -51t35 -102z" />
    <glyph glyph-name="omicron" unicode="&#x3bf;" horiz-adv-x="564" 
d="M541 260q0 -122 -78 -197t-193 -75q-247 0 -247 246q0 124 77.5 199.5t194.5 75.5q121 0 183.5 -64.5t62.5 -184.5zM352 249q0 54 -15.5 79t-52.5 25q-30 0 -51 -25t-21 -74q0 -58 15.5 -83t52.5 -25q35 0 53.5 28t18.5 75z" />
    <glyph glyph-name="pi" unicode="&#x3c0;" horiz-adv-x="626" 
d="M601 347h-79q0 -118 10 -169q6 -38 36 -38q9 0 17 1l13 -144q-36 -9 -78 -9q-79 0 -116.5 29t-51.5 103q-14 73 -14 227h-74q0 -223 -47 -369l-190 44q63 186 63 325h-80v150h591v-150z" />
    <glyph glyph-name="rho" unicode="&#x3c1;" horiz-adv-x="552" 
d="M529 264q0 -122 -71 -199.5t-200 -77.5q-22 0 -40 2q3 -31 3 -86v-136h-182v487q0 125 65 190t186 65t180 -66t59 -179zM338 247q0 109 -59 109q-58 0 -58 -87v-131q23 -5 41 -5q35 0 55.5 28.5t20.5 85.5z" />
    <glyph glyph-name="sigma1" unicode="&#x3c2;" horiz-adv-x="415" 
d="M411 18q0 -119 -119 -236l-120 76q57 74 57 114q0 17 -9 23t-39 12q-157 29 -157 216q0 134 69.5 210t201.5 76q48 0 90 -13l-25 -158q-34 14 -71 14q-35 0 -54.5 -27.5t-19.5 -77.5q0 -34 14 -53.5t49 -26.5q71 -14 102 -51.5t31 -97.5z" />
    <glyph glyph-name="sigma" unicode="&#x3c3;" horiz-adv-x="586" 
d="M584 347q-52 0 -76 1q26 -46 26 -106q0 -115 -74.5 -184.5t-182.5 -69.5q-254 0 -254 246q0 126 78 200.5t214 74.5q24 0 112.5 -6t156.5 -6v-150zM352 249q0 64 -25 105q-6 1 -23 1q-92 0 -92 -104q0 -55 16.5 -80t52.5 -25q34 0 52.5 27.5t18.5 75.5z" />
    <glyph glyph-name="tau" unicode="&#x3c4;" horiz-adv-x="362" 
d="M352 347h-88v-167q0 -23 8 -32t27 -9q14 0 22 1l10 -141q-46 -11 -89 -11q-92 0 -126 34.5t-34 130.5v194h-72v150h342v-150z" />
    <glyph glyph-name="upsilon" unicode="&#x3c5;" horiz-adv-x="558" 
d="M524 298q0 -159 -70.5 -234.5t-181.5 -75.5q-126 0 -177.5 58.5t-51.5 163.5v287h182v-263q0 -55 12.5 -75.5t42.5 -20.5q32 0 46.5 30t14.5 111q0 96 -22 218h187q18 -91 18 -199z" />
    <glyph glyph-name="phi" unicode="&#x3c6;" horiz-adv-x="784" 
d="M762 260q0 -107 -72.5 -179.5t-206.5 -90.5v-223h-182v221q-279 13 -279 249q0 107 72.5 179.5t206.5 90.5v168h182v-166q279 -13 279 -249zM302 144v209q-45 -7 -70 -35.5t-25 -67.5q0 -93 95 -106zM577 246q0 93 -95 107v-209q45 7 70 35t25 67z" />
    <glyph glyph-name="chi" unicode="&#x3c7;" horiz-adv-x="542" 
d="M527 -234q-39 -7 -69 -7q-68 0 -109 27t-70 101l-37 92l-75 -224l-185 41l171 362l-72 164q-17 39 -51 39q-9 0 -17 -1l-7 141q38 7 69 7q66 0 109 -27.5t70 -100.5l28 -76l66 193h201l-176 -374l80 -175q19 -41 50 -41q10 0 17 1z" />
    <glyph glyph-name="psi" unicode="&#x3c8;" horiz-adv-x="800" 
d="M766 308q0 -278 -272 -316v-225h-182v223q-81 4 -135 25.5t-83 61t-40.5 86t-11.5 111.5v223h182v-203q0 -75 20 -112t69 -44v537h180v-537q52 9 71.5 45t19.5 109q0 94 -12 205h182q12 -108 12 -189z" />
    <glyph glyph-name="omega" unicode="&#x3c9;" horiz-adv-x="816" 
d="M791 286q0 -142 -64.5 -220.5t-170.5 -78.5q-64 0 -103 28.5t-49 67.5q-37 -96 -154 -96q-99 0 -162 74t-63 196q0 144 82 260l172 -48q-67 -81 -67 -186q0 -57 19 -89.5t47 -32.5q23 0 33 17t10 62v161h174v-163q0 -44 9.5 -60.5t33.5 -16.5q28 0 47 29.5t19 85.5
q0 55 -14.5 97t-54.5 96l176 48q80 -106 80 -231z" />
    <glyph glyph-name="iotadieresis" unicode="&#x3ca;" horiz-adv-x="286" 
d="M285 -3q-40 -9 -70 -9q-92 0 -126 34.5t-34 130.5v344h182v-307q0 -31 9 -41t39 -10v-142zM359 640q0 -38 -26.5 -64.5t-64.5 -26.5t-64.5 26.5t-26.5 64.5t26.5 64.5t64.5 26.5t64.5 -26.5t26.5 -64.5zM143 640q0 -38 -26.5 -64.5t-64.5 -26.5t-64.5 26.5t-26.5 64.5
t26.5 64.5t64.5 26.5t64.5 -26.5t26.5 -64.5z" />
    <glyph glyph-name="upsilondieresis" unicode="&#x3cb;" horiz-adv-x="558" 
d="M524 298q0 -159 -70.5 -234.5t-181.5 -75.5q-126 0 -177.5 58.5t-51.5 163.5v287h182v-263q0 -55 12.5 -75.5t42.5 -20.5q32 0 46.5 30t14.5 111q0 96 -22 218h187q18 -91 18 -199zM476 640q0 -38 -27 -64.5t-64 -26.5t-64 26.5t-27 64.5t27 64.5t64 26.5t64 -26.5
t27 -64.5zM259 640q0 -38 -26.5 -64.5t-64.5 -26.5t-64.5 26.5t-26.5 64.5t26.5 64.5t64.5 26.5t64.5 -26.5t26.5 -64.5z" />
    <glyph glyph-name="omicrontonos" unicode="&#x3cc;" horiz-adv-x="564" 
d="M541 260q0 -122 -78 -197t-193 -75q-247 0 -247 246q0 124 77.5 199.5t194.5 75.5q121 0 183.5 -64.5t62.5 -184.5zM352 249q0 54 -15.5 79t-52.5 25q-30 0 -51 -25t-21 -74q0 -58 15.5 -83t52.5 -25q35 0 53.5 28t18.5 75zM389 740l-45 -202l-127 11l19 202z" />
    <glyph glyph-name="upsilontonos" unicode="&#x3cd;" horiz-adv-x="561" 
d="M524 298q0 -159 -70.5 -234.5t-181.5 -75.5q-126 0 -177.5 58.5t-51.5 163.5v287h182v-263q0 -55 12.5 -75.5t42.5 -20.5q32 0 46.5 30t14.5 111q0 96 -22 218h187q18 -91 18 -199zM383 740l-45 -202l-127 11l19 202z" />
    <glyph glyph-name="omegatonos" unicode="&#x3ce;" horiz-adv-x="816" 
d="M791 286q0 -142 -64.5 -220.5t-170.5 -78.5q-64 0 -103 28.5t-49 67.5q-37 -96 -154 -96q-99 0 -162 74t-63 196q0 144 82 260l172 -48q-67 -81 -67 -186q0 -57 19 -89.5t47 -32.5q23 0 33 17t10 62v161h174v-163q0 -44 9.5 -60.5t33.5 -16.5q28 0 47 29.5t19 85.5
q0 55 -14.5 97t-54.5 96l176 48q80 -106 80 -231zM512 740l-45 -202l-127 11l19 202z" />
    <glyph glyph-name="uni0400" unicode="&#x400;" horiz-adv-x="480" 
d="M443 0h-395v675h395v-158h-209v-95h198v-152h-198v-109h209v-161zM351 799l-26 -96l-253 49l35 123z" />
    <glyph glyph-name="uni0401" unicode="&#x401;" horiz-adv-x="480" 
d="M443 0h-395v675h395v-158h-209v-95h198v-152h-198v-109h209v-161zM443 791q0 -36 -25.5 -61t-61.5 -25t-61.5 25t-25.5 61t25.5 61.5t61.5 25.5t61.5 -25.5t25.5 -61.5zM225 791q0 -36 -25.5 -61t-61.5 -25t-61.5 25t-25.5 61t25.5 61.5t61.5 25.5t61.5 -25.5t25.5 -61.5
z" />
    <glyph glyph-name="uni0402" unicode="&#x402;" horiz-adv-x="703" 
d="M671 227q0 -125 -82.5 -194t-224.5 -76v151q113 8 113 99q0 47 -25.5 68t-58.5 21q-38 0 -69 -13v-283h-186v515h-126v160h458v-160h-146v-87q47 15 105 15q109 0 175.5 -56t66.5 -160z" />
    <glyph glyph-name="uni0403" unicode="&#x403;" horiz-adv-x="432" 
d="M420 515h-186v-515h-186v675h372v-160zM399 752l-253 -49l-26 96l244 76z" />
    <glyph glyph-name="uni0404" unicode="&#x404;" horiz-adv-x="541" 
d="M507 17q-66 -24 -154 -24q-75 0 -133.5 19.5t-94 51t-58.5 75.5t-31.5 89t-8.5 97q0 161 91 259t254 98q75 0 132 -18l-25 -169q-46 19 -107 19q-104 0 -133 -96h208v-155h-207q23 -101 142 -101q58 0 100 21z" />
    <glyph glyph-name="uni0405" unicode="&#x405;" horiz-adv-x="502" 
d="M485 221q0 -100 -78 -167t-199 -67q-98 0 -167 17l16 177q76 -32 155 -32q28 0 46.5 12.5t18.5 35.5q0 22 -18.5 38t-46.5 24.5t-61 23.5t-61 34t-46.5 58t-18.5 93q0 101 74.5 160.5t206.5 59.5q66 0 124 -13l-16 -161q-57 20 -115 20q-74 0 -74 -45q0 -23 27 -39.5
t65 -30.5t76 -34.5t65 -62t27 -101.5z" />
    <glyph glyph-name="uni0406" unicode="&#x406;" horiz-adv-x="282" 
d="M234 0h-186v675h186v-675z" />
    <glyph glyph-name="uni0407" unicode="&#x407;" horiz-adv-x="282" 
d="M233 0h-186v675h186v-675zM336 791q0 -36 -25.5 -61t-61.5 -25t-61.5 25t-25.5 61t25.5 61.5t61.5 25.5t61.5 -25.5t25.5 -61.5zM118 791q0 -36 -25.5 -61t-61.5 -25t-61.5 25t-25.5 61t25.5 61.5t61.5 25.5t61.5 -25.5t25.5 -61.5z" />
    <glyph glyph-name="uni0408" unicode="&#x408;" horiz-adv-x="343" 
d="M297 207q0 -43 -10 -80t-31.5 -69t-62.5 -50.5t-98 -18.5q-53 0 -95 8v156q24 -8 51 -8q60 0 60 66v464h186v-468z" />
    <glyph glyph-name="uni0409" unicode="&#x409;" horiz-adv-x="948" 
d="M80 675h508v-233q36 3 86 3q115 0 184.5 -55.5t69.5 -151.5q0 -123 -81.5 -186t-221.5 -63q-131 0 -223 18v508h-136v-64q0 -168 -26 -267t-78.5 -143.5t-143.5 -53.5l-26 150q40 9 57 31t24 77t7 178v252zM732 216q0 72 -89 72q-34 0 -55 -4v-131q22 -8 60 -8t61 19
t23 52z" />
    <glyph glyph-name="uni040A" unicode="&#x40a;" horiz-adv-x="982" 
d="M436 7v259h-202v-266h-186v675h186v-246h202v246h186v-233q36 3 86 3q115 0 184.5 -55.5t69.5 -151.5q0 -123 -81.5 -186t-221.5 -63q-131 0 -223 18zM766 216q0 72 -89 72q-34 0 -55 -4v-131q22 -8 60 -8t61 19t23 52z" />
    <glyph glyph-name="uni040B" unicode="&#x40b;" horiz-adv-x="699" 
d="M663 0h-186v217q0 42 -17.5 60.5t-55.5 18.5q-42 0 -80 -17v-279h-186v515h-126v160h458v-160h-146v-90q50 18 121 18q110 0 164 -52t54 -149v-242z" />
    <glyph glyph-name="uni040C" unicode="&#x40c;" horiz-adv-x="615" 
d="M616 0h-239l-143 308v-308h-186v675h186v-289l146 289h225l-193 -325zM506 752l-253 -49l-26 96l244 76z" />
    <glyph glyph-name="uni040D" unicode="&#x40d;" horiz-adv-x="672" 
d="M624 0h-186v236q0 92 11 173h-2q-17 -49 -37 -91l-149 -318h-213v675h186v-232q0 -92 -11 -173h2q17 49 37 91l147 314h215v-675zM399 799l-26 -96l-253 49l35 123z" />
    <glyph glyph-name="uni040E" unicode="&#x40e;" horiz-adv-x="571" 
d="M581 675l-183 -475q-46 -120 -107.5 -166.5t-142.5 -46.5q-45 0 -95 16l26 159q32 -13 66 -13q25 0 40.5 10.5t28.5 40.5l-212 475h205l59 -146q3 -7 36 -103l4 -11q5 17 18 60.5t17 57.5l45 142h195zM472 871q0 -76 -57.5 -116.5t-165.5 -40.5q-217 0 -217 157h161
q0 -61 61 -61q55 0 55 61h163z" />
    <glyph glyph-name="uni040F" unicode="&#x40f;" horiz-adv-x="661" 
d="M613 0h-202v-137h-161v137h-202v675h186v-514h193v514h186v-675z" />
    <glyph glyph-name="uni0410" unicode="&#x410;" horiz-adv-x="641" 
d="M653 0h-203l-34 110h-210l-33 -110h-184l215 675h223zM371 256l-37 124q-15 49 -24 95h-2q-11 -56 -23 -96l-36 -123h122z" />
    <glyph glyph-name="uni0411" unicode="&#x411;" horiz-adv-x="582" 
d="M561 224q0 -103 -76.5 -166.5t-228.5 -63.5q-104 0 -208 9v672h462v-161h-276v-91h68q259 0 259 -199zM360 218q0 62 -86 62h-40v-128q24 -2 42 -2q39 0 61.5 17.5t22.5 50.5z" />
    <glyph glyph-name="uni0412" unicode="&#x412;" horiz-adv-x="594" 
d="M569 216q0 -96 -73.5 -157t-212.5 -61q-11 0 -90 1t-145 1v674q102 6 263 6q113 0 176.5 -44t63.5 -130q0 -46 -21.5 -83.5t-59.5 -57.5v-3q43 -15 71 -56t28 -90zM353 477q0 26 -19.5 40.5t-52.5 14.5q-21 0 -47 -2v-116q11 -1 40 -1q79 0 79 64zM368 214q0 28 -22 45
t-64 17q-37 0 -48 -1v-125q24 -2 50 -2q38 0 61 17.5t23 48.5z" />
    <glyph glyph-name="uni0413" unicode="&#x413;" horiz-adv-x="432" 
d="M420 515h-186v-515h-186v675h372v-160z" />
    <glyph glyph-name="uni0414" unicode="&#x414;" horiz-adv-x="710" 
d="M695 161v-298h-161v137h-369v-137h-160v298h51q29 49 41.5 107.5t12.5 154.5v252h524v-514h61zM448 161v356h-152v-66q0 -199 -56 -290h208z" />
    <glyph glyph-name="uni0415" unicode="&#x415;" horiz-adv-x="480" 
d="M443 0h-395v675h395v-158h-209v-95h198v-152h-198v-109h209v-161z" />
    <glyph glyph-name="uni0416" unicode="&#x416;" horiz-adv-x="902" 
d="M358 386v289h186v-289l126 289h218l-169 -325l180 -350h-232l-123 308v-308h-186v308l-124 -308h-231l180 347l-169 328h219z" />
    <glyph glyph-name="uni0417" unicode="&#x417;" horiz-adv-x="494" 
d="M465 225q0 -110 -84 -172t-217 -62q-83 0 -146 17l15 153q59 -19 136 -19q49 0 73.5 19.5t24.5 47.5t-25 42t-87 14h-81v148h40q139 0 139 65q0 56 -86 56q-68 0 -130 -25l-15 148q89 27 186 27q118 0 177.5 -45.5t59.5 -123.5q0 -52 -25 -89.5t-69 -53.5l-2 -3
q50 -10 83 -50.5t33 -93.5z" />
    <glyph glyph-name="uni0418" unicode="&#x418;" horiz-adv-x="672" 
d="M624 0h-186v236q0 92 11 173h-2q-17 -49 -37 -91l-149 -318h-213v675h186v-232q0 -92 -11 -173h2q17 49 37 91l147 314h215v-675z" />
    <glyph glyph-name="uni0419" unicode="&#x419;" horiz-adv-x="672" 
d="M624 0h-186v236q0 92 11 173h-2q-17 -49 -37 -91l-149 -318h-213v675h186v-232q0 -92 -11 -173h2q17 49 37 91l147 314h215v-675zM565 871q0 -76 -57.5 -116.5t-165.5 -40.5q-217 0 -217 157h161q0 -61 61 -61q55 0 55 61h163z" />
    <glyph glyph-name="uni041A" unicode="&#x41a;" horiz-adv-x="615" 
d="M616 0h-239l-143 308v-308h-186v675h186v-289l146 289h225l-193 -325z" />
    <glyph glyph-name="uni041B" unicode="&#x41b;" horiz-adv-x="636" 
d="M588 0h-186v515h-136v-64q0 -168 -26 -267t-78.5 -143.5t-143.5 -53.5l-26 150q40 9 57 31t24 77t7 178v252h508v-675z" />
    <glyph glyph-name="uni041C" unicode="&#x41c;" horiz-adv-x="870" 
d="M877 0h-195l-28 211q-14 102 -19 216h-2q-14 -98 -55 -242l-53 -185h-174l-53 185q-41 144 -55 242h-2q-5 -114 -19 -216l-28 -211h-187l112 675h220l71 -234q23 -74 37 -158h2q15 85 37 161l68 231h212z" />
    <glyph glyph-name="uni041D" unicode="&#x41d;" horiz-adv-x="670" 
d="M622 0h-186v266h-202v-266h-186v675h186v-246h202v246h186v-675z" />
    <glyph glyph-name="uni041E" unicode="&#x41e;" horiz-adv-x="701" 
d="M680 351q0 -163 -99 -264t-244 -101q-156 0 -236 88.5t-80 249.5q0 163 99 264t244 101q156 0 236 -88.5t80 -249.5zM482 333q0 186 -130 186q-62 0 -97.5 -46.5t-35.5 -130.5q0 -185 130 -185q62 0 97.5 46t35.5 130z" />
    <glyph glyph-name="uni041F" unicode="&#x41f;" horiz-adv-x="662" 
d="M614 0h-186v515h-194v-515h-186v675h566v-675z" />
    <glyph glyph-name="uni0420" unicode="&#x420;" horiz-adv-x="542" 
d="M544 452q0 -110 -73.5 -181.5t-211.5 -71.5q-11 0 -25 2v-201h-186v675q103 5 217 5q136 0 207.5 -57.5t71.5 -170.5zM352 437q0 91 -92 91q-18 0 -26 -1v-171q12 -3 33 -3q38 0 61.5 21.5t23.5 62.5z" />
    <glyph glyph-name="uni0421" unicode="&#x421;" horiz-adv-x="531" 
d="M507 16q-69 -25 -160 -25q-76 0 -134.5 20.5t-93 52t-56 75.5t-29 85t-7.5 86q0 171 92 270.5t256 99.5q71 0 130 -18l-23 -170q-48 19 -107 19q-67 0 -105 -44.5t-38 -125.5q0 -180 150 -180q58 0 100 21z" />
    <glyph glyph-name="uni0422" unicode="&#x422;" horiz-adv-x="502" 
d="M490 515h-146v-515h-186v515h-146v160h478v-160z" />
    <glyph glyph-name="uni0423" unicode="&#x423;" horiz-adv-x="571" 
d="M581 675l-183 -475q-46 -120 -107.5 -166.5t-142.5 -46.5q-45 0 -95 16l26 159q32 -13 66 -13q25 0 40.5 10.5t28.5 40.5l-212 475h205l59 -146q3 -7 36 -103l4 -11q5 17 18 60.5t17 57.5l45 142h195z" />
    <glyph glyph-name="uni0424" unicode="&#x424;" horiz-adv-x="843" 
d="M822 345q0 -135 -87.5 -224.5t-224.5 -107.5v-74h-177v71q-154 7 -233 91.5t-79 230.5q0 133 88 222.5t224 107.5v73h177v-70q141 -7 226.5 -86t85.5 -234zM631 340q0 145 -121 167v-336q52 14 86.5 55t34.5 114zM333 168v338q-53 -12 -87 -53.5t-34 -110.5
q0 -153 121 -174z" />
    <glyph glyph-name="uni0425" unicode="&#x425;" horiz-adv-x="671" 
d="M671 0h-235l-107 204l-107 -204h-222l206 342l-194 333h215l106 -200l103 200h212l-191 -336z" />
    <glyph glyph-name="uni0426" unicode="&#x426;" horiz-adv-x="695" 
d="M680 161v-298h-161v137h-471v675h186v-514h198v514h186v-514h62z" />
    <glyph glyph-name="uni0427" unicode="&#x427;" horiz-adv-x="627" 
d="M394 238q-61 -18 -115 -18q-142 0 -197 60.5t-55 175.5v219h186v-193q0 -61 21.5 -84t77.5 -23q39 0 82 17v283h185v-675h-185v238z" />
    <glyph glyph-name="uni0428" unicode="&#x428;" horiz-adv-x="924" 
d="M876 0h-828v675h184v-514h139v514h182v-514h139v514h184v-675z" />
    <glyph glyph-name="uni0429" unicode="&#x429;" horiz-adv-x="953" 
d="M938 161v-298h-161v137h-729v675h184v-514h139v514h182v-514h139v514h184v-514h62z" />
    <glyph glyph-name="uni042A" unicode="&#x42a;" horiz-adv-x="662" 
d="M302 675v-233q36 3 86 3q115 0 184.5 -55.5t69.5 -151.5q0 -123 -81.5 -186t-221.5 -63q-131 0 -223 18v516h-104v152h290zM446 216q0 72 -89 72q-34 0 -55 -4v-131q22 -8 60 -8t61 19t23 52z" />
    <glyph glyph-name="uni042B" unicode="&#x42b;" horiz-adv-x="876" 
d="M570 238q0 -123 -81.5 -186t-221.5 -63q-131 0 -223 18v668h186v-233q36 3 86 3q115 0 184.5 -55.5t69.5 -151.5zM374 216q0 72 -89 72q-34 0 -55 -4v-131q22 -8 60 -8t61 19t23 52zM828 0h-186v675h186v-675z" />
    <glyph glyph-name="uni042C" unicode="&#x42c;" horiz-adv-x="594" 
d="M574 238q0 -123 -81.5 -186t-221.5 -63q-131 0 -223 18v668h186v-233q36 3 86 3q115 0 184.5 -55.5t69.5 -151.5zM378 216q0 72 -89 72q-34 0 -55 -4v-131q22 -8 60 -8t61 19t23 52z" />
    <glyph glyph-name="uni042D" unicode="&#x42d;" horiz-adv-x="517" 
d="M496 356q0 -167 -90 -266t-257 -99q-73 0 -133 19l26 172q46 -22 114 -22q49 0 86 29.5t43 73.5h-209v155h208q-29 98 -144 98q-49 0 -96 -20l-25 164q73 24 161 24q83 0 146 -27.5t99 -74.5t53.5 -104t17.5 -122z" />
    <glyph glyph-name="uni042E" unicode="&#x42e;" horiz-adv-x="957" 
d="M936 349q0 -162 -98 -262.5t-245 -100.5q-276 0 -303 284h-56v-270h-186v675h186v-253h62q24 129 112 198t212 69q142 0 229 -83t87 -257zM738 340q0 179 -132 179q-54 0 -92.5 -44t-38.5 -133q0 -185 127 -185q53 0 94.5 43t41.5 140z" />
    <glyph glyph-name="uni042F" unicode="&#x42f;" horiz-adv-x="598" 
d="M550 0h-186v239h-27l-120 -239h-213l149 278q-50 17 -81 61.5t-31 108.5q0 108 78.5 171t233.5 63q102 0 197 -14v-668zM364 388v140q-16 3 -39 3q-47 0 -69 -20t-22 -51q0 -72 96 -72h34z" />
    <glyph glyph-name="uni0430" unicode="&#x430;" horiz-adv-x="530" 
d="M484 0h-170q0 40 4 63h-1q-18 -35 -57 -55t-87 -20q-71 0 -109.5 43.5t-38.5 109.5q0 174 262 174h9v10q0 26 -15 36.5t-50 10.5q-70 0 -151 -31l-26 137q92 33 201 33q126 0 175.5 -43t49.5 -134v-228q0 -69 4 -106zM296 190v12h-19q-45 0 -61.5 -10t-16.5 -33
q0 -14 9.5 -24t26.5 -10q26 0 43.5 19.5t17.5 45.5z" />
    <glyph glyph-name="uni0431" unicode="&#x431;" horiz-adv-x="572" 
d="M549 272q0 -130 -78 -207t-197 -77q-126 0 -185 75.5t-59 229.5v7q0 256 89 345q39 39 97 58t107.5 20.5t99 6t69.5 16.5v-153q-28 -15 -130 -20.5t-129 -32.5q-30 -30 -36 -101h1q42 64 146 64q93 0 149 -62t56 -169zM360 247q0 54 -15.5 79.5t-52.5 25.5
q-31 0 -51.5 -24t-20.5 -77q0 -55 16 -80.5t52 -25.5q34 0 53 28.5t19 73.5z" />
    <glyph glyph-name="uni0432" unicode="&#x432;" horiz-adv-x="539" 
d="M523 166q0 -80 -70.5 -129t-196.5 -49t-208 21v486q128 14 218 14q233 0 233 -131q0 -79 -77 -106v-1q40 -2 70.5 -30.5t30.5 -74.5zM322 343q0 41 -65 41q-20 0 -38 -3v-77h39q29 0 46.5 10.5t17.5 28.5zM331 158q0 43 -71 43h-41v-82q19 -5 50 -5q28 0 45 12t17 32z
" />
    <glyph glyph-name="uni0433" unicode="&#x433;" horiz-adv-x="350" 
d="M340 347h-110v-347h-182v497h292v-150z" />
    <glyph glyph-name="uni0434" unicode="&#x434;" horiz-adv-x="591" 
d="M581 141v-271h-156v130h-259v-130h-156v271h38q39 72 39 179v177h439v-356h55zM344 141v215h-87v-30q0 -114 -29 -185h116z" />
    <glyph glyph-name="uni0435" unicode="&#x435;" horiz-adv-x="524" 
d="M496 269q0 -37 -6 -78h-282q2 -28 29 -45.5t78 -17.5q77 0 147 31l16 -136q-88 -35 -192 -35q-262 0 -262 254q0 119 65 193.5t183 74.5q111 0 167.5 -66t56.5 -175zM319 309q3 69 -51 69q-26 0 -42.5 -19t-18.5 -50h112z" />
    <glyph glyph-name="uni0436" unicode="&#x436;" horiz-adv-x="834" 
d="M326 300v197h182v-197l96 197h221l-144 -231l151 -266h-224l-100 224v-224h-182v224l-100 -224h-224l151 263l-144 234h223z" />
    <glyph glyph-name="uni0437" unicode="&#x437;" horiz-adv-x="455" 
d="M439 166q0 -80 -71 -129.5t-195 -49.5q-80 0 -151 21l25 134q66 -30 137 -30q29 0 46 12t17 32q0 35 -71 35h-100v118h98q64 0 64 36q0 41 -66 41q-64 0 -123 -27l-21 121q83 30 173 30q113 0 163.5 -37.5t50.5 -94.5q0 -79 -76 -106v-1q40 -3 70 -31.5t30 -73.5z" />
    <glyph glyph-name="uni0438" unicode="&#x438;" horiz-adv-x="600" 
d="M552 0h-182v124q0 78 9 141q-13 -41 -27 -66l-106 -199h-198v497h182v-133q0 -70 -9 -133q13 41 27 66l106 200h198v-497z" />
    <glyph glyph-name="uni0439" unicode="&#x439;" horiz-adv-x="600" 
d="M552 0h-182v124q0 78 9 141q-13 -41 -27 -66l-106 -199h-198v497h182v-133q0 -70 -9 -133q13 41 27 66l106 200h198v-497zM520 716q0 -83 -57.5 -127t-165.5 -44q-217 0 -217 171h159q0 -73 63 -73q57 0 57 73h161z" />
    <glyph glyph-name="uni043A" unicode="&#x43a;" horiz-adv-x="565" 
d="M565 0h-225l-111 224v-224h-182v497h182v-197l107 197h222l-155 -231z" />
    <glyph glyph-name="uni043B" unicode="&#x43b;" horiz-adv-x="535" 
d="M487 0h-182v343h-64v-17q0 -333 -229 -339l-20 145q39 3 55.5 44t16.5 163v158h423v-497z" />
    <glyph glyph-name="uni043C" unicode="&#x43c;" horiz-adv-x="792" 
d="M781 0h-187l-24 215q-6 54 -10 104h-1q-9 -58 -25 -123l-46 -196h-191l-45 181q-16 66 -30 138h-1q-6 -78 -11 -115l-23 -204h-176l80 497h240l53 -202q11 -40 18 -92h1q10 63 18 92l53 202h228z" />
    <glyph glyph-name="uni043D" unicode="&#x43d;" horiz-adv-x="570" 
d="M522 0h-182v174h-110v-174h-182v497h182v-169h110v169h182v-497z" />
    <glyph glyph-name="uni043E" unicode="&#x43e;" horiz-adv-x="564" 
d="M541 260q0 -122 -78 -197t-193 -75q-247 0 -247 246q0 124 77.5 199.5t194.5 75.5q121 0 183.5 -64.5t62.5 -184.5zM352 249q0 54 -15.5 79t-52.5 25q-30 0 -51 -25t-21 -74q0 -58 15.5 -83t52.5 -25q35 0 53.5 28t18.5 75z" />
    <glyph glyph-name="uni043F" unicode="&#x43f;" horiz-adv-x="566" 
d="M518 0h-182v343h-106v-343h-182v497h470v-497z" />
    <glyph glyph-name="uni0440" unicode="&#x440;" horiz-adv-x="560" 
d="M534 278q0 -132 -67 -209.5t-203 -77.5q-22 0 -35 3v-227h-182v730h165q0 -34 -2 -56h2q43 68 142 68q87 0 133.5 -62t46.5 -169zM342 258q0 100 -49 100q-27 0 -45.5 -31t-18.5 -88v-102q20 -4 35 -4q78 0 78 125z" />
    <glyph glyph-name="uni0441" unicode="&#x441;" horiz-adv-x="410" 
d="M392 12q-52 -24 -135 -24q-234 0 -234 245q0 118 66 197t192 79q64 0 111 -13l-44 -162q-33 18 -66 18q-32 0 -50 -26.5t-18 -73.5q0 -105 80 -105q36 0 61 13z" />
    <glyph glyph-name="uni0442" unicode="&#x442;" horiz-adv-x="420" 
d="M410 356h-109v-356h-182v356h-109v141h400v-141z" />
    <glyph glyph-name="uni0443" unicode="&#x443;" horiz-adv-x="534" 
d="M539 497l-189 -505q-51 -135 -113.5 -184t-158.5 -49q-40 0 -86 8l21 154q35 -11 69 -11q26 0 51.5 14t34.5 47l8 29l-176 497h200l29 -91q22 -70 40 -156h2q21 95 45 164l28 83h195z" />
    <glyph glyph-name="uni0444" unicode="&#x444;" horiz-adv-x="784" 
d="M762 260q0 -107 -72.5 -179.5t-206.5 -90.5v-223h-182v221q-279 13 -279 249q0 107 72.5 179.5t206.5 90.5v168h182v-166q279 -13 279 -249zM577 246q0 93 -95 107v-209q45 7 70 35t25 67zM302 144v209q-45 -7 -70 -35.5t-25 -67.5q0 -93 95 -106z" />
    <glyph glyph-name="uni0445" unicode="&#x445;" horiz-adv-x="542" 
d="M545 0h-225l-54 133l-54 -133h-215l155 253l-144 244h214l58 -131l57 131h199l-132 -245z" />
    <glyph glyph-name="uni0446" unicode="&#x446;" horiz-adv-x="582" 
d="M572 141v-271h-156v130h-368v497h182v-356h105v356h182v-356h55z" />
    <glyph glyph-name="uni0447" unicode="&#x447;" horiz-adv-x="542" 
d="M494 0h-182v150q-38 -12 -95 -12q-193 0 -193 155v204h182v-170q0 -54 46 -54q32 0 60 12v212h182v-497z" />
    <glyph glyph-name="uni0448" unicode="&#x448;" horiz-adv-x="847" 
d="M799 0h-751v497h182v-345h104v345h179v-345h104v345h182v-497z" />
    <glyph glyph-name="uni0449" unicode="&#x449;" horiz-adv-x="864" 
d="M854 141v-271h-156v130h-650v497h182v-356h104v356h179v-356h104v356h182v-356h55z" />
    <glyph glyph-name="uni044A" unicode="&#x44a;" horiz-adv-x="602" 
d="M594 197q0 -92 -68.5 -150.5t-204.5 -58.5q-119 0 -202 19v349h-109v141h291v-126q31 3 72 3q99 0 160 -45t61 -132zM405 181q0 23 -16.5 37t-47.5 14q-22 0 -40 -3v-93q18 -6 45 -6q28 0 43.5 14t15.5 37z" />
    <glyph glyph-name="uni044B" unicode="&#x44b;" horiz-adv-x="804" 
d="M756 0h-182v497h182v-497zM523 197q0 -92 -68.5 -150.5t-204.5 -58.5q-119 0 -202 19v490h182v-126q32 3 72 3q99 0 160 -45t61 -132zM334 181q0 23 -16.5 37t-47.5 14q-22 0 -40 -3v-93q18 -6 45 -6q28 0 43.5 14t15.5 37z" />
    <glyph glyph-name="uni044C" unicode="&#x44c;" horiz-adv-x="531" 
d="M523 197q0 -92 -68.5 -150.5t-204.5 -58.5q-119 0 -202 19v490h182v-126q32 3 72 3q99 0 160 -45t61 -132zM334 181q0 23 -16.5 37t-47.5 14q-22 0 -40 -3v-93q18 -6 45 -6q28 0 43.5 14t15.5 37z" />
    <glyph glyph-name="uni044D" unicode="&#x44d;" horiz-adv-x="414" 
d="M391 249q0 -114 -67.5 -187.5t-197.5 -73.5q-56 0 -101 13l25 137q38 -16 76 -16q70 0 82 64h-129v122h128q-19 63 -88 63q-38 0 -67 -11l-25 131q51 18 116 18q122 0 185 -68t63 -192z" />
    <glyph glyph-name="uni044E" unicode="&#x44e;" horiz-adv-x="801" 
d="M778 260q0 -122 -78 -197t-193 -75q-106 0 -166 46t-69 148h-42v-182h-182v497h182v-179h47q20 88 88.5 139.5t166.5 51.5q121 0 183.5 -64.5t62.5 -184.5zM589 249q0 54 -15.5 79t-52.5 25q-30 0 -51 -25t-21 -74q0 -58 15.5 -83t52.5 -25q35 0 53.5 28t18.5 75z" />
    <glyph glyph-name="uni044F" unicode="&#x44f;" horiz-adv-x="545" 
d="M497 0h-182v163h-30l-79 -163h-203l82 151q23 41 33 56q-39 14 -64.5 45.5t-25.5 72.5q0 84 68.5 134t194.5 50q104 0 206 -17v-492zM315 289v95q-16 2 -36 2q-30 0 -46 -13.5t-16 -35.5t16 -35t46 -13h36z" />
    <glyph glyph-name="uni0450" unicode="&#x450;" horiz-adv-x="524" 
d="M496 269q0 -37 -6 -78h-282q2 -28 29 -45.5t78 -17.5q77 0 147 31l16 -136q-88 -35 -192 -35q-262 0 -262 254q0 119 65 193.5t183 74.5q111 0 167.5 -66t56.5 -175zM319 309q3 69 -51 69q-26 0 -42.5 -19t-18.5 -50h112zM380 645l-60 -101l-226 101l74 123z" />
    <glyph glyph-name="uni0451" unicode="&#x451;" horiz-adv-x="524" 
d="M496 269q0 -37 -6 -78h-282q2 -28 29 -45.5t78 -17.5q77 0 147 31l16 -136q-88 -35 -192 -35q-262 0 -262 254q0 119 65 193.5t183 74.5q111 0 167.5 -66t56.5 -175zM319 309q3 69 -51 69q-26 0 -42.5 -19t-18.5 -50h112zM470 640q0 -38 -27 -64.5t-64 -26.5t-64 26.5
t-27 64.5t27 64.5t64 26.5t64 -26.5t27 -64.5zM253 640q0 -38 -26.5 -64.5t-64.5 -26.5t-64.5 26.5t-26.5 64.5t26.5 64.5t64.5 26.5t64.5 -26.5t26.5 -64.5z" />
    <glyph glyph-name="uni0452" unicode="&#x452;" horiz-adv-x="565" 
d="M532 164q0 -149 -17 -219t-59 -112q-46 -46 -142 -71l-44 144q33 10 48 25q19 19 25.5 55t6.5 147v16q0 91 -4.5 135t-12 55t-23.5 11q-25 0 -48 -31.5t-23 -73.5v-245h-182v535h-57v140h57v55h182v-55h95v-140h-95v-4q0 -39 -9 -91h1q18 28 56.5 46t81.5 18
q92 0 127.5 -67.5t35.5 -249.5v-23z" />
    <glyph glyph-name="uni0453" unicode="&#x453;" horiz-adv-x="350" 
d="M340 347h-110v-347h-182v497h292v-150zM343 645l-226 -101l-60 100l212 124z" />
    <glyph glyph-name="uni0454" unicode="&#x454;" horiz-adv-x="417" 
d="M392 7q-51 -19 -126 -19q-122 0 -182 67t-60 191q0 109 66.5 186t198.5 77q57 0 99 -13l-25 -140q-38 16 -74 16q-67 0 -82 -66h141v-118h-140q18 -65 88 -65q38 0 71 12z" />
    <glyph glyph-name="uni0455" unicode="&#x455;" horiz-adv-x="405" 
d="M381 163q0 -82 -63.5 -128.5t-168.5 -46.5q-59 0 -110 14l8 146q43 -21 100 -21q40 0 40 22q0 14 -16.5 24t-40 19.5t-47 24t-40 45t-16.5 75.5q0 76 57.5 124.5t172.5 48.5q40 0 83 -8l-4 -140q-36 12 -82 12q-37 0 -37 -23q0 -12 17 -21.5t41 -20t48 -26t41 -46.5
t17 -74z" />
    <glyph glyph-name="uni0456" unicode="&#x456;" horiz-adv-x="278" 
d="M230 0h-182v497h182v-497zM248 640q0 -43 -32 -74t-77 -31t-77 31t-32 74t32 74t77 31t77 -31t32 -74z" />
    <glyph glyph-name="uni0457" unicode="&#x457;" horiz-adv-x="278" 
d="M238 0h-182v497h182v-497zM354 640q0 -38 -27 -64.5t-64 -26.5t-64 26.5t-27 64.5t27 64.5t64 26.5t64 -26.5t27 -64.5zM138 640q0 -38 -27 -64.5t-64 -26.5t-64 26.5t-27 64.5t27 64.5t64 26.5t64 -26.5t27 -64.5z" />
    <glyph glyph-name="uni0458" unicode="&#x458;" horiz-adv-x="279" 
d="M248 640q0 -43 -32 -74t-77 -31t-77 31t-32 74t32 74t77 31t77 -31t32 -74zM231 -11q0 -228 -224 -228q-37 0 -74 10l9 153q28 -11 55 -11q52 0 52 55v529h182v-508z" />
    <glyph glyph-name="uni0459" unicode="&#x459;" horiz-adv-x="788" 
d="M241 343v-17q0 -333 -229 -339l-20 145q39 3 55.5 44t16.5 163v158h423v-126q31 3 72 3q99 0 160 -45t61 -132q0 -92 -68.5 -150.5t-204.5 -58.5q-119 0 -202 19v336h-64zM591 181q0 23 -16.5 37t-47.5 14q-22 0 -40 -3v-93q18 -6 45 -6q28 0 43.5 14t15.5 37z" />
    <glyph glyph-name="uni045A" unicode="&#x45a;" horiz-adv-x="823" 
d="M522 371q32 3 72 3q99 0 160 -45t61 -132q0 -92 -68.5 -150.5t-204.5 -58.5q-119 0 -202 19v167h-110v-174h-182v497h182v-169h110v169h182v-126zM626 181q0 23 -16.5 37t-47.5 14q-22 0 -40 -3v-93q18 -6 45 -6q28 0 43.5 14t15.5 37z" />
    <glyph glyph-name="uni045B" unicode="&#x45b;" horiz-adv-x="575" 
d="M527 0h-182v309q0 41 -28 41q-30 0 -54 -36t-24 -78v-236h-182v535h-57v140h57v55h182v-55h96v-140h-96v-9q0 -43 -9 -86h1q50 64 149 64q77 0 112 -43.5t35 -113.5v-347z" />
    <glyph glyph-name="uni045C" unicode="&#x45c;" horiz-adv-x="565" 
d="M565 0h-225l-111 224v-224h-182v497h182v-197l107 197h222l-155 -231zM498 645l-226 -101l-60 100l212 124z" />
    <glyph glyph-name="uni045D" unicode="&#x45d;" horiz-adv-x="600" 
d="M552 0h-182v124q0 78 9 141q-13 -41 -27 -66l-106 -199h-198v497h182v-133q0 -70 -9 -133q13 41 27 66l106 200h198v-497zM403 645l-60 -101l-226 101l74 123z" />
    <glyph glyph-name="uni045E" unicode="&#x45e;" horiz-adv-x="534" 
d="M539 497l-189 -505q-51 -135 -113.5 -184t-158.5 -49q-40 0 -86 8l21 154q35 -11 69 -11q26 0 51.5 14t34.5 47l8 29l-176 497h200l29 -91q22 -70 40 -156h2q21 95 45 164l28 83h195zM485 716q0 -83 -57.5 -127t-165.5 -44q-217 0 -217 171h159q0 -73 63 -73q57 0 57 73
h161z" />
    <glyph glyph-name="uni045F" unicode="&#x45f;" horiz-adv-x="566" 
d="M518 0h-157v-130h-156v130h-157v497h182v-345h106v345h182v-497z" />
    <glyph glyph-name="uni0472" unicode="&#x472;" horiz-adv-x="701" 
d="M680 349q0 -162 -98 -262.5t-245 -100.5q-156 0 -236 89.5t-80 252.5q0 160 99 260.5t244 100.5q142 0 229 -83t87 -257zM481 414q-24 110 -131 110q-43 0 -78.5 -27.5t-49.5 -82.5h259zM481 270h-262q22 -118 127 -118q43 0 81.5 28t53.5 90z" />
    <glyph glyph-name="uni0473" unicode="&#x473;" horiz-adv-x="564" 
d="M541 260q0 -122 -78 -197t-193 -75q-247 0 -247 246q0 124 77.5 199.5t194.5 75.5q121 0 183.5 -64.5t62.5 -184.5zM357 307q-9 68 -75 68q-61 0 -75 -68h150zM207 191q9 -68 75 -68q61 0 75 68h-150z" />
    <glyph glyph-name="uni0490" unicode="&#x490;" horiz-adv-x="432" 
d="M420 515h-186v-515h-186v675h211v114h161v-274z" />
    <glyph glyph-name="uni0491" unicode="&#x491;" horiz-adv-x="360" 
d="M350 347h-120v-347h-182v497h146v109h156v-259z" />
    <glyph glyph-name="uni0492" unicode="&#x492;" horiz-adv-x="447" 
d="M63 408v267h372v-160h-186v-107h128v-155h-128v-253h-186v253h-63v155h63z" />
    <glyph glyph-name="uni0493" unicode="&#x493;" horiz-adv-x="364" 
d="M57 300v197h297v-150h-115v-47h82v-144h-82v-156h-182v156h-48v144h48z" />
    <glyph glyph-name="uni0496" unicode="&#x496;" horiz-adv-x="909" 
d="M358 386v289h186v-289l126 289h218l-169 -325l97 -189h85v-298h-161v137h-73l-123 308v-308h-186v308l-124 -308h-231l180 347l-169 328h219z" />
    <glyph glyph-name="uni0497" unicode="&#x497;" horiz-adv-x="840" 
d="M828 141v-271h-156v130h-64l-100 224v-224h-182v224l-100 -224h-224l151 263l-144 234h223l94 -197v197h182v-197l96 197h221l-144 -231l71 -125h76z" />
    <glyph glyph-name="uni0498" unicode="&#x498;" horiz-adv-x="494" 
d="M465 225q0 -79 -44 -134t-124 -81v-147h-161v129q-69 3 -118 16l15 153q59 -19 136 -19q49 0 73.5 19.5t24.5 47.5t-25 42t-87 14h-81v148h40q139 0 139 65q0 56 -86 56q-68 0 -130 -25l-15 148q89 27 186 27q118 0 177.5 -45.5t59.5 -123.5q0 -52 -25 -89.5t-69 -53.5
l-2 -3q50 -10 83 -50.5t33 -93.5z" />
    <glyph glyph-name="uni0499" unicode="&#x499;" horiz-adv-x="454" 
d="M439 166q0 -59 -40 -103t-113 -63v-130h-156v118q-44 3 -108 20l25 134q66 -30 137 -30q29 0 46 12t17 32q0 35 -71 35h-100v118h98q64 0 64 36q0 41 -66 41q-64 0 -123 -27l-21 121q83 30 173 30q113 0 163.5 -37.5t50.5 -94.5q0 -79 -76 -106v-1q40 -3 70 -31.5
t30 -73.5z" />
    <glyph glyph-name="uni049A" unicode="&#x49a;" horiz-adv-x="639" 
d="M611 161v-298h-161v137h-73l-143 308v-308h-186v675h186v-289l146 289h225l-193 -325l110 -189h89z" />
    <glyph glyph-name="uni049B" unicode="&#x49b;" horiz-adv-x="565" 
d="M556 141v-271h-156v130h-60l-111 224v-224h-182v497h182v-197l107 197h222l-155 -231l76 -125h77z" />
    <glyph glyph-name="uni049C" unicode="&#x49c;" horiz-adv-x="786" 
d="M603 351l180 -351h-232l-107 270h-19v-107h-147v107h-40v-270h-186v675h186v-253h40v105h147v-105h19l110 253h218z" />
    <glyph glyph-name="uni049D" unicode="&#x49d;" horiz-adv-x="756" 
d="M532 0l-85 181h-36v-105h-143v105h-39v-181h-182v497h182v-169h39v103h143v-103h36l76 169h223l-142 -235l152 -262h-224z" />
    <glyph glyph-name="uni04A0" unicode="&#x4a0;" horiz-adv-x="697" 
d="M684 0h-239l-143 308v-308h-186v515h-104v160h290v-289l146 289h225l-193 -325z" />
    <glyph glyph-name="uni04A1" unicode="&#x4a1;" horiz-adv-x="628" 
d="M621 497l-155 -231l162 -266h-225l-111 224v-224h-182v357h-100v140h282v-197l107 197h222z" />
    <glyph glyph-name="uni04A2" unicode="&#x4a2;" horiz-adv-x="706" 
d="M622 161h62v-298h-161v137h-87v266h-202v-266h-186v675h186v-246h202v246h186v-514z" />
    <glyph glyph-name="uni04A3" unicode="&#x4a3;" horiz-adv-x="587" 
d="M522 141h55v-271h-156v130h-81v174h-110v-174h-182v497h182v-169h110v169h182v-356z" />
    <glyph glyph-name="uni04AA" unicode="&#x4aa;" horiz-adv-x="531" 
d="M402 -6v-131h-161v140q-62 15 -106.5 48.5t-66.5 78.5t-31.5 88.5t-9.5 91.5q0 171 92 270.5t256 99.5q71 0 130 -18l-23 -170q-48 19 -107 19q-67 0 -105 -44.5t-38 -125.5q0 -180 150 -180q58 0 100 21l25 -166q-43 -16 -105 -22z" />
    <glyph glyph-name="uni04AB" unicode="&#x4ab;" horiz-adv-x="411" 
d="M317 -8v-122h-156v133q-137 44 -137 230q0 118 66 197t192 79q64 0 111 -13l-44 -162q-33 18 -66 18q-32 0 -50 -26.5t-18 -73.5q0 -105 80 -105q36 0 61 13l37 -148q-30 -14 -76 -20z" />
    <glyph glyph-name="uni04AE" unicode="&#x4ae;" horiz-adv-x="597" 
d="M604 675l-214 -442v-233h-186v232l-211 443h202l63 -146q24 -55 40 -103h2q12 37 49 118l58 131h197z" />
    <glyph glyph-name="uni04AF" unicode="&#x4af;" horiz-adv-x="539" 
d="M539 497l-184 -497v-233h-182v233l-173 497h200l28 -92q26 -82 41 -160h2q20 95 45 168l28 84h195z" />
    <glyph glyph-name="uni04B0" unicode="&#x4b0;" horiz-adv-x="597" 
d="M597 675l-207 -423h151v-152h-151v-100h-186v100h-151v152h151l-204 423h201l57 -131q25 -57 40 -104h2q22 60 49 119l52 116h196z" />
    <glyph glyph-name="uni04B1" unicode="&#x4b1;" horiz-adv-x="547" 
d="M390 140h111v-140h-142v-233h-182v233h-142v140h113l-148 357h205l29 -80q28 -89 42 -144h2q15 68 47 152l28 72h194z" />
    <glyph glyph-name="uni04B2" unicode="&#x4b2;" horiz-adv-x="684" 
d="M569 161h85v-298h-161v137h-57l-107 204l-107 -204h-222l206 342l-194 333h215l106 -200l103 200h212l-191 -336z" />
    <glyph glyph-name="uni04B3" unicode="&#x4b3;" horiz-adv-x="563" 
d="M389 0h-69l-54 133l-54 -133h-215l155 253l-144 244h214l58 -131l57 131h199l-132 -245l62 -111h79v-271h-156v130z" />
    <glyph glyph-name="uni04B8" unicode="&#x4b8;" horiz-adv-x="667" 
d="M398 383q14 1 36 9v283h185v-675h-185v239q-16 -5 -36 -9v-98h-147v92q-123 9 -173.5 68.5t-50.5 163.5v219h186v-199q0 -69 38 -84v105h147v-114z" />
    <glyph glyph-name="uni04B9" unicode="&#x4b9;" horiz-adv-x="642" 
d="M380 282q8 1 32 8v207h182v-497h-182v155q-4 -1 -9.5 -2t-12.5 -2t-11 -2v-96h-137v86q-218 8 -218 173v185h182v-162q0 -41 36 -54v102h138v-101z" />
    <glyph glyph-name="uni04BA" unicode="&#x4ba;" horiz-adv-x="629" 
d="M593 0h-186v215q0 75 -81 75q-54 0 -92 -17v-273h-186v675h186v-248q50 18 133 18q110 0 168 -53t58 -150v-242z" />
    <glyph glyph-name="uni04BB" unicode="&#x4bb;" horiz-adv-x="566" 
d="M518 0h-182v314q0 41 -28 41q-30 0 -54 -36t-24 -78v-241h-182v730h182v-182q0 -61 -9 -103h1q50 64 149 64q77 0 112 -43.5t35 -113.5v-352z" />
    <glyph glyph-name="uni04D8" unicode="&#x4d8;" horiz-adv-x="609" 
d="M17 275q0 69 14 139h351q-19 105 -124 105q-101 0 -181 -36l-35 158q106 47 231 47q144 0 229.5 -83t85.5 -257q0 -171 -83 -266t-229 -95q-126 0 -192.5 77t-66.5 211zM219 259v-3q0 -51 20.5 -75.5t53.5 -24.5q36 0 61 28.5t28 74.5h-163z" />
    <glyph glyph-name="uni04D9" unicode="&#x4d9;" horiz-adv-x="524" 
d="M24 229q0 37 6 78h282q-2 28 -29.5 46.5t-77.5 18.5q-72 0 -136 -27l-27 130q88 35 192 35q262 0 262 -254q0 -119 -65 -193.5t-183 -74.5q-111 0 -167.5 66t-56.5 175zM201 191v-7q0 -62 51 -62q26 0 42.5 19t18.5 50h-112z" />
    <glyph glyph-name="uni04E8" unicode="&#x4e8;" horiz-adv-x="701" 
d="M680 349q0 -162 -98 -262.5t-245 -100.5q-156 0 -236 89.5t-80 252.5q0 160 99 260.5t244 100.5q142 0 229 -83t87 -257zM481 414q-24 110 -131 110q-43 0 -78.5 -27.5t-49.5 -82.5h259zM481 270h-262q22 -118 127 -118q43 0 81.5 28t53.5 90z" />
    <glyph glyph-name="uni04E9" unicode="&#x4e9;" horiz-adv-x="564" 
d="M541 260q0 -122 -78 -197t-193 -75q-247 0 -247 246q0 124 77.5 199.5t194.5 75.5q121 0 183.5 -64.5t62.5 -184.5zM357 307q-9 68 -75 68q-61 0 -75 -68h150zM207 191q9 -68 75 -68q61 0 75 68h-150z" />
    <glyph glyph-name="Wgrave" unicode="&#x1e80;" horiz-adv-x="950" 
d="M940 675l-164 -675h-226l-56 253q-14 62 -26 172h-1q-5 -78 -25 -165l-59 -260h-211l-162 675h197l62 -276q14 -61 21 -147h1q11 86 25 144l71 279h187l68 -269q19 -75 27 -148h1q12 86 27 157l56 260h187zM597 799l-26 -96l-253 49l35 123z" />
    <glyph glyph-name="wgrave" unicode="&#x1e81;" horiz-adv-x="800" 
d="M800 497l-151 -497h-192l-33 116q-15 52 -30 128h-1q-10 -53 -31 -125l-34 -119h-178l-150 497h197l20 -77q30 -113 44 -178h2q12 78 38 168l24 87h163l23 -77q32 -111 45 -178h2q15 87 35 168l22 87h185zM513 645l-60 -101l-226 101l74 123z" />
    <glyph glyph-name="Wacute" unicode="&#x1e82;" horiz-adv-x="950" 
d="M940 675l-164 -675h-226l-56 253q-14 62 -26 172h-1q-5 -78 -25 -165l-59 -260h-211l-162 675h197l62 -276q14 -61 21 -147h1q11 86 25 144l71 279h187l68 -269q19 -75 27 -148h1q12 86 27 157l56 260h187zM646 752l-253 -49l-26 96l244 76z" />
    <glyph glyph-name="wacute" unicode="&#x1e83;" horiz-adv-x="800" 
d="M800 497l-151 -497h-192l-33 116q-15 52 -30 128h-1q-10 -53 -31 -125l-34 -119h-178l-150 497h197l20 -77q30 -113 44 -178h2q12 78 38 168l24 87h163l23 -77q32 -111 45 -178h2q15 87 35 168l22 87h185zM563 645l-226 -101l-60 100l212 124z" />
    <glyph glyph-name="Wdieresis" unicode="&#x1e84;" horiz-adv-x="950" 
d="M940 675l-164 -675h-226l-56 253q-14 62 -26 172h-1q-5 -78 -25 -165l-59 -260h-211l-162 675h197l62 -276q14 -61 21 -147h1q11 86 25 144l71 279h187l68 -269q19 -75 27 -148h1q12 86 27 157l56 260h187zM679 791q0 -36 -25.5 -61t-61.5 -25t-61.5 25t-25.5 61
t25.5 61.5t61.5 25.5t61.5 -25.5t25.5 -61.5zM461 791q0 -36 -25.5 -61t-61.5 -25t-61.5 25t-25.5 61t25.5 61.5t61.5 25.5t61.5 -25.5t25.5 -61.5z" />
    <glyph glyph-name="wdieresis" unicode="&#x1e85;" horiz-adv-x="800" 
d="M800 497l-151 -497h-192l-33 116q-15 52 -30 128h-1q-10 -53 -31 -125l-34 -119h-178l-150 497h197l20 -77q30 -113 44 -178h2q12 78 38 168l24 87h163l23 -77q32 -111 45 -178h2q15 87 35 168l22 87h185zM607 640q0 -38 -26.5 -64.5t-64.5 -26.5t-64.5 26.5t-26.5 64.5
t26.5 64.5t64.5 26.5t64.5 -26.5t26.5 -64.5zM390 640q0 -38 -27 -64.5t-64 -26.5t-64 26.5t-27 64.5t27 64.5t64 26.5t64 -26.5t27 -64.5z" />
    <glyph glyph-name="Ygrave" unicode="&#x1ef2;" horiz-adv-x="597" 
d="M604 675l-214 -442v-233h-186v232l-211 443h202l63 -146q24 -55 40 -103h2q12 37 49 118l58 131h197zM329 799l-26 -96l-253 49l35 123z" />
    <glyph glyph-name="ygrave" unicode="&#x1ef3;" horiz-adv-x="534" 
d="M539 497l-189 -505q-51 -135 -113.5 -184t-158.5 -49q-40 0 -86 8l21 154q35 -11 69 -11q26 0 51.5 14t34.5 47l8 29l-176 497h200l29 -91q22 -70 40 -156h2q21 95 45 164l28 83h195zM333 645l-60 -101l-226 101l74 123z" />
    <glyph glyph-name="endash" unicode="&#x2013;" 
d="M550 218h-550v160h550v-160z" />
    <glyph glyph-name="emdash" unicode="&#x2014;" horiz-adv-x="1000" 
d="M900 218h-800v160h800v-160z" />
    <glyph glyph-name="emdash" unicode="&#x2015;" horiz-adv-x="1000" 
d="M900 218h-800v160h800v-160z" />
    <glyph glyph-name="quoteleft" unicode="&#x2018;" horiz-adv-x="300" 
d="M270 699q-55 -59 -63 -95.5t25 -72.5q19 -21 22.5 -50t-6.5 -55t-36 -44t-62 -18q-63 0 -94 59q-38 74 8 176q40 87 133 165z" />
    <glyph glyph-name="quoteright" unicode="&#x2019;" horiz-adv-x="300" 
d="M150 753q63 0 94 -59q38 -74 -8 -176q-39 -87 -133 -165l-73 65q55 59 63 95.5t-25 72.5q-19 21 -22.5 50t6.5 55t36 44t62 18z" />
    <glyph glyph-name="quotesinglbase" unicode="&#x201a;" horiz-adv-x="300" 
d="M150 200q63 0 94 -59q38 -74 -8 -176q-39 -87 -133 -165l-73 65q55 59 63 95.5t-25 72.5q-19 21 -22.5 50t6.5 55t36 44t62 18z" />
    <glyph glyph-name="quotedblleft" unicode="&#x201c;" horiz-adv-x="560" 
d="M530 699q-55 -59 -63 -95.5t25 -72.5q19 -21 22.5 -50t-6.5 -55t-36 -44t-62 -18q-63 0 -94 59q-38 74 8 176q40 87 133 165zM270 699q-55 -59 -63 -95.5t25 -72.5q19 -21 22.5 -50t-6.5 -55t-36 -44t-62 -18q-63 0 -94 59q-38 74 8 176q40 87 133 165z" />
    <glyph glyph-name="quotedblright" unicode="&#x201d;" horiz-adv-x="560" 
d="M410 753q63 0 94 -59q38 -74 -8 -176q-39 -87 -133 -165l-73 65q55 59 63 95.5t-25 72.5q-19 21 -22.5 50t6.5 55t36 44t62 18zM150 753q63 0 94 -59q38 -74 -8 -176q-39 -87 -133 -165l-73 65q55 59 63 95.5t-25 72.5q-19 21 -22.5 50t6.5 55t36 44t62 18z" />
    <glyph glyph-name="quotedblbase" unicode="&#x201e;" horiz-adv-x="560" 
d="M410 200q63 0 94 -59q38 -74 -8 -176q-39 -87 -133 -165l-73 65q55 59 63 95.5t-25 72.5q-19 21 -22.5 50t6.5 55t36 44t62 18zM150 200q63 0 94 -59q38 -74 -8 -176q-39 -87 -133 -165l-73 65q55 59 63 95.5t-25 72.5q-19 21 -22.5 50t6.5 55t36 44t62 18z" />
    <glyph glyph-name="dagger" unicode="&#x2020;" horiz-adv-x="470" 
d="M438 499h-127l28 -74l-30 -261h-147l-31 261l28 74h-127v140h127l-28 135h208l-28 -135h127v-140z" />
    <glyph glyph-name="daggerdbl" unicode="&#x2021;" horiz-adv-x="470" 
d="M438 274h-125l28 -110h-212l28 110h-125v140h125l-26 55l26 55h-125v140h125l-26 110h208l-26 -110h125v-140h-125l26 -55l-26 -55h125v-140z" />
    <glyph glyph-name="bullet" unicode="&#x2022;" horiz-adv-x="426" 
d="M401 297q0 -77 -55.5 -132.5t-132.5 -55.5q-78 0 -133 55.5t-55 132.5t55 132.5t133 55.5q77 0 132.5 -55.5t55.5 -132.5z" />
    <glyph glyph-name="perthousand" unicode="&#x2030;" horiz-adv-x="1090" 
d="M342 532q0 -76 -47.5 -123.5t-112.5 -47.5q-70 0 -111 43.5t-41 117.5t47 120.5t112 46.5q67 0 110 -39.5t43 -117.5zM218 526q0 54 -30 54q-13 0 -23 -14t-10 -41q0 -55 31 -55q13 0 22.5 14.5t9.5 41.5zM677 616l-507 -641l-106 82l507 641zM715 157
q0 -76 -47.5 -123.5t-112.5 -47.5q-70 0 -111 43.5t-41 117.5t47 120.5t112 46.5q67 0 110 -39.5t43 -117.5zM591 151q0 54 -30 54q-13 0 -23 -14t-10 -41q0 -55 31 -55q13 0 22.5 14.5t9.5 41.5zM1056 157q0 -76 -47.5 -123.5t-112.5 -47.5q-70 0 -111 43.5t-41 117.5
t47 120.5t112 46.5q67 0 110 -39.5t43 -117.5zM932 151q0 54 -30 54q-13 0 -23 -14t-10 -41q0 -55 31 -55q13 0 22.5 14.5t9.5 41.5z" />
    <glyph glyph-name="guilsinglleft" unicode="&#x2039;" horiz-adv-x="311" 
d="M276 141l-148 -62l-106 212l109 214l142 -61l-79 -153z" />
    <glyph glyph-name="guilsinglright" unicode="&#x203a;" horiz-adv-x="311" 
d="M289 293l-109 -214l-142 61l79 153l-82 150l148 62z" />
    <glyph glyph-name="fraction" unicode="&#x2044;" horiz-adv-x="460" 
d="M551 610l-510 -655l-132 96l510 655z" />
    <glyph glyph-name="Euro" unicode="&#x20ac;" horiz-adv-x="592" 
d="M567 34q-31 -20 -81 -34t-100 -14q-274 0 -313 220h-62v102h54v2q0 20 2 54h-56v102h69q30 106 110.5 164.5t204.5 58.5q93 0 163 -32l-37 -148q-52 27 -120 27q-47 0 -73.5 -17.5t-41.5 -52.5h152v-102h-171v-23q0 -23 1 -33h170v-102h-156q13 -34 41 -51.5t83 -17.5
q21 0 55 10t60 25z" />
    <glyph glyph-name="uni2116" unicode="&#x2116;" horiz-adv-x="1087" 
d="M1050 503q0 -87 -56.5 -139.5t-140.5 -52.5q-78 0 -127.5 44.5t-49.5 139.5q0 90 56 142t139 52q179 0 179 -186zM1035 156h-345v132h345v-132zM616 0h-219l-125 267q-31 68 -55 146q5 -50 5 -127v-286h-174v675h237l133 -289q14 -29 29 -88q-5 70 -5 189v188h174v-675z
M913 499q0 39 -11.5 56.5t-38.5 17.5q-22 0 -37 -18t-15 -56q0 -73 50 -73q52 0 52 73z" />
    <glyph glyph-name="trademark" unicode="&#x2122;" horiz-adv-x="675" 
d="M663 394h-131l-12 83l-3 38l-6 -38l-14 -83h-108l-16 86l-5 35l-2 -35l-10 -86h-118l47 281h141l18 -78l6 -34l5 34l15 78h143zM244 566h-55v-172h-123v172h-59v109h237v-109z" />
    <glyph glyph-name="ohm" unicode="&#x2126;" horiz-adv-x="704" 
d="M675 0h-292v143q48 33 68.5 83.5t20.5 127.5q0 166 -123 166q-56 0 -88 -43.5t-32 -120.5q0 -82 20 -128.5t71 -83.5v-144h-291v146h94q-92 61 -92 218q0 140 91.5 232.5t241.5 92.5q136 0 221 -75.5t85 -232.5q0 -162 -95 -235h100v-146z" />
    <glyph glyph-name="partialdiff" unicode="&#x2202;" horiz-adv-x="630" 
d="M584 385q0 -210 -118 -318q-82 -74 -201 -74q-106 0 -164 59t-58 158q0 112 71 183.5t189 71.5q59 0 93 -21q-8 29 -14 42q-21 45 -68.5 72t-109.5 27l29 154q157 0 254 -97t97 -257zM375 238q0 73 -75 73q-35 0 -57 -23.5t-22 -62.5q0 -34 18 -53.5t53 -19.5t59 23.5
t24 62.5z" />
    <glyph glyph-name="increment" unicode="&#x2206;" horiz-adv-x="644" 
d="M653 0h-664l220 675h213zM397 168l-54 170q-29 94 -33 122h-2q-13 -61 -35 -132l-49 -160h173z" />
    <glyph glyph-name="product" unicode="&#x220f;" horiz-adv-x="784" 
d="M748 577h-83v-810h-168v810h-208v-810h-169v810h-85v153h713v-153z" />
    <glyph glyph-name="summation" unicode="&#x2211;" horiz-adv-x="604" 
d="M565 -233h-529v143l264 349l-248 327v144h497v-153h-274l235 -312l-261 -340h316v-158z" />
    <glyph glyph-name="minus" unicode="&#x2212;" 
d="M515 218h-480v160h480v-160z" />
    <glyph glyph-name="uni2215" unicode="&#x2215;" horiz-adv-x="460" 
d="M551 610l-510 -655l-132 96l510 655z" />
    <glyph glyph-name="radical" unicode="&#x221a;" horiz-adv-x="628" 
d="M642 758l-228 -758h-214l-115 362h-80v135h233l59 -214q12 -43 15 -72h1q4 40 12 71l116 476h201z" />
    <glyph glyph-name="infinity" unicode="&#x221e;" horiz-adv-x="998" 
d="M973 306q0 -93 -62 -154t-175 -61q-107 0 -243 98q-136 -98 -252 -98q-104 0 -160 57t-56 145q0 95 64 154.5t164 59.5q114 0 249 -101q134 101 249 101q101 0 161.5 -56t60.5 -145zM802 302q0 20 -15 33.5t-39 13.5q-42 0 -110 -48q70 -51 107 -51q28 0 42.5 15t14.5 37
zM356 296q-70 53 -103 53q-28 0 -42.5 -14.5t-14.5 -36.5q0 -21 15 -34.5t39 -13.5q42 0 106 46z" />
    <glyph glyph-name="integral" unicode="&#x222b;" horiz-adv-x="353" 
d="M328 578q-22 6 -40 6q-22 0 -31.5 -16.5t-9.5 -62.5q0 -77 7.5 -229t7.5 -242q0 -144 -45.5 -211.5t-139.5 -67.5q-27 0 -62 7v156q18 -5 36 -5q24 0 34.5 18t10.5 70q0 78 -7.5 223.5t-7.5 239.5q0 277 193 277q24 0 54 -7v-156z" />
    <glyph glyph-name="approxequal" unicode="&#x2248;" horiz-adv-x="551" 
d="M523 379q-72 -75 -155 -75q-37 0 -93 28t-90 28q-51 0 -102 -42l-57 118q35 33 79 54t84 21q47 0 103.5 -28t75.5 -28q48 0 95 43zM525 145q-33 -32 -77.5 -51.5t-80.5 -19.5q-45 0 -101 28t-81 28q-47 0 -99 -43l-60 119q79 75 152 75q46 0 101 -28t93 -28q56 0 95 39z
" />
    <glyph glyph-name="notequal" unicode="&#x2260;" horiz-adv-x="574" 
d="M524 114h-225l-37 -95h-165l37 95h-84v145h141l29 75h-170v145h227l36 92h164l-36 -92h83v-145h-140l-29 -75h169v-145z" />
    <glyph glyph-name="lessequal" unicode="&#x2264;" 
d="M464 295l-120 -123l-293 269l292 269l121 -121l-178 -147zM475 0h-400v152h400v-152z" />
    <glyph glyph-name="greaterequal" unicode="&#x2265;" 
d="M499 441l-292 -269l-121 121l178 147l-178 147l120 123zM475 0h-400v152h400v-152z" />
    <glyph glyph-name="lozenge" unicode="&#x25ca;" horiz-adv-x="636" 
d="M631 337l-255 -347h-114l-257 347l257 348h114zM431 333l-118 153l-106 -145l114 -156z" />
    <glyph glyph-name="zero.mono" unicode="&#xe023;" 
d="M532 303q0 -144 -78 -230.5t-187 -86.5q-118 0 -183.5 76.5t-65.5 238.5q0 141 78.5 227t186.5 86q110 0 179.5 -74t69.5 -237zM346 299q0 96 -19.5 131.5t-52.5 35.5q-70 0 -70 -164q0 -53 5.5 -88t16 -51t22 -22t27.5 -6q71 0 71 164z" />
    <glyph glyph-name="one.mono" unicode="&#xe024;" 
d="M521 0h-456v156h154v263l-131 -83l-53 142l216 122h148v-444h122v-156z" />
    <glyph glyph-name="two.mono" unicode="&#xe025;" 
d="M493 0h-442v142l38 33q118 100 153 139.5t35 76.5q0 28 -18.5 44.5t-54.5 16.5q-59 0 -112 -37l-38 153q81 46 191 46q116 0 172 -55t56 -136q0 -118 -146 -238l-28 -23v-3q91 5 194 5v-164z" />
    <glyph glyph-name="three.mono" unicode="&#xe026;" 
d="M491 146q0 -109 -90 -176t-228 -67q-63 0 -116 17l23 150q46 -18 106 -18q54 0 83 21t29 55q0 69 -105 69q-24 0 -79 -5v134h29q70 0 107 21t37 58q0 61 -80 61q-65 0 -115 -30l-28 141q84 37 183 37q109 0 167.5 -47t58.5 -130q0 -51 -26 -88t-67 -55l-1 -3
q52 -10 82 -50t30 -95z" />
    <glyph glyph-name="four.mono" unicode="&#xe027;" 
d="M527 73h-71v-156h-171v156h-247l-17 147l194 380h241v-372h71v-155zM289 228v198h-1l-98 -199q19 1 99 1z" />
    <glyph glyph-name="five.mono" unicode="&#xe028;" 
d="M497 162q0 -114 -88.5 -186.5t-228.5 -72.5q-52 0 -105 13l15 154q52 -16 100 -16q53 0 82 24t29 63q0 79 -121 79q-59 0 -93 -8v388h377v-164l-212 1v-79h9q109 0 172.5 -54t63.5 -142z" />
    <glyph glyph-name="six.mono" unicode="&#xe029;" 
d="M518 238q0 -116 -69.5 -184t-175.5 -68q-114 0 -177 75.5t-63 233.5q0 179 94 283.5t240 104.5q60 0 89 -5l-3 -152q-41 9 -86 9q-50 0 -89 -24.5t-56 -74.5q-2 -6 -9 -29h1q41 31 101 31q98 0 150.5 -56t52.5 -144zM339 214q0 78 -64 78q-29 0 -45.5 -21t-16.5 -51
q0 -38 17 -61t48 -23q28 0 44.5 22t16.5 56z" />
    <glyph glyph-name="seven.mono" unicode="&#xe02a;" 
d="M498 451q-123 -249 -181 -534h-193q29 137 77.5 279.5t94.5 236.5q-141 -3 -238 -3v170h440v-149z" />
    <glyph glyph-name="eight.mono" unicode="&#xe02b;" 
d="M515 199q0 -103 -73 -158.5t-178 -55.5t-166 50.5t-61 138.5t91 156q-77 53 -77 150q0 95 65.5 152.5t169.5 57.5q97 0 156 -48.5t59 -124.5q0 -95 -80 -157q94 -55 94 -161zM326 503q0 54 -51 54q-26 0 -39 -16.5t-13 -40.5q0 -38 59 -70q44 34 44 73zM337 183
q0 44 -74 78q-46 -34 -46 -74q0 -30 15.5 -47.5t44.5 -17.5q27 0 43.5 18t16.5 43z" />
    <glyph glyph-name="nine.mono" unicode="&#xe02c;" 
d="M520 312q0 -187 -95 -296t-256 -109q-56 0 -109 11l17 152q46 -15 99 -15q50 0 91.5 29t54.5 76q2 7 7 28h-1q-37 -31 -106 -31q-91 0 -143 56.5t-52 151.5q0 109 71 179t179 70q112 0 177.5 -75t65.5 -227zM328 380q0 39 -16.5 61t-45.5 22t-46 -21.5t-17 -56.5
q0 -77 62 -77q28 0 45.5 22t17.5 50z" />
    <glyph glyph-name="zero.expert" unicode="&#xe02d;" 
d="M531 340q0 -166 -73.5 -259.5t-187.5 -93.5q-59 0 -103 17t-78.5 55.5t-52.5 108.5t-18 171q0 166 71 257t191 91q130 0 190.5 -85t60.5 -262zM335 338q0 118 -14 156t-47 38q-31 0 -45.5 -41.5t-14.5 -149.5q0 -85 7.5 -128.5t19.5 -55.5t34 -12q32 0 46 40t14 153z" />
    <glyph glyph-name="one.expert" unicode="&#xe02e;" 
d="M522 0h-482v164h157v319l-124 -48l-26 174l209 66h130v-511h136v-164z" />
    <glyph glyph-name="two.expert" unicode="&#xe02f;" 
d="M505 0h-465v149l30 30q134 134 171 181.5t37 93.5q0 28 -20 45t-58 17q-71 0 -128 -37l-26 166q79 42 199 42t179 -57.5t59 -141.5q0 -76 -35 -137.5t-131 -157.5l-17 -17v-3q90 5 205 5v-178z" />
    <glyph glyph-name="three.expert" unicode="&#xe030;" 
d="M500 227q0 -112 -92 -175.5t-245 -63.5q-61 0 -114 14l14 158q44 -17 118 -17q61 0 91 21.5t30 51.5q0 53 -112 53q-57 0 -109 -7v142h39q77 0 124.5 18t47.5 54q0 55 -86 55q-78 0 -134 -28l-15 154q84 30 190 30q118 0 177.5 -45t59.5 -129q0 -52 -26 -89t-72 -53
l-2 -3q52 -10 84 -49.5t32 -91.5z" />
    <glyph glyph-name="four.expert" unicode="&#xe031;" 
d="M531 147h-66v-147h-179v147h-257l-18 155l206 373h248v-365h66v-163zM290 310v182h-1l-97 -183q22 1 98 1z" />
    <glyph glyph-name="five.expert" unicode="&#xe032;" 
d="M505 238q0 -110 -88 -180t-235 -70q-59 0 -113 11v163q61 -16 125 -16q51 0 79 22t28 53q0 70 -128 70q-62 0 -102 -8v392h408v-173l-233 2v-69h12q115 0 181 -54.5t66 -142.5z" />
    <glyph glyph-name="six.expert" unicode="&#xe033;" 
d="M528 239q0 -118 -70 -185.5t-184 -67.5q-121 0 -188.5 76t-67.5 235q0 178 98.5 282.5t255.5 104.5q60 0 99 -5v-162q-55 11 -103 11q-112 0 -152 -91q-6 -12 -9 -24h1q44 28 103 28q106 0 161.5 -56.5t55.5 -145.5zM343 216q0 74 -70 74q-31 0 -48.5 -19.5t-17.5 -48.5
q0 -35 18.5 -56.5t54.5 -21.5q28 0 45.5 21t17.5 51z" />
    <glyph glyph-name="seven.expert" unicode="&#xe034;" 
d="M505 518q-111 -220 -184 -518h-203q30 132 81 273.5t93 225.5q-138 -3 -250 -3v179h463v-157z" />
    <glyph glyph-name="eight.expert" unicode="&#xe035;" 
d="M530 202q0 -105 -76.5 -161t-190.5 -56q-113 0 -177 50.5t-64 140.5q0 89 90 156q-77 58 -77 144q0 100 70.5 157.5t182.5 57.5q104 0 166 -49.5t62 -126.5q0 -91 -85 -153q99 -58 99 -160zM332 500q0 44 -57 44q-58 0 -58 -46q0 -19 17 -34.5t50 -31.5q48 33 48 68z
M343 186q0 23 -21.5 39.5t-62.5 34.5q-49 -33 -49 -68q0 -26 17 -41.5t50 -15.5q31 0 48.5 14t17.5 37z" />
    <glyph glyph-name="nine.expert" unicode="&#xe036;" 
d="M531 386q0 -87 -20.5 -157t-63 -125t-115 -85t-170.5 -30q-55 0 -102 8v162q48 -15 114 -15q53 0 93 24t54 62q4 13 5 22h-1q-37 -27 -112 -27q-93 0 -144.5 56.5t-51.5 155.5q0 115 69 183t187 68q116 0 187 -76.5t71 -225.5zM329 453q0 77 -64 77q-31 0 -49 -20.5
t-18 -52.5q0 -72 65 -72q29 0 47.5 21.5t18.5 46.5z" />
    <glyph glyph-name="Euro.captab" unicode="&#xe037;" 
d="M401 206h-130q25 -69 104 -69q46 0 105 22l31 -140q-80 -33 -169 -33q-231 0 -269 220h-60v102h52v3q0 19 2 53h-54v102h71q29 106 102 164.5t188 58.5q70 0 133 -18l-30 -153q-51 18 -101 18q-75 0 -103 -70h128v-102h-147v-25q0 -21 1 -31h146v-102z" />
    <glyph glyph-name="cent.captab" unicode="&#xe038;" 
d="M502 115q-37 -16 -92 -27v-99h-119v92q-121 5 -184.5 68.5t-63.5 183.5q0 111 67 186.5t181 87.5v76h119v-77q53 -7 88 -22l-29 -144q-23 11 -59 18v-225q39 8 65 21zM291 455q-32 -9 -52 -39.5t-20 -71.5q0 -86 72 -109v220z" />
    <glyph glyph-name="dollar.captab" unicode="&#xe039;" 
d="M541 228q0 -90 -58.5 -150.5t-167.5 -77.5l-6 -130h-116l7 126q-90 2 -161 26l25 168q65 -32 144 -41l4 120q-97 16 -148.5 62t-51.5 135q0 83 56.5 140t162.5 71l4 101h116l-5 -98q63 -4 119 -19l-22 -142q-50 17 -104 20l-4 -119q206 -39 206 -192zM226 535
q-43 -7 -43 -51q0 -34 40 -43zM365 201q0 36 -41 48l-4 -99q45 11 45 51z" />
    <glyph glyph-name="florin.captab" unicode="&#xe03a;" 
d="M515 715l-21 -142q-37 10 -69 10q-66 0 -72 -85l-3 -67h137v-132h-144l-13 -220q-9 -156 -64 -217.5t-168 -61.5q-41 0 -81 10l21 143q21 -8 55 -8q55 0 62 102l15 252h-123v132h131l2 57q12 238 236 238q53 0 99 -11z" />
    <glyph glyph-name="sterling.captab" unicode="&#xe03b;" 
d="M501 0h-442v135q105 33 105 110q0 31 -5 48h-100v133h85q-8 64 -8 81q0 101 59 151t167 50q51 0 113 -10l-17 -141q-43 8 -79 8q-67 0 -67 -59q0 -12 7 -80h137v-133h-124q2 -22 2 -35q0 -71 -55 -110q40 2 57 2h165v-150z" />
    <glyph glyph-name="yen.captab" unicode="&#xe03c;" 
d="M549 675l-152 -332h100v-107h-135v-54h135v-108h-135v-74h-175v74h-134v108h134v54h-134v107h100l-151 332h190l56 -148q12 -30 30 -88h2q16 54 28 86l55 150h186z" />
    <glyph glyph-name="designer" unicode="&#xe07b;" horiz-adv-x="1316" 
d="M947 -34q-7 -9 -26 -11.5t-25 -6.5q-45 -4 -54 -28q-3 -9 -12.5 -25t-14 -29.5t-1.5 -27.5q3 -12 26 -6q2 0 6 4t8 2q2 -3 1.5 -4t-3 -4t-3.5 -5q-21 -13 -38 -5q-18 18 -13 36q4 21 35 74q-10 5 -31.5 0.5t-31.5 -0.5q5 7 27 14q5 1 17 1.5t20.5 2.5t12.5 10q5 0 5 22
v24q-5 1 -5 12q-3 5 -7 9.5t-7.5 7.5t-9.5 5t-9.5 3t-11.5 2t-10.5 1t-11.5 0.5t-10 0.5q-22 -1 -41.5 -16.5t-28.5 -35.5q-12 -28 3 -65q-2 -13 12 -42.5t5 -49.5q-9 -7 -26 -1q-8 4 -12 12t-6 20.5t-4 17.5q6 4 7 17.5t5 17.5q5 19 -7 24q-6 -1 -23 -1.5t-28.5 -3
t-20.5 -9.5q5 -19 3.5 -44.5t-18.5 -37.5q-11 -3 -24 4q-5 4 -7 10t-2 11t0.5 13t0.5 12q1 3 6.5 15t8.5 17t10 12t15 10q10 -6 33 1l49 1q3 3 4 13t2 13q10 30 33 52t53 24q41 4 64 -8q1 -7 11.5 -13t11.5 -13q11 -17 1 -68q22 0 87 12zM541 -54q-5 -4 -16 2t-17 2
q-10 -7 -14.5 -24.5t-9.5 -23.5q-1 -7 -4.5 -24.5t-3.5 -27.5q-10 -5 -14 -4q-5 1 -3 18t2 18q5 6 5.5 22t3.5 22q-2 4 -2.5 13.5t-1.5 11.5q-2 1 -7.5 -2t-7.5 1q2 10 14 18q10 0 19 -18q3 1 9.5 8.5t10 9t12.5 -3.5zM408 -9q0 -21 2 -73t0.5 -79.5t-14 -65t-39.5 -63.5
q-65 -41 -145 -19q-12 7 -12 14q7 29 22 34l-12 -33q28 -15 63 -12.5t63 17.5q17 6 26.5 17.5t17 34t10.5 27.5q10 60 6 146q3 6 1 24t-1 24q-2 6 -12 1q-5 -5 -11 -17t-11 -16q2 -10 -10 -20t-12 -18q-31 -35 -72 -94q-1 -2 -3 -5t-3 -5t-3 -4t-4 -2.5t-5 -0.5
q-8 5 -5.5 29.5t1.5 31.5q2 5 5.5 21t8 27.5t12.5 21.5q22 58 66 86q15 4 46 -16q8 10 12 24q12 -5 12 -20q-5 -2 -2 -8t2 -9zM731 209q-14 -2 -62 -16t-76 -12q-5 -4 -6 -16t3.5 -21t15.5 -5q1 1 4 10t8 11q8 -15 -8 -33q-5 -1 -15 -2t-18 12.5t-5 38.5q-7 10 -5 14
q5 4 8 10t4 10.5t1.5 13t1.5 12.5q-1 0 -2 2t-2 2q-13 -9 -27.5 -31.5t-20.5 -29.5q0 -9 -12 -23.5t-10 -25.5q-2 -2 -4 -15.5t-12 -14.5q-11 3 -13.5 10t-1 19t0.5 17q-2 13 1 35t1 33q-7 -4 -12.5 -15.5t-8.5 -15.5q-2 -3 -11 -17.5t-17 -20.5t-21 -3q-16 23 13 72
q2 3 7 9t8 9.5t9 8.5t10.5 4.5t12.5 -1.5q5 -2 10 0q17 39 20 90l10 8q6 -2 7 -5.5t-0.5 -7t-3 -8t-0.5 -7.5q-2 -13 -8.5 -51.5t-8.5 -58.5q0 -6 -2 -19.5t-2 -19t2 -19.5q4 5 26.5 40t39.5 52q14 19 32 30q4 -4 14.5 -14t15.5 -14v-40q7 2 44.5 9t57.5 13q8 -5 7 -13z
M1064 581q-6 77 -60 101q5 7 10 8t10.5 -3t9 -7.5t9 -11t6.5 -8.5q57 -70 11 -182q-33 -78 -104 -108q34 24 48 48q42 42 48 80q18 29 12 83zM974 480q-8 -21 -24 -25q-9 3 -20 17l2 14q3 -1 4.5 -7.5t6.5 -8.5q6 -2 16 11q8 49 -15 87l-6 -3q-3 -3 -11 -10t-12 -11
t-9 -10.5t-8 -13.5l-8 -4q-9 -9 -23.5 -28.5t-22.5 -27.5q-7 -1 -10 3t-4 11.5t-3 10.5q4 10 -3 17q-5 1 -7 -4t-3 -6q-15 -15 -32 -16q-10 3 -13.5 9.5t-2 13t4 17t2.5 16.5q5 20 33 50q2 1 10 3.5t12 3t10 -1t10 -7.5l4 -6q-3 -8 -11 -72q3 -10 8 -10q9 0 15 11t8 13
q29 25 78 78q10 -3 11.5 -20.5t4.5 -21.5q5 -2 3 -8q11 -22 5 -64zM838 676q-9 -16 -24 -14q-6 11 -12 6q-24 -19 -38.5 -32t-31 -34t-23.5 -42q-19 -115 33 -156q6 -4 13 -5.5t18 -1t15 0.5q4 3 10.5 8.5t10.5 8.5q1 -5 -2.5 -9t-9.5 -7.5t-9 -6.5q-33 -13 -62 12
q-23 21 -27 46q-7 3 -4 11t-2 11q2 4 -1.5 14t0.5 16q-2 54 29 96.5t85 85.5q2 0 7 1t8.5 1.5t7.5 0.5t6 -3t3 -8zM655 498q-7 -18 -22.5 -30t-34.5 -12q-47 0 -64 32q-11 16 -5 50q1 6 7 15t7 15q29 24 64 12q1 -1 3.5 -2.5t4 -2t2.5 -2.5t1 -5q-3 -2 -4.5 -1t-5 3t-6.5 2
q-27 7 -50 -16q-20 -32 -10 -55q22 -30 54 -34q1 1 16.5 3.5t21.5 10.5q3 2 6 8t6.5 9t8.5 0zM501 470q-2 -5 -5.5 -15.5t-7.5 -18t-9 -14.5q-13 -6 -21 10q-16 37 -10 75q-1 1 0.5 24.5t-2.5 30.5q-6 -15 -7.5 -58t-19.5 -62q-3 -3 -10.5 -4t-17 9t-13.5 33q2 12 4 36t4 36
q0 2 -2 14.5t4 13.5q7 4 13 -4q1 -15 -2 -40.5t-3 -45t7 -30.5q8 -6 12 -0.5t5.5 16t3.5 12.5q2 11 3 40t5 44q2 2 4.5 7.5t4.5 8.5t6 5t9 -3q9 -26 7 -76t6 -76q1 -3 4.5 -4t6.5 3l2 5q2 6 4.5 12t6.5 11t8 5zM345 440q-15 -12 -84 -17q-71 -6 -127 -25q-6 -13 -28 -2
q-1 7 7 13.5t9 10.5q11 21 19 48q-1 5 9 26q57 132 74 208q-4 14 3 21q4 1 6 0t4 -4.5t3 -4.5q-10 -56 -50.5 -152t-51.5 -140l2 -2q13 2 45 8t55.5 9.5t47.5 3.5q31 -6 54 3zM706 -154q11 23 -10 54q-6 -8 -8 -27q5 -25 18 -27zM586 -73l-14 -19q-6 -31 -1 -46
q2 -2 4.5 -2.5t5 0t5.5 1.5t5 3.5t3.5 5.5t1.5 7t-2 8q10 39 -8 42zM372 -6q-3 10 -15 13t-21 -2q-29 -25 -40 -40q-4 -13 -15.5 -37.5t-17 -45t-3.5 -40.5q2 0 6 4q11 14 37 43.5t43 54t26 50.5zM599 208q9 22 -2 24l-5 -29q2 0 7 5zM463 210l-2 20q-13 3 -23 -14
q-31 -39 -21 -63q6 -3 11 7q24 26 35 50zM828 575q-3 3 -6.5 -0.5t-5.5 -2.5q-39 -20 -37 -80q4 -1 11.5 4t12.5 4q2 5 8.5 14t10.5 15.5t5.5 16t-5.5 16.5q6 0 6 13z" />
    <glyph glyph-name="FoFa" unicode="&#xe07d;" horiz-adv-x="960" 
d="M880 571q0 -4 -2 -4q-5 1 -42 -2q-67 -3 -90 -7q-6 -5 -7 -17t-3 -16q0 -3 2 -8.5t2 -6.5q4 -5 14 -7q17 2 23 13q0 7 -7 12q-3 2 -10 2.5t-10 4.5q2 3 5 4t9 0t8 -1q10 -3 15 -16q-1 -15 -18 -27q-4 -1 -11 -2.5t-10 -2.5q-35 9 -45 24q-4 1 -1 22l4 22q-1 3 -3.5 3.5
t-5.5 0t-6 0.5l-33 -1q0 1 -1 2t-1 2q2 2 8 3h6q5 -1 11.5 -1t14.5 0.5t12 0.5q5 4 5 17q1 3 3 14.5t6 15.5q4 1 5.5 0.5t4.5 -3.5l4 -4q4 -5 3.5 -17t1.5 -19q0 -5 10.5 -4.5t11.5 0.5q4 0 43.5 1t69.5 5q3 -2 4 -3zM651 504l-3 -2q-35 0 -51 -5q-11 5 -13 8q6 37 1 56
q-2 2 -14 -4q-39 -24 -41 -48q-10 -10 -19 -5q-4 3 -3 15t0 16l-1 31q-2 2 -8 1.5t-10 0.5q-1 1 -4 1t-5 0.5t-2 3.5q7 0 26 1.5t26 -0.5q4 -3 3 -14.5t6 -12.5q8 4 25 14t27 14q2 -1 12 -1t12 -8t2 -23.5v-19.5q1 -1 1.5 -5.5t2.5 -6.5q9 -2 13 0q2 0 7.5 -1t9.5 -1
q3 -3 0 -5zM447 559q3 -19 -7 -31q-4 -3 -12.5 -10t-15 -11t-14.5 -5q-4 1 -6.5 -3.5t-6.5 -1.5q-1 3 -12 2t-13 -1q-14 0 -21 3q-24 21 -18 36q7 21 24 30q32 16 47 13q45 -2 55 -21zM452 664q-12 -13 -29 -8q-13 18 -14 24q-6 9 -16 16t-18 9t-23 5.5t-21 5.5l-31 2
q-2 -2 -6.5 -1.5t-6.5 -0.5q-33 -10 -55 -21q-1 -2 -13.5 -11.5t-13.5 -18.5q-9 -22 -11 -70q0 -3 10.5 -2.5t11.5 0.5q19 2 86 2q1 -1 1.5 -3.5t-0.5 -3.5q-5 -5 -15.5 -0.5t-15.5 2.5q-7 0 -21 -1t-20 0q-4 -1 -12 -1.5t-14 -1.5t-10 -4l-3 -4q-2 -25 1 -63v-14t4 -14
q19 -1 38 1t31 2q2 2 13 -1q1 -1 1 -2v-2l-4 -2q-12 4 -39 0.5t-46 -2.5q-37 -3 -46 -2q-45 -2 -64 3l-2 3q3 3 9 5q4 -2 39 -7q24 3 26 4q-1 19 4.5 49.5t6.5 43.5q-1 2 -3 4q-6 0 -18.5 -0.5t-21 0.5t-16.5 5q-2 5 3 5q18 -5 56 -3l2 3q6 47 15 66v3q47 55 119 62
q31 4 70 -13q2 -1 9.5 -1.5t10.5 -2.5q43 -9 62 -35q2 -2 0 -9zM771 -58l-4 -4q-13 1 -47.5 -2.5t-49.5 -1.5q-31 1 -104 -3.5t-113 -0.5q-24 -4 -96 3q-13 1 -121 1q-68 0 -100 -8q-12 -2 -15 4q0 4 -1 19.5t0 26t4 19.5q1 10 1 37.5t2 42.5q-3 15 -1 44.5t0 44.5
q0 25 3 71.5t4 59.5q2 26 1 71.5t0 71.5q3 6 13.5 6t12.5 1q2 -4 18.5 -2.5t18.5 1.5q12 12 13 1q1 -1 0.5 -6t2.5 -6q-1 -37 -1 -54.5t3.5 -74t4.5 -72.5q22 7 59 28t57 28q3 1 9.5 5.5t11.5 6.5q8 4 10 3q3 -1 4 -3.5t0 -7.5t-1 -6q-10 -29 -5 -61q1 -2 3 -2.5t3.5 0t4 1
t3.5 0.5q6 5 17.5 12t16.5 10q25 15 41 21q36 25 48 29l20 16q1 4 6 7q3 0 11 -6q0 -9 3 -28t3 -29q1 -2 3.5 -2.5t2.5 -1.5q3 -4 -2 -20l2 -2q23 5 61 32t60 32q3 3 10.5 6t11.5 7q3 0 16 9.5t22 2.5q6 0 7 -4q-1 -3 4 -12q-1 -4 0 -14t-2 -13q0 -5 -0.5 -16t0.5 -18.5
t5 -13.5q-1 -4 2.5 -12.5t-0.5 -10.5q2 -25 4 -27q2 -14 -1 -18q1 -5 2.5 -21t4.5 -25v-16q0 -26 6 -74.5t6 -72.5l1 -4q1 -4 0 -5zM425 539q-7 31 -26 34q-1 -3 -3.5 -3.5t-6 0t-4.5 0.5q-15 7 -26 -6q-2 -3 -3.5 -6.5t-1.5 -7t-0.5 -6t1 -6.5t2 -6t3.5 -6.5t3.5 -6t3.5 -6
t4 -5.5q1 -2 3 -2.5t4 0t5 -0.5h9t8 3l8 4q2 2 7 5.5t6.5 5.5t4 7t-0.5 9zM739 -10q-11 24 -18 32q-2 4 -8 12.5t-9.5 15.5t-4.5 15q-7 14 -6 17q5 6 17 13.5t16 12.5l-9 17q-7 -1 -18 -5.5t-13 -4.5q-1 -1 -4 -3t-5 -3.5t-5 -1t-5 2.5q2 53 1 78l-2 3q-6 0 -27 7
q-5 -35 -3 -48q-2 -5 -0.5 -19.5t-1.5 -19.5q1 -18 -1 -51.5t0 -51.5l-1 -7h24q1 0 6 -1.5t6 1.5q0 18 -1 28q0 3 -1 8t-1.5 8.5t1 7t6.5 4.5q4 -2 6 -7.5t3 -7.5q-1 -5 4 -12.5t6 -10.5q7 -4 15 -16.5t14 -16.5q2 0 6 -1.5t7 -0.5q6 0 6 6zM608 179q-4 12 -12 15
q-7 7 -10 0q-13 -18 -4 -30q3 -11 19 -4q9 6 7 19zM610 15q0 13 -1 38.5t-1 37.5v26q-2 5 -13.5 2.5t-14.5 -2.5q-5 0 -5 -24v-26l-3 -26q1 -3 1 -19.5t5 -24.5q15 0 30 5q2 4 2 13zM560 123q-24 -2 -30 -13q-2 -2 -3 -5.5t-2 -6t-3.5 -4.5t-6.5 -1q-2 7 -2 29q-2 2 -7 0
t-8 0q-7 -4 -11 -13q0 -73 4 -111l3 -4q3 -3 11.5 -1.5t11.5 0.5q-2 7 -0.5 21t-1.5 20q6 31 16 44q4 3 13 6t13 7q0 4 1.5 11t2 10.5t-0.5 10.5zM458 30q3 5 4.5 10t1.5 10.5t0.5 9.5t-0.5 11t-1.5 10t-2.5 11.5t-2 10.5q1 4 -4.5 7.5t-12.5 7t-8 4.5q-6 6 -8 -1
q-11 1 -19 -4q-4 -2 -8 -8t-6 -7q-5 -3 -9 3q5 24 -3 74l-2 7h-8q-4 -1 -6 -4.5t-2 -6.5v-7.5t-1 -6.5q-2 -11 -2 -34t-2 -34q1 -11 0 -32.5t0 -31.5q0 -5 -1.5 -17t-0.5 -19q9 -5 31 5q8 2 10.5 0.5t6.5 -7t7 -7.5q8 0 13 1q12 7 24 20.5t11 24.5zM333 34q-4 12 -3 44
t-7 41q-11 7 -23 12l-8 5h-14t-19 -5q-6 -3 -8 -26q8 -3 15.5 -1t16.5 0.5t13 -8.5q0 -2 2 -6t-1 -6q-3 -6 1 -8q5 -7 -3 -9q-5 -2 -14.5 -2t-13.5 -1q-19 -7 -25 -37q-2 -3 -0.5 -10.5t-1.5 -10.5q0 -11 15 -17q5 5 8 2q5 -1 9.5 1.5t10.5 7.5t9 7q6 1 7 -2.5t-0.5 -9
t2.5 -8.5q2 -2 8 0t8 2q2 1 5 1.5t5.5 1.5t4.5 3zM248 181q-12 2 -52 0q-18 -2 -27 -8q-1 -12 -3.5 -35.5t-3.5 -29.5q2 -19 1.5 -54.5t0.5 -55.5q1 0 7 1t7 0q3 1 11.5 -0.5t11.5 0.5q1 11 1 32t1 31q2 5 16 12q2 1 8 0.5t7 2.5l-1 28q-3 4 -21 4q-4 -4 -7 -4q-3 1 -5 3.5
t-2 5.5t-0.5 7t-1.5 6q-2 4 4 10q13 4 39 8l6 4q-1 7 1 17.5t2 14.5zM430 77q14 -30 -9 -55q-1 -1 -12 -7q-6 1 -9.5 5t-4.5 7.5t-2 11t-2 9.5q1 2 2.5 14.5t5.5 17.5q3 2 9 10t12 8l3 -3q-2 -5 2.5 -10.5t4.5 -7.5zM295 42q0 -11 -14 -23l-7 -3q-6 -3 -10 -1q-4 1 -5 3.5
t1 8.5l2 6q0 6 9 10q6 0 10 4q13 -3 14 -5z" />
    <glyph glyph-name="dieresis.narrow" unicode="&#xe08c;" horiz-adv-x="409" 
d="M411 640q0 -38 -26.5 -64.5t-64.5 -26.5t-64.5 26.5t-26.5 64.5t26.5 64.5t64.5 26.5t64.5 -26.5t26.5 -64.5zM195 640q0 -38 -26.5 -64.5t-64.5 -26.5t-64.5 26.5t-26.5 64.5t26.5 64.5t64.5 26.5t64.5 -26.5t26.5 -64.5z" />
    <glyph glyph-name="caroncomma" unicode="&#xe08e;" horiz-adv-x="375" 
d="M269 772l-69 -236l-115 21l43 240z" />
    <glyph glyph-name="circumflex.cap" unicode="&#xe08f;" horiz-adv-x="416" 
d="M380 793l-38 -90l-142 48l-137 -47l-35 85l176 87z" />
    <glyph glyph-name="tilde.cap" unicode="&#xe090;" horiz-adv-x="425" 
d="M421 812q-54 -95 -145 -95q-40 0 -74 20t-47 20q-30 0 -51 -39l-88 58q54 95 145 95q40 0 74.5 -20t46.5 -20q30 0 51 39z" />
    <glyph glyph-name="ring.cap" unicode="&#xe091;" horiz-adv-x="340" 
d="M303 795q0 -54 -38.5 -89.5t-94.5 -35.5q-55 0 -93.5 35.5t-38.5 89.5t38.5 89.5t93.5 35.5q56 0 94.5 -35.5t38.5 -89.5zM214 795q0 17 -13.5 30t-30.5 13t-30 -13t-13 -30t13 -30t30 -13t30.5 13t13.5 30z" />
    <glyph glyph-name="dotaccent.cap" unicode="&#xe092;" horiz-adv-x="292" 
d="M231 792q0 -37 -27.5 -63t-65.5 -26t-65.5 26t-27.5 63t27.5 63.5t65.5 26.5t65.5 -26.5t27.5 -63.5z" />
    <glyph glyph-name="breve.cap" unicode="&#xe093;" horiz-adv-x="333" 
d="M326 869q0 -67 -41.5 -112t-119.5 -45q-75 0 -117 45.5t-42 111.5h102q0 -22 16.5 -36.5t41.5 -14.5q26 0 41.5 14.5t15.5 36.5h103z" />
    <glyph glyph-name="f_ij" unicode="&#xf003;" horiz-adv-x="923" 
d="M407 148v209h-152v-357h-182v357h-63v140h63v46q0 101 48.5 149.5t161.5 48.5q45 0 80 -8l-11 -148q-20 8 -46 8q-27 0 -39 -11t-12 -38v-47h152h182v-311q0 -41 28 -41q30 0 54 35.5t24 77.5v239h182v-481q0 -130 -77 -193.5t-215 -63.5q-76 0 -157 19l14 164
q74 -30 158 -30q99 0 99 79v5q0 39 11 73h-1q-54 -76 -155 -76q-77 0 -112 42.5t-35 112.5zM617 640q0 -43 -32 -74t-77 -31t-77 31t-32 74t32 74t77 31t77 -31t32 -74zM888 640q0 -43 -32 -74t-77 -31t-77 31t-32 74t32 74t77 31t77 -31t32 -74z" />
    <glyph glyph-name="acute.cap" unicode="&#xf6c9;" horiz-adv-x="400" 
d="M346 752l-253 -49l-26 96l244 76z" />
    <glyph glyph-name="caron.cap" unicode="&#xf6ca;" horiz-adv-x="416" 
d="M380 790l-176 -87l-176 83l38 90l142 -48l137 47z" />
    <glyph glyph-name="dieresis.cap" unicode="&#xf6cb;" horiz-adv-x="546" 
d="M455 791q0 -36 -25.5 -61t-61.5 -25t-61.5 25t-25.5 61t25.5 61.5t61.5 25.5t61.5 -25.5t25.5 -61.5zM237 791q0 -36 -25.5 -61t-61.5 -25t-61.5 25t-25.5 61t25.5 61.5t61.5 25.5t61.5 -25.5t25.5 -61.5z" />
    <glyph glyph-name="grave.cap" unicode="&#xf6ce;" horiz-adv-x="380" 
d="M329 799l-26 -96l-253 49l35 123z" />
    <glyph glyph-name="hungarumlaut.cap" unicode="&#xf6cf;" horiz-adv-x="520" 
d="M559 785l-197 -85l-48 82l187 106zM305 800l-189 -102l-50 77l176 124z" />
    <glyph glyph-name="macron.cap" unicode="&#xf6d0;" horiz-adv-x="395" 
d="M357 731h-318v109h318v-109z" />
    <glyph glyph-name="breve.cyr.cap" unicode="&#xf6d1;" 
d="M495 871q0 -76 -57.5 -116.5t-165.5 -40.5q-217 0 -217 157h161q0 -61 61 -61q55 0 55 61h163z" />
    <glyph glyph-name="caroncomma.cap" unicode="&#xf6d2;" horiz-adv-x="332" 
d="M282 773l-126 -211l-106 50l103 221z" />
    <glyph glyph-name="ringacute" unicode="&#xf6d3;" horiz-adv-x="400" 
d="M318 647q0 -48 -34.5 -80t-83.5 -32t-83.5 32t-34.5 80t34.5 79.5t83.5 31.5t83.5 -31.5t34.5 -79.5zM239 647q0 16 -11.5 27t-27.5 11q-15 0 -26.5 -11t-11.5 -27t11.5 -27.5t26.5 -11.5q16 0 27.5 11.5t11.5 27.5zM377 815l-241 -39l-24 77l231 61z" />
    <glyph glyph-name="breve.cyr" unicode="&#xf6d4;" 
d="M495 716q0 -83 -57.5 -127t-165.5 -44q-217 0 -217 171h159q0 -73 63 -73q57 0 57 73h161z" />
    <glyph glyph-name="breve.sc" unicode="&#xf6f4;" horiz-adv-x="333" 
d="M319 724q0 -78 -38.5 -129t-116.5 -51t-115 51.5t-37 128.5h113q0 -53 40 -53t40 53h114z" />
    <glyph glyph-name="caron.sc" unicode="&#xf6f5;" horiz-adv-x="416" 
d="M382 686l-174 -142l-174 142l65 82l109 -77l109 77z" />
    <glyph glyph-name="circumflex.sc" unicode="&#xf6f6;" horiz-adv-x="416" 
d="M382 626l-65 -82l-109 77l-109 -77l-65 82l174 142z" />
    <glyph glyph-name="dotaccent.sc" unicode="&#xf6f7;" horiz-adv-x="292" 
d="M247 640q0 -43 -32 -74t-77 -31t-77 31t-32 74t32 74t77 31t77 -31t32 -74z" />
    <glyph glyph-name="hungarumlaut.sc" unicode="&#xf6f8;" horiz-adv-x="520" 
d="M515 688l-179 -144l-76 70l164 164zM285 707l-163 -163l-81 69l145 177z" />
    <glyph glyph-name="OE.sc" unicode="&#xf6fa;" horiz-adv-x="761" 
d="M711 0h-330q-41 -11 -82 -11q-129 0 -203.5 70.5t-74.5 193.5q0 121 89.5 199.5t209.5 78.5q46 0 93 -11h298v-145h-175v-42h166v-139h-166v-47h175v-147zM352 164v194q-20 9 -42 9q-39 0 -65.5 -27.5t-26.5 -77.5q0 -52 25 -80t65 -28q25 0 44 10z" />
    <glyph glyph-name="ring.sc" unicode="&#xf6fc;" horiz-adv-x="340" 
d="M317 668q0 -60 -42.5 -99.5t-104.5 -39.5t-104.5 39.5t-42.5 99.5t42.5 99.5t104.5 39.5t104.5 -39.5t42.5 -99.5zM218 668q0 20 -14 34t-34 14t-34 -14t-14 -34t14 -34t34 -14t34 14t14 34z" />
    <glyph glyph-name="Scaron.sc" unicode="&#xf6fd;" horiz-adv-x="426" 
d="M397 184q0 -88 -64 -143t-176 -55q-62 0 -111 13l14 156q42 -18 97 -18q33 0 33 24q0 10 -12 17t-29.5 11.5t-38 14.5t-38 25t-29.5 45t-12 71q0 86 61.5 136.5t178.5 50.5q42 0 87 -10l-13 -147q-38 12 -80 12q-36 0 -36 -23q0 -10 26.5 -22t57.5 -25t57.5 -47.5
t26.5 -85.5zM392 686l-174 -142l-174 142l65 82l109 -77l109 77z" />
    <glyph glyph-name="tilde.sc" unicode="&#xf6fe;" horiz-adv-x="425" 
d="M411 660q-51 -106 -139 -106q-38 0 -71.5 22.5t-45.5 22.5q-16 0 -27 -10t-22 -33l-84 64q51 106 139 106q38 0 71.5 -22.5t45.5 -22.5q28 0 49 43z" />
    <glyph glyph-name="Zcaron.sc" unicode="&#xf6ff;" horiz-adv-x="507" 
d="M458 0h-409v147l147 185q12 15 19 22q-10 -1 -60 -1h-101v167h398v-154l-152 -181q-4 -5 -13 -14q6 1 75 1h96v-172zM432 686l-174 -142l-174 142l65 82l109 -77l109 77z" />
    <glyph glyph-name="zero.oldstyle" unicode="&#xf730;" horiz-adv-x="601" 
d="M573 263q0 -128 -81.5 -202.5t-200.5 -74.5q-54 0 -99 13t-83 42t-59.5 82.5t-21.5 128.5q0 129 81.5 205.5t196.5 76.5q77 0 132.5 -25t83 -67t39.5 -86t12 -93zM392 264q0 54 -23 84t-67 30q-39 0 -66 -30.5t-27 -85.5q0 -116 93 -116q39 0 64.5 30.5t25.5 87.5z" />
    <glyph glyph-name="one.oldstyle" unicode="&#xf731;" horiz-adv-x="348" 
d="M300 0h-186v349l-86 -35l-27 149l161 59h138v-522z" />
    <glyph glyph-name="two.oldstyle" unicode="&#xf732;" horiz-adv-x="480" 
d="M448 0h-416v149l51 36q86 60 116.5 91t30.5 57q0 45 -60 45q-57 0 -109 -33l-25 153q85 36 180 36q104 0 161 -45t57 -121q0 -56 -33 -106.5t-91 -86.5l-27 -17v-2q50 4 165 4v-160z" />
    <glyph glyph-name="three.oldstyle" unicode="&#xf733;" horiz-adv-x="454" 
d="M430 62q0 -99 -79.5 -169.5t-218.5 -70.5q-57 0 -112 15l15 156q48 -16 97 -16q46 0 73 19.5t27 51.5q0 41 -49 55.5t-130 3.5v146q170 -1 170 76q0 23 -19 38t-54 15q-54 0 -105 -27l-17 149q74 30 162 30q108 0 166.5 -48t58.5 -121q0 -47 -25.5 -86.5t-68.5 -61.5v-1
q53 -14 81 -57t28 -97z" />
    <glyph glyph-name="four.oldstyle" unicode="&#xf734;" horiz-adv-x="569" 
d="M554 0h-85v-171h-179v171h-244l-29 147l225 373h227v-357h85v-163zM294 163v182h-1l-102 -183q22 1 103 1z" />
    <glyph glyph-name="five.oldstyle" unicode="&#xf735;" horiz-adv-x="458" 
d="M432 81q0 -113 -90.5 -186t-227.5 -73q-48 0 -90 8l16 160q38 -7 81 -7q57 0 87 21t30 54q0 69 -128 69q-36 0 -66 -5v398h367v-179l-196 2v-71q98 0 157.5 -51.5t59.5 -139.5z" />
    <glyph glyph-name="six.oldstyle" unicode="&#xf736;" horiz-adv-x="580" 
d="M557 234q0 -109 -77 -178.5t-198 -69.5q-114 0 -182.5 73.5t-68.5 215.5q0 192 103.5 307.5t283.5 115.5q31 0 73 -2v-162q-47 7 -82 7q-129 0 -174 -96q-3 -7 -8 -22l1 -1q42 29 117 29q98 0 155 -58.5t57 -158.5zM365 218q0 77 -65 77q-31 0 -49 -19.5t-18 -49.5
q0 -38 17 -60t47 -22q34 0 51 20t17 54z" />
    <glyph glyph-name="seven.oldstyle" unicode="&#xf737;" horiz-adv-x="458" 
d="M441 367q-108 -277 -157 -538h-202q54 265 152 515q-138 -3 -217 -3v179h424v-153z" />
    <glyph glyph-name="eight.oldstyle" unicode="&#xf738;" horiz-adv-x="565" 
d="M540 200q0 -101 -76.5 -157.5t-194.5 -56.5q-112 0 -178 51.5t-66 140.5q0 95 100 165l-1 1q-93 56 -93 158q0 94 71.5 150t182.5 56q112 0 178 -48t66 -131q0 -51 -24.5 -88.5t-71.5 -71.5q107 -65 107 -169zM341 513q0 19 -15.5 32t-44.5 13q-28 0 -43.5 -13.5
t-15.5 -35.5q0 -19 16.5 -34.5t50.5 -34.5l1 -1q51 39 51 74zM347 193q0 43 -76 77h-1q-53 -35 -53 -73q0 -26 18 -41.5t47 -15.5q30 0 47.5 15t17.5 38z" />
    <glyph glyph-name="nine.oldstyle" unicode="&#xf739;" horiz-adv-x="580" 
d="M549 240q0 -88 -22 -162t-68 -132t-124 -91t-182 -33q-39 0 -74 8v164q33 -13 79 -13q74 0 115.5 19.5t59.5 67.5q6 14 8 30l-1 1q-42 -33 -115 -33q-92 0 -147 59.5t-55 154.5q0 111 75 182.5t192 71.5q119 0 189 -73.5t70 -220.5zM344 305q0 30 -16 50.5t-47 20.5
t-49.5 -21t-18.5 -53q0 -77 66 -77q32 0 48.5 22t16.5 58z" />
    <glyph glyph-name="grave.sc" unicode="&#xf760;" horiz-adv-x="380" 
d="M333 645l-60 -101l-226 101l74 123z" />
    <glyph glyph-name="A.sc" unicode="&#xf761;" horiz-adv-x="600" 
d="M585 0h-203l-20 65h-158l-20 -65h-184l180 520h224zM321 195l-24 78q-3 8 -5.5 17t-5 20t-4.5 17h-1q-7 -32 -14 -57l-23 -75h77z" />
    <glyph glyph-name="B.sc" unicode="&#xf762;" horiz-adv-x="566" 
d="M528 169q0 -77 -61 -124t-182 -47q-13 0 -92 1t-141 1v520q33 0 122 1.5t124 1.5q115 0 167 -33t52 -101q0 -81 -59 -107v-1q70 -28 70 -112zM322 360q0 39 -57 39q-18 0 -31 -1v-78q11 -1 26 -1q62 0 62 41zM332 170q0 41 -60 41q-25 0 -38 -1v-83q16 -1 43 -1
q55 0 55 44z" />
    <glyph glyph-name="C.sc" unicode="&#xf763;" horiz-adv-x="451" 
d="M417 9q-63 -18 -124 -18q-133 0 -201 69t-68 187q0 117 77.5 200.5t222.5 83.5q50 0 92 -14l-18 -155q-36 12 -78 12t-70 -29t-28 -82t29 -80.5t74 -27.5t76 15z" />
    <glyph glyph-name="D.sc" unicode="&#xf764;" horiz-adv-x="598" 
d="M575 273q0 -140 -87 -208.5t-227 -68.5q-114 0 -209 5v519q153 3 241 3q282 0 282 -250zM378 266q0 106 -99 106q-21 0 -43 -2v-216q12 -2 41 -2q45 0 73 30.5t28 83.5z" />
    <glyph glyph-name="E.sc" unicode="&#xf765;" horiz-adv-x="461" 
d="M411 0h-359v520h359v-145h-175v-42h166v-139h-166v-47h175v-147z" />
    <glyph glyph-name="F.sc" unicode="&#xf766;" horiz-adv-x="438" 
d="M402 375h-166v-55h158v-141h-158v-179h-184v520h350v-145z" />
    <glyph glyph-name="G.sc" unicode="&#xf767;" horiz-adv-x="569" 
d="M519 35q-108 -47 -222 -47q-121 0 -197 67t-76 194q0 121 80.5 201.5t218.5 80.5q96 0 187 -28l-34 -155q-63 27 -139 27q-57 0 -86.5 -31t-29.5 -84q0 -50 23.5 -78t61.5 -28q16 0 29 3v132h184v-254z" />
    <glyph glyph-name="H.sc" unicode="&#xf768;" horiz-adv-x="632" 
d="M580 0h-184v182h-160v-182h-184v520h184v-177h160v177h184v-520z" />
    <glyph glyph-name="I.sc" unicode="&#xf769;" horiz-adv-x="288" 
d="M236 0h-184v520h184v-520z" />
    <glyph glyph-name="J.sc" unicode="&#xf76a;" horiz-adv-x="330" 
d="M279 181q0 -93 -45.5 -141.5t-147.5 -48.5q-31 0 -71 7v156q23 -7 42 -7q38 0 38 39v334h184v-339z" />
    <glyph glyph-name="K.sc" unicode="&#xf76b;" horiz-adv-x="599" 
d="M590 0h-238l-116 214v-214h-184v520h184v-201l117 201h223l-164 -249z" />
    <glyph glyph-name="L.sc" unicode="&#xf76c;" horiz-adv-x="399" 
d="M380 0h-328v520h184v-354h144v-166z" />
    <glyph glyph-name="M.sc" unicode="&#xf76d;" horiz-adv-x="832" 
d="M808 0h-196l-28 194q-8 52 -12 98h-1q-11 -57 -27 -118l-47 -174h-187l-39 158q-14 56 -29 131h-1q-3 -41 -11 -107l-23 -182h-184l84 520h233l53 -191q9 -33 20 -96h1q9 49 23 98l56 189h232z" />
    <glyph glyph-name="N.sc" unicode="&#xf76e;" horiz-adv-x="664" 
d="M612 0h-249l-98 181q-20 37 -36 85h-1q1 -16 1 -47v-219h-177v520h249l92 -172q25 -49 43 -92h1q-2 25 -2 72v192h177v-520z" />
    <glyph glyph-name="O.sc" unicode="&#xf76f;" horiz-adv-x="624" 
d="M599 269q0 -123 -89.5 -201.5t-210.5 -78.5q-129 0 -203.5 70.5t-74.5 193.5q0 121 89.5 199.5t209.5 78.5q118 0 198.5 -65t80.5 -197zM402 262q0 50 -26 77.5t-66 27.5q-39 0 -65.5 -27.5t-26.5 -77.5q0 -52 25 -80t65 -28q39 0 66.5 26t27.5 82z" />
    <glyph glyph-name="P.sc" unicode="&#xf770;" horiz-adv-x="529" 
d="M509 333q0 -92 -66.5 -146t-169.5 -54q-30 0 -37 1v-134h-184v520q106 4 220 4q115 0 176 -49t61 -142zM314 326q0 20 -13 35.5t-35 15.5q-23 0 -30 -1v-97q6 -1 27 -1t36 13t15 35z" />
    <glyph glyph-name="Q.sc" unicode="&#xf771;" horiz-adv-x="624" 
d="M508 88q15 1 53 -5t69 3v-152q-63 -14 -110.5 -7.5t-70 20.5t-62 28t-86.5 14h-2q-129 0 -203.5 70.5t-74.5 193.5q0 121 89.5 199.5t209.5 78.5q118 0 198.5 -65t80.5 -197q0 -68 -34 -123q-24 -38 -57 -58zM402 262q0 50 -26 77.5t-66 27.5q-39 0 -65.5 -27.5
t-26.5 -77.5q0 -52 25 -80t65 -28q39 0 66.5 26t27.5 82z" />
    <glyph glyph-name="R.sc" unicode="&#xf772;" horiz-adv-x="541" 
d="M533 0h-219l-71 174h-7v-174h-184v520q71 4 233 4q224 0 224 -167q0 -97 -82 -145l15 -30t16 -31zM313 341q0 18 -15 30.5t-40 12.5q-14 0 -22 -1v-90q9 -1 27 -1q22 0 36 14t14 35z" />
    <glyph glyph-name="S.sc" unicode="&#xf773;" horiz-adv-x="426" 
d="M397 184q0 -88 -64 -143t-176 -55q-62 0 -111 13l14 156q42 -18 97 -18q33 0 33 24q0 10 -12 17t-29.5 11.5t-38 14.5t-38 25t-29.5 45t-12 71q0 86 61.5 136.5t178.5 50.5q42 0 87 -10l-13 -147q-38 12 -80 12q-36 0 -36 -23q0 -10 26.5 -22t57.5 -25t57.5 -47.5
t26.5 -85.5z" />
    <glyph glyph-name="T.sc" unicode="&#xf774;" horiz-adv-x="450" 
d="M432 360h-115v-360h-184v360h-115v160h414v-160z" />
    <glyph glyph-name="U.sc" unicode="&#xf775;" horiz-adv-x="616" 
d="M566 204q0 -96 -67 -155.5t-198 -59.5q-127 0 -189 54t-62 146v331h184v-284q0 -51 17.5 -72.5t59.5 -21.5q73 0 73 92v286h182v-316z" />
    <glyph glyph-name="V.sc" unicode="&#xf776;" horiz-adv-x="586" 
d="M583 520l-175 -520h-222l-184 520h199l65 -190q17 -52 35 -128h2q25 103 34 132l56 186h190z" />
    <glyph glyph-name="W.sc" unicode="&#xf777;" horiz-adv-x="878" 
d="M882 520l-141 -520h-235l-44 186q-12 51 -21 112h-2q-8 -53 -22 -106l-48 -192h-215l-148 520h201l58 -206q11 -36 19 -88h2q5 36 17 85l54 209h191l54 -200q8 -30 19 -94h2q9 60 21 100l53 194h185z" />
    <glyph glyph-name="X.sc" unicode="&#xf778;" horiz-adv-x="622" 
d="M618 0h-237l-80 129l-75 -129h-218l182 255l-179 265h227l80 -126l76 126h208l-168 -256z" />
    <glyph glyph-name="Y.sc" unicode="&#xf779;" horiz-adv-x="541" 
d="M549 520l-187 -366v-154h-184v150l-186 370h203l41 -91q25 -57 39 -97h1q15 45 42 100l42 88h189z" />
    <glyph glyph-name="Z.sc" unicode="&#xf77a;" horiz-adv-x="507" 
d="M458 0h-409v147l147 185q12 15 19 22q-10 -1 -60 -1h-101v167h398v-154l-152 -181q-4 -5 -13 -14q6 1 75 1h96v-172z" />
    <glyph glyph-name="dieresis.sc" unicode="&#xf7a8;" horiz-adv-x="546" 
d="M463 640q0 -38 -26.5 -64.5t-64.5 -26.5t-64.5 26.5t-26.5 64.5t26.5 64.5t64.5 26.5t64.5 -26.5t26.5 -64.5zM246 640q0 -38 -27 -64.5t-64 -26.5t-64 26.5t-27 64.5t27 64.5t64 26.5t64 -26.5t27 -64.5z" />
    <glyph glyph-name="macron.sc" unicode="&#xf7af;" horiz-adv-x="395" 
d="M345 575h-295v130h295v-130z" />
    <glyph glyph-name="acute.sc" unicode="&#xf7b4;" horiz-adv-x="400" 
d="M383 645l-226 -101l-60 100l212 124z" />
    <glyph glyph-name="Agrave.sc" unicode="&#xf7e0;" horiz-adv-x="600" 
d="M585 0h-203l-20 65h-158l-20 -65h-184l180 520h224zM321 195l-24 78q-3 8 -5.5 17t-5 20t-4.5 17h-1q-7 -32 -14 -57l-23 -75h77zM436 645l-60 -101l-226 101l74 123z" />
    <glyph glyph-name="Aacute.sc" unicode="&#xf7e1;" horiz-adv-x="600" 
d="M585 0h-203l-20 65h-158l-20 -65h-184l180 520h224zM321 195l-24 78q-3 8 -5.5 17t-5 20t-4.5 17h-1q-7 -32 -14 -57l-23 -75h77zM454 645l-226 -101l-60 100l212 124z" />
    <glyph glyph-name="Acircumflex.sc" unicode="&#xf7e2;" horiz-adv-x="600" 
d="M585 0h-203l-20 65h-158l-20 -65h-184l180 520h224zM321 195l-24 78q-3 8 -5.5 17t-5 20t-4.5 17h-1q-7 -32 -14 -57l-23 -75h77zM475 626l-65 -82l-109 77l-109 -77l-65 82l174 142z" />
    <glyph glyph-name="Atilde.sc" unicode="&#xf7e3;" horiz-adv-x="600" 
d="M585 0h-203l-20 65h-158l-20 -65h-184l180 520h224zM321 195l-24 78q-3 8 -5.5 17t-5 20t-4.5 17h-1q-7 -32 -14 -57l-23 -75h77zM500 660q-51 -106 -139 -106q-38 0 -71.5 22.5t-45.5 22.5q-28 0 -49 -43l-84 64q51 106 139 106q38 0 71.5 -22.5t45.5 -22.5q16 0 27 10
t22 33z" />
    <glyph glyph-name="Adieresis.sc" unicode="&#xf7e4;" horiz-adv-x="600" 
d="M585 0h-203l-20 65h-158l-20 -65h-184l180 520h224zM321 195l-24 78q-3 8 -5.5 17t-5 20t-4.5 17h-1q-7 -32 -14 -57l-23 -75h77zM501 640q0 -38 -26.5 -64.5t-64.5 -26.5t-64.5 26.5t-26.5 64.5t26.5 64.5t64.5 26.5t64.5 -26.5t26.5 -64.5zM284 640q0 -38 -27 -64.5
t-64 -26.5t-64 26.5t-27 64.5t27 64.5t64 26.5t64 -26.5t27 -64.5z" />
    <glyph glyph-name="Aring.sc" unicode="&#xf7e5;" horiz-adv-x="600" 
d="M585 0h-203l-20 65h-158l-20 -65h-184l180 520h224zM321 195l-24 78q-3 8 -5.5 17t-5 20t-4.5 17h-1q-7 -32 -14 -57l-23 -75h77zM447 668q0 -60 -42.5 -99.5t-104.5 -39.5t-104.5 39.5t-42.5 99.5t42.5 99.5t104.5 39.5t104.5 -39.5t42.5 -99.5zM348 668q0 20 -14 34
t-34 14t-34 -14t-14 -34t14 -34t34 -14t34 14t14 34z" />
    <glyph glyph-name="AE.sc" unicode="&#xf7e6;" horiz-adv-x="747" 
d="M697 0h-356v71h-134l-33 -71h-192l259 520h452v-145h-171v-42h166v-139h-166v-47h175v-147zM341 195v167h-1q-12 -34 -40 -95l-34 -72h75z" />
    <glyph glyph-name="Ccedilla.sc" unicode="&#xf7e7;" horiz-adv-x="451" 
d="M417 9q-63 -18 -124 -18q-133 0 -201 69t-68 187q0 117 77.5 200.5t222.5 83.5q50 0 92 -14l-18 -155q-36 12 -78 12t-70 -29t-28 -82t29 -80.5t74 -27.5t76 15zM313 -39q38 -59 32 -107.5t-50 -86.5h-130q34 37 35.5 72t-33.5 84z" />
    <glyph glyph-name="Egrave.sc" unicode="&#xf7e8;" horiz-adv-x="461" 
d="M411 0h-359v520h359v-145h-175v-42h166v-139h-166v-47h175v-147zM325 645l-60 -101l-226 101l74 123z" />
    <glyph glyph-name="Eacute.sc" unicode="&#xf7e9;" horiz-adv-x="461" 
d="M411 0h-359v520h359v-145h-175v-42h166v-139h-166v-47h175v-147zM422 645l-226 -101l-60 100l212 124z" />
    <glyph glyph-name="Ecircumflex.sc" unicode="&#xf7ea;" horiz-adv-x="461" 
d="M411 0h-359v520h359v-145h-175v-42h166v-139h-166v-47h175v-147zM407 626l-65 -82l-109 77l-109 -77l-65 82l174 142z" />
    <glyph glyph-name="Edieresis.sc" unicode="&#xf7eb;" horiz-adv-x="461" 
d="M411 0h-359v520h359v-145h-175v-42h166v-139h-166v-47h175v-147zM432 640q0 -38 -27 -64.5t-64 -26.5t-64 26.5t-27 64.5t27 64.5t64 26.5t64 -26.5t27 -64.5zM215 640q0 -38 -26.5 -64.5t-64.5 -26.5t-64.5 26.5t-26.5 64.5t26.5 64.5t64.5 26.5t64.5 -26.5t26.5 -64.5z
" />
    <glyph glyph-name="Igrave.sc" unicode="&#xf7ec;" horiz-adv-x="288" 
d="M236 0h-184v520h184v-520zM273 645l-60 -101l-226 101l74 123z" />
    <glyph glyph-name="Iacute.sc" unicode="&#xf7ed;" horiz-adv-x="288" 
d="M236 0h-184v520h184v-520zM293 645l-226 -101l-60 100l212 124z" />
    <glyph glyph-name="Icircumflex.sc" unicode="&#xf7ee;" horiz-adv-x="288" 
d="M236 0h-184v520h184v-520zM319 626l-65 -82l-109 77l-109 -77l-65 82l174 142z" />
    <glyph glyph-name="Idieresis.sc" unicode="&#xf7ef;" horiz-adv-x="288" 
d="M236 0h-184v520h184v-520zM347 640q0 -38 -26.5 -64.5t-64.5 -26.5t-64.5 26.5t-26.5 64.5t26.5 64.5t64.5 26.5t64.5 -26.5t26.5 -64.5zM130 640q0 -38 -27 -64.5t-64 -26.5t-64 26.5t-27 64.5t27 64.5t64 26.5t64 -26.5t27 -64.5z" />
    <glyph glyph-name="Eth.sc" unicode="&#xf7f0;" horiz-adv-x="608" 
d="M62 321v199q153 3 241 3q282 0 282 -250q0 -140 -87 -208.5t-227 -68.5q-114 0 -209 5v198h-47v122h47zM313 199h-67v-45q12 -2 41 -2q45 0 73 30.5t28 83.5q0 106 -99 106q-21 0 -43 -2v-49h67v-122z" />
    <glyph glyph-name="Ntilde.sc" unicode="&#xf7f1;" horiz-adv-x="664" 
d="M612 0h-249l-98 181q-20 37 -36 85h-1q1 -16 1 -47v-219h-177v520h249l92 -172q25 -49 43 -92h1q-2 25 -2 72v192h177v-520zM528 660q-51 -106 -139 -106q-38 0 -71.5 22.5t-45.5 22.5q-28 0 -49 -43l-84 64q51 106 139 106q38 0 71.5 -22.5t45.5 -22.5q16 0 27 10t22 33
z" />
    <glyph glyph-name="Ograve.sc" unicode="&#xf7f2;" horiz-adv-x="624" 
d="M599 269q0 -123 -89.5 -201.5t-210.5 -78.5q-129 0 -203.5 70.5t-74.5 193.5q0 121 89.5 199.5t209.5 78.5q118 0 198.5 -65t80.5 -197zM402 262q0 50 -26 77.5t-66 27.5q-39 0 -65.5 -27.5t-26.5 -77.5q0 -52 25 -80t65 -28q39 0 66.5 26t27.5 82zM406 645l-60 -101
l-226 101l74 123z" />
    <glyph glyph-name="Oacute.sc" unicode="&#xf7f3;" horiz-adv-x="624" 
d="M599 269q0 -123 -89.5 -201.5t-210.5 -78.5q-129 0 -203.5 70.5t-74.5 193.5q0 121 89.5 199.5t209.5 78.5q118 0 198.5 -65t80.5 -197zM402 262q0 50 -26 77.5t-66 27.5q-39 0 -65.5 -27.5t-26.5 -77.5q0 -52 25 -80t65 -28q39 0 66.5 26t27.5 82zM510 645l-226 -101
l-60 100l212 124z" />
    <glyph glyph-name="Ocircumflex.sc" unicode="&#xf7f4;" horiz-adv-x="624" 
d="M599 269q0 -123 -89.5 -201.5t-210.5 -78.5q-129 0 -203.5 70.5t-74.5 193.5q0 121 89.5 199.5t209.5 78.5q118 0 198.5 -65t80.5 -197zM402 262q0 50 -26 77.5t-66 27.5q-39 0 -65.5 -27.5t-26.5 -77.5q0 -52 25 -80t65 -28q39 0 66.5 26t27.5 82zM491 626l-65 -82
l-109 77l-109 -77l-65 82l174 142z" />
    <glyph glyph-name="Otilde.sc" unicode="&#xf7f5;" horiz-adv-x="624" 
d="M599 269q0 -123 -89.5 -201.5t-210.5 -78.5q-129 0 -203.5 70.5t-74.5 193.5q0 121 89.5 199.5t209.5 78.5q118 0 198.5 -65t80.5 -197zM402 262q0 50 -26 77.5t-66 27.5q-39 0 -65.5 -27.5t-26.5 -77.5q0 -52 25 -80t65 -28q39 0 66.5 26t27.5 82zM510 660
q-51 -106 -139 -106q-38 0 -71.5 22.5t-45.5 22.5q-28 0 -49 -43l-84 64q51 106 139 106q38 0 71.5 -22.5t45.5 -22.5q16 0 27 10t22 33z" />
    <glyph glyph-name="Odieresis.sc" unicode="&#xf7f6;" horiz-adv-x="624" 
d="M599 269q0 -123 -89.5 -201.5t-210.5 -78.5q-129 0 -203.5 70.5t-74.5 193.5q0 121 89.5 199.5t209.5 78.5q118 0 198.5 -65t80.5 -197zM402 262q0 50 -26 77.5t-66 27.5q-39 0 -65.5 -27.5t-26.5 -77.5q0 -52 25 -80t65 -28q39 0 66.5 26t27.5 82zM514 640
q0 -38 -27 -64.5t-64 -26.5t-64 26.5t-27 64.5t27 64.5t64 26.5t64 -26.5t27 -64.5zM297 640q0 -38 -26.5 -64.5t-64.5 -26.5t-64.5 26.5t-26.5 64.5t26.5 64.5t64.5 26.5t64.5 -26.5t26.5 -64.5z" />
    <glyph glyph-name="Oslash.sc" unicode="&#xf7f8;" horiz-adv-x="624" 
d="M599 269q0 -123 -89.5 -201.5t-210.5 -78.5q-16 0 -26 2l-29 -80l-110 36l25 70q-63 28 -100.5 89.5t-37.5 146.5q0 121 89.5 199.5t210.5 78.5q10 0 24 -2l27 75l110 -36l-23 -65q140 -63 140 -234zM399 346l-74 -205h4q31 0 58 29.5t27 91.5q0 22 -4.5 40.5t-8 28.5
t-2.5 15zM220 179l73 201h-4q-30 0 -56.5 -30.5t-26.5 -87.5q0 -22 3 -38t6 -23t5 -12.5t0 -9.5z" />
    <glyph glyph-name="Ugrave.sc" unicode="&#xf7f9;" horiz-adv-x="616" 
d="M566 204q0 -96 -67 -155.5t-198 -59.5q-127 0 -189 54t-62 146v331h184v-284q0 -51 17.5 -72.5t59.5 -21.5q73 0 73 92v286h182v-316zM377 645l-60 -101l-226 101l74 123z" />
    <glyph glyph-name="Uacute.sc" unicode="&#xf7fa;" horiz-adv-x="616" 
d="M566 204q0 -96 -67 -155.5t-198 -59.5q-127 0 -189 54t-62 146v331h184v-284q0 -51 17.5 -72.5t59.5 -21.5q73 0 73 92v286h182v-316zM529 645l-226 -101l-60 100l212 124z" />
    <glyph glyph-name="Ucircumflex.sc" unicode="&#xf7fb;" horiz-adv-x="616" 
d="M566 204q0 -96 -67 -155.5t-198 -59.5q-127 0 -189 54t-62 146v331h184v-284q0 -51 17.5 -72.5t59.5 -21.5q73 0 73 92v286h182v-316zM484 626l-65 -82l-109 77l-109 -77l-65 82l174 142z" />
    <glyph glyph-name="Udieresis.sc" unicode="&#xf7fc;" horiz-adv-x="616" 
d="M566 204q0 -96 -67 -155.5t-198 -59.5q-127 0 -189 54t-62 146v331h184v-284q0 -51 17.5 -72.5t59.5 -21.5q73 0 73 92v286h182v-316zM510 640q0 -38 -27 -64.5t-64 -26.5t-64 26.5t-27 64.5t27 64.5t64 26.5t64 -26.5t27 -64.5zM293 640q0 -38 -26.5 -64.5t-64.5 -26.5
t-64.5 26.5t-26.5 64.5t26.5 64.5t64.5 26.5t64.5 -26.5t26.5 -64.5z" />
    <glyph glyph-name="Yacute.sc" unicode="&#xf7fd;" horiz-adv-x="541" 
d="M549 520l-187 -366v-154h-184v150l-186 370h203l41 -91q25 -57 39 -97h1q15 45 42 100l42 88h189zM490 645l-226 -101l-60 100l212 124z" />
    <glyph glyph-name="Thorn.sc" unicode="&#xf7fe;" horiz-adv-x="527" 
d="M509 268q0 -92 -66.5 -146t-169.5 -54q-30 0 -37 1v-69h-184v520h184v-62q12 1 36 1q115 0 176 -49t61 -142zM314 261q0 20 -13 35.5t-35 15.5q-23 0 -30 -1v-97q6 -1 27 -1t36 13t15 35z" />
    <glyph glyph-name="Ydieresis.sc" unicode="&#xf7ff;" horiz-adv-x="541" 
d="M549 520l-187 -366v-154h-184v150l-186 370h203l41 -91q25 -57 39 -97h1q15 45 42 100l42 88h189zM477 640q0 -38 -26.5 -64.5t-64.5 -26.5t-64.5 26.5t-26.5 64.5t26.5 64.5t64.5 26.5t64.5 -26.5t26.5 -64.5zM260 640q0 -38 -27 -64.5t-64 -26.5t-64 26.5t-27 64.5
t27 64.5t64 26.5t64 -26.5t27 -64.5z" />
    <glyph glyph-name="apple" unicode="&#xf8ff;" horiz-adv-x="1047" 
d="M189 290l-183 -22q-9 63 0 128l183 -22q-5 -43 0 -84zM316 600q-30 -24 -58 -59l-145 113q49 58 90 89zM587 844l-21 -174q-36 5 -83 0l-23 174q59 9 127 0zM933 652l-139 -109q-28 34 -59 58l109 141q56 -45 89 -90zM1043 269l-179 22q5 40 0 83l178 21q7 -62 1 -126z
M802 332q0 -103 -64 -178v-84l-16 -4l33 -78l-33 -9l33 -76l-35 -9l9 -23l-33 -78h-65q-5 -23 -35 -38t-72 -15q-43 0 -73 15.5t-34 37.5h-66l-60 144l32 9l-33 78l36 10l-18 43v80q-62 76 -62 175q0 116 81 197t197 81q115 0 196.5 -81.5t81.5 -196.5zM639 -62l-9 20
l-223 -58l20 -47h193l8 19l-2 5l-63 -16l-18 53zM638 25l-8 20l-224 -58l9 -19zM640 112v7h-234v-36l12 -28zM555 321q-12 1 -31 1q-20 0 -33 -1l14 -128h38zM708 332q0 76 -54 130.5t-130 54.5t-130.5 -54.5t-54.5 -130.5q0 -83 64 -139h36l-14 117q-5 -1 -41 -13
q-11 -4 -16 16q-10 34 0 60q3 8 8 9q79 22 148 22q68 0 149 -22q9 -2 11.5 -25t-3.5 -43t-18 -16q-26 9 -42 12l-12 -117h36q63 56 63 139zM531 355q2 0 2 5t-2 5q3 -5 0 -10zM530 361v1q-3 0 -1.5 -2t-0.5 -2v-1q3 1 2 4zM526 357v3q0 5 -4 1q2 0 3 -1q-2 0 -3 -2h3v-1h1z
M522 355q-3 5 0 10q-2 0 -2 -5t2 -5zM518 357v1q-1 0 -1 1t1 2v1q-2 1 -2 -2q0 -2 2 -3zM514 359v3h-1v-3h-1v3h-1v-3q1 -2 3 0zM510 357v1h-2v6h-1v-7h3z" />
    <glyph glyph-name="LatinLowercase" horiz-adv-x="1255" 
d="M235 -180h-211v402h125v-302h86v-100zM533 -169q-42 -17 -91 -17q-98 0 -136 50.5t-38 148.5q0 101 47 158t136 57q41 0 79 -12l-25 -98q-21 7 -42 7q-58 0 -58 -104q0 -55 13 -79.5t42 -24.5q26 0 48 9zM235 333h-211v402h125v-302h86v-100zM624 333h-132l-13 62h-97
l-12 -62h-121l92 402h191zM460 487l-21 103q-6 35 -8 59h-1q-1 -29 -8 -59l-21 -103h59zM847 636h-66v-303h-125v303h-65v99h256v-99zM1231 333h-171l-54 191q-11 42 -15 84h-2q4 -92 4 -118v-157h-110v402h183l42 -148q12 -42 16 -84h2q-4 63 -4 118v114h109v-402z" />
    <glyph glyph-name="f_lacute" horiz-adv-x="603" 
d="M656 808l-253 -49l-26 96l244 76zM556 0h-182v587q-20 4 -46 4q-73 0 -73 -62v-32h73v-140h-73v-357h-182v357h-63v140h63v35q0 96 64.5 152.5t205.5 56.5q81 0 213 -21v-720z" />
    <glyph glyph-name="f_lcaron" horiz-adv-x="687" 
d="M556 0h-182v587q-20 4 -46 4q-73 0 -73 -62v-32h73v-140h-73v-357h-182v357h-63v140h63v35q0 96 64.5 152.5t205.5 56.5q81 0 213 -21v-720zM756 772l-69 -236l-115 21l43 240z" />
    <glyph glyph-name="f_lcommaaccent" horiz-adv-x="603" 
d="M556 0h-182v587q-20 4 -46 4q-73 0 -73 -62v-32h73v-140h-73v-357h-182v357h-63v140h63v35q0 96 64.5 152.5t205.5 56.5q81 0 213 -21v-720zM471 -44q34 0 54 -21.5t20 -56.5q0 -50 -46.5 -86.5t-137.5 -36.5l-18 65q32 7 43.5 14t11.5 21q0 5 -1.5 15t-1.5 16
q0 29 20 49.5t56 20.5z" />
    <glyph glyph-name="i.dotaccent" horiz-adv-x="276" 
d="M247 640q0 -43 -32 -74t-77 -31t-77 31t-32 74t32 74t77 31t77 -31t32 -74zM229 0h-182v497h182v-497z" />
    <glyph glyph-name="i_j" horiz-adv-x="562" 
d="M67 -222l14 164q74 -30 158 -30q99 0 99 79v5q0 39 11 73h-1q-54 -76 -155 -76q-77 0 -112 42.5t-35 112.5v349h182v-311q0 -41 28 -41q30 0 54 35.5t24 77.5v239h182v-481q0 -130 -77 -193.5t-215 -63.5q-76 0 -157 19zM246 640q0 -43 -32 -74t-77 -31t-77 31t-32 74
t32 74t77 31t77 -31t32 -74zM533 640q0 -43 -32 -74t-77 -31t-77 31t-32 74t32 74t77 31t77 -31t32 -74z" />
    <glyph glyph-name="LatinSmallCaps" horiz-adv-x="1255" 
d="M235 333h-211v402h125v-302h86v-100zM624 333h-132l-13 62h-97l-12 -62h-121l92 402h191zM460 487l-21 103q-6 35 -8 59h-1q-1 -29 -8 -59l-21 -103h59zM847 636h-66v-303h-125v303h-65v99h256v-99zM1231 333h-171l-54 191q-11 42 -15 84h-2q4 -92 4 -118v-157h-110v402
h183l42 -148q12 -42 16 -84h2q-4 63 -4 118v114h109v-402zM272 -58q0 -58 -41.5 -93t-109.5 -35q-52 0 -99 11l23 102q37 -18 67 -18q27 0 27 24q0 13 -13 24.5t-31 22t-36 24.5t-31 39.5t-13 59.5q0 56 41.5 91t110.5 35q45 0 86 -9l-21 -96q-31 12 -58 12t-27 -24
q0 -14 19.5 -28.5t43 -26.5t43 -42t19.5 -73zM571 -169q-43 -17 -91 -17q-98 0 -136.5 50.5t-38.5 148.5q0 100 47.5 157.5t135.5 57.5q40 0 80 -12l-26 -98q-21 7 -41 7q-59 0 -59 -104t55 -104q25 0 48 9z" />
    <glyph glyph-name="Amacron.sc" horiz-adv-x="600" 
d="M585 0h-203l-20 65h-158l-20 -65h-184l180 520h224zM321 195l-24 78q-3 8 -5.5 17t-5 20t-4.5 17h-1q-7 -32 -14 -57l-23 -75h77zM445 575h-295v130h295v-130z" />
    <glyph glyph-name="Abreve.sc" horiz-adv-x="600" 
d="M585 0h-203l-20 65h-158l-20 -65h-184l180 520h224zM321 195l-24 78q-3 8 -5.5 17t-5 20t-4.5 17h-1q-7 -32 -14 -57l-23 -75h77zM458 724q0 -78 -38.5 -129t-116.5 -51t-115 51.5t-37 128.5h113q0 -53 40 -53t40 53h114z" />
    </font>
</defs>
</svg>
