<?xml version="1.0" standalone="no"?>
<!DOCTYPE svg PUBLIC "-//W3C//DTD SVG 1.1//EN" "http://www.w3.org/Graphics/SVG/1.1/DTD/svg11.dtd" >
<svg xmlns="http://www.w3.org/2000/svg" xmlns:xlink="http://www.w3.org/1999/xlink" version="1.1">
<metadata>
Created by FontForge 20170731 at Fri Jan  9 05:38:51 2004
 By Aleksey,,,
 1993-2002 PARACHUTE FONTS. All rights reserved. Designed by Panos Vassiliou. Based on the US federal highway signs. {www.parachute.gr}
</metadata>
<defs>
<font id="PFHighwayGothicComp-Regular" horiz-adv-x="330" >
  <font-face 
    font-family="PF Highway Gothic Comp"
    font-weight="400"
    font-stretch="normal"
    units-per-em="1000"
    panose-1="2 0 5 8 4 0 0 2 0 4"
    ascent="780"
    descent="-220"
    x-height="488"
    cap-height="651"
    bbox="-160 -195.346 870 815"
    underline-thickness="70"
    underline-position="-280"
    unicode-range="U+0020-2122"
  />
<missing-glyph horiz-adv-x="1000" 
 />
    <glyph glyph-name=".notdef" horiz-adv-x="1000" 
 />
    <glyph glyph-name=".null" horiz-adv-x="0" 
 />
    <glyph glyph-name="nonmarkingreturn" horiz-adv-x="333" 
 />
    <glyph glyph-name="space" unicode=" " horiz-adv-x="174" 
 />
    <glyph glyph-name="exclam" unicode="!" horiz-adv-x="186" 
d="M135 651v-257l-13 -242h-58l-14 242v257h85zM145 42q0 -22 -14.5 -37t-37.5 -15q-22 0 -37 15t-15 37q0 23 15 38t37 15q23 0 37.5 -15t14.5 -38z" />
    <glyph glyph-name="quotedbl" unicode="&#x22;" horiz-adv-x="333" 
d="M277 651l-19 -215h-45l-19 215h83zM145 651l-19 -215h-45l-18 215h82z" />
    <glyph glyph-name="numbersign" unicode="#" horiz-adv-x="471" 
d="M448 450l-8 -72h-75l-10 -97h75l-8 -73h-75l-21 -208h-79l22 208h-90l-21 -208h-79l21 208h-74l7 73h75l10 97h-75l8 72h75l22 201h78l-21 -201h89l22 201h79l-22 -201h75zM287 378h-90l-10 -97h90z" />
    <glyph glyph-name="dollar" unicode="$" horiz-adv-x="319" 
d="M296 157q0 -62 -28 -104.5t-75 -57.5v-56h-81v51q-49 10 -86 53l20 96q43 -70 97 -70q30 0 47.5 26t17.5 56q0 34 -15.5 65t-58.5 73q-57 56 -82.5 100.5t-25.5 104.5q0 54 22.5 96t62.5 59v63h80v-55q55 -10 94 -67l-25 -92q-48 74 -94 74q-23 0 -38.5 -20.5
t-15.5 -50.5q0 -59 76 -132q108 -102 108 -212z" />
    <glyph glyph-name="percent" unicode="%" horiz-adv-x="635" 
d="M601 180q0 -89 -29 -138.5t-85 -49.5q-113 0 -113 188q0 190 114 190q58 0 85.5 -51t27.5 -139zM547 651l-387 -651h-77l387 651h77zM260 471q0 -87 -29 -137.5t-85 -50.5q-114 0 -114 188q0 87 28 138.5t87 51.5q113 0 113 -190zM527 180q0 127 -40 127q-20 0 -29.5 -28
t-9.5 -99q0 -125 40 -125q39 0 39 125zM186 471q0 127 -40 127q-20 0 -29.5 -27.5t-9.5 -99.5q0 -125 40 -125q39 0 39 125z" />
    <glyph glyph-name="ampersand" unicode="&#x26;" horiz-adv-x="474" 
d="M470 0h-98l-47 74q-71 -84 -152 -84q-53 0 -91 32q-27 25 -39 70.5t-6 96.5q11 97 109 180q-44 73 -52 109q-4 18 -4 35q0 66 34 108.5t92 42.5q56 0 91 -40t35 -96q0 -54 -23 -93.5t-70 -88.5l72 -120q15 38 19 87h74q-5 -87 -42 -163zM266 512q0 74 -48 74
q-29 0 -41 -22.5t-12 -45.5q0 -42 43 -108q58 54 58 102zM282 144l-95 155q-83 -70 -74 -151q4 -37 25 -59t49 -20q51 4 95 75z" />
    <glyph glyph-name="quotesingle" unicode="'" horiz-adv-x="205" 
d="M145 651l-19 -215h-45l-18 215h82z" />
    <glyph glyph-name="parenleft" unicode="(" horiz-adv-x="225" 
d="M212 -27l-46 -37q-65 96 -100 187.5t-35 197.5q0 107 34.5 197.5t100.5 187.5l46 -37q-103 -173 -103 -346q0 -181 103 -350z" />
    <glyph glyph-name="parenright" unicode=")" horiz-adv-x="225" 
d="M202 321q0 -107 -35 -199t-101 -186l-45 37q103 169 103 350q0 169 -103 346l45 37q66 -95 101 -185.5t35 -199.5z" />
    <glyph glyph-name="asterisk" unicode="*" horiz-adv-x="332" 
d="M304 532l-96 -27l64 -76l-51 -38l-54 85l-54 -85l-50 38l63 76l-95 27l19 58l93 -38l-6 98h61l-7 -98l94 38z" />
    <glyph glyph-name="plus" unicode="+" horiz-adv-x="348" 
d="M321 274h-107v-115h-78v115h-102v75h102v116h78v-116h107v-75z" />
    <glyph glyph-name="comma" unicode="," horiz-adv-x="220" 
d="M163 26q0 -33 -15.5 -65.5t-37.5 -50.5l-31 24q28 26 34 56q-22 -2 -39.5 11.5t-17.5 38.5t13 41t36 16q28 0 43 -20.5t15 -50.5z" />
    <glyph glyph-name="hyphen" unicode="-" horiz-adv-x="246" 
d="M216 275h-179v74h179v-74z" />
    <glyph glyph-name="period" unicode="." horiz-adv-x="199" 
d="M154 43q0 -24 -15 -39t-39 -15t-39.5 15.5t-15.5 38.5q0 24 15.5 40t39.5 16t39 -16t15 -40z" />
    <glyph glyph-name="slash" unicode="/" horiz-adv-x="440" 
d="M475 718l-433 -792h-79l433 792h79z" />
    <glyph glyph-name="zero" unicode="0" horiz-adv-x="358" 
d="M329 326q0 -176 -32.5 -256t-115.5 -80q-81 0 -114 80.5t-33 254.5t33.5 255t114.5 81t114 -80.5t33 -254.5zM181 582q-30 0 -44 -57.5t-14 -198.5t15 -199t44 -58q30 0 44 57t14 199q0 143 -14 200t-45 57z" />
    <glyph glyph-name="one" unicode="1" horiz-adv-x="358" 
d="M229 0h-87v539h-62v59q60 7 81 53h68v-651z" />
    <glyph glyph-name="two" unicode="2" horiz-adv-x="358" 
d="M178 661q61 0 95 -41t34 -108q0 -87 -88 -200q-51 -67 -71 -117t-20 -115h175v-80h-264q2 134 27 208t91 157q64 81 64 144q0 35 -13.5 54t-36.5 19q-45 0 -58 -84l-82 21q15 73 50 107.5t97 34.5z" />
    <glyph glyph-name="three" unicode="3" horiz-adv-x="358" 
d="M315 190q0 -93 -38 -146.5t-105 -53.5q-58 0 -89 37t-47 114l81 16q15 -88 58 -88q36 0 50 79q3 18 3 38q0 69 -18.5 96.5t-61.5 27.5h-20v75h26q36 0 53 27.5t17 91.5q0 35 -15 56.5t-34 21.5q-41 0 -56 -83l-81 18q17 67 48 105.5t92 38.5t96 -44t35 -111
q0 -120 -68 -153q37 -16 55.5 -50.5t18.5 -112.5z" />
    <glyph glyph-name="four" unicode="4" horiz-adv-x="358" 
d="M333 173h-43v-173h-76v173h-189v58l199 420h66v-405h43v-73zM215 246v223l-107 -223h107z" />
    <glyph glyph-name="five" unicode="5" horiz-adv-x="358" 
d="M315 222q0 -108 -35.5 -170t-110.5 -62q-59 0 -92 43.5t-40 108.5l81 14q11 -86 53 -86q56 0 56 150q0 138 -49 138q-30 0 -50 -43l-75 10l13 326h237v-81h-160l-8 -156q27 23 62 23q118 0 118 -215z" />
    <glyph glyph-name="six" unicode="6" horiz-adv-x="358" 
d="M320 193q0 -87 -35.5 -145t-103.5 -58q-133 0 -133 221q0 275 219 452l47 -64q-118 -87 -161 -221q22 19 49 19q59 0 88.5 -60.5t29.5 -143.5zM235 189q0 123 -52 123q-51 0 -51 -122q0 -121 50 -121q53 0 53 120z" />
    <glyph glyph-name="seven" unicode="7" horiz-adv-x="358" 
d="M315 571q-82 -127 -109 -250.5t-27 -320.5h-85q0 369 130 571h-185v80h276v-80z" />
    <glyph glyph-name="eight" unicode="8" horiz-adv-x="358" 
d="M316 196q0 -101 -35.5 -153.5t-100.5 -52.5q-64 0 -98.5 53t-34.5 152q0 120 61 161q-55 33 -55 135q0 73 34.5 121.5t94.5 48.5q65 0 97 -48t32 -121q0 -98 -56 -134q61 -43 61 -162zM226 488q0 95 -44 95t-44 -92q0 -94 44 -94t44 91zM181 316q-22 0 -35 -31t-13 -88
q0 -128 50 -128q47 0 47 127q0 58 -13.5 89t-35.5 31z" />
    <glyph glyph-name="nine" unicode="9" horiz-adv-x="358" 
d="M315 439q0 -276 -218 -451l-48 63q120 95 161 221q-21 -19 -50 -19q-58 0 -87.5 61t-29.5 143q0 87 36 145t103 58q133 0 133 -221zM182 581q-54 0 -54 -120q0 -123 52 -123q51 0 51 122q0 121 -49 121z" />
    <glyph glyph-name="colon" unicode=":" horiz-adv-x="203" 
d="M158 333q0 -24 -15.5 -39.5t-39.5 -15.5t-39.5 16t-15.5 39q0 24 15.5 39.5t39.5 15.5q26 0 40.5 -15t14.5 -40zM157 44q0 -25 -14.5 -40t-40.5 -15q-24 0 -39.5 15.5t-15.5 39.5t15.5 39.5t39.5 15.5q26 0 40.5 -15t14.5 -40z" />
    <glyph glyph-name="semicolon" unicode=";" horiz-adv-x="220" 
d="M163 333q0 -24 -15 -39.5t-39 -15.5t-39.5 16t-15.5 39q0 24 15.5 39.5t39.5 15.5t39 -15.5t15 -39.5zM163 26q0 -33 -15.5 -65.5t-37.5 -50.5l-31 24q28 26 34 56q-22 -2 -39.5 11.5t-17.5 38.5t13 41t36 16q28 0 43 -20.5t15 -50.5z" />
    <glyph glyph-name="semicolon" unicode="&#x37e;" horiz-adv-x="220" 
d="M163 333q0 -24 -15 -39.5t-39 -15.5t-39.5 16t-15.5 39q0 24 15.5 39.5t39.5 15.5t39 -15.5t15 -39.5zM163 26q0 -33 -15.5 -65.5t-37.5 -50.5l-31 24q28 26 34 56q-22 -2 -39.5 11.5t-17.5 38.5t13 41t36 16q28 0 43 -20.5t15 -50.5z" />
    <glyph glyph-name="less" unicode="&#x3c;" horiz-adv-x="313" 
d="M283 113l-257 169v72l257 167v-84l-179 -117l179 -117v-90z" />
    <glyph glyph-name="equal" unicode="=" horiz-adv-x="345" 
d="M305 358h-266v77h266v-77zM305 201h-266v77h266v-77z" />
    <glyph glyph-name="greater" unicode="&#x3e;" horiz-adv-x="313" 
d="M286 282l-258 -169v90l180 117l-180 117v84l258 -167v-72z" />
    <glyph glyph-name="question" unicode="?" horiz-adv-x="424" 
d="M375 482q0 -13 -1.5 -26t-6.5 -25.5t-8 -21t-11.5 -22t-11.5 -18.5t-13 -20t-12 -17q-5 -7 -16.5 -24.5t-15.5 -24t-11.5 -20.5t-10 -23.5t-5 -24t-2.5 -30.5h-79q0 51 14 85.5t47 81.5q1 2 10.5 14t13 17t11.5 17t12 19.5t9 18t7 19.5t2 17q0 24 -5 43.5t-25.5 38.5
t-55.5 19q-40 0 -60.5 -36t-25.5 -81h-75q6 94 52.5 147.5t111.5 53.5q76 0 118.5 -48t42.5 -129zM260 42q0 -22 -14.5 -37t-37.5 -15q-22 0 -37 15t-15 37q0 23 15 38t37 15q23 0 37.5 -15t14.5 -38z" />
    <glyph glyph-name="at" unicode="@" horiz-adv-x="730" 
d="M664 372q0 -95 -42.5 -167.5t-116.5 -74.5q-18 0 -39.5 12t-30.5 36q-40 -56 -112 -56q-60 0 -95 52t-35 115q0 78 47 143t120 65q54 0 94 -49l9 35h57l-38 -240q-3 -20 3.5 -35t24.5 -15q31 0 54 30.5t32.5 69t9.5 75.5q0 112 -70 176t-164 64q-115 0 -186 -81t-71 -207
q0 -135 72.5 -214.5t193.5 -79.5q51 0 87 10q18 5 93 34l16 -63q-111 -44 -192 -44q-146 0 -240 97t-94 260q0 150 89 250.5t228 100.5q125 0 209.5 -82.5t86.5 -216.5zM432 331q0 38 -16 67.5t-57 29.5q-49 0 -74 -47.5t-25 -90.5q0 -40 17 -69.5t57 -29.5q35 0 59 27.5
t31.5 57t7.5 55.5z" />
    <glyph glyph-name="A" unicode="A" horiz-adv-x="354" 
d="M345 0h-86l-28 154h-110l-28 -154h-85l125 651h87zM218 228l-42 236l-43 -236h85z" />
    <glyph glyph-name="B" unicode="B" horiz-adv-x="348" 
d="M319 193q0 -193 -158 -193h-116v651h115q150 0 150 -168q0 -96 -68 -138q77 -42 77 -152zM222 480q0 52 -16.5 73.5t-52.5 21.5h-22v-192l31 1q60 0 60 96zM151 307h-20v-231h29q38 0 54.5 27t16.5 87q0 117 -80 117z" />
    <glyph glyph-name="C" unicode="C" horiz-adv-x="342" 
d="M316 149q-16 -77 -47 -118.5t-91 -41.5q-77 0 -110.5 81t-33.5 254q0 167 34.5 252t111.5 85q33 0 57.5 -13.5t39.5 -39t23 -48.5t15 -57l-79 -39q-10 118 -57 118q-56 0 -56 -258q0 -137 14.5 -196t43.5 -59q42 0 55 111z" />
    <glyph glyph-name="D" unicode="D" horiz-adv-x="357" 
d="M327 330q0 -169 -39 -249.5t-130 -80.5h-111v651h120q93 0 126.5 -78.5t33.5 -242.5zM238 328q0 138 -18 192t-60 54h-26v-497h23q42 0 61.5 54.5t19.5 196.5z" />
    <glyph glyph-name="E" unicode="E" horiz-adv-x="313" 
d="M292 0h-245v651h237v-81h-149v-183h108v-81h-108v-225h157v-81z" />
    <glyph glyph-name="F" unicode="F" horiz-adv-x="307" 
d="M285 570h-150v-186h110v-82h-110v-302h-88v651h238v-81z" />
    <glyph glyph-name="G" unicode="G" horiz-adv-x="353" 
d="M319 211q0 -221 -142 -221q-78 0 -110.5 81t-32.5 253q0 168 34 252.5t112 84.5q33 0 57.5 -13.5t39.5 -39t23 -48.5t15 -57l-79 -39q-6 66 -19.5 91.5t-37.5 25.5q-55 0 -55 -257q0 -143 13 -198.5t44 -55.5q53 0 53 126v46h-59v77h144v-108z" />
    <glyph glyph-name="H" unicode="H" horiz-adv-x="388" 
d="M338 0h-88v306h-114v-306h-88v651h88v-265h114v265h88v-651z" />
    <glyph glyph-name="I" unicode="I" horiz-adv-x="189" 
d="M138 0h-88v651h88v-651z" />
    <glyph glyph-name="J" unicode="J" horiz-adv-x="327" 
d="M282 162q0 -82 -41 -127t-106 -45q-124 0 -148 150l81 35q16 -106 69 -106q21 0 39.5 22t18.5 67v493h87v-489z" />
    <glyph glyph-name="K" unicode="K" horiz-adv-x="342" 
d="M336 0h-91l-83 311l-27 -54v-257h-88v651h88v-226l106 226h92l-109 -235z" />
    <glyph glyph-name="L" unicode="L" horiz-adv-x="286" 
d="M273 0h-226v651h88v-570h138v-81z" />
    <glyph glyph-name="M" unicode="M" horiz-adv-x="447" 
d="M402 0h-82v441l-95 -281l-95 283l-1 -443h-81v651h87l90 -267l91 267h86v-651z" />
    <glyph glyph-name="N" unicode="N" horiz-adv-x="381" 
d="M334 0h-69l-138 421v-421h-80v651h81l125 -387v387h81v-651z" />
    <glyph glyph-name="O" unicode="O" horiz-adv-x="363" 
d="M328 326q0 -175 -32.5 -255.5t-114.5 -80.5q-81 0 -113.5 80.5t-32.5 254.5t33 255t114 81t113.5 -80.5t32.5 -254.5zM181 583q-31 0 -45 -57t-14 -200q0 -140 15 -199t45 -59q32 0 46 57t14 200q0 141 -15 199.5t-46 58.5z" />
    <glyph glyph-name="P" unicode="P" horiz-adv-x="336" 
d="M318 472q0 -95 -44.5 -142.5t-117.5 -47.5h-22v-282h-87v651h121q68 0 109 -44t41 -135zM229 468q0 106 -72 106h-23v-215h23q36 0 54 29.5t18 79.5z" />
    <glyph glyph-name="Q" unicode="Q" horiz-adv-x="363" 
d="M328 326q0 -195 -39 -270l33 -54l-65 -45q-19 33 -25 42q-22 -9 -51 -9q-81 0 -113.5 80.5t-32.5 254.5t33 255t114 81t113.5 -80.5t32.5 -254.5zM181 583q-31 0 -45 -57t-14 -200q0 -140 15 -199t45 -59q32 0 46 57t14 200q0 141 -15 199.5t-46 58.5z" />
    <glyph glyph-name="R" unicode="R" horiz-adv-x="346" 
d="M333 0h-94l-68 293l-37 -2v-291h-87v651h122q67 0 108.5 -44t41.5 -130q0 -117 -63 -155zM230 472q0 97 -67 101h-29v-206l29 1q67 0 67 104z" />
    <glyph glyph-name="S" unicode="S" horiz-adv-x="326" 
d="M305 157q0 -77 -43.5 -123.5t-110.5 -46.5q-66 0 -116 56l20 96q43 -70 97 -70q30 0 47.5 26t17.5 56q0 34 -15.5 65t-58.5 73q-57 56 -82.5 100.5t-25.5 104.5q0 71 38.5 118.5t97.5 47.5q74 0 124 -70l-26 -92q-48 74 -94 74q-23 0 -38 -20.5t-15 -50.5q0 -60 75 -132
q108 -102 108 -212z" />
    <glyph glyph-name="T" unicode="T" horiz-adv-x="304" 
d="M289 571h-93v-571h-88v571h-92v80h273v-80z" />
    <glyph glyph-name="U" unicode="U" horiz-adv-x="378" 
d="M333 154q0 -79 -38.5 -121.5t-108.5 -42.5q-67 0 -103.5 42t-36.5 120v499h87v-503q0 -79 56 -79t56 79v503h88v-497z" />
    <glyph glyph-name="V" unicode="V" horiz-adv-x="344" 
d="M328 651l-113 -651h-86l-110 651h88l66 -433l68 433h87z" />
    <glyph glyph-name="W" unicode="W" horiz-adv-x="447" 
d="M434 651l-80 -651h-82l-49 370l-49 -370h-81l-79 651h84l42 -381l49 381h70l48 -381l43 381h84z" />
    <glyph glyph-name="X" unicode="X" horiz-adv-x="326" 
d="M320 0h-90l-68 212l-68 -212h-88l112 338l-103 313h90l58 -184l59 184h89l-104 -311z" />
    <glyph glyph-name="Y" unicode="Y" horiz-adv-x="360" 
d="M355 651l-130 -370v-281h-89v278l-130 373h92l84 -260l83 260h90z" />
    <glyph glyph-name="Z" unicode="Z" horiz-adv-x="303" 
d="M293 572l-189 -492h176v-80h-263v78l189 492h-165v81h252v-79z" />
    <glyph glyph-name="bracketleft" unicode="[" horiz-adv-x="245" 
d="M207 -52h-158v752h158v-75h-76v-602h76v-75z" />
    <glyph glyph-name="backslash" unicode="\" horiz-adv-x="440" 
d="M475 -74h-79l-433 792h79z" />
    <glyph glyph-name="bracketright" unicode="]" horiz-adv-x="245" 
d="M203 -52h-158v75h75v602h-75v75h158v-752z" />
    <glyph glyph-name="asciicircum" unicode="^" horiz-adv-x="363" 
d="M350 363h-83l-88 197l-89 -197h-83l133 288h78z" />
    <glyph glyph-name="underscore" unicode="_" horiz-adv-x="500" 
d="M500 -140h-500v70h500v-70z" />
    <glyph glyph-name="grave" unicode="`" horiz-adv-x="320" 
d="M232 558h-60l-92 138h93z" />
    <glyph glyph-name="a" unicode="a" horiz-adv-x="315" 
d="M276 0h-85v21q-25 -30 -57 -30q-51 0 -79 41.5t-28 121.5q0 79 33 121t89 42q22 0 42 -14v49q0 70 -40 70q-43 0 -94 -62l-18 81q52 58 120 58q55 0 86 -36t31 -106v-357zM191 84v149q-5 3 -10.5 7t-9.5 5t-13 1q-48 0 -48 -91q0 -42 12 -67t32 -25q16 0 37 21z" />
    <glyph glyph-name="b" unicode="b" horiz-adv-x="328" 
d="M300 247q0 -256 -113 -256q-28 0 -61 28v-18h-83v627l83 45v-203q31 31 64 31q60 0 85 -65t25 -189zM126 402v-313q22 -22 47 -22q23 0 33 42t10 136q0 99 -11.5 138.5t-34.5 39.5q-18 0 -44 -21z" />
    <glyph glyph-name="c" unicode="c" horiz-adv-x="302" 
d="M281 117q-31 -127 -120 -127q-131 0 -131 251q0 258 132 258q89 0 119 -123l-74 -33q-4 77 -45 77q-48 0 -48 -178q0 -174 49 -174q17 0 30 18t15 56z" />
    <glyph glyph-name="d" unicode="d" horiz-adv-x="324" 
d="M286 1h-83v18q-30 -28 -61 -28q-59 0 -85.5 64t-26.5 192q0 125 24.5 189.5t84.5 64.5q33 0 64 -31v159l83 45v-673zM203 89v312q-26 21 -44 21q-23 0 -34 -38.5t-11 -138.5q0 -94 10 -136t33 -42t46 22z" />
    <glyph glyph-name="e" unicode="e" horiz-adv-x="314" 
d="M289 217h-176q4 -150 54 -150q33 0 53 65l58 -43q-36 -99 -117 -99q-131 0 -131 251q0 257 131 257q128 0 128 -248v-33zM209 286q-5 135 -47 135q-22 0 -33.5 -30t-14.5 -105h95z" />
    <glyph glyph-name="f" unicode="f" horiz-adv-x="214" 
d="M202 588q-65 27 -65 -30v-69h63v-75h-63v-414h-81v414h-37v75h37v87q0 65 39.5 88t106.5 -1v-75z" />
    <glyph glyph-name="g" unicode="g" horiz-adv-x="328" 
d="M287 34q0 -96 -31 -149.5t-123 -77.5l-27 66q59 17 78 47.5t19 84.5v11q-29 -27 -63 -27q-60 0 -85 65t-25 188q0 256 113 256q30 0 60 -28v18h84v-454zM203 87v313q-23 22 -45 22q-44 0 -44 -178q0 -99 11.5 -138.5t34.5 -39.5q20 0 43 21z" />
    <glyph glyph-name="h" unicode="h" 
d="M290 0h-83v363q0 34 -8 47t-27 13q-23 0 -48 -22v-401h-83v628l83 45v-203q44 30 77 30q89 0 89 -128v-372z" />
    <glyph glyph-name="i" unicode="i" horiz-adv-x="174" 
d="M136 632q0 -20 -14 -34t-34 -14t-34 14t-14 34t14 34t34 14t34 -14t14 -34zM129 0h-84v489h84v-489z" />
    <glyph glyph-name="j" unicode="j" horiz-adv-x="174" 
d="M136 632q0 -20 -14 -34t-34 -14t-34 14t-14 34t14 34t34 14t34 -14t14 -34zM129 11q0 -181 -153 -198v77q40 12 54.5 37t14.5 79v483h84v-478z" />
    <glyph glyph-name="k" unicode="k" horiz-adv-x="314" 
d="M125 681v-357l85 165h92l-87 -160l90 -329h-83l-65 231l-32 -60v-171h-82v636z" />
    <glyph glyph-name="l" unicode="l" horiz-adv-x="174" 
d="M129 0h-84v636l84 45v-681z" />
    <glyph glyph-name="m" unicode="m" horiz-adv-x="482" 
d="M441 0h-83v363q0 34 -8 47t-27 13q-16 0 -41 -23q2 -18 2 -43v-357h-83v363q0 34 -8.5 47t-27.5 13q-13 0 -40 -22v-401h-83v488h83v-18q41 30 69 30q52 0 74 -43q52 43 83 43q90 0 90 -128v-372z" />
    <glyph glyph-name="n" unicode="n" 
d="M290 0h-83v363q0 34 -8 47t-27 13q-23 0 -48 -22v-401h-83v488h83v-18q44 30 77 30q89 0 89 -128v-372z" />
    <glyph glyph-name="o" unicode="o" horiz-adv-x="331" 
d="M299 243q0 -253 -134 -253q-133 0 -133 253q0 255 134 255q133 0 133 -255zM215 243q0 96 -12 136.5t-38 40.5q-25 0 -37 -41t-12 -136q0 -94 12 -134.5t39 -40.5q48 0 48 175z" />
    <glyph glyph-name="p" unicode="p" horiz-adv-x="328" 
d="M298 243q0 -255 -118 -255q-24 0 -55 28v-155l-83 -47v674h83v-21q25 31 57 31q62 0 89 -65t27 -190zM214 242q0 180 -52 180q-5 0 -10.5 -2t-7.5 -3.5t-9.5 -7.5t-9.5 -8v-314q19 -22 39 -22q50 0 50 177z" />
    <glyph glyph-name="q" unicode="q" horiz-adv-x="328" 
d="M286 -140l-83 -45v201q-31 -28 -55 -28q-118 0 -118 255q0 125 27 190t89 65q24 0 57 -31v21h83v-628zM203 87v313q-25 22 -37 22q-52 0 -52 -180q0 -177 50 -177q20 0 39 22z" />
    <glyph glyph-name="r" unicode="r" horiz-adv-x="226" 
d="M233 476l-10 -85q-28 28 -59 28q-25 0 -39 -21v-398h-83v488h83v-20q19 30 57 30q29 0 51 -22z" />
    <glyph glyph-name="s" unicode="s" horiz-adv-x="286" 
d="M263 121q0 -59 -37.5 -95t-94.5 -36q-61 0 -101 45l19 84q16 -30 39 -44t42 -14q23 0 37 16.5t14 38.5q0 26 -11.5 47.5t-48.5 52.5q-50 45 -71 77.5t-21 77.5q0 54 33.5 91t85.5 37q65 0 107 -56l-24 -76q-42 56 -80 56q-17 0 -29 -13t-12 -33q0 -40 64 -95
q89 -76 89 -161z" />
    <glyph glyph-name="t" unicode="t" horiz-adv-x="228" 
d="M208 83l-7 -75q-33 -18 -66 -18q-80 0 -80 96v327h-42v75h42v140l81 45v-185h70v-75h-70v-320q0 -32 25 -32q19 0 47 22z" />
    <glyph glyph-name="u" unicode="u" 
d="M288 0h-83v19q-45 -31 -76 -31q-90 0 -90 128v372h83v-362q0 -34 8 -47t27 -13q24 0 48 21v401h83v-488z" />
    <glyph glyph-name="v" unicode="v" horiz-adv-x="311" 
d="M300 488l-102 -488h-85l-101 488h87l57 -321l58 321h86z" />
    <glyph glyph-name="w" unicode="w" horiz-adv-x="430" 
d="M418 488l-74 -488h-79l-48 308l-49 -308h-79l-73 488h86l33 -294l45 294h74l45 -294l33 294h86z" />
    <glyph glyph-name="x" unicode="x" horiz-adv-x="314" 
d="M309 0h-88l-64 161l-65 -161h-87l108 259l-96 229h87l52 -132l52 132h88l-96 -229z" />
    <glyph glyph-name="y" unicode="y" horiz-adv-x="319" 
d="M314 488l-144 -660h-82l36 162l-116 498h88l68 -325l64 325h86z" />
    <glyph glyph-name="z" unicode="z" horiz-adv-x="280" 
d="M257 0h-239v64l150 351h-137v73h226v-64l-153 -351h153v-73z" />
    <glyph glyph-name="braceleft" unicode="{" horiz-adv-x="257" 
d="M237 -54h-29q-61 0 -91.5 36t-30.5 100v97q0 108 -67 112v59q53 2 58 52q6 6 7.5 24.5t0.5 36t1 31.5q0 80 6 96q6 51 36 78.5t81 27.5h28v-71h-26q-46 0 -46 -84v-80q0 -59 -21.5 -95t-51.5 -45q1 0 1 -1q72 -26 72 -142v-76q0 -88 46 -88h26v-68z" />
    <glyph glyph-name="bar" unicode="|" horiz-adv-x="191" 
d="M136 -124h-81v871h81v-871z" />
    <glyph glyph-name="braceright" unicode="}" horiz-adv-x="257" 
d="M242 291q-67 -4 -67 -112v-97q0 -64 -30.5 -100t-91.5 -36h-29v68h26q46 0 46 88v76q0 60 21.5 96.5t51.5 45.5h-1v1q-32 0 -52 38.5t-20 101.5v80q0 84 -46 84h-26v71h28q62 0 92.5 -35.5t30.5 -100.5v-97q0 -112 67 -113v-59z" />
    <glyph glyph-name="asciitilde" unicode="~" horiz-adv-x="376" 
d="M359 360q-19 -45 -47 -73t-59 -28q-26 0 -70 34t-60 34q-12 0 -20.5 -7t-13.5 -14.5t-17 -30.5l-50 42q18 43 45 68t56 25q23 0 69 -32q44 -36 63 -36q5 0 9 1.5t8 5t7 6.5t7 9.5t6.5 10.5t7 13.5t7.5 14.5z" />
    <glyph glyph-name="nbspace" unicode="&#xa0;" horiz-adv-x="94" 
 />
    <glyph glyph-name="sterling" unicode="&#xa3;" horiz-adv-x="337" 
d="M313 492h-81q-5 94 -57 94q-21 0 -33 -19t-12 -50q0 -33 9 -68q2 -12 11.5 -45.5t12.5 -53.5h80v-75h-76q-1 -58 -14 -113q-11 -49 -26 -82h180v-80h-269v71q31 60 42 120q8 39 9 84h-51v75h45q-3 17 -20 73q-15 47 -15 89q0 67 34.5 108t95.5 41t94 -40t41 -129z" />
    <glyph glyph-name="yen" unicode="&#xa5;" horiz-adv-x="360" 
d="M355 651l-86 -244h56v-64h-79l-10 -29h89v-64h-100v-250h-89v250h-98v64h86l-10 29h-76v64h53l-85 244h92l84 -260l83 260h90z" />
    <glyph glyph-name="brokenbar" unicode="&#xa6;" horiz-adv-x="331" 
d="M303 620q-27 -69 -80 -74q-28 -2 -55 17q-28 22 -47 21q-12 -1 -19 -7.5t-16 -24.5l-41 24q28 63 72 68q31 2 54 -15q31 -26 49.5 -24.5t35.5 35.5zM299 243q0 -253 -134 -253q-133 0 -133 253q0 255 134 255q133 0 133 -255zM215 243q0 96 -12 136.5t-38 40.5
q-25 0 -37 -41t-12 -136q0 -94 12 -134.5t39 -40.5q48 0 48 175z" />
    <glyph glyph-name="section" unicode="&#xa7;" horiz-adv-x="365" 
d="M340 282q0 -85 -73 -123q46 -54 46 -105q0 -66 -43.5 -105.5t-110.5 -39.5q-70 0 -116 49l20 81q42 -59 96 -59q31 0 48.5 21.5t17.5 47.5t-20 51.5t-68 64.5q-58 47 -83.5 85t-25.5 89q0 85 67 121q-40 46 -40 107t38.5 101t98.5 40q75 0 123 -60l-26 -78q-46 63 -94 63
q-23 0 -38.5 -17.5t-15.5 -42.5q0 -50 76 -112q61 -48 92 -90t31 -89zM254 278q0 26 -19.5 51t-66.5 63q-2 1 -5.5 4t-5.5 5q-20 -2 -33 -18t-13 -38q0 -52 70 -107q9 -8 27 -22q22 5 34 23.5t12 38.5z" />
    <glyph glyph-name="dieresis" unicode="&#xa8;" horiz-adv-x="315" 
d="M276 597q0 -19 -13.5 -32.5t-32.5 -13.5q-20 0 -33.5 13.5t-13.5 32.5q0 20 13.5 33.5t33.5 13.5q19 0 32.5 -13.5t13.5 -33.5zM130 597q0 -19 -13.5 -32.5t-33.5 -13.5q-19 0 -32.5 13.5t-13.5 32.5q0 20 13.5 33.5t32.5 13.5q20 0 33.5 -13.5t13.5 -33.5z" />
    <glyph glyph-name="copyright" unicode="&#xa9;" horiz-adv-x="589" 
d="M546 325q0 -146 -66.5 -240.5t-183.5 -94.5q-118 0 -184 94.5t-66 240.5t67.5 241t182.5 95q114 0 182 -95t68 -241zM489 325q0 122 -53.5 202t-139.5 80t-140 -80t-54 -202t53 -201.5t141 -79.5t140.5 79.5t52.5 201.5zM300 531q74 0 97 -107l-56 -27q-3 44 -13 60
t-27 16q-21 0 -31 -32t-10 -117q0 -90 10 -120t32 -30q29 0 39 73l55 -21q-21 -109 -97 -109q-54 0 -77.5 46.5t-23.5 159.5q0 111 24 159.5t78 48.5z" />
    <glyph glyph-name="guillemotleft" unicode="&#xab;" horiz-adv-x="414" 
d="M392 70h-84l-122 175l122 175h84l-119 -175zM240 70h-84l-122 175l122 175h84l-120 -175z" />
    <glyph glyph-name="sfthyphen" unicode="&#xad;" horiz-adv-x="246" 
d="M37 275h179v74h-179v-74z" />
    <glyph glyph-name="registered" unicode="&#xae;" horiz-adv-x="435" 
d="M389 468q0 -91 -48.5 -152.5t-124.5 -61.5q-77 0 -125.5 61.5t-48.5 152.5t48.5 152t125.5 61q76 0 124.5 -61t48.5 -152zM344 468q0 75 -35.5 123.5t-92.5 48.5q-58 0 -93.5 -48.5t-35.5 -123.5t35.5 -123.5t93.5 -48.5t93 48.5t35 123.5zM292 343h-48l-34 93h-11v-93
h-44v253h58q72 0 72 -77q0 -51 -32 -68zM240 517q0 41 -35 43l-6 1v-88h6q35 1 35 44z" />
    <glyph glyph-name="degree" unicode="&#xb0;" 
d="M287 535q0 -53 -34.5 -88.5t-87.5 -35.5q-52 0 -87 35.5t-35 88.5q0 51 35 86t87 35q53 0 87.5 -34.5t34.5 -86.5zM228 535q0 29 -17 47t-46 18q-27 0 -44.5 -18t-17.5 -47q0 -30 17.5 -49t44.5 -19q29 0 46 19t17 49z" />
    <glyph glyph-name="twosuperior" unicode="&#xb2;" horiz-adv-x="342" 
d="M316 149q-27 -149 -123 -159l-9 -34q26 -5 41.5 -24.5t15.5 -45.5q0 -38 -27.5 -61t-66.5 -20q-36 3 -59 19l17 45q32 -16 51 -16q14 0 23.5 9.5t9.5 24.5t-11 23t-24 8q-1 0 -19 -2l-7 9l20 68q-61 14 -87.5 94.5t-26.5 236.5q0 167 34.5 252t111.5 85q33 0 57.5 -13.5
t39.5 -39t23 -48.5t15 -57l-79 -39q-10 118 -57 118q-56 0 -56 -258q0 -137 14.5 -196t43.5 -59q42 0 55 111z" />
    <glyph glyph-name="threesuperior" unicode="&#xb3;" horiz-adv-x="381" 
d="M318 758q-28 -71 -80 -73q-28 -2 -54 17q-30 22 -48 21q-20 -1 -35 -33l-41 24q28 66 72 69q31 2 54 -16q33 -25 50 -25q17 1 35 36zM334 0h-69l-138 421v-421h-80v651h81l125 -387v387h81v-651z" />
    <glyph glyph-name="mu" unicode="&#xb5;" 
d="M288 0h-83v19q-16 -16 -39 -22.5t-44 3.5v-140l-83 -45v673h83v-362q0 -60 35 -60q25 0 48 21v401h83v-488z" />
    <glyph glyph-name="mu" unicode="&#x3bc;" 
d="M288 0h-83v19q-16 -16 -39 -22.5t-44 3.5v-140l-83 -45v673h83v-362q0 -60 35 -60q25 0 48 21v401h83v-488z" />
    <glyph glyph-name="periodcentered" unicode="&#xb7;" horiz-adv-x="203" 
d="M158 333q0 -24 -15.5 -39.5t-39.5 -15.5t-39.5 16t-15.5 39q0 24 15.5 39.5t39.5 15.5q26 0 40.5 -15t14.5 -40z" />
    <glyph glyph-name="periodcentered" unicode="&#x22c5;" horiz-adv-x="203" 
d="M158 333q0 -24 -15.5 -39.5t-39.5 -15.5t-39.5 16t-15.5 39q0 24 15.5 39.5t39.5 15.5q26 0 40.5 -15t14.5 -40z" />
    <glyph glyph-name="onesuperior" unicode="&#xb9;" horiz-adv-x="355" 
d="M259 0h86l-125 651h-87l-125 -651h85l28 154h110zM176 464l42 -236h-85zM176 659q33 0 54.5 23t21.5 56q0 32 -22 54.5t-54 22.5t-54 -22.5t-22 -54.5q0 -33 22 -56t54 -23zM176 769q13 0 22 -9t9 -22q0 -14 -9 -23.5t-22 -9.5t-21.5 9.5t-8.5 23.5q0 13 8.5 22t21.5 9z
" />
    <glyph glyph-name="guillemotright" unicode="&#xbb;" horiz-adv-x="414" 
d="M185 70l120 175l-120 175h84l122 -175l-122 -175h-84zM33 70l119 175l-119 175h84l122 -175l-122 -175h-84z" />
    <glyph glyph-name="onehalf" unicode="&#xbd;" horiz-adv-x="577" 
d="M530 285q0 -49 -53 -110q-29 -35 -41.5 -60t-14.5 -58h105v-57h-174q2 79 17.5 121t55.5 89q39 41 39 73q0 33 -24 33t-33 -47l-63 14q22 90 100 90q40 0 63 -25t23 -63zM493 651l-387 -651h-77l387 651h77zM153 281h-67v291h-37v48q39 4 50 31h54v-370z" />
    <glyph glyph-name="Adieresis" unicode="&#xc4;" horiz-adv-x="354" 
d="M300 719q0 -19 -13.5 -32.5t-33.5 -13.5q-19 0 -32.5 13.5t-13.5 32.5t13.5 32.5t32.5 13.5q20 0 33.5 -13.5t13.5 -32.5zM153 719q0 -19 -13 -32.5t-33 -13.5q-19 0 -32.5 13.5t-13.5 32.5t13.5 32.5t32.5 13.5q20 0 33 -13.5t13 -32.5zM345 0h-86l-28 154h-110
l-28 -154h-85l125 651h87zM218 228l-42 236l-43 -236h85z" />
    <glyph glyph-name="Eacute" unicode="&#xc9;" horiz-adv-x="313" 
d="M265 807l-92 -138h-60l59 138h93zM292 0h-245v651h237v-81h-149v-183h108v-81h-108v-225h157v-81z" />
    <glyph glyph-name="Odieresis" unicode="&#xd6;" horiz-adv-x="363" 
d="M304 719q0 -19 -13.5 -32.5t-32.5 -13.5q-20 0 -33 13.5t-13 32.5t13 32.5t33 13.5q19 0 32.5 -13.5t13.5 -32.5zM158 719q0 -19 -13.5 -32.5t-33.5 -13.5q-19 0 -32.5 13.5t-13.5 32.5t13.5 32.5t32.5 13.5q20 0 33.5 -13.5t13.5 -32.5zM328 326q0 -175 -32.5 -255.5
t-114.5 -80.5q-81 0 -113.5 80.5t-32.5 254.5t33 255t114 81t113.5 -80.5t32.5 -254.5zM181 583q-31 0 -45 -57t-14 -200q0 -140 15 -199t45 -59q32 0 46 57t14 200q0 141 -15 199.5t-46 58.5z" />
    <glyph glyph-name="Udieresis" unicode="&#xdc;" horiz-adv-x="378" 
d="M307 719q0 -19 -13 -32.5t-33 -13.5q-19 0 -32.5 13.5t-13.5 32.5t13.5 32.5t32.5 13.5q20 0 33 -13.5t13 -32.5zM161 719q0 -19 -13 -32.5t-33 -13.5q-19 0 -32.5 13.5t-13.5 32.5t13.5 32.5t32.5 13.5q20 0 33 -13.5t13 -32.5zM333 154q0 -79 -38.5 -121.5
t-108.5 -42.5q-67 0 -103.5 42t-36.5 120v499h87v-503q0 -79 56 -79t56 79v503h88v-497z" />
    <glyph glyph-name="germandbls" unicode="&#xdf;" horiz-adv-x="356" 
d="M319 210q0 -112 -36.5 -169t-114.5 -49l-9 1l6 75l10 -1q29 -2 43.5 33t14.5 104q0 134 -67 134h-10v78h12q42 0 42 88q0 95 -43 95q-23 0 -32 -19.5t-9 -68.5v-495l-83 -42v533q0 79 33.5 123.5t93.5 44.5q62 0 93.5 -43.5t31.5 -123.5q0 -91 -49 -125q73 -31 73 -173z
" />
    <glyph glyph-name="agrave" unicode="&#xe0;" horiz-adv-x="315" 
d="M204 558h-60l-92 138h93zM276 0h-85v21q-25 -30 -57 -30q-51 0 -79 41.5t-28 121.5q0 79 33 121t89 42q22 0 42 -14v49q0 70 -40 70q-43 0 -94 -62l-18 81q52 58 120 58q55 0 86 -36t31 -106v-357zM191 84v149q-5 3 -10.5 7t-9.5 5t-13 1q-48 0 -48 -91q0 -42 12 -67
t32 -25q16 0 37 21z" />
    <glyph glyph-name="acircumflex" unicode="&#xe2;" horiz-adv-x="315" 
d="M281 546h-71l-54 62l-54 -62h-69l98 135h53zM276 0h-85v21q-25 -30 -57 -30q-51 0 -79 41.5t-28 121.5q0 79 33 121t89 42q22 0 42 -14v49q0 70 -40 70q-43 0 -94 -62l-18 81q52 58 120 58q55 0 86 -36t31 -106v-357zM191 84v149q-5 3 -10.5 7t-9.5 5t-13 1
q-48 0 -48 -91q0 -42 12 -67t32 -25q16 0 37 21z" />
    <glyph glyph-name="adieresis" unicode="&#xe4;" horiz-adv-x="315" 
d="M276 597q0 -19 -13.5 -32.5t-32.5 -13.5q-20 0 -33.5 13.5t-13.5 32.5q0 20 13.5 33.5t33.5 13.5q19 0 32.5 -13.5t13.5 -33.5zM130 597q0 -19 -13.5 -32.5t-33.5 -13.5q-19 0 -32.5 13.5t-13.5 32.5q0 20 13.5 33.5t32.5 13.5q20 0 33.5 -13.5t13.5 -33.5zM276 0h-85v21
q-25 -30 -57 -30q-51 0 -79 41.5t-28 121.5q0 79 33 121t89 42q22 0 42 -14v49q0 70 -40 70q-43 0 -94 -62l-18 81q52 58 120 58q55 0 86 -36t31 -106v-357zM191 84v149q-5 3 -10.5 7t-9.5 5t-13 1q-48 0 -48 -91q0 -42 12 -67t32 -25q16 0 37 21z" />
    <glyph glyph-name="ccedilla" unicode="&#xe7;" horiz-adv-x="302" 
d="M281 117q-29 -116 -104 -126l-9 -35q26 -5 41.5 -24.5t15.5 -45.5q0 -38 -27.5 -61t-66.5 -20q-36 3 -59 19l17 45q32 -16 51 -16q14 0 23.5 9.5t9.5 24.5t-11 23t-24 8q-1 0 -19 -2l-7 9l20 68q-102 28 -102 248q0 258 132 258q89 0 119 -123l-74 -33q-4 77 -45 77
q-48 0 -48 -178q0 -174 49 -174q17 0 30 18t15 56z" />
    <glyph glyph-name="egrave" unicode="&#xe8;" horiz-adv-x="314" 
d="M205 558h-60l-92 138h93zM289 217h-176q4 -150 54 -150q33 0 53 65l58 -43q-36 -99 -117 -99q-131 0 -131 251q0 257 131 257q128 0 128 -248v-33zM209 286q-5 135 -47 135q-22 0 -33.5 -30t-14.5 -105h95z" />
    <glyph glyph-name="eacute" unicode="&#xe9;" horiz-adv-x="314" 
d="M268 696l-92 -138h-60l59 138h93zM289 217h-176q4 -150 54 -150q33 0 53 65l58 -43q-36 -99 -117 -99q-131 0 -131 251q0 257 131 257q128 0 128 -248v-33zM209 286q-5 135 -47 135q-22 0 -33.5 -30t-14.5 -105h95z" />
    <glyph glyph-name="ecircumflex" unicode="&#xea;" horiz-adv-x="314" 
d="M289 546h-70l-54 62l-55 -62h-68l98 135h53zM289 217h-176q4 -150 54 -150q33 0 53 65l58 -43q-36 -99 -117 -99q-131 0 -131 251q0 257 131 257q128 0 128 -248v-33zM209 286q-5 135 -47 135q-22 0 -33.5 -30t-14.5 -105h95z" />
    <glyph glyph-name="edieresis" unicode="&#xeb;" horiz-adv-x="314" 
d="M280 597q0 -19 -13.5 -32.5t-32.5 -13.5t-32.5 13.5t-13.5 32.5q0 20 13.5 33.5t32.5 13.5t32.5 -13.5t13.5 -33.5zM134 597q0 -19 -13.5 -32.5t-32.5 -13.5q-20 0 -33 13.5t-13 32.5q0 20 13 33.5t33 13.5q19 0 32.5 -13.5t13.5 -33.5zM289 217h-176q4 -150 54 -150
q33 0 53 65l58 -43q-36 -99 -117 -99q-131 0 -131 251q0 257 131 257q128 0 128 -248v-33zM209 286q-5 135 -47 135q-22 0 -33.5 -30t-14.5 -105h95z" />
    <glyph glyph-name="icircumflex" unicode="&#xee;" horiz-adv-x="174" 
d="M216 546h-71l-54 62l-54 -62h-69l98 135h53zM129 0h-84v489h84v-489z" />
    <glyph glyph-name="idieresis" unicode="&#xef;" horiz-adv-x="174" 
d="M208 597q0 -19 -13.5 -32.5t-33.5 -13.5q-19 0 -32.5 13.5t-13.5 32.5q0 20 13.5 33.5t32.5 13.5q20 0 33.5 -13.5t13.5 -33.5zM61 597q0 -19 -13 -32.5t-33 -13.5q-19 0 -32.5 13.5t-13.5 32.5q0 20 13.5 33.5t32.5 13.5q20 0 33 -13.5t13 -33.5zM129 0h-84v489h84v-489
z" />
    <glyph glyph-name="ocircumflex" unicode="&#xf4;" horiz-adv-x="331" 
d="M299 243q0 -253 -134 -253q-133 0 -133 253q0 255 134 255q133 0 133 -255zM215 243q0 96 -12 136.5t-38 40.5q-25 0 -37 -41t-12 -136q0 -94 12 -134.5t39 -40.5q48 0 48 175zM289 546h-70l-54 62l-55 -62h-68l98 135h53z" />
    <glyph glyph-name="odieresis" unicode="&#xf6;" horiz-adv-x="331" 
d="M299 243q0 -253 -134 -253q-133 0 -133 253q0 255 134 255q133 0 133 -255zM215 243q0 96 -12 136.5t-38 40.5q-25 0 -37 -41t-12 -136q0 -94 12 -134.5t39 -40.5q48 0 48 175zM283 597q0 -19 -13.5 -32.5t-32.5 -13.5q-20 0 -33.5 13.5t-13.5 32.5q0 20 13.5 33.5
t33.5 13.5q19 0 32.5 -13.5t13.5 -33.5zM137 597q0 -19 -13.5 -32.5t-33.5 -13.5q-19 0 -32.5 13.5t-13.5 32.5q0 20 13.5 33.5t32.5 13.5q20 0 33.5 -13.5t13.5 -33.5z" />
    <glyph glyph-name="ugrave" unicode="&#xf9;" 
d="M211 558h-60l-92 138h93zM288 0h-83v19q-45 -31 -76 -31q-90 0 -90 128v372h83v-362q0 -34 8 -47t27 -13q24 0 48 21v401h83v-488z" />
    <glyph glyph-name="ucircumflex" unicode="&#xfb;" 
d="M282 546h-70l-54 62l-55 -62h-68l98 135h53zM288 0h-83v19q-45 -31 -76 -31q-90 0 -90 128v372h83v-362q0 -34 8 -47t27 -13q24 0 48 21v401h83v-488z" />
    <glyph glyph-name="udieresis" unicode="&#xfc;" 
d="M281 597q0 -19 -13 -32.5t-33 -13.5q-19 0 -32.5 13.5t-13.5 32.5q0 20 13.5 33.5t32.5 13.5q20 0 33 -13.5t13 -33.5zM135 597q0 -19 -13 -32.5t-33 -13.5q-19 0 -32.5 13.5t-13.5 32.5q0 20 13.5 33.5t32.5 13.5q20 0 33 -13.5t13 -33.5zM288 0h-83v19q-45 -31 -76 -31
q-90 0 -90 128v372h83v-362q0 -34 8 -47t27 -13q24 0 48 21v401h83v-488z" />
    <glyph glyph-name="oe" unicode="&#x153;" horiz-adv-x="508" 
d="M478 217h-175q4 -150 53 -150q36 0 53 65l59 -43q-11 -25 -18 -38.5t-20.5 -30t-33 -23.5t-46.5 -7q-58 0 -91 56q-33 -56 -94 -56q-133 0 -133 253q0 255 134 255q60 0 92 -56q32 56 93 56q127 0 127 -248v-33zM399 286q-5 135 -48 135t-48 -135h96zM215 243
q0 96 -12 136.5t-38 40.5q-25 0 -37 -41t-12 -136q0 -94 12 -134.5t39 -40.5q48 0 48 175z" />
    <glyph glyph-name="tonos" unicode="&#x384;" horiz-adv-x="318" 
d="M247 696l-92 -138h-60l59 138h93z" />
    <glyph glyph-name="dieresistonos" unicode="&#x385;" horiz-adv-x="344" 
d="M327 597q0 -19 -13.5 -32.5t-32.5 -13.5q-20 0 -33.5 13.5t-13.5 32.5q0 20 13.5 33.5t33.5 13.5q19 0 32.5 -13.5t13.5 -33.5zM259 685l-95 -144h-60l62 144h93zM104 597q0 -19 -13 -32.5t-33 -13.5q-19 0 -32.5 13.5t-13.5 32.5q0 20 13.5 33.5t32.5 13.5
q20 0 33 -13.5t13 -33.5z" />
    <glyph glyph-name="Alphatonos" unicode="&#x386;" horiz-adv-x="354" 
d="M91 669l-92 -138h-60l59 138h93zM345 0h-86l-28 154h-110l-28 -154h-85l125 651h87zM218 228l-42 236l-43 -236h85z" />
    <glyph glyph-name="Epsilontonos" unicode="&#x388;" horiz-adv-x="313" 
d="M30 669l-92 -138h-60l59 138h93zM292 0h-245v651h237v-81h-149v-183h108v-81h-108v-225h157v-81z" />
    <glyph glyph-name="Etatonos" unicode="&#x389;" horiz-adv-x="388" 
d="M338 0h-88v306h-114v-306h-88v651h88v-265h114v265h88v-651zM25 669l-92 -138h-60l59 138h93z" />
    <glyph glyph-name="Iotatonos" unicode="&#x38a;" horiz-adv-x="189" 
d="M25 669l-92 -138h-60l59 138h93zM138 0h-88v651h88v-651z" />
    <glyph glyph-name="Omicrontonos" unicode="&#x38c;" horiz-adv-x="363" 
d="M51 669l-92 -138h-60l59 138h93zM328 326q0 -175 -32.5 -255.5t-114.5 -80.5q-81 0 -113.5 80.5t-32.5 254.5t33 255t114 81t113.5 -80.5t32.5 -254.5zM181 583q-31 0 -45 -57t-14 -200q0 -140 15 -199t45 -59q32 0 46 57t14 200q0 141 -15 199.5t-46 58.5z" />
    <glyph glyph-name="Upsilontonos" unicode="&#x38e;" horiz-adv-x="360" 
d="M355 651l-130 -370v-281h-89v278l-130 373h92l84 -260l83 260h90zM-8 669l-92 -138h-60l59 138h93z" />
    <glyph glyph-name="Omegatonos" unicode="&#x38f;" horiz-adv-x="372" 
d="M54 669l-92 -138h-60l59 138h93zM186 661q81 0 115 -77.5t34 -246.5q0 -200 -52 -259h51v-78h-134v92q21 9 33 52q15 64 15 192q0 246 -63 246q-61 0 -61 -245q0 -224 47 -243v-94h-134v78h50q-50 58 -50 258q0 169 34.5 247t114.5 78z" />
    <glyph glyph-name="iotadieresistonos" unicode="&#x390;" horiz-adv-x="174" 
d="M255 597q0 -19 -13.5 -32.5t-32.5 -13.5q-20 0 -33 13.5t-13 32.5q0 20 13 33.5t33 13.5q19 0 32.5 -13.5t13.5 -33.5zM187 685l-94 -144h-60l61 144h93zM33 597q0 -19 -13.5 -32.5t-32.5 -13.5q-20 0 -33 13.5t-13 32.5q0 20 13 33.5t33 13.5q19 0 32.5 -13.5
t13.5 -33.5zM129 0h-84v489h84v-489z" />
    <glyph glyph-name="Alpha" unicode="&#x391;" horiz-adv-x="354" 
d="M345 0h-86l-28 154h-110l-28 -154h-85l125 651h87zM218 228l-43 236l-42 -236h85z" />
    <glyph glyph-name="Beta" unicode="&#x392;" horiz-adv-x="348" 
d="M319 193q0 -193 -158 -193h-116v651h115q150 0 150 -168q0 -96 -68 -138q77 -42 77 -152zM222 480q0 52 -16.5 73.5t-52.5 21.5h-22v-192l31 1q60 0 60 96zM151 307h-20v-231h29q38 0 54.5 27t16.5 87q0 117 -80 117z" />
    <glyph glyph-name="Gamma" unicode="&#x393;" horiz-adv-x="290" 
d="M286 570h-151v-570h-88v651h239v-81z" />
    <glyph glyph-name="Delta" unicode="&#x394;" horiz-adv-x="354" 
d="M349 0h-337l125 651h87zM249 74l-70 390l-69 -390h139z" />
    <glyph glyph-name="Epsilon" unicode="&#x395;" horiz-adv-x="313" 
d="M292 0h-245v651h237v-81h-149v-183h108v-81h-108v-225h157v-81z" />
    <glyph glyph-name="Zeta" unicode="&#x396;" horiz-adv-x="303" 
d="M293 572l-189 -492h176v-80h-263v78l189 492h-165v81h252v-79z" />
    <glyph glyph-name="Eta" unicode="&#x397;" horiz-adv-x="388" 
d="M338 0h-88v306h-114v-306h-88v651h88v-265h114v265h88v-651z" />
    <glyph glyph-name="Theta" unicode="&#x398;" horiz-adv-x="363" 
d="M332 326q0 -171 -35.5 -253.5t-115.5 -82.5q-79 0 -114 81.5t-35 253.5q0 171 35 253.5t115 82.5t115 -82t35 -253zM241 387q-4 195 -60 195q-27 0 -41 -44.5t-18 -150.5h119zM242 306h-120q0 -237 60 -237t60 237z" />
    <glyph glyph-name="Iota" unicode="&#x399;" horiz-adv-x="189" 
d="M138 0h-88v651h88v-651z" />
    <glyph glyph-name="Kappa" unicode="&#x39a;" horiz-adv-x="342" 
d="M336 0h-91l-83 311l-27 -54v-257h-88v651h88v-226l106 226h92l-109 -235z" />
    <glyph glyph-name="Lambda" unicode="&#x39b;" horiz-adv-x="344" 
d="M328 0h-87l-68 433l-66 -433h-88l110 651h86z" />
    <glyph glyph-name="Mu" unicode="&#x39c;" horiz-adv-x="447" 
d="M402 0h-82v441l-95 -281l-95 283l-1 -443h-81v651h87l90 -267l91 267h86v-651z" />
    <glyph glyph-name="Nu" unicode="&#x39d;" horiz-adv-x="381" 
d="M334 0h-69l-138 421v-421h-80v651h81l125 -387v387h81v-651z" />
    <glyph glyph-name="Xi" unicode="&#x39e;" horiz-adv-x="335" 
d="M303 0h-269v81h92v225h-57v81h57v183h-84v81h253v-81h-88v-183h61v-81h-61v-225h96v-81z" />
    <glyph glyph-name="Omicron" unicode="&#x39f;" horiz-adv-x="363" 
d="M328 326q0 -175 -32.5 -255.5t-114.5 -80.5q-81 0 -113.5 80.5t-32.5 254.5t33 255t114 81t113.5 -80.5t32.5 -254.5zM181 583q-31 0 -45 -57t-14 -200q0 -140 15 -199t45 -59q32 0 46 57t14 200q0 141 -15 199.5t-46 58.5z" />
    <glyph glyph-name="Pi" unicode="&#x3a0;" horiz-adv-x="381" 
d="M334 0h-88v571h-110v-571h-88v651h286v-651z" />
    <glyph glyph-name="Rho" unicode="&#x3a1;" horiz-adv-x="336" 
d="M318 472q0 -95 -44.5 -142.5t-117.5 -47.5h-22v-282h-87v651h121q68 0 109 -44t41 -135zM229 468q0 106 -72 106h-23v-215h23q36 0 54 29.5t18 79.5z" />
    <glyph glyph-name="Sigma" unicode="&#x3a3;" horiz-adv-x="300" 
d="M272 0h-247v73l76 275l-78 229v74h236v-81h-145l76 -221l-73 -269h155v-80z" />
    <glyph glyph-name="Tau" unicode="&#x3a4;" horiz-adv-x="304" 
d="M289 571h-93v-571h-88v571h-92v80h273v-80z" />
    <glyph glyph-name="Upsilon" unicode="&#x3a5;" horiz-adv-x="360" 
d="M355 651l-130 -370v-281h-88v278l-131 373h92l84 -260l83 260h90z" />
    <glyph glyph-name="Phi" unicode="&#x3a6;" horiz-adv-x="469" 
d="M435 337q0 -261 -159 -279v-58h-82v58q-158 17 -158 279q0 136 38.5 203t119.5 76v35h82v-35q159 -17 159 -279zM346 337q0 190 -70 199v-398q70 8 70 199zM194 138v398q-70 -9 -70 -199q0 -187 70 -199z" />
    <glyph glyph-name="Chi" unicode="&#x3a7;" horiz-adv-x="326" 
d="M320 0h-90l-68 212l-68 -212h-88l112 338l-103 313h90l58 -184l59 184h89l-104 -311z" />
    <glyph glyph-name="Psi" unicode="&#x3a8;" horiz-adv-x="460" 
d="M419 298q0 -82 -45 -127.5t-102 -52.5v-118h-84v118q-65 10 -105.5 58.5t-40.5 121.5v353h87v-359q0 -38 17.5 -64.5t41.5 -29.5v453h84v-453q25 2 42.5 28t17.5 66v359h87v-353z" />
    <glyph glyph-name="Omega" unicode="&#x3a9;" horiz-adv-x="372" 
d="M186 661q81 0 115 -77.5t34 -246.5q0 -200 -52 -259h51v-78h-134v92q21 9 33 52q15 64 15 192q0 246 -63 246q-61 0 -61 -245q0 -224 47 -243v-94h-134v78h50q-50 58 -50 258q0 169 34.5 247t114.5 78z" />
    <glyph glyph-name="Iotadieresis" unicode="&#x3aa;" horiz-adv-x="189" 
d="M215 719q0 -19 -13 -32.5t-33 -13.5q-19 0 -32.5 13.5t-13.5 32.5t13.5 32.5t32.5 13.5q20 0 33 -13.5t13 -32.5zM69 719q0 -19 -13 -32.5t-33 -13.5q-19 0 -32.5 13.5t-13.5 32.5t13.5 32.5t32.5 13.5q20 0 33 -13.5t13 -32.5zM138 0h-88v651h88v-651z" />
    <glyph glyph-name="Upsilondieresis" unicode="&#x3ab;" horiz-adv-x="360" 
d="M301 719q0 -19 -13 -32.5t-33 -13.5q-19 0 -32.5 13.5t-13.5 32.5t13.5 32.5t32.5 13.5q20 0 33 -13.5t13 -32.5zM155 719q0 -19 -13 -32.5t-33 -13.5q-19 0 -32.5 13.5t-13.5 32.5t13.5 32.5t32.5 13.5q20 0 33 -13.5t13 -32.5zM355 651l-130 -370v-281h-89v278
l-130 373h92l84 -260l83 260h90z" />
    <glyph glyph-name="alphatonos" unicode="&#x3ac;" horiz-adv-x="327" 
d="M281 696l-92 -138h-60l59 138h93zM288 0h-83v18q-30 -30 -64 -30q-60 0 -85 65t-25 188q0 128 26.5 192.5t86.5 64.5q28 0 61 -28v18h83v-488zM205 86v314q-25 22 -47 22q-23 0 -33 -42t-10 -137q0 -99 11.5 -138.5t34.5 -39.5q18 0 44 21z" />
    <glyph glyph-name="epsilontonos" unicode="&#x3ad;" horiz-adv-x="296" 
d="M269 696l-92 -138h-60l59 138h93zM286 115q-33 -125 -126 -125q-64 0 -95 43t-31 111q0 98 56 122q-53 18 -49 114q0 44 31 81.5t84 37.5q56 0 88 -37q28 -29 38 -73q1 -10 -7 -15.5t-28.5 -12t-34.5 -13.5q-11 75 -51 75q-15 0 -26.5 -16t-11.5 -37q0 -43 14.5 -60
t45.5 -17h30v-68h-25q-37 0 -52.5 -17.5t-15.5 -66.5q0 -36 12.5 -56.5t31.5 -20.5q17 0 32 19t17 56z" />
    <glyph glyph-name="etatonos" unicode="&#x3ae;" 
d="M258 696l-92 -138h-60l59 138h93zM290 0h-83v363q0 34 -8 47t-27 13q-23 0 -48 -22v-401h-83v488h83v-18q44 30 77 30q89 0 89 -128v-372z" />
    <glyph glyph-name="iotatonos" unicode="&#x3af;" horiz-adv-x="174" 
d="M199 696l-92 -138h-60l59 138h93zM129 0h-84v489h84v-489z" />
    <glyph glyph-name="upsilondieresistonos" unicode="&#x3b0;" horiz-adv-x="331" 
d="M323 597q0 -19 -13 -32.5t-33 -13.5q-19 0 -32.5 13.5t-13.5 32.5q0 20 13.5 33.5t32.5 13.5q20 0 33 -13.5t13 -33.5zM256 685l-95 -144h-60l62 144h93zM101 597q0 -19 -13 -32.5t-33 -13.5q-19 0 -32.5 13.5t-13.5 32.5q0 20 13.5 33.5t32.5 13.5q20 0 33 -13.5
t13 -33.5zM289 125q0 -63 -33.5 -98.5t-90.5 -35.5t-90.5 35t-33.5 98v364h82v-355q0 -67 41 -67q42 0 42 67v326l83 46v-380z" />
    <glyph glyph-name="alpha" unicode="&#x3b1;" horiz-adv-x="327" 
d="M287 0h-83v18q-30 -30 -64 -30q-59 0 -84 65t-25 188q0 128 26.5 192.5t85.5 64.5q31 0 61 -28v18h83v-488zM204 86v314q-23 22 -46 22q-44 0 -44 -179q0 -100 11.5 -139t35.5 -39q20 0 43 21z" />
    <glyph glyph-name="beta" unicode="&#x3b2;" horiz-adv-x="346" 
d="M124 87v424q0 48 10 68t33 20q45 0 45 -95q0 -92 -56 -92v-70h10q67 0 67 -139q-4 -138 -50 -138q-40 0 -59 22zM200 -12q112 0 117 221q4 142 -71 174q51 39 51 125q0 79 -32.5 123t-94.5 44q-60 0 -93.5 -44.5t-33.5 -123.5v-645l81 42v112q31 -28 76 -28z" />
    <glyph glyph-name="gamma" unicode="&#x3b3;" horiz-adv-x="305" 
d="M290 488l-96 -464v-164l-83 -45v207l-96 466h87l51 -307l51 307h86z" />
    <glyph glyph-name="delta" unicode="&#x3b4;" horiz-adv-x="331" 
d="M301 230q0 -112 -33.5 -176t-102.5 -64q-67 0 -101 64.5t-34 174.5q0 182 86 221q-47 44 -47 103q0 54 34.5 88t90.5 34q42 0 64 -8v-75q-25 8 -49 6q-23 -1 -37.5 -14t-14.5 -36q0 -16 8 -31.5t17 -24.5t25.5 -23.5t22.5 -20.5q37 -37 54 -87t17 -131zM217 229
q0 75 -9 106q-7 24 -33 47q-8 2 -10 2q-27 0 -39 -34t-12 -120q0 -162 53 -162q26 0 38 37.5t12 123.5z" />
    <glyph glyph-name="epsilon" unicode="&#x3b5;" horiz-adv-x="296" 
d="M286 115q-33 -125 -126 -125q-64 0 -95 43t-31 111q0 98 56 122q-53 18 -49 114q0 44 31 81.5t84 37.5q56 0 88 -37q28 -29 38 -73q1 -10 -7 -15.5t-28.5 -12t-34.5 -13.5q-11 75 -51 75q-15 0 -26.5 -16t-11.5 -37q0 -43 14.5 -60t45.5 -17h30v-68h-25
q-37 0 -52.5 -17.5t-15.5 -66.5q0 -36 12.5 -56.5t31.5 -20.5q17 0 32 19t17 56z" />
    <glyph glyph-name="zeta" unicode="&#x3b6;" horiz-adv-x="286" 
d="M305 593q-72 -86 -132.5 -201t-60.5 -200q0 -120 120 -120h41v-168l-80 -44v135q-162 13 -162 196q0 81 53.5 196t129.5 199h-171v72h262v-65z" />
    <glyph glyph-name="eta" unicode="&#x3b7;" 
d="M290 0h-83v363q0 34 -8 47t-27 13q-23 0 -48 -22v-401h-83v488h83v-18q44 30 77 30q89 0 89 -128v-372z" />
    <glyph glyph-name="theta" unicode="&#x3b8;" horiz-adv-x="350" 
d="M32 326q0 170 31.5 256t111.5 86q76 0 109.5 -87t33.5 -253q0 -174 -34 -257.5t-110 -83.5t-109 82.5t-33 256.5zM233 386v9q0 97 -16 147t-43 50t-42.5 -50t-15.5 -147v-9h117zM234 311h-118q0 -247 60 -247q59 0 58 247z" />
    <glyph glyph-name="iota" unicode="&#x3b9;" horiz-adv-x="174" 
d="M129 0h-84v489h84v-489z" />
    <glyph glyph-name="kappa" unicode="&#x3ba;" horiz-adv-x="314" 
d="M302 489l-87 -160l90 -329h-83l-65 231l-32 -60v-171h-82v489h82v-165l85 165h92z" />
    <glyph glyph-name="lambda" unicode="&#x3bb;" horiz-adv-x="321" 
d="M314 0h-86l-68 296l-68 -296h-88l116 466q-6 26 -8 33.5t-8.5 27.5t-12.5 28t-17 21.5t-26.5 21t-35.5 14.5l26 67q31 -9 55 -20t41 -30t27 -32t19.5 -42t13 -43t12.5 -51z" />
    <glyph glyph-name="nu" unicode="&#x3bd;" horiz-adv-x="311" 
d="M300 488l-102 -488h-85l-101 488h87l57 -321l58 321h86z" />
    <glyph glyph-name="xi" unicode="&#x3be;" horiz-adv-x="296" 
d="M287 550l-74 -31q-6 78 -51 78q-17 0 -26.5 -24.5t-9.5 -58.5q0 -110 61 -110h58v-70h-49q-45 0 -63 -40t-18 -91q1 -67 20.5 -97t64.5 -30h67v-172l-81 -43v134q-88 2 -121.5 57.5t-33.5 145.5q0 54 15 105.5t55 69.5q-36 18 -48 52t-12 94q0 61 30.5 107.5t86.5 46.5
t84.5 -31.5t44.5 -91.5z" />
    <glyph glyph-name="omicron" unicode="&#x3bf;" horiz-adv-x="331" 
d="M299 243q0 -253 -134 -253q-133 0 -133 253q0 255 134 255q133 0 133 -255zM215 243q0 96 -12 136.5t-38 40.5q-25 0 -37 -41t-12 -136q0 -94 12 -134.5t39 -40.5q48 0 48 175z" />
    <glyph glyph-name="pi" unicode="&#x3c0;" 
d="M291 0h-83v413h-83v-413h-83v488h249v-488z" />
    <glyph glyph-name="rho" unicode="&#x3c1;" horiz-adv-x="328" 
d="M298 245q0 -129 -25.5 -193t-84.5 -64q-32 0 -63 27v-155l-83 -45v423q0 101 10 144q25 116 119 116q127 0 127 -253zM215 243q0 178 -52 178q-11 0 -19 -11t-13.5 -51.5t-5.5 -110.5v-160q22 -22 47 -22q24 0 33.5 41t9.5 136z" />
    <glyph glyph-name="sigma1" unicode="&#x3c2;" horiz-adv-x="292" 
d="M267 121q0 -61 -37.5 -96t-99.5 -35q-64 0 -115 24l24 74q42 -30 90 -30q25 0 40 18t15 40q0 25 -12.5 47.5t-48.5 52.5q-50 46 -71 78t-21 77q0 54 33 91t85 37q66 0 108 -56l-25 -76q-42 56 -80 56q-16 0 -28 -13t-12 -33q0 -41 63 -95q46 -39 69 -76t23 -85z" />
    <glyph glyph-name="sigma" unicode="&#x3c3;" horiz-adv-x="344" 
d="M329 413h-66q38 -34 38 -174q0 -125 -32.5 -187t-103.5 -62q-135 0 -135 248q0 250 134 250h165v-75zM167 66q27 0 38.5 38t11.5 134t-12 133t-39 37q-26 0 -39 -38.5t-13 -130.5q0 -95 13 -134t40 -39z" />
    <glyph glyph-name="tau" unicode="&#x3c4;" horiz-adv-x="242" 
d="M231 413h-80v-320q0 -32 25 -32q18 0 47 22l-6 -75q-33 -18 -67 -18q-80 0 -80 96v327h-61v75h222v-75z" />
    <glyph glyph-name="upsilon" unicode="&#x3c5;" horiz-adv-x="331" 
d="M289 125q0 -63 -33.5 -98.5t-90.5 -35.5t-90.5 35t-33.5 98v364h82v-355q0 -67 41 -67q42 0 42 67v326l83 46v-380z" />
    <glyph glyph-name="phi" unicode="&#x3c6;" horiz-adv-x="431" 
d="M402 243q0 -60 -10.5 -111t-44.5 -94.5t-89 -49.5v-129l-84 -44v173q-42 5 -71.5 30t-44 64t-21 78t-6.5 83q0 200 100 246l25 -73q-41 -29 -41 -173q0 -172 59 -176v431h75q76 0 114.5 -67t38.5 -188zM258 421v-354q60 4 60 176q0 173 -60 178z" />
    <glyph glyph-name="chi" unicode="&#x3c7;" horiz-adv-x="314" 
d="M309 0h-88l-64 161l-65 -161h-87l108 259l-96 229h87l52 -132l52 132h88l-96 -229z" />
    <glyph glyph-name="psi" unicode="&#x3c8;" horiz-adv-x="434" 
d="M393 505v-365q0 -67 -42.5 -105.5t-95.5 -45.5v-130l-82 -45v176q-48 7 -91 46t-43 103v350h82v-349q0 -30 15.5 -48.5t36.5 -24.5v465l83 45v-510q22 4 38 23.5t16 49.5v319z" />
    <glyph glyph-name="omega" unicode="&#x3c9;" horiz-adv-x="481" 
d="M338 497q111 -22 111 -254q0 -253 -127 -253q-50 0 -80 50q-30 -50 -82 -50q-127 0 -127 253q0 228 110 254l22 -69q-48 -16 -48 -184q0 -98 10 -137.5t34 -39.5q39 0 39 116v151h81v-151q0 -116 41 -116q23 0 33 39.5t10 137.5q0 168 -47 183z" />
    <glyph glyph-name="iotadieresis" unicode="&#x3ca;" horiz-adv-x="174" 
d="M205 597q0 -19 -13 -32.5t-33 -13.5q-19 0 -32.5 13.5t-13.5 32.5q0 20 13.5 33.5t32.5 13.5q20 0 33 -13.5t13 -33.5zM59 597q0 -19 -13 -32.5t-33 -13.5q-19 0 -32.5 13.5t-13.5 32.5q0 20 13.5 33.5t32.5 13.5q20 0 33 -13.5t13 -33.5zM129 0h-84v489h84v-489z" />
    <glyph glyph-name="upsilondieresis" unicode="&#x3cb;" horiz-adv-x="331" 
d="M285 597q0 -19 -13.5 -32.5t-32.5 -13.5q-20 0 -33.5 13.5t-13.5 32.5q0 20 13.5 33.5t33.5 13.5q19 0 32.5 -13.5t13.5 -33.5zM139 597q0 -19 -13.5 -32.5t-33.5 -13.5q-19 0 -32.5 13.5t-13.5 32.5q0 20 13.5 33.5t32.5 13.5q20 0 33.5 -13.5t13.5 -33.5zM289 125
q0 -63 -33.5 -98.5t-90.5 -35.5t-90.5 35t-33.5 98v364h82v-355q0 -67 41 -67q42 0 42 67v326l83 46v-380z" />
    <glyph glyph-name="omicrontonos" unicode="&#x3cc;" horiz-adv-x="331" 
d="M279 696l-92 -138h-60l59 138h93zM303 243q0 -253 -134 -253q-133 0 -133 253q0 255 134 255q133 0 133 -255zM219 243q0 177 -50 177q-26 0 -37.5 -40.5t-11.5 -136.5q0 -175 50 -175q26 0 37.5 40.5t11.5 134.5z" />
    <glyph glyph-name="upsilontonos" unicode="&#x3cd;" horiz-adv-x="331" 
d="M270 696l-92 -138h-60l59 138h93zM289 125q0 -63 -33.5 -98.5t-90.5 -35.5t-90.5 35t-33.5 98v364h82v-355q0 -67 41 -67q42 0 42 67v326l83 46v-380z" />
    <glyph glyph-name="omegatonos" unicode="&#x3ce;" horiz-adv-x="481" 
d="M344 696l-92 -138h-60l59 138h93zM338 497q111 -22 111 -254q0 -253 -127 -253q-50 0 -80 50q-30 -50 -82 -50q-127 0 -127 253q0 228 110 254l22 -69q-48 -16 -48 -184q0 -98 10 -137.5t34 -39.5q39 0 39 116v151h81v-151q0 -116 41 -116q23 0 33 39.5t10 137.5
q0 168 -47 183z" />
    <glyph glyph-name="endash" unicode="&#x2013;" horiz-adv-x="350" 
d="M320 295h-293v82h293v-82z" />
    <glyph glyph-name="emdash" unicode="&#x2014;" horiz-adv-x="700" 
d="M27 295h643v82h-643v-82z" />
    <glyph glyph-name="afii00208" unicode="&#x2015;" horiz-adv-x="700" 
d="M670 295h-643v82h643v-82z" />
    <glyph glyph-name="quoteleft" unicode="&#x2018;" horiz-adv-x="194" 
d="M146 526q0 -25 -13.5 -41t-36.5 -16q-28 0 -43 20.5t-15 50.5q0 32 16 65t38 51l31 -24q-27 -25 -35 -56q23 2 40.5 -11t17.5 -39z" />
    <glyph glyph-name="quoteright" unicode="&#x2019;" horiz-adv-x="194" 
d="M149 585q0 -32 -16 -64t-37 -52l-31 24q28 26 34 56q-22 -2 -39.5 11t-17.5 39q0 25 13 41t36 16q28 0 43 -20.5t15 -50.5z" />
    <glyph glyph-name="quotedblleft" unicode="&#x201c;" horiz-adv-x="308" 
d="M276 526q0 -25 -13 -41t-36 -16q-28 0 -43 20.5t-15 50.5q0 32 16 64t37 52l31 -24q-29 -28 -34 -56q22 2 39.5 -11.5t17.5 -38.5zM146 526q0 -25 -13.5 -41t-36.5 -16q-28 0 -43 20.5t-15 50.5q0 32 16 65t38 51l31 -24q-27 -25 -35 -56q23 2 40.5 -11t17.5 -39z" />
    <glyph glyph-name="quotedblright" unicode="&#x201d;" horiz-adv-x="308" 
d="M276 585q0 -32 -16 -64t-37 -52l-31 24q28 26 34 56q-22 -2 -39.5 11t-17.5 39q0 25 13 41t36 16q28 0 43 -20.5t15 -50.5zM146 585q0 -32 -16 -65t-38 -51l-30 24q27 27 34 56q-23 -2 -40.5 11t-17.5 39q0 25 13.5 41t36.5 16q28 0 43 -20.5t15 -50.5z" />
    <glyph glyph-name="dagger" unicode="&#x2020;" horiz-adv-x="326" 
d="M313 393h-114v-466h-74v466h-108v69h108v189h74v-189h114v-69z" />
    <glyph glyph-name="bullet" unicode="&#x2022;" horiz-adv-x="306" 
d="M255 326q0 -42 -29 -70.5t-71 -28.5t-70.5 28.5t-28.5 70.5q0 40 29 69.5t70 29.5t70.5 -29.5t29.5 -69.5z" />
    <glyph glyph-name="ellipsis" unicode="&#x2026;" horiz-adv-x="609" 
d="M551 43q0 -24 -14.5 -39t-40.5 -15q-24 0 -39.5 15.5t-15.5 38.5q0 24 15.5 40t39.5 16q26 0 40.5 -15.5t14.5 -40.5zM355 43q0 -24 -14.5 -39t-40.5 -15q-24 0 -39.5 15.5t-15.5 38.5q0 24 15.5 40t39.5 16q26 0 40.5 -15.5t14.5 -40.5zM163 43q0 -24 -14.5 -39
t-40.5 -15q-24 0 -39.5 15.5t-15.5 38.5q0 24 15.5 40t39.5 16q26 0 40.5 -15.5t14.5 -40.5z" />
    <glyph glyph-name="perthousand" unicode="&#x2030;" horiz-adv-x="899" 
d="M870 180q0 -188 -114 -188q-57 0 -85 50t-28 138q0 190 114 190q58 0 85.5 -51t27.5 -139zM601 180q0 -89 -29 -138.5t-85 -49.5q-113 0 -113 188q0 190 114 190q58 0 85.5 -51t27.5 -139zM547 651l-387 -651h-77l387 651h77zM260 471q0 -87 -29 -137.5t-85 -50.5
q-114 0 -114 188q0 87 28 138.5t87 51.5q113 0 113 -190zM796 180q0 127 -40 127q-20 0 -29.5 -28t-9.5 -99q0 -125 40 -125q21 0 30 28.5t9 96.5zM527 180q0 127 -40 127q-20 0 -29.5 -28t-9.5 -99q0 -125 40 -125q39 0 39 125zM186 471q0 127 -40 127q-20 0 -29.5 -27.5
t-9.5 -99.5q0 -125 40 -125q39 0 39 125z" />
    <glyph glyph-name="Euro" unicode="&#x20ac;" horiz-adv-x="342" 
d="M333 140l-77 31q-13 -102 -55 -102q-50 0 -57 176h113l29 64h-144v15v12h115l29 64h-142q7 182 55 182q23 0 37 -23.5t20 -81.5l76 38q-7 30 -15.5 52.5t-23.5 45.5t-39 35.5t-55 12.5q-67 0 -101 -65t-43 -196h-28l-28 -64h54v-12v-15h-26l-28 -64h56q7 -132 40.5 -194
t101.5 -62q58 0 89 39.5t47 111.5z" />
    <glyph glyph-name="trademark" unicode="&#x2122;" horiz-adv-x="437" 
d="M406 283h-52v216l-49 -144l-49 145v-217h-51v368h52l48 -145l49 145h52v-368zM183 603h-59v-319h-51v319h-58v48h168v-48z" />
    <glyph glyph-name="CR" horiz-adv-x="500" 
 />
    </font>
</defs>
</svg>
