<?xml version="1.0" standalone="no"?>
<!DOCTYPE svg PUBLIC "-//W3C//DTD SVG 1.1//EN" "http://www.w3.org/Graphics/SVG/1.1/DTD/svg11.dtd" >
<svg xmlns="http://www.w3.org/2000/svg" xmlns:xlink="http://www.w3.org/1999/xlink" version="1.1">
<metadata>
Created by FontForge 20170731 at Wed May 23 17:03:34 2007
 By Aleksey,,,
Copyright (c) 2007 Luc(as) de Groot, published by LucasFonts, www.lucasfonts.com   All rights reserved
</metadata>
<defs>
<font id="TheSansAmstel-CondensedBold" horiz-adv-x="440" >
  <font-face 
    font-family="TheSansAmstel Condensed"
    font-weight="700"
    font-stretch="condensed"
    units-per-em="1000"
    panose-1="2 11 8 2 5 3 2 2 2 3"
    ascent="740"
    descent="-260"
    x-height="497"
    cap-height="675"
    bbox="-84 -232 1812 979"
    underline-thickness="94"
    underline-position="-372"
    unicode-range="U+000D-FB04"
  />
<missing-glyph horiz-adv-x="550" 
d="M300 150h-150v250h50v-200h100v-50zM500 50h-450v450h450v-450zM350 350h-100v50h150v-250h-50v100h-100v50h100v50zM100 100h350v350h-350v-350z" />
    <glyph glyph-name="ellipsis" unicode="&#x2e;&#x2e;&#x2e;" horiz-adv-x="598" 
d="M108 137q30 0 51.5 -21.5t21.5 -51.5q0 -29 -21.5 -50.5t-51.5 -21.5t-51.5 21.5t-21.5 50.5q0 30 21.5 51.5t51.5 21.5zM299 137q30 0 51.5 -21.5t21.5 -51.5q0 -29 -21.5 -50.5t-51.5 -21.5t-51.5 21.5t-21.5 50.5q0 30 21.5 51.5t51.5 21.5zM490 137q31 0 52.5 -21.5
t21.5 -51.5q0 -29 -21.5 -50.5t-52.5 -21.5q-29 0 -50.5 21.5t-21.5 50.5q0 30 21.5 51.5t50.5 21.5z" />
    <glyph glyph-name="f_b" unicode="fb" horiz-adv-x="710" 
d="M266 725q71 0 160 -14v-173q0 -67 -11 -119h1q37 88 123 88q71 0 109 -59.5t38 -176.5q0 -134 -56.5 -206.5t-167.5 -72.5q-75 0 -153 20v609q-21 7 -50 7q-78 0 -78 -92v-39h69v-93h-69v-404h-118v404h-62v93h62v37q0 191 203 191zM564 258q0 147 -58 147
q-36 0 -58 -46.5t-22 -119.5v-142q27 -9 47 -9q91 0 91 170z" />
    <glyph glyph-name="f_h" unicode="fh" horiz-adv-x="716" 
d="M266 725q71 0 160 -14v-176q0 -64 -11 -116h1q16 40 50.5 64t78.5 24q124 0 124 -157v-350h-118v327q0 41 -10 59.5t-33 18.5q-34 0 -58 -45t-24 -114v-246h-117v621q-21 7 -50 7q-78 0 -78 -92v-39h69v-93h-69v-404h-118v404h-62v93h62v37q0 191 203 191z" />
    <glyph glyph-name="f_j" unicode="fj" horiz-adv-x="474" 
d="M426 497v-531q0 -98 -40 -146.5t-124 -48.5q-29 0 -57 10l14 98q20 -8 41 -8q27 0 37.5 20t10.5 68v445h-127v-404h-118v404h-62v93h62v25q0 99 54 151t157 52q68 0 130 -17l-21 -99q-55 19 -106 19q-96 0 -96 -98v-33h245z" />
    <glyph glyph-name="f_k" unicode="fk" horiz-adv-x="673" 
d="M673 0h-135l-112 248v-248h-117v621q-21 7 -50 7q-78 0 -78 -92v-39h69v-93h-69v-404h-118v404h-62v93h62v37q0 191 203 191q71 0 160 -14v-425l105 211h130l-123 -223z" />
    <glyph glyph-name="ff" unicode="ff" horiz-adv-x="514" 
d="M540 715l-23 -93q-19 7 -37 7q-56 0 -56 -82v-50h81v-93h-81v-404h-117v404h-126v-404h-118v404h-62v93h62v20q0 95 49.5 148.5t149.5 53.5q56 0 109 -19q35 26 93 26q40 0 76 -11zM317 610q-27 12 -59 12q-77 0 -77 -97v-28h126v46q0 43 10 67z" />
    <glyph glyph-name="fi" unicode="fi" horiz-adv-x="474" 
d="M426 0h-118v404h-127v-404h-118v404h-62v93h62v25q0 99 54 151t157 52q68 0 130 -17l-21 -99q-55 19 -106 19q-96 0 -96 -98v-33h245v-497z" />
    <glyph glyph-name="fl" unicode="fl" horiz-adv-x="475" 
d="M426 0h-117v621q-21 7 -50 7q-78 0 -78 -92v-39h69v-93h-69v-404h-118v404h-62v93h62v37q0 191 203 191q71 0 160 -14v-711z" />
    <glyph glyph-name="ffi" unicode="ffi" horiz-adv-x="718" 
d="M669 0h-117v404h-128v-404h-117v404h-126v-404h-118v404h-62v93h62v20q0 94 49.5 148t149.5 54q63 0 127 -25q51 32 129 32q65 0 130 -18l-21 -98q-55 19 -106 19q-97 0 -97 -101v-31h245v-497zM323 608q-29 14 -63 14q-79 0 -79 -96v-29h126v23q0 54 16 88z" />
    <glyph glyph-name="ffl" unicode="ffl" horiz-adv-x="718" 
d="M670 0h-118v622q-26 7 -49 7q-38 0 -58.5 -25.5t-20.5 -71.5v-35h70v-93h-70v-404h-117v404h-126v-404h-118v404h-62v93h62v20q0 94 49.5 148t149.5 54q66 0 124 -24q49 31 124 31t160 -15v-711zM322 608q-28 14 -62 14q-79 0 -79 -96v-29h126v23q0 53 15 88z" />
    <glyph glyph-name=".notdef" horiz-adv-x="550" 
d="M300 150h-150v250h50v-200h100v-50zM500 50h-450v450h450v-450zM350 350h-100v50h150v-250h-50v100h-100v50h100v50zM100 100h350v350h-350v-350z" />
    <glyph glyph-name=".null" horiz-adv-x="500" 
 />
    <glyph glyph-name=".null" horiz-adv-x="500" 
 />
    <glyph glyph-name="nonmarkingreturn" horiz-adv-x="333" 
 />
    <glyph glyph-name="CR" unicode="&#xd;" 
 />
    <glyph glyph-name="space" unicode=" " horiz-adv-x="175" 
 />
    <glyph glyph-name="exclam" unicode="!" horiz-adv-x="248" 
d="M203 713l-18 -526h-102l-18 526h138zM134 134q30 0 51 -21t21 -51t-21 -50.5t-51 -20.5t-51 20.5t-21 50.5t21 51t51 21z" />
    <glyph glyph-name="quotedbl" unicode="&#x22;" horiz-adv-x="340" 
d="M148 727l-14 -249h-88l-14 249h116zM307 727l-14 -249h-87l-14 249h115z" />
    <glyph glyph-name="numbersign" unicode="#" horiz-adv-x="520" 
d="M236 675l-13 -162h100l13 162h103l-13 -162h74v-89h-81l-12 -161h76v-88h-83l-13 -175h-103l13 175h-100l-13 -175h-103l13 175h-74v88h81l12 161h-76v89h83l13 162h103zM216 424l-12 -161h100l12 161h-100z" />
    <glyph glyph-name="dollar" unicode="$" horiz-adv-x="413" 
d="M375 190q0 -71 -39 -118.5t-106 -63.5l-3 -126h-85l3 119q-65 3 -111 20l23 112q50 -25 105 -25q41 0 63 20t22 54q0 32 -22.5 58t-54.5 46.5t-64 44.5t-54.5 65.5t-22.5 96.5q0 63 34.5 109t97.5 63l3 113h85l-3 -104q50 0 99 -15l-22 -106q-49 18 -88 18
q-38 0 -58.5 -18.5t-20.5 -50.5q0 -27 16 -49.5t40.5 -38t53 -37t53 -43.5t40.5 -59.5t16 -84.5z" />
    <glyph glyph-name="percent" unicode="%" horiz-adv-x="651" 
d="M568 659l-409 -686l-76 43l409 686zM163 610q-41 0 -41 -90q0 -91 41 -91t41 91q0 90 -41 90zM169 685q131 0 131 -160q0 -79 -38 -125t-105 -46q-131 0 -131 161q0 78 38.5 124t104.5 46zM488 246q-41 0 -41 -91q0 -90 41 -90t41 90q0 91 -41 91zM494 321
q131 0 131 -161q0 -78 -38.5 -124t-104.5 -46q-131 0 -131 160q0 79 38 125t105 46z" />
    <glyph glyph-name="ampersand" unicode="&#x26;" horiz-adv-x="642" 
d="M619 72l-75 -94q-76 67 -103 92q-85 -80 -200 -80q-102 0 -152.5 52t-50.5 135q0 60 25.5 106.5t74.5 91.5q-77 100 -77 185q0 70 48 118t127 48q73 0 116 -40.5t43 -109.5q0 -56 -26 -101t-80 -95q56 -65 140 -143q44 95 40 217h116q1 -164 -70 -291q56 -51 104 -91z
M362 140q-98 91 -155 160q-47 -53 -47 -109q0 -46 24.5 -72.5t68.5 -26.5q61 0 109 48zM224 452q55 57 55 115q0 31 -13.5 48.5t-37.5 17.5q-22 0 -36.5 -18t-14.5 -48q0 -52 47 -115z" />
    <glyph glyph-name="quotesingle" unicode="'" horiz-adv-x="179" 
d="M148 727l-14 -249h-88l-14 249h116z" />
    <glyph glyph-name="parenleft" unicode="(" horiz-adv-x="268" 
d="M252 -174l-99 -33q-114 245 -114 491q0 251 115 494l95 -31q-95 -214 -95 -458q0 -247 98 -463z" />
    <glyph glyph-name="parenright" unicode=")" horiz-adv-x="268" 
d="M16 746l99 32q113 -243 113 -491q0 -253 -114 -494l-95 32q95 214 95 457q0 246 -98 464z" />
    <glyph glyph-name="asterisk" unicode="*" horiz-adv-x="354" 
d="M332 529l-43 -74l-86 67l15 -110h-82l15 110l-85 -67l-43 73l102 42l-102 40l44 76l84 -68l-15 109h81l-14 -109l86 68l43 -75l-102 -40z" />
    <glyph glyph-name="plus" unicode="+" 
d="M423 250h-151v-166h-104v166h-151v100h151v165h104v-165h151v-100z" />
    <glyph glyph-name="comma" unicode="," horiz-adv-x="218" 
d="M69 -167l-49 43q77 97 32 152q-28 32 -10 73t66 41q33 0 54 -26t21 -69q0 -105 -114 -214z" />
    <glyph glyph-name="hyphen" unicode="-" horiz-adv-x="232" 
d="M214 252h-189v97h189v-97z" />
    <glyph glyph-name="period" unicode="." horiz-adv-x="218" 
d="M110 141q31 0 52.5 -22t21.5 -53t-21.5 -53t-52.5 -22q-32 0 -53.5 21.5t-21.5 53.5q0 31 22 53t53 22z" />
    <glyph glyph-name="slash" unicode="/" horiz-adv-x="372" 
d="M343 757l-217 -918h-115l218 918h114z" />
    <glyph glyph-name="zero" unicode="0" horiz-adv-x="491" 
d="M457 345q0 -181 -59 -268t-156 -87q-108 0 -158.5 79t-50.5 261t59.5 268.5t156.5 86.5q108 0 158 -78.5t50 -261.5zM332 336q0 249 -87 249q-44 0 -65 -58t-21 -188q0 -131 21 -190t65 -59t65.5 58.5t21.5 187.5z" />
    <glyph glyph-name="one" unicode="1" horiz-adv-x="293" 
d="M238 0h-121v553l-87 -42l-17 107l134 57h91v-675z" />
    <glyph glyph-name="two" unicode="2" horiz-adv-x="386" 
d="M357 0h-331v100l88 132q102 152 102 253q0 42 -17.5 67.5t-53.5 25.5q-40 0 -94 -31l-23 100q78 38 145 38q86 0 128.5 -50t42.5 -129q0 -130 -114 -303l-63 -95v-1q72 4 190 4v-111z" />
    <glyph glyph-name="three" unicode="3" horiz-adv-x="374" 
d="M344 206q0 -99 -62.5 -157t-161.5 -58q-48 0 -99 12l17 103q39 -14 79 -14q47 0 73.5 27.5t26.5 76.5q0 103 -116 103q-20 0 -44 -2v96q144 -6 144 107q0 85 -75 85q-36 0 -81 -22l-18 93q64 29 130 29q83 0 126 -44.5t43 -115.5q0 -112 -90 -156v-1q50 -15 79 -58
t29 -104z" />
    <glyph glyph-name="four" unicode="4" horiz-adv-x="448" 
d="M432 153h-72v-153h-120v153h-220l-9 91l165 431h184v-418h72v-104zM242 257v199q0 66 3 130h-2q-19 -64 -37 -109l-85 -222q29 2 121 2z" />
    <glyph glyph-name="five" unicode="5" horiz-adv-x="379" 
d="M354 219q0 -104 -63 -166t-163 -62q-44 0 -92 12l11 103q39 -14 79 -14q49 0 75.5 31t26.5 83q0 108 -124 108q-27 0 -51 -3v364h272v-112l-165 2v-150q95 -3 144.5 -53t49.5 -143z" />
    <glyph glyph-name="six" unicode="6" horiz-adv-x="463" 
d="M435 226q0 -108 -57 -172t-149 -64q-196 0 -196 291q0 403 282 403q43 0 74 -6l-12 -102q-28 8 -65 8q-68 0 -101.5 -44.5t-47.5 -126.5q-5 -30 -11 -45l2 -1q40 57 114 57q78 0 122.5 -54t44.5 -144zM310 211q0 115 -74 115q-37 0 -57.5 -29.5t-20.5 -76.5
q0 -57 18.5 -94t57.5 -37q38 0 57 32.5t19 89.5z" />
    <glyph glyph-name="seven" unicode="7" horiz-adv-x="369" 
d="M352 675v-99q-94 -274 -136 -576h-131q22 141 61.5 298t76.5 266q-50 -3 -206 -3v114h335z" />
    <glyph glyph-name="eight" unicode="8" horiz-adv-x="453" 
d="M424 177q0 -86 -58 -136.5t-144 -50.5q-93 0 -143 46.5t-50 123.5q0 56 26.5 98t77.5 81q-93 64 -93 167q0 78 53 128.5t139 50.5q84 0 132.5 -44t48.5 -116q0 -94 -93 -170q52 -35 78 -77t26 -101zM294 515q0 37 -18 58t-50 21t-50 -21.5t-18 -56.5q0 -62 72 -108
q64 51 64 107zM302 166q0 68 -81 119q-35 -28 -53 -54.5t-18 -61.5q0 -41 21 -64.5t57 -23.5q32 0 53 23.5t21 61.5z" />
    <glyph glyph-name="nine" unicode="9" horiz-adv-x="463" 
d="M28 449q0 108 57.5 172t148.5 64q196 0 196 -293q0 -401 -272 -401q-53 0 -99 10l13 105q48 -15 88 -15q64 0 95 43.5t43 125.5q2 13 12 47h-2q-40 -56 -112 -56q-79 0 -123.5 54t-44.5 144zM153 464q0 -115 74 -115q37 0 58 29.5t21 76.5q0 56 -19 93.5t-58 37.5
q-38 0 -57 -32.5t-19 -89.5z" />
    <glyph glyph-name="colon" unicode=":" horiz-adv-x="244" 
d="M136 141q31 0 53 -22t22 -53t-22 -53t-53 -22t-53 22t-22 53t22 53t53 22zM136 435q31 0 53 -22.5t22 -52.5q0 -31 -22 -53.5t-53 -22.5t-53 22.5t-22 53.5q0 30 22 52.5t53 22.5z" />
    <glyph glyph-name="semicolon" unicode=";" horiz-adv-x="244" 
d="M136 435q31 0 53 -22.5t22 -52.5q0 -31 -22 -53.5t-53 -22.5t-53 22.5t-22 53.5q0 30 22 52.5t53 22.5zM95 -167l-49 43q42 53 49 89.5t-17 62.5q-28 32 -10 73t66 41q32 0 53.5 -26.5t21.5 -67.5q0 -108 -114 -215z" />
    <glyph glyph-name="less" unicode="&#x3c;" 
d="M394 89l-80 -78l-283 288l283 287l78 -76l-213 -210z" />
    <glyph glyph-name="equal" unicode="=" 
d="M402 348h-364v97h364v-97zM402 156h-364v97h364v-97z" />
    <glyph glyph-name="greater" unicode="&#x3e;" 
d="M46 508l80 78l283 -287l-283 -288l-78 77l213 210z" />
    <glyph glyph-name="question" unicode="?" horiz-adv-x="353" 
d="M330 515q0 -43 -16.5 -77.5t-38.5 -55t-43 -49.5t-29 -59.5t2 -86.5h-113q-15 59 -9.5 95.5t25 68.5t41 52.5t38 47t16.5 52.5q0 46 -42 75t-118 32l15 108q136 -6 204 -63t68 -140zM150 134q31 0 51.5 -21t20.5 -51t-20.5 -50.5t-51.5 -20.5q-29 0 -50 20.5t-21 50.5
t21 51t50 21z" />
    <glyph glyph-name="at" unicode="@" horiz-adv-x="739" 
d="M705 405q0 -139 -56.5 -213t-148.5 -74q-43 0 -65 26t-20 68h-1q-15 -38 -47 -66t-71 -28q-41 0 -65 36.5t-24 105.5q0 118 51 190t153 72q49 0 112 -14l-27 -194q-8 -54 -2 -77t28 -23q35 0 57.5 45t22.5 132q0 109 -47 176t-149 67q-78 0 -139.5 -50t-93.5 -130.5
t-32 -174.5q0 -135 57 -207t171 -72q79 0 152 26l18 -86q-74 -30 -186 -30q-152 0 -233.5 96t-81.5 260q0 123 48 227t135 165.5t194 61.5q140 0 215 -88.5t75 -226.5zM413 436q-16 4 -33 4q-34 0 -52.5 -52.5t-18.5 -107.5q0 -66 20 -66q23 0 44.5 47t32.5 130z" />
    <glyph glyph-name="A" unicode="A" horiz-adv-x="505" 
d="M505 0h-129l-33 139h-192l-34 -139h-117l164 675h174zM323 240l-49 204q-16 67 -27 141h-1q-10 -70 -26 -141l-49 -204h152z" />
    <glyph glyph-name="B" unicode="B" horiz-adv-x="468" 
d="M440 206q0 -92 -56.5 -150.5t-170.5 -58.5q-16 0 -70.5 1t-93.5 2v675q98 4 176 4q199 0 199 -174q0 -104 -84 -147v-1q100 -31 100 -151zM300 490q0 91 -84 91q-9 0 -47 -2v-184q15 -1 42 -1q89 0 89 96zM312 200q0 98 -103 98q-27 0 -40 -1v-197q42 -3 51 -3
q45 0 68.5 27.5t23.5 75.5z" />
    <glyph glyph-name="C" unicode="C" horiz-adv-x="421" 
d="M407 23q-62 -32 -138 -32q-127 0 -184.5 85.5t-57.5 246.5q0 165 64.5 262.5t190.5 97.5q66 0 120 -23l-26 -107q-43 20 -87 20q-130 0 -130 -238q0 -233 128 -233q48 0 93 24z" />
    <glyph glyph-name="D" unicode="D" horiz-adv-x="517" 
d="M491 347q0 -350 -283 -350q-77 0 -159 5v672q84 4 174 4q137 0 202.5 -75t65.5 -256zM363 340q0 126 -32.5 181t-105.5 55q-28 0 -56 -2v-469q26 -4 52 -4q70 0 106 56t36 183z" />
    <glyph glyph-name="E" unicode="E" horiz-adv-x="382" 
d="M346 0h-297v675h296v-103h-176v-178h166v-100h-166v-190h177v-104z" />
    <glyph glyph-name="F" unicode="F" horiz-adv-x="365" 
d="M340 572h-171v-184h161v-100h-161v-288h-120v675h291v-103z" />
    <glyph glyph-name="G" unicode="G" horiz-adv-x="518" 
d="M473 651l-35 -108q-77 34 -137 34q-80 0 -113.5 -61t-33.5 -179q0 -123 33.5 -181t103.5 -58q31 0 59 10v241h120v-318q-84 -41 -189 -41q-254 0 -254 336q0 166 68 262.5t212 96.5q85 0 166 -34z" />
    <glyph glyph-name="H" unicode="H" horiz-adv-x="542" 
d="M493 0h-120v291h-204v-291h-120v675h120v-278h204v278h120v-675z" />
    <glyph glyph-name="I" unicode="I" horiz-adv-x="218" 
d="M169 0h-120v675h120v-675z" />
    <glyph glyph-name="J" unicode="J" horiz-adv-x="262" 
d="M212 675v-484q0 -94 -33 -145t-115 -51q-36 0 -63 4v99q19 -4 40 -4q29 0 40.5 17.5t11.5 68.5v495h119z" />
    <glyph glyph-name="K" unicode="K" horiz-adv-x="465" 
d="M458 0h-135l-153 327h-1v-327h-120v675h120v-309h1l148 309h131l-162 -319z" />
    <glyph glyph-name="L" unicode="L" horiz-adv-x="341" 
d="M332 0h-283v675h120v-568h163v-107z" />
    <glyph glyph-name="M" unicode="M" horiz-adv-x="732" 
d="M428 0h-131l-91 420q-8 36 -27 152h-2q2 -91 -5 -177l-27 -395h-115l57 675h177l83 -375q13 -71 21 -146h1q11 86 23 146l81 375h172l57 -675h-122l-28 395q-5 68 -5 177h-2q-15 -99 -26 -152z" />
    <glyph glyph-name="N" unicode="N" horiz-adv-x="544" 
d="M494 0h-144l-141 356q-44 110 -62 185h-2q12 -130 12 -328v-213h-108v675h159l127 -314q44 -110 62 -185h2q-12 130 -12 328v171h107v-675z" />
    <glyph glyph-name="O" unicode="O" horiz-adv-x="564" 
d="M536 344q0 -160 -66 -257t-198 -97q-244 0 -244 341q0 159 66.5 256.5t197.5 97.5q244 0 244 -341zM410 335q0 243 -128 243q-127 0 -127 -238q0 -243 127 -243q128 0 128 238z" />
    <glyph glyph-name="P" unicode="P" horiz-adv-x="437" 
d="M419 470q0 -107 -60 -168.5t-160 -61.5q-20 0 -30 2v-242h-120v675q14 0 45.5 1.5t61 2t56.5 0.5q104 0 155.5 -54.5t51.5 -154.5zM296 463q0 115 -90 115q-23 0 -37 -1v-233q15 -3 34 -3q93 0 93 122z" />
    <glyph glyph-name="Q" unicode="Q" horiz-adv-x="564" 
d="M430 66q13 2 56.5 -8.5t73.5 -4.5v-104q-73 -10 -105 -0.5t-80 25.5t-89 16h-14q-244 0 -244 341q0 159 66.5 256.5t197.5 97.5q244 0 244 -341q0 -210 -106 -278zM410 335q0 243 -128 243q-127 0 -127 -238q0 -243 127 -243q128 0 128 238z" />
    <glyph glyph-name="R" unicode="R" horiz-adv-x="450" 
d="M443 0h-135l-122 283h-17v-283h-120v675q61 4 160 4q208 0 208 -194q0 -69 -32.5 -116t-85.5 -64q25 -46 37 -75zM292 479q0 99 -87 99q-24 0 -36 -1v-200q14 -2 32 -2q91 0 91 104z" />
    <glyph glyph-name="S" unicode="S" horiz-adv-x="401" 
d="M372 190q0 -89 -56 -144t-155 -55q-74 0 -130 21l23 112q49 -26 102 -26q88 0 88 82q0 35 -22.5 61.5t-54.5 47t-64 44.5t-54.5 66t-22.5 99q0 81 55 134t149 53q60 0 112 -16l-22 -104q-44 19 -86 19q-40 0 -60.5 -22t-20.5 -57q0 -33 22.5 -59t54.5 -47t64.5 -45
t55 -66t22.5 -98z" />
    <glyph glyph-name="T" unicode="T" horiz-adv-x="402" 
d="M390 571h-129v-571h-120v571h-129v104h378v-104z" />
    <glyph glyph-name="U" unicode="U" horiz-adv-x="539" 
d="M491 241q0 -119 -55.5 -185t-168.5 -66q-122 0 -170.5 61t-48.5 176v448h120v-437q0 -75 24 -111t77 -36t77.5 34t24.5 105v445h120v-434z" />
    <glyph glyph-name="V" unicode="V" horiz-adv-x="500" 
d="M498 675l-160 -675h-173l-163 675h129l94 -419q19 -84 30 -157h1q6 48 30 160l91 416h121z" />
    <glyph glyph-name="W" unicode="W" horiz-adv-x="785" 
d="M772 675l-118 -675h-179l-67 412q-12 83 -18 164h-1q-5 -72 -17 -166l-66 -410h-173l-119 675h124l69 -414q9 -54 19 -158h1q7 83 15 140l69 432h169l71 -425q7 -50 16 -147h1q8 85 19 164l65 408h120z" />
    <glyph glyph-name="X" unicode="X" horiz-adv-x="494" 
d="M486 0h-140l-60 145q-24 61 -44 127q-21 -73 -42 -128l-56 -144h-136l156 350l-145 325h137l52 -127q20 -51 43 -125h1q14 48 41 124l48 128h134l-145 -325z" />
    <glyph glyph-name="Y" unicode="Y" horiz-adv-x="455" 
d="M457 675l-168 -443v-232h-120v232l-170 443h131l69 -204q20 -59 32 -113h1q15 59 32 109l67 208h126z" />
    <glyph glyph-name="Z" unicode="Z" horiz-adv-x="409" 
d="M378 0h-347v95l201 473q-52 -4 -99 -4h-96v111h337v-93l-201 -474q42 5 109 5h96v-113z" />
    <glyph glyph-name="bracketleft" unicode="[" horiz-adv-x="264" 
d="M237 -204h-186v980h186v-96h-75v-786h75v-98z" />
    <glyph glyph-name="backslash" unicode="\" horiz-adv-x="372" 
d="M361 -161h-115l-217 918h115z" />
    <glyph glyph-name="bracketright" unicode="]" horiz-adv-x="264" 
d="M213 -204h-185v98h75v786h-75v96h185v-980z" />
    <glyph glyph-name="asciicircum" unicode="^" 
d="M416 378l-89 -38l-108 235l-110 -235l-82 37l149 298h89z" />
    <glyph glyph-name="underscore" unicode="_" 
d="M440 -231h-440v94h440v-94z" />
    <glyph glyph-name="grave" unicode="`" horiz-adv-x="276" 
d="M246 610l-48 -55l-151 112l62 73z" />
    <glyph glyph-name="a" unicode="a" horiz-adv-x="417" 
d="M372 0h-105q0 59 4 79l-1 1q-12 -40 -46 -64.5t-78 -24.5q-58 0 -91 35.5t-33 103.5q0 83 61 129t170 45v28q0 44 -16.5 64t-53.5 20q-53 0 -114 -35l-25 85q79 41 158 41q86 0 127 -40t41 -125v-211q0 -90 2 -131zM253 200v22q-117 4 -117 -80q0 -60 43 -60
q31 0 52.5 34.5t21.5 83.5z" />
    <glyph glyph-name="b" unicode="b" horiz-adv-x="449" 
d="M426 271q0 -134 -57 -206.5t-168 -72.5q-75 0 -153 20v705h118v-179q0 -62 -12 -119h2q37 88 122 88q72 0 110 -59t38 -177zM303 258q0 147 -58 147q-35 0 -57 -47t-22 -119v-142q25 -9 46 -9q45 0 68 39.5t23 130.5z" />
    <glyph glyph-name="c" unicode="c" horiz-adv-x="332" 
d="M318 19q-52 -27 -111 -27q-183 0 -183 243q0 132 52.5 201t152.5 69q47 0 85 -15l-23 -103q-29 17 -61 17q-83 0 -83 -156q0 -154 82 -154q33 0 67 20z" />
    <glyph glyph-name="d" unicode="d" horiz-adv-x="449" 
d="M401 0h-108q0 45 9 88h-2q-37 -98 -129 -98q-71 0 -109 59.5t-38 176.5q0 133 55.5 204.5t161.5 71.5q21 0 42 -3v218h118v-717zM283 258v141q-20 8 -46 8q-44 0 -67.5 -39t-23.5 -129q0 -147 58 -147q35 0 57 47t22 119z" />
    <glyph glyph-name="e" unicode="e" horiz-adv-x="420" 
d="M393 289q0 -32 -3 -65h-245v-6q0 -136 101 -136q56 0 115 30l24 -85q-76 -37 -158 -37q-103 0 -152.5 60.5t-49.5 193.5q0 114 48 188.5t147 74.5q86 0 129.5 -57t43.5 -161zM277 306q0 113 -62 113q-63 0 -68 -113h130z" />
    <glyph glyph-name="f" unicode="f" horiz-adv-x="268" 
d="M294 716l-19 -95q-17 7 -39 7q-55 0 -55 -80v-51h81v-93h-81v-404h-118v404h-62v93h62v47q0 181 158 181q40 0 73 -9z" />
    <glyph glyph-name="g" unicode="g" horiz-adv-x="429" 
d="M419 -46q0 -79 -63.5 -132t-159.5 -53q-178 0 -178 143q0 36 20 69t49 51q-43 24 -43 79q0 59 50 88q-62 35 -62 130q0 76 46.5 127t131.5 51q38 0 69 -10h132v-93h-51q19 -29 19 -61q0 -80 -46.5 -125.5t-130.5 -45.5q-14 0 -25 3q-17 -11 -17 -31q0 -17 12.5 -24
t43.5 -9l55 -4q148 -12 148 -153zM269 337q0 85 -63 85q-29 0 -46 -22.5t-17 -62.5q0 -84 63 -84t63 84zM301 -59q0 60 -63 65l-46 2q-13 1 -24 3q-35 -33 -35 -76q0 -37 22 -55.5t57 -18.5q42 0 65.5 22.5t23.5 57.5z" />
    <glyph glyph-name="h" unicode="h" horiz-adv-x="455" 
d="M408 0h-117v327q0 41 -10 59.5t-33 18.5q-34 0 -58 -45t-24 -114v-246h-118v717h118v-182q0 -59 -12 -116h2q16 40 50.5 64t78.5 24q123 0 123 -157v-350z" />
    <glyph glyph-name="i" unicode="i" horiz-adv-x="214" 
d="M166 0h-118v497h118v-497zM107 697q30 0 50.5 -21t20.5 -51q0 -29 -21 -50t-50 -21q-30 0 -50.5 21t-20.5 50q0 30 21 51t50 21z" />
    <glyph glyph-name="j" unicode="j" horiz-adv-x="214" 
d="M166 497v-531q0 -98 -40 -146.5t-124 -48.5q-29 0 -57 10l14 98q22 -8 42 -8q26 0 36.5 20t10.5 68v538h118zM107 697q30 0 50.5 -21t20.5 -51q0 -29 -21 -50t-50 -21q-30 0 -50.5 21t-20.5 50q0 30 21 51t50 21z" />
    <glyph glyph-name="k" unicode="k" horiz-adv-x="413" 
d="M411 0h-131l-113 245h-1v-245h-118v717h118v-438h1l102 218h131l-119 -226z" />
    <glyph glyph-name="l" unicode="l" horiz-adv-x="214" 
d="M166 0h-118v717h118v-717z" />
    <glyph glyph-name="m" unicode="m" horiz-adv-x="694" 
d="M647 0h-117v327q0 41 -9.5 59.5t-32.5 18.5q-34 0 -57.5 -44.5t-23.5 -114.5v-246h-118v327q0 41 -9.5 59.5t-32.5 18.5q-34 0 -57.5 -45t-23.5 -114v-246h-118v497h108q0 -41 -9 -88h2q18 45 53.5 71.5t81.5 26.5q100 0 105 -98h2q17 44 52 71t81 27q123 0 123 -157
v-350z" />
    <glyph glyph-name="n" unicode="n" horiz-adv-x="455" 
d="M408 0h-117v328q0 40 -10 58.5t-33 18.5q-34 0 -58 -45t-24 -114v-246h-118v497h108q0 -43 -9 -88h2q18 45 53.5 71.5t81.5 26.5q124 0 124 -157v-350z" />
    <glyph glyph-name="o" unicode="o" horiz-adv-x="445" 
d="M421 254q0 -123 -52.5 -193.5t-153.5 -70.5q-100 0 -145.5 62.5t-45.5 190.5q0 122 53 193t153 71q101 0 146 -62t45 -191zM300 243q0 85 -18.5 126t-59.5 41q-77 0 -77 -156q0 -85 18.5 -126t59.5 -41q77 0 77 156z" />
    <glyph glyph-name="p" unicode="p" horiz-adv-x="449" 
d="M426 271q0 -133 -56 -204.5t-162 -71.5q-23 0 -42 4v-220h-118v718h108q0 -41 -9 -88h2q39 98 129 98q72 0 110 -59t38 -177zM303 258q0 147 -58 147q-35 0 -57 -47t-22 -119v-140q19 -9 46 -9q45 0 68 38.5t23 129.5z" />
    <glyph glyph-name="q" unicode="q" horiz-adv-x="449" 
d="M401 -221h-118v181q0 60 12 118h-1q-39 -88 -123 -88q-71 0 -109 59.5t-38 176.5q0 134 56.5 206.5t167.5 72.5q75 0 153 -20v-706zM283 258v142q-25 9 -46 9q-91 0 -91 -170q0 -147 58 -147q35 0 57 47t22 119z" />
    <glyph glyph-name="r" unicode="r" horiz-adv-x="291" 
d="M283 506l-7 -120q-55 14 -82.5 -32t-27.5 -151v-203h-118v497h108q0 -44 -9 -98h1q40 119 135 107z" />
    <glyph glyph-name="s" unicode="s" horiz-adv-x="330" 
d="M307 148q0 -68 -48.5 -113t-129.5 -45q-55 0 -99 15l19 98q40 -19 73 -19q31 0 46.5 15t15.5 39q0 22 -16 39t-39 31t-46 31.5t-39 48t-16 71.5q0 68 44.5 108t126.5 40q44 0 82 -11l-15 -93q-33 12 -60 12q-57 0 -57 -47q0 -21 16.5 -38t39.5 -31.5t46 -32.5t39.5 -48
t16.5 -70z" />
    <glyph glyph-name="t" unicode="t" horiz-adv-x="292" 
d="M279 7q-41 -15 -91 -15q-71 0 -98 36t-27 122v254h-62v93h62v132l118 32v-164h88v-93h-88v-230q0 -46 9 -63.5t32 -17.5q24 0 46 7z" />
    <glyph glyph-name="u" unicode="u" horiz-adv-x="455" 
d="M47 497h118v-328q0 -40 9.5 -58.5t32.5 -18.5q35 0 59 45t24 114v246h117v-497h-108q0 32 9 88h-1q-19 -45 -54 -71.5t-82 -26.5q-124 0 -124 157v350z" />
    <glyph glyph-name="v" unicode="v" horiz-adv-x="412" 
d="M412 497l-125 -497h-160l-126 497h127l56 -241q17 -99 26 -171h2q9 72 26 171l53 241h121z" />
    <glyph glyph-name="w" unicode="w" horiz-adv-x="641" 
d="M318 391h-1q-6 -80 -15 -126l-49 -265h-148l-97 497h120l47 -282q12 -78 13 -119h2q4 42 16 119l52 282h131l55 -281q13 -65 18 -120h1q4 59 13 120l43 281h114l-95 -497h-153l-51 265q-7 38 -16 126z" />
    <glyph glyph-name="x" unicode="x" horiz-adv-x="403" 
d="M397 0h-135l-36 97q-16 40 -29 94h-1q-13 -46 -30 -94l-35 -97h-125l109 254l-102 243h132l33 -84q15 -41 29 -95q16 57 30 95l31 84h122l-102 -243z" />
    <glyph glyph-name="y" unicode="y" horiz-adv-x="412" 
d="M412 497l-117 -474q-34 -144 -103.5 -204.5t-183.5 -46.5l12 99q63 -8 91.5 13.5t50.5 95.5l6 20h-38l-129 497h127l59 -241q17 -99 26 -171h2q15 110 26 171l50 241h121z" />
    <glyph glyph-name="z" unicode="z" horiz-adv-x="343" 
d="M313 0h-283v85l146 309q-44 -2 -74 -2h-68v105h276v-86l-144 -305q27 1 80 1h67v-107z" />
    <glyph glyph-name="braceleft" unicode="{" horiz-adv-x="322" 
d="M285 -204h-28q-81 0 -118.5 52t-37.5 160v147q0 59 -19.5 84.5t-61.5 26.5v90q43 1 62 24.5t19 84.5v100q0 106 36.5 158.5t119.5 52.5h28v-96h-19q-32 0 -44 -24t-12 -88v-100q0 -140 -71 -156v-1q71 -15 71 -159v-142q0 -67 12 -92t44 -25h19v-97z" />
    <glyph glyph-name="bar" unicode="|" horiz-adv-x="223" 
d="M167 -200h-110v960h110v-960z" />
    <glyph glyph-name="braceright" unicode="}" horiz-adv-x="322" 
d="M37 776h28q81 0 118 -51.5t37 -159.5v-98q0 -59 20 -84.5t62 -26.5v-90q-44 -1 -63 -24.5t-19 -84.5v-149q0 -107 -36 -159.5t-119 -52.5h-28v97h19q32 0 44 23.5t12 87.5v150q0 140 71 156v1q-71 15 -71 159v93q0 68 -12 92.5t-45 24.5h-18v96z" />
    <glyph glyph-name="asciitilde" unicode="~" 
d="M410 578q0 -62 -33 -100.5t-88 -38.5q-28 0 -50 11.5t-33.5 26t-26 26t-28.5 11.5q-19 0 -26.5 -14t-7.5 -46h-87v12q0 62 32.5 100t87.5 38q36 0 61 -18.5t42.5 -37t34.5 -18.5q33 0 35 59h87v-11z" />
    <glyph glyph-name="uni00A0" unicode="&#xa0;" horiz-adv-x="175" 
 />
    <glyph glyph-name="exclamdown" unicode="&#xa1;" horiz-adv-x="248" 
d="M45 -139l18 526h102l18 -526h-138zM114 440q-30 0 -50.5 21t-20.5 51q0 29 20.5 50t50.5 21t51 -21t21 -50q0 -30 -21 -51t-51 -21z" />
    <glyph glyph-name="cent" unicode="&#xa2;" horiz-adv-x="362" 
d="M321 218l17 -95q-41 -23 -83 -28v-121h-88v122q-140 30 -140 239q0 220 140 260v106h88v-96q44 -3 80 -18l-20 -104q-40 21 -79 21q-87 0 -87 -156q0 -154 88 -154q43 0 84 24z" />
    <glyph glyph-name="sterling" unicode="&#xa3;" horiz-adv-x="383" 
d="M312 298h-95q4 -23 4 -50q0 -87 -50 -148q30 3 69 3h121v-103h-328v82q37 34 53 68t16 88q0 18 -4 60h-75v93h62q-9 59 -9 101q0 95 43.5 144t126.5 49q51 0 99 -17l-22 -102q-39 21 -69 21q-59 0 -59 -85q0 -41 11 -111h106v-93z" />
    <glyph glyph-name="currency" unicode="&#xa4;" horiz-adv-x="442" 
d="M423 75l-92 -60l-57 98q-26 -14 -59 -14q-26 0 -50 11l-54 -94l-91 59l56 99q-29 50 -29 137t32 140l-59 105l90 58l55 -94q31 14 63 14q28 0 52 -12l52 93l91 -60l-56 -98q28 -50 28 -133q0 -85 -33 -143zM293 318q0 58 -18.5 90t-53.5 32q-31 0 -51.5 -32t-20.5 -90
q0 -57 18.5 -91t53.5 -34q32 0 52 31t20 94z" />
    <glyph glyph-name="yen" unicode="&#xa5;" horiz-adv-x="484" 
d="M479 675l-178 -364v-14h120v-78h-120v-64h120v-78h-120v-77h-118v77h-121v78h121v64h-121v78h121v14l-178 364h132l73 -162q25 -60 35 -93h1q25 67 41 105l66 150h126z" />
    <glyph glyph-name="brokenbar" unicode="&#xa6;" horiz-adv-x="223" 
d="M167 171v-371h-110v371h110zM57 413v347h110v-347h-110z" />
    <glyph glyph-name="section" unicode="&#xa7;" horiz-adv-x="417" 
d="M373 233q0 -43 -18.5 -84.5t-46.5 -65.5q28 -44 28 -95q0 -72 -46.5 -118.5t-135.5 -46.5q-46 0 -79 9l15 102q29 -11 60 -11q28 0 43 18t15 50q0 25 -17.5 54.5t-42 59t-49 62t-42 75.5t-17.5 87q0 93 65 151q-26 38 -26 90q0 73 45 118.5t129 45.5q39 0 75 -9l-16 -100
q-27 8 -52 8q-55 0 -55 -59q0 -29 26.5 -68.5t57.5 -74.5t57.5 -89t26.5 -109zM267 220q0 15 -4 30.5t-8 26t-16.5 30.5t-18 29t-26 37t-27.5 38q-20 -27 -20 -69q0 -36 21.5 -75t77.5 -115q21 24 21 68z" />
    <glyph glyph-name="dieresis" unicode="&#xa8;" horiz-adv-x="401" 
d="M113 689q26 0 44 -18.5t18 -44.5t-18.5 -44.5t-44.5 -18.5t-44 18.5t-18 44.5t18.5 44.5t44.5 18.5zM279 689q26 0 44.5 -18.5t18.5 -44.5t-18.5 -44.5t-44.5 -18.5t-44 18.5t-18 44.5t18 44.5t44 18.5z" />
    <glyph glyph-name="copyright" unicode="&#xa9;" horiz-adv-x="616" 
d="M311 678q123 0 201.5 -93t78.5 -244q0 -152 -82 -248t-204 -96q-123 0 -201 93t-78 244q0 152 81.5 248t203.5 96zM308 601q-88 0 -141.5 -72.5t-53.5 -190.5q0 -119 53.5 -191.5t141.5 -72.5q87 0 141.5 72.5t54.5 190.5t-54 191t-142 73zM402 178q-38 -20 -89 -20
q-142 0 -142 172q0 92 39.5 142t112.5 50q41 0 76 -15l-19 -78q-24 10 -45 10q-59 0 -59 -102q0 -95 57 -95q22 0 49 11z" />
    <glyph glyph-name="ordfeminine" unicode="&#xaa;" horiz-adv-x="348" 
d="M302 330h-91q0 21 5 49l-2 1q-10 -26 -35 -42t-57 -16q-44 0 -69.5 26t-25.5 74q0 59 46.5 92t127.5 32v15q0 50 -52 50q-41 0 -80 -23l-27 69q57 27 120 27q138 0 138 -116v-153q0 -19 2 -85zM201 469v11q-78 3 -78 -49q0 -35 29 -35q21 0 35 21.5t14 51.5zM44 193v84
h258v-84h-258z" />
    <glyph glyph-name="guillemotleft" unicode="&#xab;" horiz-adv-x="457" 
d="M223 114l-95 -44l-95 210l96 210l91 -41l-75 -169zM407 438l-78 -158l80 -156l-92 -43l-100 199l101 200z" />
    <glyph glyph-name="logicalnot" unicode="&#xac;" 
d="M389 104h-104v144h-262v104h366v-248z" />
    <glyph glyph-name="uni00AD" unicode="&#xad;" horiz-adv-x="232" 
d="M214 252h-189v97h189v-97z" />
    <glyph glyph-name="registered" unicode="&#xae;" horiz-adv-x="475" 
d="M235 690q-61 0 -99.5 -50t-38.5 -135q0 -86 38.5 -136.5t100.5 -50.5q61 0 99.5 50t38.5 135q0 86 -39 136.5t-100 50.5zM236 748q89 0 147 -67t58 -177q0 -105 -59 -174.5t-147 -69.5q-89 0 -147 66.5t-58 177.5q0 105 59 174.5t147 69.5zM331 382h-76l-31 87h-9v-87
h-67v247h94q41 0 63 -20t22 -54q0 -53 -44 -70q5 -8 17 -32zM253 550q0 30 -28 30h-10v-62h9q29 0 29 32z" />
    <glyph glyph-name="macron" unicode="&#xaf;" horiz-adv-x="326" 
d="M287 575h-249v88h249v-88z" />
    <glyph glyph-name="macron" unicode="&#x2c9;" horiz-adv-x="326" 
d="M287 575h-249v88h249v-88z" />
    <glyph glyph-name="degree" unicode="&#xb0;" horiz-adv-x="336" 
d="M291 601q0 -64 -38.5 -101.5t-91.5 -37.5q-56 0 -88.5 37t-32.5 100q0 62 39 100t89 38q62 0 92.5 -38t30.5 -98zM206 602q0 24 -10 42t-29 18q-18 0 -30 -17.5t-12 -44.5q0 -28 11.5 -44.5t29.5 -16.5t29 17.5t11 45.5z" />
    <glyph glyph-name="plusminus" unicode="&#xb1;" 
d="M411 0h-382v98h382v-98zM414 316h-142v-158h-104v158h-142v98h142v157h104v-157h142v-98z" />
    <glyph glyph-name="twosuperior" unicode="&#xb2;" horiz-adv-x="287" 
d="M259 370h-234v72l54 72q66 86 66 141q0 48 -40 48q-29 0 -61 -19l-18 74q53 23 104 23q62 0 91.5 -30t29.5 -79q0 -81 -71 -176l-36 -48q56 2 115 2v-80z" />
    <glyph glyph-name="threesuperior" unicode="&#xb3;" horiz-adv-x="275" 
d="M249 497q0 -61 -44.5 -97.5t-114.5 -36.5q-33 0 -69 9l12 73q22 -9 51 -9q27 0 43 14.5t16 39.5q0 52 -68 52q-23 0 -31 -1v69q89 -3 89 55q0 44 -45 44q-20 0 -51 -12l-14 68q45 16 94 16q58 0 89.5 -27t31.5 -70q0 -65 -58 -92v-1q32 -8 50.5 -34t18.5 -60z" />
    <glyph glyph-name="acute" unicode="&#xb4;" horiz-adv-x="285" 
d="M55 610l138 130l62 -72l-151 -113z" />
    <glyph glyph-name="mu" unicode="&#xb5;" horiz-adv-x="472" 
d="M459 89v-91q-26 -7 -55 -7q-55 0 -77.5 23.5t-18.5 71.5h-1q-13 -42 -40 -68.5t-66 -26.5q-32 0 -46 25l13 -237h-120v718h118v-328q0 -40 10 -58.5t33 -18.5q33 0 57.5 47t24.5 112v246h117v-343q0 -45 10 -56.5t41 -8.5z" />
    <glyph glyph-name="mu" unicode="&#x3bc;" horiz-adv-x="472" 
d="M459 89v-91q-26 -7 -55 -7q-55 0 -77.5 23.5t-18.5 71.5h-1q-13 -42 -40 -68.5t-66 -26.5q-32 0 -46 25l13 -237h-120v718h118v-328q0 -40 10 -58.5t33 -18.5q33 0 57.5 47t24.5 112v246h117v-343q0 -45 10 -56.5t41 -8.5z" />
    <glyph glyph-name="paragraph" unicode="&#xb6;" horiz-adv-x="483" 
d="M299 7v668h151v-97h-54v-669h-155v98h58zM235 675v-441q-98 0 -147 62t-49 160t55 158.5t141 60.5z" />
    <glyph glyph-name="periodcentered" unicode="&#xb7;" horiz-adv-x="229" 
d="M114 374q31 0 53 -21.5t22 -52.5q0 -32 -21.5 -53.5t-53.5 -21.5q-31 0 -52.5 22t-21.5 53t21.5 52.5t52.5 21.5z" />
    <glyph glyph-name="periodcentered" unicode="&#x2219;" horiz-adv-x="229" 
d="M114 374q31 0 53 -21.5t22 -52.5q0 -32 -21.5 -53.5t-53.5 -21.5q-31 0 -52.5 22t-21.5 53t21.5 52.5t52.5 21.5z" />
    <glyph glyph-name="cedilla" unicode="&#xb8;" horiz-adv-x="283" 
d="M178 -36q60 -89 -20 -172h-88q31 39 34 72t-25 73z" />
    <glyph glyph-name="onesuperior" unicode="&#xb9;" horiz-adv-x="220" 
d="M180 370h-101v317l-56 -25l-15 78l96 35h76v-405z" />
    <glyph glyph-name="ordmasculine" unicode="&#xba;" horiz-adv-x="357" 
d="M44 193v84h269v-84h-269zM331 508q0 -87 -40 -136.5t-118 -49.5q-147 0 -147 177q0 87 40 136.5t118 49.5q147 0 147 -177zM229 500q0 106 -51 106t-51 -99q0 -106 52 -106q50 0 50 99z" />
    <glyph glyph-name="guillemotright" unicode="&#xbb;" horiz-adv-x="457" 
d="M234 446l95 44l95 -210l-95 -210l-92 41l75 169zM51 122l78 158l-81 156l92 43l101 -199l-102 -200z" />
    <glyph glyph-name="onequarter" unicode="&#xbc;" horiz-adv-x="570" 
d="M180 381h-99v239l-54 -28l-18 72l83 41h88v-324zM547 28h-35v-58h-93v58h-134l-3 70l85 196h145v-199h35v-67zM423 95v151l-67 -152q16 1 67 1zM525 688l-441 -742l-76 41l441 743z" />
    <glyph glyph-name="onehalf" unicode="&#xbd;" horiz-adv-x="587" 
d="M180 381h-99v239l-54 -28l-18 72l83 41h88v-324zM558 -30h-221v68l47 51q35 38 47.5 59.5t12.5 42.5q0 35 -36 35q-24 0 -48 -20l-32 61q47 36 110 36q52 0 80.5 -27.5t28.5 -69.5q0 -34 -15.5 -62.5t-50.5 -63.5l-34 -36q16 1 60 1h51v-75zM525 688l-441 -742l-76 41
l441 743z" />
    <glyph glyph-name="threequarters" unicode="&#xbe;" horiz-adv-x="603" 
d="M253 483q0 -49 -39.5 -80t-106.5 -31q-45 0 -84 13l19 63q25 -12 59 -12q51 0 51 40q0 43 -60 43q-17 0 -37 -2v61h17q72 0 72 41q0 34 -45 34q-24 0 -54 -14l-17 56q46 19 96 19q57 0 87.5 -24t30.5 -59q0 -53 -51 -72q28 -7 45 -27.5t17 -48.5zM579 28h-34v-58h-94v58
h-133l-3 70l84 196h146v-199h34v-67zM455 95v151l-66 -152q15 1 66 1zM558 688l-441 -742l-76 41l441 743z" />
    <glyph glyph-name="questiondown" unicode="&#xbf;" horiz-adv-x="353" 
d="M22 59q0 42 17 77t38.5 55t42.5 49t29.5 60t-2.5 87h114q15 -59 9.5 -95.5t-25 -68.5t-41 -52.5t-38 -47t-16.5 -52.5q0 -46 41.5 -75t117.5 -33l-14 -107q-136 6 -204.5 63t-68.5 140zM202 440q-30 0 -50.5 21t-20.5 51q0 29 20.5 50t50.5 21t51 -21t21 -50
q0 -30 -21 -51t-51 -21z" />
    <glyph glyph-name="Agrave" unicode="&#xc0;" horiz-adv-x="505" 
d="M505 0h-129l-33 139h-192l-34 -139h-117l164 675h174zM323 240l-49 204q-16 67 -27 141h-1q-10 -70 -26 -141l-49 -204h152zM330 780l-23 -60l-185 49l32 83z" />
    <glyph glyph-name="Aacute" unicode="&#xc1;" horiz-adv-x="505" 
d="M505 0h-129l-33 139h-192l-34 -139h-117l164 675h174zM323 240l-49 204q-16 67 -27 141h-1q-10 -70 -26 -141l-49 -204h152zM169 780l175 72l32 -83l-185 -49z" />
    <glyph glyph-name="Acircumflex" unicode="&#xc2;" horiz-adv-x="505" 
d="M505 0h-129l-33 139h-192l-34 -139h-117l164 675h174zM323 240l-49 204q-16 67 -27 141h-1q-10 -70 -26 -141l-49 -204h152zM251 852l136 -74l-30 -58l-106 46l-106 -46l-30 58z" />
    <glyph glyph-name="Atilde" unicode="&#xc3;" horiz-adv-x="505" 
d="M505 0h-129l-33 139h-192l-34 -139h-117l164 675h174zM323 240l-49 204q-16 67 -27 141h-1q-10 -70 -26 -141l-49 -204h152zM353 844l60 -37q-37 -85 -111 -85q-33 0 -62 21t-42 21q-27 0 -46 -39l-60 38q35 84 110 84q34 0 62.5 -20.5t42.5 -20.5q26 0 46 38z" />
    <glyph glyph-name="Adieresis" unicode="&#xc4;" horiz-adv-x="505" 
d="M505 0h-129l-33 139h-192l-34 -139h-117l164 675h174zM323 240l-49 204q-16 67 -27 141h-1q-10 -70 -26 -141l-49 -204h152zM164 844q25 0 43 -18t18 -44t-18 -44t-43 -18q-26 0 -44 18t-18 44t18 44t44 18zM336 844q25 0 43 -18t18 -44t-18 -44t-43 -18q-26 0 -44 18
t-18 44t18 44t44 18z" />
    <glyph glyph-name="Aring" unicode="&#xc5;" horiz-adv-x="505" 
d="M505 0h-129l-33 139h-192l-34 -139h-117l164 675h174zM323 240l-49 204q-16 67 -27 141h-1q-10 -70 -26 -141l-49 -204h152zM367 802q0 -43 -30.5 -70t-88.5 -27q-110 0 -110 92q0 43 30.5 70t88.5 27q110 0 110 -92zM293 799q0 46 -42 46q-39 0 -39 -45q0 -46 42 -46
q39 0 39 45z" />
    <glyph glyph-name="AE" unicode="&#xc6;" horiz-adv-x="627" 
d="M592 0h-298v153h-148l-53 -153h-121l242 675h373v-103h-174v-178h166v-100h-166v-190h179v-104zM294 248v323h-8q-15 -55 -30 -95l-81 -228h119z" />
    <glyph glyph-name="Ccedilla" unicode="&#xc7;" horiz-adv-x="421" 
d="M407 23q-62 -32 -138 -32q-127 0 -184.5 85.5t-57.5 246.5q0 165 64.5 262.5t190.5 97.5q66 0 120 -23l-26 -107q-43 20 -87 20q-130 0 -130 -238q0 -233 128 -233q48 0 93 24zM290 -36q60 -89 -20 -172h-88q31 39 34 72t-25 73z" />
    <glyph glyph-name="Egrave" unicode="&#xc8;" horiz-adv-x="382" 
d="M346 0h-297v675h296v-103h-176v-178h166v-100h-166v-190h177v-104zM269 780l-23 -60l-185 49l32 83z" />
    <glyph glyph-name="Eacute" unicode="&#xc9;" horiz-adv-x="382" 
d="M346 0h-297v675h296v-103h-176v-178h166v-100h-166v-190h177v-104zM110 780l175 72l32 -83l-185 -49z" />
    <glyph glyph-name="Ecircumflex" unicode="&#xca;" horiz-adv-x="382" 
d="M346 0h-297v675h296v-103h-176v-178h166v-100h-166v-190h177v-104zM199 852l136 -74l-30 -58l-106 46l-106 -46l-30 58z" />
    <glyph glyph-name="Edieresis" unicode="&#xcb;" horiz-adv-x="382" 
d="M346 0h-297v675h296v-103h-176v-178h166v-100h-166v-190h177v-104zM111 844q25 0 43 -18t18 -44t-18 -44t-43 -18q-26 0 -44 18t-18 44t18 44t44 18zM283 844q25 0 43 -18t18 -44t-18 -44t-43 -18q-26 0 -44 18t-18 44t18 44t44 18z" />
    <glyph glyph-name="Igrave" unicode="&#xcc;" horiz-adv-x="218" 
d="M169 0h-120v675h120v-675zM186 780l-23 -60l-185 49l32 83z" />
    <glyph glyph-name="Iacute" unicode="&#xcd;" horiz-adv-x="218" 
d="M169 0h-120v675h120v-675zM30 780l175 72l32 -83l-185 -49z" />
    <glyph glyph-name="Icircumflex" unicode="&#xce;" horiz-adv-x="218" 
d="M169 0h-120v675h120v-675zM111 852l136 -74l-30 -58l-106 46l-106 -46l-30 58z" />
    <glyph glyph-name="Idieresis" unicode="&#xcf;" horiz-adv-x="218" 
d="M32 842q25 0 42 -18t17 -43q0 -26 -17 -43.5t-42 -17.5t-42.5 17.5t-17.5 43.5t17.5 43.5t42.5 17.5zM187 842q25 0 42.5 -18t17.5 -43q0 -26 -17.5 -43.5t-42.5 -17.5t-42.5 18t-17.5 43t17.5 43t42.5 18zM169 0h-120v675h120v-675z" />
    <glyph glyph-name="Eth" unicode="&#xd0;" horiz-adv-x="527" 
d="M59 391v284q126 3 174 3q137 0 202.5 -75t65.5 -256q0 -350 -283 -350q-61 0 -159 4v296h-51v94h51zM179 391h87v-94h-87v-192q26 -4 52 -4q70 0 106 56t36 183q0 126 -32.5 181t-105.5 55q-28 0 -56 -2v-183z" />
    <glyph glyph-name="Ntilde" unicode="&#xd1;" horiz-adv-x="544" 
d="M494 0h-144l-141 356q-44 110 -62 185h-2q12 -130 12 -328v-213h-108v675h159l127 -314q44 -110 62 -185h2q-12 130 -12 328v171h107v-675zM373 844l60 -37q-37 -85 -111 -85q-33 0 -62 21t-42 21q-27 0 -46 -39l-60 38q35 84 110 84q34 0 62.5 -20.5t42.5 -20.5
q26 0 46 38z" />
    <glyph glyph-name="Ograve" unicode="&#xd2;" horiz-adv-x="564" 
d="M536 344q0 -160 -66 -257t-198 -97q-244 0 -244 341q0 159 66.5 256.5t197.5 97.5q244 0 244 -341zM410 335q0 243 -128 243q-127 0 -127 -238q0 -243 127 -243q128 0 128 238zM353 780l-23 -60l-185 49l32 83z" />
    <glyph glyph-name="Oacute" unicode="&#xd3;" horiz-adv-x="564" 
d="M536 344q0 -160 -66 -257t-198 -97q-244 0 -244 341q0 159 66.5 256.5t197.5 97.5q244 0 244 -341zM410 335q0 243 -128 243q-127 0 -127 -238q0 -243 127 -243q128 0 128 238zM223 780l175 72l32 -83l-185 -49z" />
    <glyph glyph-name="Ocircumflex" unicode="&#xd4;" horiz-adv-x="564" 
d="M536 344q0 -160 -66 -257t-198 -97q-244 0 -244 341q0 159 66.5 256.5t197.5 97.5q244 0 244 -341zM410 335q0 243 -128 243q-127 0 -127 -238q0 -243 127 -243q128 0 128 238zM287 852l136 -74l-30 -58l-106 46l-106 -46l-30 58z" />
    <glyph glyph-name="Otilde" unicode="&#xd5;" horiz-adv-x="564" 
d="M536 344q0 -160 -66 -257t-198 -97q-244 0 -244 341q0 159 66.5 256.5t197.5 97.5q244 0 244 -341zM410 335q0 243 -128 243q-127 0 -127 -238q0 -243 127 -243q128 0 128 238zM383 844l60 -37q-37 -85 -111 -85q-33 0 -62 21t-42 21q-27 0 -46 -39l-60 38q35 84 110 84
q34 0 62.5 -20.5t42.5 -20.5q26 0 46 38z" />
    <glyph glyph-name="Odieresis" unicode="&#xd6;" horiz-adv-x="564" 
d="M536 344q0 -160 -66 -257t-198 -97q-244 0 -244 341q0 159 66.5 256.5t197.5 97.5q244 0 244 -341zM410 335q0 243 -128 243q-127 0 -127 -238q0 -243 127 -243q128 0 128 238zM199 844q25 0 43 -18t18 -44t-18 -44t-43 -18q-26 0 -44 18t-18 44t18 44t44 18zM371 844
q25 0 43 -18t18 -44t-18 -44t-43 -18q-26 0 -44 18t-18 44t18 44t44 18z" />
    <glyph glyph-name="multiply" unicode="&#xd7;" 
d="M280 300l133 -163l-72 -59l-121 149l-121 -149l-72 59l133 163l-133 162l72 59l121 -148l121 148l72 -59z" />
    <glyph glyph-name="Oslash" unicode="&#xd8;" horiz-adv-x="564" 
d="M491 723l-40 -95q85 -84 85 -284q0 -160 -66 -257t-198 -97q-46 0 -78 13l-35 -86l-86 35l40 95q-85 81 -85 284q0 159 66.5 256.5t197.5 97.5q41 0 79 -13l35 86zM167 175l163 397q-19 12 -46 12q-135 0 -135 -244q0 -83 16 -165h2zM280 91q135 0 135 244q0 78 -15 164
h-3l-162 -396q18 -12 45 -12z" />
    <glyph glyph-name="Ugrave" unicode="&#xd9;" horiz-adv-x="539" 
d="M491 241q0 -119 -55.5 -185t-168.5 -66q-122 0 -170.5 61t-48.5 176v448h120v-437q0 -75 24 -111t77 -36t77.5 34t24.5 105v445h120v-434zM323 780l-23 -60l-185 49l32 83z" />
    <glyph glyph-name="Uacute" unicode="&#xda;" horiz-adv-x="539" 
d="M491 241q0 -119 -55.5 -185t-168.5 -66q-122 0 -170.5 61t-48.5 176v448h120v-437q0 -75 24 -111t77 -36t77.5 34t24.5 105v445h120v-434zM214 780l175 72l32 -83l-185 -49z" />
    <glyph glyph-name="Ucircumflex" unicode="&#xdb;" horiz-adv-x="539" 
d="M491 241q0 -119 -55.5 -185t-168.5 -66q-122 0 -170.5 61t-48.5 176v448h120v-437q0 -75 24 -111t77 -36t77.5 34t24.5 105v445h120v-434zM271 852l136 -74l-30 -58l-106 46l-106 -46l-30 58z" />
    <glyph glyph-name="Udieresis" unicode="&#xdc;" horiz-adv-x="539" 
d="M491 241q0 -119 -55.5 -185t-168.5 -66q-122 0 -170.5 61t-48.5 176v448h120v-437q0 -75 24 -111t77 -36t77.5 34t24.5 105v445h120v-434zM183 844q25 0 43 -18t18 -44t-18 -44t-43 -18q-26 0 -44 18t-18 44t18 44t44 18zM355 844q25 0 43 -18t18 -44t-18 -44t-43 -18
q-26 0 -44 18t-18 44t18 44t44 18z" />
    <glyph glyph-name="Yacute" unicode="&#xdd;" horiz-adv-x="455" 
d="M457 675l-168 -443v-232h-120v232l-170 443h131l69 -204q20 -59 32 -113h1q15 59 32 109l67 208h126zM180 780l175 72l32 -83l-185 -49z" />
    <glyph glyph-name="Thorn" unicode="&#xde;" horiz-adv-x="443" 
d="M426 363q0 -112 -62.5 -174.5t-163.5 -62.5q-21 0 -31 1v-127h-120v675h120v-95h44q106 0 159.5 -56.5t53.5 -160.5zM302 356q0 124 -94 124q-25 0 -39 -1v-250q20 -2 36 -2q47 0 72 33t25 96z" />
    <glyph glyph-name="germandbls" unicode="&#xdf;" horiz-adv-x="493" 
d="M471 150q0 -72 -48.5 -116t-133.5 -44q-42 0 -75 10l10 97q33 -14 67 -14q29 0 44.5 16t15.5 41q0 24 -14 44t-34 36t-40 34.5t-34 48.5t-14 69q0 33 13 59.5t28 41.5t28 39.5t13 54.5q0 66 -59 66q-71 0 -71 -113v-520h-118v503q0 111 53 167t143 56q82 0 127 -42
t45 -107q0 -31 -8.5 -55.5t-21 -40t-25 -29t-21 -29.5t-8.5 -35q0 -21 14 -40.5t34.5 -37t41 -37.5t34.5 -51.5t14 -71.5z" />
    <glyph glyph-name="agrave" unicode="&#xe0;" horiz-adv-x="417" 
d="M372 0h-105q0 59 4 79l-1 1q-12 -40 -46 -64.5t-78 -24.5q-58 0 -91 35.5t-33 103.5q0 83 61 129t170 45v28q0 44 -16.5 64t-53.5 20q-53 0 -114 -35l-25 85q79 41 158 41q86 0 127 -40t41 -125v-211q0 -90 2 -131zM253 200v22q-117 4 -117 -80q0 -60 43 -60
q31 0 52.5 34.5t21.5 83.5zM280 610l-48 -55l-151 112l62 73z" />
    <glyph glyph-name="aacute" unicode="&#xe1;" horiz-adv-x="417" 
d="M372 0h-105q0 59 4 79l-1 1q-12 -40 -46 -64.5t-78 -24.5q-58 0 -91 35.5t-33 103.5q0 83 61 129t170 45v28q0 44 -16.5 64t-53.5 20q-53 0 -114 -35l-25 85q79 41 158 41q86 0 127 -40t41 -125v-211q0 -90 2 -131zM253 200v22q-117 4 -117 -80q0 -60 43 -60
q31 0 52.5 34.5t21.5 83.5zM144 610l138 130l62 -72l-151 -113z" />
    <glyph glyph-name="acircumflex" unicode="&#xe2;" horiz-adv-x="417" 
d="M372 0h-105q0 59 4 79l-1 1q-12 -40 -46 -64.5t-78 -24.5q-58 0 -91 35.5t-33 103.5q0 83 61 129t170 45v28q0 44 -16.5 64t-53.5 20q-53 0 -114 -35l-25 85q79 41 158 41q86 0 127 -40t41 -125v-211q0 -90 2 -131zM253 200v22q-117 4 -117 -80q0 -60 43 -60
q31 0 52.5 34.5t21.5 83.5zM339 606l-47 -54l-90 76l-87 -76l-47 54l135 130z" />
    <glyph glyph-name="atilde" unicode="&#xe3;" horiz-adv-x="417" 
d="M372 0h-105q0 59 4 79l-1 1q-12 -40 -46 -64.5t-78 -24.5q-58 0 -91 35.5t-33 103.5q0 83 61 129t170 45v28q0 44 -16.5 64t-53.5 20q-53 0 -114 -35l-25 85q79 41 158 41q86 0 127 -40t41 -125v-211q0 -90 2 -131zM253 200v22q-117 4 -117 -80q0 -60 43 -60
q31 0 52.5 34.5t21.5 83.5zM300 687l59 -39q-36 -88 -105 -88q-32 0 -60 21.5t-40 21.5q-21 0 -40 -40l-60 40q35 87 105 87q32 0 60 -21t40 -21q21 0 41 39z" />
    <glyph glyph-name="adieresis" unicode="&#xe4;" horiz-adv-x="417" 
d="M372 0h-105q0 59 4 79l-1 1q-12 -40 -46 -64.5t-78 -24.5q-58 0 -91 35.5t-33 103.5q0 83 61 129t170 45v28q0 44 -16.5 64t-53.5 20q-53 0 -114 -35l-25 85q79 41 158 41q86 0 127 -40t41 -125v-211q0 -90 2 -131zM253 200v22q-117 4 -117 -80q0 -60 43 -60
q31 0 52.5 34.5t21.5 83.5zM124 689q26 0 44 -18.5t18 -44.5t-18.5 -44.5t-44.5 -18.5t-44 18.5t-18 44.5t18.5 44.5t44.5 18.5zM290 689q26 0 44.5 -18.5t18.5 -44.5t-18.5 -44.5t-44.5 -18.5t-44 18.5t-18 44.5t18 44.5t44 18.5z" />
    <glyph glyph-name="aring" unicode="&#xe5;" horiz-adv-x="417" 
d="M372 0h-105q0 59 4 79l-1 1q-12 -40 -46 -64.5t-78 -24.5q-58 0 -91 35.5t-33 103.5q0 83 61 129t170 45v28q0 44 -16.5 64t-53.5 20q-53 0 -114 -35l-25 85q79 41 158 41q86 0 127 -40t41 -125v-211q0 -90 2 -131zM253 200v22q-117 4 -117 -80q0 -60 43 -60
q31 0 52.5 34.5t21.5 83.5zM323 659q0 -47 -30.5 -78t-88.5 -31q-109 0 -109 104q0 48 30.5 78.5t88.5 30.5q109 0 109 -104zM247 654q0 53 -38 53t-38 -48q0 -53 38 -53t38 48z" />
    <glyph glyph-name="ae" unicode="&#xe6;" horiz-adv-x="642" 
d="M324 453q40 54 119 54q85 0 129 -57t44 -161q0 -32 -3 -65h-245v-6q0 -135 100 -135q56 0 116 30l24 -85q-77 -37 -159 -37q-117 0 -155 89q-24 -42 -63 -65.5t-85 -23.5q-58 0 -91 35.5t-33 103.5q0 83 61 129t170 45v28q0 44 -16.5 64t-53.5 20q-53 0 -114 -35l-25 85
q79 41 158 41q90 0 122 -54zM253 200v22q-117 4 -117 -80q0 -60 43 -60q31 0 52.5 34.5t21.5 83.5zM499 306q0 113 -61 113q-63 0 -69 -113h130z" />
    <glyph glyph-name="ccedilla" unicode="&#xe7;" horiz-adv-x="332" 
d="M318 19q-52 -27 -111 -27q-183 0 -183 243q0 132 52.5 201t152.5 69q47 0 85 -15l-23 -103q-29 17 -61 17q-83 0 -83 -156q0 -154 82 -154q33 0 67 20zM226 -36q60 -89 -20 -172h-88q31 39 34 72t-25 73z" />
    <glyph glyph-name="egrave" unicode="&#xe8;" horiz-adv-x="420" 
d="M393 289q0 -32 -3 -65h-245v-6q0 -136 101 -136q56 0 115 30l24 -85q-76 -37 -158 -37q-103 0 -152.5 60.5t-49.5 193.5q0 114 48 188.5t147 74.5q86 0 129.5 -57t43.5 -161zM277 306q0 113 -62 113q-63 0 -68 -113h130zM287 610l-48 -55l-151 112l62 73z" />
    <glyph glyph-name="eacute" unicode="&#xe9;" horiz-adv-x="420" 
d="M393 289q0 -32 -3 -65h-245v-6q0 -136 101 -136q56 0 115 30l24 -85q-76 -37 -158 -37q-103 0 -152.5 60.5t-49.5 193.5q0 114 48 188.5t147 74.5q86 0 129.5 -57t43.5 -161zM277 306q0 113 -62 113q-63 0 -68 -113h130zM146 610l138 130l62 -72l-151 -113z" />
    <glyph glyph-name="ecircumflex" unicode="&#xea;" horiz-adv-x="420" 
d="M393 289q0 -32 -3 -65h-245v-6q0 -136 101 -136q56 0 115 30l24 -85q-76 -37 -158 -37q-103 0 -152.5 60.5t-49.5 193.5q0 114 48 188.5t147 74.5q86 0 129.5 -57t43.5 -161zM277 306q0 113 -62 113q-63 0 -68 -113h130zM349 606l-47 -54l-90 76l-87 -76l-47 54l135 130z
" />
    <glyph glyph-name="edieresis" unicode="&#xeb;" horiz-adv-x="420" 
d="M393 289q0 -32 -3 -65h-245v-6q0 -136 101 -136q56 0 115 30l24 -85q-76 -37 -158 -37q-103 0 -152.5 60.5t-49.5 193.5q0 114 48 188.5t147 74.5q86 0 129.5 -57t43.5 -161zM277 306q0 113 -62 113q-63 0 -68 -113h130zM131 689q26 0 44 -18.5t18 -44.5t-18.5 -44.5
t-44.5 -18.5t-44 18.5t-18 44.5t18.5 44.5t44.5 18.5zM297 689q26 0 44.5 -18.5t18.5 -44.5t-18.5 -44.5t-44.5 -18.5t-44 18.5t-18 44.5t18 44.5t44 18.5z" />
    <glyph glyph-name="igrave" unicode="&#xec;" horiz-adv-x="214" 
d="M166 0h-118v497h118v-497zM186 610l-48 -55l-151 112l62 73z" />
    <glyph glyph-name="iacute" unicode="&#xed;" horiz-adv-x="214" 
d="M166 0h-118v497h118v-497zM30 610l138 130l62 -72l-151 -113z" />
    <glyph glyph-name="icircumflex" unicode="&#xee;" horiz-adv-x="214" 
d="M226 605l-46 -55l-74 72l-73 -72l-45 53l119 137zM166 0h-118v497h118v-497z" />
    <glyph glyph-name="idieresis" unicode="&#xef;" horiz-adv-x="214" 
d="M166 0h-118v497h118v-497zM246 626q0 -26 -18 -44.5t-43 -18.5q-26 0 -44 18.5t-18 44.5t18 44.5t44 18.5q25 0 43 -18.5t18 -44.5zM91 626q0 -26 -18 -44.5t-44 -18.5q-25 0 -43 18.5t-18 44.5t18 44.5t43 18.5q26 0 44 -18.5t18 -44.5z" />
    <glyph glyph-name="eth" unicode="&#xf0;" horiz-adv-x="456" 
d="M300 273q0 137 -81 137q-74 0 -74 -152q0 -171 80 -171q75 0 75 186zM422 296q0 -157 -58 -231.5t-149 -74.5q-191 0 -191 252q0 118 53 190t137 72q38 0 55 -31h1q-3 6 -9 18.5t-8 18.5q-18 35 -36 56l-86 -41l-57 71q75 36 77 37q-31 28 -62 47l113 51q28 -18 60 -48
l83 38l57 -70l-78 -36q98 -133 98 -319z" />
    <glyph glyph-name="ntilde" unicode="&#xf1;" horiz-adv-x="455" 
d="M408 0h-117v328q0 40 -10 58.5t-33 18.5q-34 0 -58 -45t-24 -114v-246h-118v497h108q0 -43 -9 -88h2q18 45 53.5 71.5t81.5 26.5q124 0 124 -157v-350zM321 687l59 -39q-36 -88 -105 -88q-32 0 -60 21.5t-40 21.5q-21 0 -40 -40l-60 40q35 87 105 87q32 0 60 -21t40 -21
q21 0 41 39z" />
    <glyph glyph-name="ograve" unicode="&#xf2;" horiz-adv-x="445" 
d="M421 254q0 -123 -52.5 -193.5t-153.5 -70.5q-100 0 -145.5 62.5t-45.5 190.5q0 122 53 193t153 71q101 0 146 -62t45 -191zM300 243q0 85 -18.5 126t-59.5 41q-77 0 -77 -156q0 -85 18.5 -126t59.5 -41q77 0 77 156zM293 610l-48 -55l-151 112l62 73z" />
    <glyph glyph-name="oacute" unicode="&#xf3;" horiz-adv-x="445" 
d="M421 254q0 -123 -52.5 -193.5t-153.5 -70.5q-100 0 -145.5 62.5t-45.5 190.5q0 122 53 193t153 71q101 0 146 -62t45 -191zM300 243q0 85 -18.5 126t-59.5 41q-77 0 -77 -156q0 -85 18.5 -126t59.5 -41q77 0 77 156zM158 610l138 130l62 -72l-151 -113z" />
    <glyph glyph-name="ocircumflex" unicode="&#xf4;" horiz-adv-x="445" 
d="M421 254q0 -123 -52.5 -193.5t-153.5 -70.5q-100 0 -145.5 62.5t-45.5 190.5q0 122 53 193t153 71q101 0 146 -62t45 -191zM300 243q0 85 -18.5 126t-59.5 41q-77 0 -77 -156q0 -85 18.5 -126t59.5 -41q77 0 77 156zM359 606l-47 -54l-90 76l-87 -76l-47 54l135 130z" />
    <glyph glyph-name="otilde" unicode="&#xf5;" horiz-adv-x="445" 
d="M421 254q0 -123 -52.5 -193.5t-153.5 -70.5q-100 0 -145.5 62.5t-45.5 190.5q0 122 53 193t153 71q101 0 146 -62t45 -191zM300 243q0 85 -18.5 126t-59.5 41q-77 0 -77 -156q0 -85 18.5 -126t59.5 -41q77 0 77 156zM316 687l59 -39q-36 -88 -105 -88q-32 0 -60 21.5
t-40 21.5q-21 0 -40 -40l-60 40q35 87 105 87q32 0 60 -21t40 -21q21 0 41 39z" />
    <glyph glyph-name="odieresis" unicode="&#xf6;" horiz-adv-x="445" 
d="M421 254q0 -123 -52.5 -193.5t-153.5 -70.5q-100 0 -145.5 62.5t-45.5 190.5q0 122 53 193t153 71q101 0 146 -62t45 -191zM300 243q0 85 -18.5 126t-59.5 41q-77 0 -77 -156q0 -85 18.5 -126t59.5 -41q77 0 77 156zM140 689q26 0 44 -18.5t18 -44.5t-18.5 -44.5
t-44.5 -18.5t-44 18.5t-18 44.5t18.5 44.5t44.5 18.5zM306 689q26 0 44.5 -18.5t18.5 -44.5t-18.5 -44.5t-44.5 -18.5t-44 18.5t-18 44.5t18 44.5t44 18.5z" />
    <glyph glyph-name="divide" unicode="&#xf7;" 
d="M220 178q31 0 52 -21t21 -52t-21 -52t-52 -21t-52 21t-21 52t21 52t52 21zM220 568q31 0 52 -21t21 -52t-21 -52.5t-52 -21.5t-52 21.5t-21 52.5t21 52t52 21zM408 249h-376v102h376v-102z" />
    <glyph glyph-name="oslash" unicode="&#xf8;" horiz-adv-x="445" 
d="M221 416q-41 0 -64 -40.5t-23 -115.5q0 -64 9 -96h1l106 244q-13 8 -29 8zM300 334l-107 -245q13 -7 32 -7q41 0 63.5 40.5t22.5 115.5q0 65 -10 96h-1zM390 538l-32 -73q63 -60 63 -211q0 -123 -52.5 -193.5t-153.5 -70.5q-37 0 -60 8l-31 -71l-70 32l32 75
q-62 58 -62 209q0 122 53 193t153 71q35 0 59 -8l30 71z" />
    <glyph glyph-name="ugrave" unicode="&#xf9;" horiz-adv-x="455" 
d="M47 497h118v-328q0 -40 9.5 -58.5t32.5 -18.5q35 0 59 45t24 114v246h117v-497h-108q0 32 9 88h-1q-19 -45 -54 -71.5t-82 -26.5q-124 0 -124 157v350zM288 610l-48 -55l-151 112l62 73z" />
    <glyph glyph-name="uacute" unicode="&#xfa;" horiz-adv-x="455" 
d="M47 497h118v-328q0 -40 9.5 -58.5t32.5 -18.5q35 0 59 45t24 114v246h117v-497h-108q0 32 9 88h-1q-19 -45 -54 -71.5t-82 -26.5q-124 0 -124 157v350zM172 610l138 130l62 -72l-151 -113z" />
    <glyph glyph-name="ucircumflex" unicode="&#xfb;" horiz-adv-x="455" 
d="M47 497h118v-328q0 -40 9.5 -58.5t32.5 -18.5q35 0 59 45t24 114v246h117v-497h-108q0 32 9 88h-1q-19 -45 -54 -71.5t-82 -26.5q-124 0 -124 157v350zM363 606l-47 -54l-90 76l-87 -76l-47 54l135 130z" />
    <glyph glyph-name="udieresis" unicode="&#xfc;" horiz-adv-x="455" 
d="M47 497h118v-328q0 -40 9.5 -58.5t32.5 -18.5q35 0 59 45t24 114v246h117v-497h-108q0 32 9 88h-1q-19 -45 -54 -71.5t-82 -26.5q-124 0 -124 157v350zM143 689q26 0 44 -18.5t18 -44.5t-18.5 -44.5t-44.5 -18.5t-44 18.5t-18 44.5t18.5 44.5t44.5 18.5zM309 689
q26 0 44.5 -18.5t18.5 -44.5t-18.5 -44.5t-44.5 -18.5t-44 18.5t-18 44.5t18 44.5t44 18.5z" />
    <glyph glyph-name="yacute" unicode="&#xfd;" horiz-adv-x="412" 
d="M412 497l-117 -474q-34 -144 -103.5 -204.5t-183.5 -46.5l12 99q63 -8 91.5 13.5t50.5 95.5l6 20h-38l-129 497h127l59 -241q17 -99 26 -171h2q15 110 26 171l50 241h121zM154 610l138 130l62 -72l-151 -113z" />
    <glyph glyph-name="thorn" unicode="&#xfe;" horiz-adv-x="449" 
d="M166 541q0 -62 -12 -122h2q37 88 122 88q72 0 110 -59t38 -177q0 -133 -56 -204.5t-162 -71.5q-23 0 -42 4v-220h-118v938h118v-176zM303 258q0 147 -58 147q-35 0 -57 -47t-22 -119v-140q17 -9 46 -9q45 0 68 38.5t23 129.5z" />
    <glyph glyph-name="ydieresis" unicode="&#xff;" horiz-adv-x="412" 
d="M412 497l-117 -474q-34 -144 -103.5 -204.5t-183.5 -46.5l12 99q63 -8 91.5 13.5t50.5 95.5l6 20h-38l-129 497h127l59 -241q17 -99 26 -171h2q15 110 26 171l50 241h121zM125 689q26 0 44 -18.5t18 -44.5t-18.5 -44.5t-44.5 -18.5t-44 18.5t-18 44.5t18.5 44.5
t44.5 18.5zM291 689q26 0 44.5 -18.5t18.5 -44.5t-18.5 -44.5t-44.5 -18.5t-44 18.5t-18 44.5t18 44.5t44 18.5z" />
    <glyph glyph-name="Amacron" unicode="&#x100;" horiz-adv-x="505" 
d="M505 0h-129l-33 139h-192l-34 -139h-117l164 675h174zM323 240l-49 204q-16 67 -27 141h-1q-10 -70 -26 -141l-49 -204h152zM380 740h-260v84h260v-84z" />
    <glyph glyph-name="amacron" unicode="&#x101;" horiz-adv-x="417" 
d="M372 0h-105q0 59 4 79l-1 1q-12 -40 -46 -64.5t-78 -24.5q-58 0 -91 35.5t-33 103.5q0 83 61 129t170 45v28q0 44 -16.5 64t-53.5 20q-53 0 -114 -35l-25 85q79 41 158 41q86 0 127 -40t41 -125v-211q0 -90 2 -131zM253 200v22q-117 4 -117 -80q0 -60 43 -60
q31 0 52.5 34.5t21.5 83.5zM330 575h-249v88h249v-88z" />
    <glyph glyph-name="Abreve" unicode="&#x102;" horiz-adv-x="505" 
d="M505 0h-129l-33 139h-192l-34 -139h-117l164 675h174zM323 240l-49 204q-16 67 -27 141h-1q-10 -70 -26 -141l-49 -204h152zM380 849q0 -58 -34 -95t-101 -37t-99 37t-32 95h84q0 -23 13.5 -37.5t34.5 -14.5q23 0 37 13.5t14 38.5h83z" />
    <glyph glyph-name="abreve" unicode="&#x103;" horiz-adv-x="417" 
d="M372 0h-105q0 59 4 79l-1 1q-12 -40 -46 -64.5t-78 -24.5q-58 0 -91 35.5t-33 103.5q0 83 61 129t170 45v28q0 44 -16.5 64t-53.5 20q-53 0 -114 -35l-25 85q79 41 158 41q86 0 127 -40t41 -125v-211q0 -90 2 -131zM253 200v22q-117 4 -117 -80q0 -60 43 -60
q31 0 52.5 34.5t21.5 83.5zM334 704q0 -66 -32.5 -107.5t-96.5 -41.5t-95 42t-31 107h85q0 -26 11 -43t31 -17q42 0 42 60h86z" />
    <glyph glyph-name="Aogonek" unicode="&#x104;" horiz-adv-x="505" 
d="M343 139h-192l-34 -139h-117l164 675h174l167 -675q-79 -56 -79 -110q0 -32 30 -32q18 0 38 12l20 -77q-43 -21 -92 -21q-51 0 -81 22.5t-30 68.5q0 68 65 137zM323 240l-49 204q-16 67 -27 141h-1q-10 -70 -26 -141l-49 -204h152z" />
    <glyph glyph-name="aogonek" unicode="&#x105;" horiz-adv-x="417" 
d="M370 163q0 -105 13 -163q-65 -61 -65 -110q0 -32 30 -32q18 0 38 12l20 -77q-44 -21 -92 -21q-51 0 -81 22.5t-30 68.5q0 71 74 146q-6 35 -6 71h-1q-12 -40 -46 -64.5t-78 -24.5q-58 0 -91 35.5t-33 103.5q0 83 61 129t170 45v28q0 44 -16.5 64t-53.5 20q-53 0 -114 -35
l-25 85q79 41 158 41q86 0 127 -40t41 -125v-179zM253 200v22q-117 4 -117 -80q0 -60 43 -60q31 0 52.5 34.5t21.5 83.5z" />
    <glyph glyph-name="Cacute" unicode="&#x106;" horiz-adv-x="421" 
d="M407 23q-62 -32 -138 -32q-127 0 -184.5 85.5t-57.5 246.5q0 165 64.5 262.5t190.5 97.5q66 0 120 -23l-26 -107q-43 20 -87 20q-130 0 -130 -238q0 -233 128 -233q48 0 93 24zM198 780l175 72l32 -83l-185 -49z" />
    <glyph glyph-name="cacute" unicode="&#x107;" horiz-adv-x="332" 
d="M318 19q-52 -27 -111 -27q-183 0 -183 243q0 132 52.5 201t152.5 69q47 0 85 -15l-23 -103q-29 17 -61 17q-83 0 -83 -156q0 -154 82 -154q33 0 67 20zM135 610l138 130l62 -72l-151 -113z" />
    <glyph glyph-name="Ccircumflex" unicode="&#x108;" horiz-adv-x="421" 
d="M407 23q-62 -32 -138 -32q-127 0 -184.5 85.5t-57.5 246.5q0 165 64.5 262.5t190.5 97.5q66 0 120 -23l-26 -107q-43 20 -87 20q-130 0 -130 -238q0 -233 128 -233q48 0 93 24zM268 851l136 -74l-30 -58l-106 46l-106 -46l-30 58z" />
    <glyph glyph-name="ccircumflex" unicode="&#x109;" horiz-adv-x="332" 
d="M318 19q-52 -27 -111 -27q-183 0 -183 243q0 132 52.5 201t152.5 69q47 0 85 -15l-23 -103q-29 17 -61 17q-83 0 -83 -156q0 -154 82 -154q33 0 67 20zM334 606l-47 -54l-90 76l-87 -76l-47 54l135 130z" />
    <glyph glyph-name="Cdotaccent" unicode="&#x10a;" horiz-adv-x="421" 
d="M407 23q-62 -32 -138 -32q-127 0 -184.5 85.5t-57.5 246.5q0 165 64.5 262.5t190.5 97.5q66 0 120 -23l-26 -107q-43 20 -87 20q-130 0 -130 -238q0 -233 128 -233q48 0 93 24zM270 860q29 0 49 -20.5t20 -49.5q0 -30 -20 -50.5t-50 -20.5q-29 0 -49 20.5t-20 50.5
q0 29 20.5 49.5t49.5 20.5z" />
    <glyph glyph-name="cdotaccent" unicode="&#x10b;" horiz-adv-x="332" 
d="M318 19q-52 -27 -111 -27q-183 0 -183 243q0 132 52.5 201t152.5 69q47 0 85 -15l-23 -103q-29 17 -61 17q-83 0 -83 -156q0 -154 82 -154q33 0 67 20zM197 702q30 0 50.5 -21t20.5 -51q0 -29 -21 -50t-50 -21q-30 0 -50.5 21t-20.5 50q0 30 21 51t50 21z" />
    <glyph glyph-name="Ccaron" unicode="&#x10c;" horiz-adv-x="421" 
d="M407 23q-62 -32 -138 -32q-127 0 -184.5 85.5t-57.5 246.5q0 165 64.5 262.5t190.5 97.5q66 0 120 -23l-26 -107q-43 20 -87 20q-130 0 -130 -238q0 -233 128 -233q48 0 93 24zM253 720l-136 73l31 59l106 -46l106 46l29 -58z" />
    <glyph glyph-name="ccaron" unicode="&#x10d;" horiz-adv-x="332" 
d="M318 19q-52 -27 -111 -27q-183 0 -183 243q0 132 52.5 201t152.5 69q47 0 85 -15l-23 -103q-29 17 -61 17q-83 0 -83 -156q0 -154 82 -154q33 0 67 20zM65 681l47 54l90 -76l87 76l47 -54l-134 -130z" />
    <glyph glyph-name="Dcaron" unicode="&#x10e;" horiz-adv-x="517" 
d="M491 347q0 -350 -283 -350q-77 0 -159 5v672q84 4 174 4q137 0 202.5 -75t65.5 -256zM363 340q0 126 -32.5 181t-105.5 55q-28 0 -56 -2v-469q26 -4 52 -4q70 0 106 56t36 183zM232 720l-136 73l31 59l106 -46l106 46l29 -58z" />
    <glyph glyph-name="dcaron" unicode="&#x10f;" horiz-adv-x="531" 
d="M401 0h-108q0 45 9 88h-2q-37 -98 -129 -98q-71 0 -109 59.5t-38 176.5q0 133 55.5 204.5t161.5 71.5q21 0 42 -3v218h118v-717zM283 258v141q-20 8 -46 8q-44 0 -67.5 -39t-23.5 -129q0 -147 58 -147q35 0 57 47t22 119zM573 714l-71 -197l-72 14l47 202z" />
    <glyph glyph-name="Dcroat" unicode="&#x110;" horiz-adv-x="527" 
d="M59 391v284q126 3 174 3q137 0 202.5 -75t65.5 -256q0 -350 -283 -350q-61 0 -159 4v296h-51v94h51zM179 391h87v-94h-87v-192q26 -4 52 -4q70 0 106 56t36 183q0 126 -32.5 181t-105.5 55q-28 0 -56 -2v-183z" />
    <glyph glyph-name="dcroat" unicode="&#x111;" horiz-adv-x="449" 
d="M401 0h-108q0 45 9 88h-2q-37 -98 -129 -98q-71 0 -109 59.5t-38 176.5q0 133 55.5 204.5t161.5 71.5q21 0 42 -3v60h-88v93h88v65h118v-65h46v-93h-46v-559zM283 258v141q-24 8 -46 8q-44 0 -67.5 -39t-23.5 -129q0 -147 58 -147q35 0 57 47t22 119z" />
    <glyph glyph-name="Emacron" unicode="&#x112;" horiz-adv-x="382" 
d="M346 0h-297v675h296v-103h-176v-178h166v-100h-166v-190h177v-104zM330 740h-260v84h260v-84z" />
    <glyph glyph-name="emacron" unicode="&#x113;" horiz-adv-x="420" 
d="M393 289q0 -32 -3 -65h-245v-6q0 -136 101 -136q56 0 115 30l24 -85q-76 -37 -158 -37q-103 0 -152.5 60.5t-49.5 193.5q0 114 48 188.5t147 74.5q86 0 129.5 -57t43.5 -161zM277 306q0 113 -62 113q-63 0 -68 -113h130zM339 575h-249v88h249v-88z" />
    <glyph glyph-name="Ebreve" unicode="&#x114;" horiz-adv-x="382" 
d="M346 0h-297v675h296v-103h-176v-178h166v-100h-166v-190h177v-104zM329 849q0 -58 -34 -95t-101 -37t-99 37t-32 95h84q0 -23 13.5 -37.5t34.5 -14.5q23 0 37 13.5t14 38.5h83z" />
    <glyph glyph-name="ebreve" unicode="&#x115;" horiz-adv-x="420" 
d="M393 289q0 -32 -3 -65h-245v-6q0 -136 101 -136q56 0 115 30l24 -85q-76 -37 -158 -37q-103 0 -152.5 60.5t-49.5 193.5q0 114 48 188.5t147 74.5q86 0 129.5 -57t43.5 -161zM277 306q0 113 -62 113q-63 0 -68 -113h130zM342 704q0 -66 -32.5 -107.5t-96.5 -41.5t-95 42
t-31 107h85q0 -26 11 -43t31 -17q42 0 42 60h86z" />
    <glyph glyph-name="Edotaccent" unicode="&#x116;" horiz-adv-x="382" 
d="M346 0h-297v675h296v-103h-176v-178h166v-100h-166v-190h177v-104zM201 860q29 0 49 -20.5t20 -49.5q0 -30 -20 -50.5t-50 -20.5q-29 0 -49 20.5t-20 50.5q0 29 20.5 49.5t49.5 20.5z" />
    <glyph glyph-name="edotaccent" unicode="&#x117;" horiz-adv-x="420" 
d="M393 289q0 -32 -3 -65h-245v-6q0 -136 101 -136q56 0 115 30l24 -85q-76 -37 -158 -37q-103 0 -152.5 60.5t-49.5 193.5q0 114 48 188.5t147 74.5q86 0 129.5 -57t43.5 -161zM277 306q0 113 -62 113q-63 0 -68 -113h130zM215 703q30 0 50.5 -21t20.5 -51q0 -29 -21 -50
t-50 -21q-30 0 -50.5 21t-20.5 50q0 30 21 51t50 21z" />
    <glyph glyph-name="Eogonek" unicode="&#x118;" horiz-adv-x="382" 
d="M220 0h-171v675h296v-103h-176v-178h166v-100h-166v-190h177v-104q-77 -57 -77 -110q0 -32 30 -32q19 0 38 12l20 -77q-43 -21 -92 -21q-51 0 -81 22.5t-30 68.5q0 68 66 137z" />
    <glyph glyph-name="eogonek" unicode="&#x119;" horiz-adv-x="420" 
d="M393 289q0 -32 -3 -65h-245v-6q0 -136 101 -136q56 0 115 30l24 -85q-51 -35 -72.5 -72.5t-21.5 -64.5q0 -32 30 -32q19 0 38 12l20 -77q-44 -21 -92 -21q-51 0 -81 22.5t-30 68.5q0 72 61 130q-8 -2 -17 -2q-97 0 -146 61t-49 192q0 114 48 188.5t147 74.5
q86 0 129.5 -57t43.5 -161zM277 306q0 113 -62 113q-63 0 -68 -113h130z" />
    <glyph glyph-name="Ecaron" unicode="&#x11a;" horiz-adv-x="382" 
d="M346 0h-297v675h296v-103h-176v-178h166v-100h-166v-190h177v-104zM202 720l-136 73l31 59l106 -46l106 46l29 -58z" />
    <glyph glyph-name="ecaron" unicode="&#x11b;" horiz-adv-x="420" 
d="M393 289q0 -32 -3 -65h-245v-6q0 -136 101 -136q56 0 115 30l24 -85q-76 -37 -158 -37q-103 0 -152.5 60.5t-49.5 193.5q0 114 48 188.5t147 74.5q86 0 129.5 -57t43.5 -161zM277 306q0 113 -62 113q-63 0 -68 -113h130zM78 681l47 54l90 -76l87 76l47 -54l-134 -130z
" />
    <glyph glyph-name="Gcircumflex" unicode="&#x11c;" horiz-adv-x="518" 
d="M473 651l-35 -108q-77 34 -137 34q-80 0 -113.5 -61t-33.5 -179q0 -123 33.5 -181t103.5 -58q31 0 59 10v241h120v-318q-84 -41 -189 -41q-254 0 -254 336q0 166 68 262.5t212 96.5q85 0 166 -34zM298 852l136 -74l-30 -58l-106 46l-106 -46l-30 58z" />
    <glyph glyph-name="gcircumflex" unicode="&#x11d;" horiz-adv-x="429" 
d="M419 -46q0 -79 -63.5 -132t-159.5 -53q-178 0 -178 143q0 36 20 69t49 51q-43 24 -43 79q0 59 50 88q-62 35 -62 130q0 76 46.5 127t131.5 51q38 0 69 -10h132v-93h-51q19 -29 19 -61q0 -80 -46.5 -125.5t-130.5 -45.5q-14 0 -25 3q-17 -11 -17 -31q0 -17 12.5 -24
t43.5 -9l55 -4q148 -12 148 -153zM269 337q0 85 -63 85q-29 0 -46 -22.5t-17 -62.5q0 -84 63 -84t63 84zM301 -59q0 60 -63 65l-46 2q-13 1 -24 3q-35 -33 -35 -76q0 -37 22 -55.5t57 -18.5q42 0 65.5 22.5t23.5 57.5zM345 606l-47 -54l-90 76l-87 -76l-47 54l135 130z" />
    <glyph glyph-name="Gbreve" unicode="&#x11e;" horiz-adv-x="518" 
d="M473 651l-35 -108q-77 34 -137 34q-80 0 -113.5 -61t-33.5 -179q0 -123 33.5 -181t103.5 -58q31 0 59 10v241h120v-318q-84 -41 -189 -41q-254 0 -254 336q0 166 68 262.5t212 96.5q85 0 166 -34zM419 849q0 -58 -34 -95t-101 -37t-99 37t-32 95h84q0 -23 13.5 -37.5
t34.5 -14.5q23 0 37 13.5t14 38.5h83z" />
    <glyph glyph-name="gbreve" unicode="&#x11f;" horiz-adv-x="429" 
d="M419 -46q0 -79 -63.5 -132t-159.5 -53q-178 0 -178 143q0 36 20 69t49 51q-43 24 -43 79q0 59 50 88q-62 35 -62 130q0 76 46.5 127t131.5 51q38 0 69 -10h132v-93h-51q19 -29 19 -61q0 -80 -46.5 -125.5t-130.5 -45.5q-14 0 -25 3q-17 -11 -17 -31q0 -17 12.5 -24
t43.5 -9l55 -4q148 -12 148 -153zM269 337q0 85 -63 85q-29 0 -46 -22.5t-17 -62.5q0 -84 63 -84t63 84zM301 -59q0 60 -63 65l-46 2q-13 1 -24 3q-35 -33 -35 -76q0 -37 22 -55.5t57 -18.5q42 0 65.5 22.5t23.5 57.5zM334 704q0 -66 -32.5 -107.5t-96.5 -41.5t-95 42
t-31 107h85q0 -26 11 -43t31 -17q42 0 42 60h86z" />
    <glyph glyph-name="Gdotaccent" unicode="&#x120;" horiz-adv-x="518" 
d="M473 651l-35 -108q-77 34 -137 34q-80 0 -113.5 -61t-33.5 -179q0 -123 33.5 -181t103.5 -58q31 0 59 10v241h120v-318q-84 -41 -189 -41q-254 0 -254 336q0 166 68 262.5t212 96.5q85 0 166 -34zM278 860q29 0 49 -20.5t20 -49.5q0 -30 -20 -50.5t-50 -20.5
q-29 0 -49 20.5t-20 50.5q0 29 20.5 49.5t49.5 20.5z" />
    <glyph glyph-name="gdotaccent" unicode="&#x121;" horiz-adv-x="429" 
d="M419 -46q0 -79 -63.5 -132t-159.5 -53q-178 0 -178 143q0 36 20 69t49 51q-43 24 -43 79q0 59 50 88q-62 35 -62 130q0 76 46.5 127t131.5 51q38 0 69 -10h132v-93h-51q19 -29 19 -61q0 -80 -46.5 -125.5t-130.5 -45.5q-14 0 -25 3q-17 -11 -17 -31q0 -17 12.5 -24
t43.5 -9l55 -4q148 -12 148 -153zM269 337q0 85 -63 85q-29 0 -46 -22.5t-17 -62.5q0 -84 63 -84t63 84zM301 -59q0 60 -63 65l-46 2q-13 1 -24 3q-35 -33 -35 -76q0 -37 22 -55.5t57 -18.5q42 0 65.5 22.5t23.5 57.5zM210 703q30 0 50.5 -21t20.5 -51q0 -29 -21 -50
t-50 -21q-30 0 -50.5 21t-20.5 50q0 30 21 51t50 21z" />
    <glyph glyph-name="Gcommaaccent" unicode="&#x122;" horiz-adv-x="518" 
d="M473 651l-35 -108q-77 34 -137 34q-80 0 -113.5 -61t-33.5 -179q0 -123 33.5 -181t103.5 -58q31 0 59 10v241h120v-318q-84 -41 -189 -41q-254 0 -254 336q0 166 68 262.5t212 96.5q85 0 166 -34zM129 -217v64q53 0 72 12.5t33 46.5q16 40 60 40q25 0 41.5 -16.5
t16.5 -43.5q0 -45 -42 -76t-126 -31q-24 0 -55 4z" />
    <glyph glyph-name="gcommaaccent" unicode="&#x123;" horiz-adv-x="429" 
d="M419 -46q0 -79 -63.5 -132t-159.5 -53q-178 0 -178 143q0 36 20 69t49 51q-43 24 -43 79q0 59 50 88q-62 35 -62 130q0 76 46.5 127t131.5 51q38 0 69 -10h132v-93h-51q19 -29 19 -61q0 -80 -46.5 -125.5t-130.5 -45.5q-14 0 -25 3q-17 -11 -17 -31q0 -17 12.5 -24
t43.5 -9l55 -4q148 -12 148 -153zM269 337q0 85 -63 85q-29 0 -46 -22.5t-17 -62.5q0 -84 63 -84t63 84zM301 -59q0 60 -63 65l-46 2q-13 1 -24 3q-35 -33 -35 -76q0 -37 22 -55.5t57 -18.5q42 0 65.5 22.5t23.5 57.5zM374 725v-65q-53 0 -72 -12.5t-33 -47.5
q-16 -40 -60 -40q-25 0 -41.5 16.5t-16.5 44.5q0 44 42.5 75.5t125.5 31.5q32 0 55 -3z" />
    <glyph glyph-name="Hcircumflex" unicode="&#x124;" horiz-adv-x="542" 
d="M493 0h-120v291h-204v-291h-120v675h120v-278h204v278h120v-675zM271 852l136 -74l-30 -58l-106 46l-106 -46l-30 58z" />
    <glyph glyph-name="hcircumflex" unicode="&#x125;" horiz-adv-x="455" 
d="M408 0h-117v327q0 41 -10 59.5t-33 18.5q-34 0 -58 -45t-24 -114v-246h-118v717h118v-182q0 -59 -12 -116h2q16 40 50.5 64t78.5 24q123 0 123 -157v-350zM112 886l136 -74l-30 -58l-106 46l-106 -46l-30 58z" />
    <glyph glyph-name="Hbar" unicode="&#x126;" horiz-adv-x="558" 
d="M7 485v99h50v91h120v-91h204v91h120v-91h50v-99h-50v-485h-120v282h-204v-282h-120v485h-50zM177 381h204v104h-204v-104z" />
    <glyph glyph-name="hbar" unicode="&#x127;" horiz-adv-x="458" 
d="M411 0h-117v327q0 41 -10 59.5t-33 18.5q-34 0 -58 -45t-24 -114v-246h-118v561h-50v93h50v63h118v-63h91v-93h-91v-46q0 -39 -12 -96h2q16 39 50 63.5t78 24.5q124 0 124 -157v-350z" />
    <glyph glyph-name="Itilde" unicode="&#x128;" horiz-adv-x="218" 
d="M169 0h-120v675h120v-675zM210 844l60 -37q-37 -85 -111 -85q-33 0 -62 21t-42 21q-27 0 -46 -39l-60 38q35 84 110 84q34 0 62.5 -20.5t42.5 -20.5q26 0 46 38z" />
    <glyph glyph-name="itilde" unicode="&#x129;" horiz-adv-x="214" 
d="M166 0h-118v497h118v-497zM172 660l62 -9q-9 -104 -82 -104q-30 0 -56 21.5t-33 21.5q-16 0 -21 -30l-61 10q8 104 81 104q30 0 56 -21.5t33 -21.5q16 0 21 29z" />
    <glyph glyph-name="Imacron" unicode="&#x12a;" horiz-adv-x="218" 
d="M169 0h-120v675h120v-675zM239 740h-260v84h260v-84z" />
    <glyph glyph-name="imacron" unicode="&#x12b;" horiz-adv-x="214" 
d="M166 0h-118v497h118v-497zM219 575h-224v87h224v-87z" />
    <glyph glyph-name="Ibreve" unicode="&#x12c;" horiz-adv-x="218" 
d="M169 0h-120v675h120v-675zM242 849q0 -58 -34 -95t-101 -37t-99 37t-32 95h84q0 -23 13.5 -37.5t34.5 -14.5q23 0 37 13.5t14 38.5h83z" />
    <glyph glyph-name="ibreve" unicode="&#x12d;" horiz-adv-x="214" 
d="M166 0h-118v497h118v-497zM222 691q0 -66 -28 -107.5t-88 -41.5t-87 41.5t-27 107.5h76q0 -63 39 -63t39 63h76z" />
    <glyph glyph-name="Iogonek" unicode="&#x12e;" horiz-adv-x="218" 
d="M169 675v-675q-71 -58 -71 -110q0 -32 30 -32q18 0 38 12l20 -77q-44 -21 -92 -21q-51 0 -81 22.5t-30 68.5q0 67 66 139v673h120z" />
    <glyph glyph-name="iogonek" unicode="&#x12f;" horiz-adv-x="214" 
d="M166 497v-497q-68 -58 -68 -110q0 -32 29 -32q19 0 38 12l20 -77q-43 -21 -92 -21q-51 0 -81 22.5t-30 68.5q0 67 66 139v495h118zM107 697q30 0 50.5 -21t20.5 -51q0 -29 -21 -50t-50 -21q-30 0 -50.5 21t-20.5 50q0 30 21 51t50 21z" />
    <glyph glyph-name="Idotaccent" unicode="&#x130;" horiz-adv-x="218" 
d="M169 0h-120v675h120v-675zM110 860q29 0 49 -20.5t20 -49.5q0 -30 -20 -50.5t-50 -20.5q-29 0 -49 20.5t-20 50.5q0 29 20.5 49.5t49.5 20.5z" />
    <glyph glyph-name="dotlessi" unicode="&#x131;" horiz-adv-x="214" 
d="M166 0h-118v497h118v-497z" />
    <glyph glyph-name="IJ" unicode="&#x132;" horiz-adv-x="484" 
d="M169 0h-120v675h120v-675zM434 675v-484q0 -94 -33 -145t-115 -51q-36 0 -63 4v99q19 -4 40 -4q29 0 40.5 17.5t11.5 68.5v495h119z" />
    <glyph glyph-name="ij" unicode="&#x133;" horiz-adv-x="428" 
d="M166 0h-118v497h118v-497zM107 697q30 0 50.5 -21t20.5 -51q0 -29 -21 -50t-50 -21q-30 0 -50.5 21t-20.5 50q0 30 21 51t50 21zM380 497v-531q0 -98 -40 -146.5t-124 -48.5q-29 0 -57 10l14 98q22 -8 42 -8q26 0 36.5 20t10.5 68v538h118zM321 697q30 0 50.5 -21
t20.5 -51q0 -29 -21 -50t-50 -21q-30 0 -50.5 21t-20.5 50q0 30 21 51t50 21z" />
    <glyph glyph-name="Jcircumflex" unicode="&#x134;" horiz-adv-x="262" 
d="M212 675v-484q0 -94 -33 -145t-115 -51q-36 0 -63 4v99q19 -4 40 -4q29 0 40.5 17.5t11.5 68.5v495h119zM154 852l136 -74l-30 -58l-106 46l-106 -46l-30 58z" />
    <glyph glyph-name="jcircumflex" unicode="&#x135;" horiz-adv-x="214" 
d="M166 497v-531q0 -98 -40 -146.5t-124 -48.5q-29 0 -57 10l14 98q22 -8 42 -8q26 0 36.5 20t10.5 68v538h118zM226 605l-46 -55l-74 72l-73 -72l-45 53l119 137z" />
    <glyph glyph-name="Kcommaaccent" unicode="&#x136;" horiz-adv-x="465" 
d="M458 0h-135l-153 327h-1v-327h-120v675h120v-309h1l148 309h131l-162 -319zM69 -217v64q53 0 72 12.5t33 46.5q16 40 60 40q25 0 41.5 -16.5t16.5 -43.5q0 -45 -42 -76t-126 -31q-24 0 -55 4z" />
    <glyph glyph-name="kcommaaccent" unicode="&#x137;" horiz-adv-x="413" 
d="M411 0h-131l-113 245h-1v-245h-118v717h118v-438h1l102 218h131l-119 -226zM51 -217v64q53 0 72 12.5t33 46.5q16 40 60 40q25 0 41.5 -16.5t16.5 -43.5q0 -45 -42 -76t-126 -31q-24 0 -55 4z" />
    <glyph glyph-name="kgreenlandic" unicode="&#x138;" horiz-adv-x="414" 
d="M411 0h-132l-112 240h-1v-240h-118v497h118v-223h1l104 223h130l-120 -232z" />
    <glyph glyph-name="Lacute" unicode="&#x139;" horiz-adv-x="341" 
d="M332 0h-283v675h120v-568h163v-107zM83 780l175 72l32 -83l-185 -49z" />
    <glyph glyph-name="lacute" unicode="&#x13a;" horiz-adv-x="214" 
d="M166 0h-118v717h118v-717zM40 820l175 72l32 -83l-185 -49z" />
    <glyph glyph-name="Lcommaaccent" unicode="&#x13b;" horiz-adv-x="341" 
d="M332 0h-283v675h120v-568h163v-107zM40 -217v64q53 0 72 12.5t33 46.5q16 40 60 40q25 0 41.5 -16.5t16.5 -43.5q0 -45 -42 -76t-126 -31q-24 0 -55 4z" />
    <glyph glyph-name="lcommaaccent" unicode="&#x13c;" horiz-adv-x="214" 
d="M166 0h-118v717h118v-717zM-48 -217v64q53 0 72 12.5t33 46.5q16 40 60 40q25 0 41.5 -16.5t16.5 -43.5q0 -45 -42 -76t-126 -31q-24 0 -55 4z" />
    <glyph glyph-name="Lcaron" unicode="&#x13d;" horiz-adv-x="359" 
d="M332 0h-283v675h120v-568h163v-107zM353 749l-71 -197l-72 14l47 202z" />
    <glyph glyph-name="lcaron" unicode="&#x13e;" horiz-adv-x="296" 
d="M166 0h-118v717h118v-717zM338 714l-71 -197l-72 14l47 202z" />
    <glyph glyph-name="Ldot" unicode="&#x13f;" horiz-adv-x="439" 
d="M332 0h-283v675h120v-568h163v-107zM339 414q31 0 53 -21.5t22 -52.5q0 -32 -22 -53.5t-53 -21.5t-52.5 22t-21.5 53t21.5 52.5t52.5 21.5z" />
    <glyph glyph-name="ldot" unicode="&#x140;" horiz-adv-x="345" 
d="M166 0h-118v717h118v-717zM279 374q31 0 53 -21.5t22 -52.5q0 -32 -22 -53.5t-53 -21.5t-52.5 22t-21.5 53t21.5 52.5t52.5 21.5z" />
    <glyph glyph-name="Lslash" unicode="&#x141;" horiz-adv-x="351" 
d="M179 363v-256h163v-107h-283v309l-45 -21l-21 96l66 31v260h120v-206l78 36l21 -96z" />
    <glyph glyph-name="lslash" unicode="&#x142;" horiz-adv-x="234" 
d="M176 348v-348h-118v290l-43 -22l-21 91l64 31v327h118v-268l44 22l21 -90z" />
    <glyph glyph-name="Nacute" unicode="&#x143;" horiz-adv-x="544" 
d="M494 0h-144l-141 356q-44 110 -62 185h-2q12 -130 12 -328v-213h-108v675h159l127 -314q44 -110 62 -185h2q-12 130 -12 328v171h107v-675zM229 780l175 72l32 -83l-185 -49z" />
    <glyph glyph-name="nacute" unicode="&#x144;" horiz-adv-x="455" 
d="M408 0h-117v328q0 40 -10 58.5t-33 18.5q-34 0 -58 -45t-24 -114v-246h-118v497h108q0 -43 -9 -88h2q18 45 53.5 71.5t81.5 26.5q124 0 124 -157v-350zM171 610l138 130l62 -72l-151 -113z" />
    <glyph glyph-name="Ncommaaccent" unicode="&#x145;" horiz-adv-x="544" 
d="M494 0h-144l-141 356q-44 110 -62 185h-2q12 -130 12 -328v-213h-108v675h159l127 -314q44 -110 62 -185h2q-12 130 -12 328v171h107v-675zM96 -217v64q53 0 72 12.5t33 46.5q16 40 60 40q25 0 41.5 -16.5t16.5 -43.5q0 -45 -42 -76t-126 -31q-24 0 -55 4z" />
    <glyph glyph-name="ncommaaccent" unicode="&#x146;" horiz-adv-x="455" 
d="M408 0h-117v328q0 40 -10 58.5t-33 18.5q-34 0 -58 -45t-24 -114v-246h-118v497h108q0 -43 -9 -88h2q18 45 53.5 71.5t81.5 26.5q124 0 124 -157v-350zM60 -217v64q53 0 72 12.5t33 46.5q16 40 60 40q25 0 41.5 -16.5t16.5 -43.5q0 -45 -42 -76t-126 -31q-24 0 -55 4z
" />
    <glyph glyph-name="Ncaron" unicode="&#x147;" horiz-adv-x="544" 
d="M494 0h-144l-141 356q-44 110 -62 185h-2q12 -130 12 -328v-213h-108v675h159l127 -314q44 -110 62 -185h2q-12 130 -12 328v171h107v-675zM292 720l-136 73l31 59l106 -46l106 46l29 -58z" />
    <glyph glyph-name="ncaron" unicode="&#x148;" horiz-adv-x="455" 
d="M408 0h-117v328q0 40 -10 58.5t-33 18.5q-34 0 -58 -45t-24 -114v-246h-118v497h108q0 -43 -9 -88h2q18 45 53.5 71.5t81.5 26.5q124 0 124 -157v-350zM95 681l47 54l90 -76l87 76l47 -54l-134 -130z" />
    <glyph glyph-name="napostrophe" unicode="&#x149;" horiz-adv-x="489" 
d="M441 0h-117v328q0 40 -10 58.5t-33 18.5q-34 0 -58 -45t-24 -114v-246h-118v497h108q0 -43 -9 -88h2q18 45 53.5 71.5t81.5 26.5q124 0 124 -157v-350zM37 510l-37 34q58 75 24 115q-21 24 -7.5 55.5t49.5 31.5q24 0 40 -20.5t16 -52.5q0 -81 -85 -163z" />
    <glyph glyph-name="Eng" unicode="&#x14a;" horiz-adv-x="541" 
d="M492 675v-670q0 -97 -34 -150.5t-101 -85.5l-49 83q38 18 52.5 43.5t14.5 80.5v9l-170 368q-28 62 -51 139h-1q9 -158 9 -309v-183h-113v675h141l153 -329q24 -52 44 -125h2q-10 127 -10 298v156h113z" />
    <glyph glyph-name="eng" unicode="&#x14b;" horiz-adv-x="455" 
d="M412 209v-27q0 -150 -15.5 -225.5t-48 -108t-103.5 -58.5l-32 92q37 15 52 34.5t22 72t7 167.5v29q0 91 -5 138.5t-15.5 64.5t-30.5 17q-31 0 -54 -45t-23 -113v-247h-118v497h108q0 -43 -9 -88h2q18 44 52.5 71t76.5 27q76 0 105 -65t29 -233z" />
    <glyph glyph-name="Omacron" unicode="&#x14c;" horiz-adv-x="564" 
d="M536 344q0 -160 -66 -257t-198 -97q-244 0 -244 341q0 159 66.5 256.5t197.5 97.5q244 0 244 -341zM410 335q0 243 -128 243q-127 0 -127 -238q0 -243 127 -243q128 0 128 238zM414 740h-260v84h260v-84z" />
    <glyph glyph-name="omacron" unicode="&#x14d;" horiz-adv-x="445" 
d="M421 254q0 -123 -52.5 -193.5t-153.5 -70.5q-100 0 -145.5 62.5t-45.5 190.5q0 122 53 193t153 71q101 0 146 -62t45 -191zM300 243q0 85 -18.5 126t-59.5 41q-77 0 -77 -156q0 -85 18.5 -126t59.5 -41q77 0 77 156zM347 575h-249v88h249v-88z" />
    <glyph glyph-name="Obreve" unicode="&#x14e;" horiz-adv-x="564" 
d="M536 344q0 -160 -66 -257t-198 -97q-244 0 -244 341q0 159 66.5 256.5t197.5 97.5q244 0 244 -341zM410 335q0 243 -128 243q-127 0 -127 -238q0 -243 127 -243q128 0 128 238zM416 849q0 -58 -34 -95t-101 -37t-99 37t-32 95h84q0 -23 13.5 -37.5t34.5 -14.5
q23 0 37 13.5t14 38.5h83z" />
    <glyph glyph-name="obreve" unicode="&#x14f;" horiz-adv-x="445" 
d="M421 254q0 -123 -52.5 -193.5t-153.5 -70.5q-100 0 -145.5 62.5t-45.5 190.5q0 122 53 193t153 71q101 0 146 -62t45 -191zM300 243q0 85 -18.5 126t-59.5 41q-77 0 -77 -156q0 -85 18.5 -126t59.5 -41q77 0 77 156zM350 704q0 -66 -32.5 -107.5t-96.5 -41.5t-95 42
t-31 107h85q0 -26 11 -43t31 -17q42 0 42 60h86z" />
    <glyph glyph-name="Ohungarumlaut" unicode="&#x150;" horiz-adv-x="564" 
d="M536 344q0 -160 -66 -257t-198 -97q-244 0 -244 341q0 159 66.5 256.5t197.5 97.5q244 0 244 -341zM410 335q0 243 -128 243q-127 0 -127 -238q0 -243 127 -243q128 0 128 238zM340 809l-141 -98l-56 34l124 113zM531 803l-149 -92l-57 40l129 106z" />
    <glyph glyph-name="ohungarumlaut" unicode="&#x151;" horiz-adv-x="445" 
d="M421 254q0 -123 -52.5 -193.5t-153.5 -70.5q-100 0 -145.5 62.5t-45.5 190.5q0 122 53 193t153 71q101 0 146 -62t45 -191zM300 243q0 85 -18.5 126t-59.5 41q-77 0 -77 -156q0 -85 18.5 -126t59.5 -41q77 0 77 156zM275 704l-126 -143l-62 39l107 156zM453 694
l-137 -133l-59 43l118 149z" />
    <glyph glyph-name="OE" unicode="&#x152;" horiz-adv-x="672" 
d="M355 0q-43 -10 -83 -10q-244 0 -244 341q0 159 66.5 256.5t197.5 97.5q39 0 82 -10h261v-103h-177v-178h166v-100h-166v-190h178v-104h-281zM339 112v451q-27 15 -57 15q-127 0 -127 -238q0 -243 127 -243q32 0 57 15z" />
    <glyph glyph-name="oe" unicode="&#x153;" horiz-adv-x="690" 
d="M353 66q-45 -76 -138 -76q-100 0 -145.5 62.5t-45.5 190.5q0 122 53 193t153 71q92 0 131 -72q46 72 130 72q85 0 129 -57t44 -161q0 -32 -3 -65h-245v-6q0 -136 100 -136q56 0 116 30l24 -85q-77 -37 -159 -37q-105 0 -144 76zM300 243q0 85 -18.5 126t-59.5 41
q-77 0 -77 -156q0 -85 18.5 -126t59.5 -41q77 0 77 156zM547 306q0 113 -61 113q-63 0 -69 -113h130z" />
    <glyph glyph-name="Racute" unicode="&#x154;" horiz-adv-x="450" 
d="M443 0h-135l-122 283h-17v-283h-120v675q61 4 160 4q208 0 208 -194q0 -69 -32.5 -116t-85.5 -64q25 -46 37 -75zM292 479q0 99 -87 99q-24 0 -36 -1v-200q14 -2 32 -2q91 0 91 104zM162 780l175 72l32 -83l-185 -49z" />
    <glyph glyph-name="racute" unicode="&#x155;" horiz-adv-x="291" 
d="M283 506l-7 -120q-55 14 -82.5 -32t-27.5 -151v-203h-118v497h108q0 -44 -9 -98h1q40 119 135 107zM113 610l138 130l62 -72l-151 -113z" />
    <glyph glyph-name="Rcommaaccent" unicode="&#x156;" horiz-adv-x="450" 
d="M443 0h-135l-122 283h-17v-283h-120v675q61 4 160 4q208 0 208 -194q0 -69 -32.5 -116t-85.5 -64q25 -46 37 -75zM292 479q0 99 -87 99q-24 0 -36 -1v-200q14 -2 32 -2q91 0 91 104zM67 -217v64q53 0 72 12.5t33 46.5q16 40 60 40q25 0 41.5 -16.5t16.5 -43.5
q0 -45 -42 -76t-126 -31q-24 0 -55 4z" />
    <glyph glyph-name="rcommaaccent" unicode="&#x157;" horiz-adv-x="291" 
d="M283 506l-7 -120q-55 14 -82.5 -32t-27.5 -151v-203h-118v497h108q0 -44 -9 -98h1q40 119 135 107zM-14 -217v64q53 0 72 12.5t33 46.5q16 40 60 40q25 0 41.5 -16.5t16.5 -43.5q0 -45 -42 -76t-126 -31q-24 0 -55 4z" />
    <glyph glyph-name="Rcaron" unicode="&#x158;" horiz-adv-x="450" 
d="M443 0h-135l-122 283h-17v-283h-120v675q61 4 160 4q208 0 208 -194q0 -69 -32.5 -116t-85.5 -64q25 -46 37 -75zM292 479q0 99 -87 99q-24 0 -36 -1v-200q14 -2 32 -2q91 0 91 104zM214 720l-136 73l31 59l106 -46l106 46l29 -58z" />
    <glyph glyph-name="rcaron" unicode="&#x159;" horiz-adv-x="291" 
d="M283 506l-7 -120q-55 14 -82.5 -32t-27.5 -151v-203h-118v497h108q0 -44 -9 -98h1q40 119 135 107zM33 681l47 54l90 -76l87 76l47 -54l-134 -130z" />
    <glyph glyph-name="Sacute" unicode="&#x15a;" horiz-adv-x="401" 
d="M372 190q0 -89 -56 -144t-155 -55q-74 0 -130 21l23 112q49 -26 102 -26q88 0 88 82q0 35 -22.5 61.5t-54.5 47t-64 44.5t-54.5 66t-22.5 99q0 81 55 134t149 53q60 0 112 -16l-22 -104q-44 19 -86 19q-40 0 -60.5 -22t-20.5 -57q0 -33 22.5 -59t54.5 -47t64.5 -45
t55 -66t22.5 -98zM130 780l175 72l32 -83l-185 -49z" />
    <glyph glyph-name="sacute" unicode="&#x15b;" horiz-adv-x="330" 
d="M307 148q0 -68 -48.5 -113t-129.5 -45q-55 0 -99 15l19 98q40 -19 73 -19q31 0 46.5 15t15.5 39q0 22 -16 39t-39 31t-46 31.5t-39 48t-16 71.5q0 68 44.5 108t126.5 40q44 0 82 -11l-15 -93q-33 12 -60 12q-57 0 -57 -47q0 -21 16.5 -38t39.5 -31.5t46 -32.5t39.5 -48
t16.5 -70zM111 610l138 130l62 -72l-151 -113z" />
    <glyph glyph-name="Scircumflex" unicode="&#x15c;" horiz-adv-x="401" 
d="M372 190q0 -89 -56 -144t-155 -55q-74 0 -130 21l23 112q49 -26 102 -26q88 0 88 82q0 35 -22.5 61.5t-54.5 47t-64 44.5t-54.5 66t-22.5 99q0 81 55 134t149 53q60 0 112 -16l-22 -104q-44 19 -86 19q-40 0 -60.5 -22t-20.5 -57q0 -33 22.5 -59t54.5 -47t64.5 -45
t55 -66t22.5 -98zM209 852l136 -74l-30 -58l-106 46l-106 -46l-30 58z" />
    <glyph glyph-name="scircumflex" unicode="&#x15d;" horiz-adv-x="330" 
d="M307 148q0 -68 -48.5 -113t-129.5 -45q-55 0 -99 15l19 98q40 -19 73 -19q31 0 46.5 15t15.5 39q0 22 -16 39t-39 31t-46 31.5t-39 48t-16 71.5q0 68 44.5 108t126.5 40q44 0 82 -11l-15 -93q-33 12 -60 12q-57 0 -57 -47q0 -21 16.5 -38t39.5 -31.5t46 -32.5t39.5 -48
t16.5 -70zM294 606l-47 -54l-90 76l-87 -76l-47 54l135 130z" />
    <glyph glyph-name="Scedilla" unicode="&#x15e;" horiz-adv-x="401" 
d="M372 190q0 -89 -56 -144t-155 -55q-74 0 -130 21l23 112q49 -26 102 -26q88 0 88 82q0 35 -22.5 61.5t-54.5 47t-64 44.5t-54.5 66t-22.5 99q0 81 55 134t149 53q60 0 112 -16l-22 -104q-44 19 -86 19q-40 0 -60.5 -22t-20.5 -57q0 -33 22.5 -59t54.5 -47t64.5 -45
t55 -66t22.5 -98zM231 -36q60 -89 -20 -172h-88q31 39 34 72t-25 73z" />
    <glyph glyph-name="scedilla" unicode="&#x15f;" horiz-adv-x="330" 
d="M307 148q0 -68 -48.5 -113t-129.5 -45q-55 0 -99 15l19 98q40 -19 73 -19q31 0 46.5 15t15.5 39q0 22 -16 39t-39 31t-46 31.5t-39 48t-16 71.5q0 68 44.5 108t126.5 40q44 0 82 -11l-15 -93q-33 12 -60 12q-57 0 -57 -47q0 -21 16.5 -38t39.5 -31.5t46 -32.5t39.5 -48
t16.5 -70zM201 -36q60 -89 -20 -172h-88q31 39 34 72t-25 73z" />
    <glyph glyph-name="Scaron" unicode="&#x160;" horiz-adv-x="401" 
d="M372 190q0 -89 -56 -144t-155 -55q-74 0 -130 21l23 112q49 -26 102 -26q88 0 88 82q0 35 -22.5 61.5t-54.5 47t-64 44.5t-54.5 66t-22.5 99q0 81 55 134t149 53q60 0 112 -16l-22 -104q-44 19 -86 19q-40 0 -60.5 -22t-20.5 -57q0 -33 22.5 -59t54.5 -47t64.5 -45
t55 -66t22.5 -98zM211 720l-136 73l31 59l106 -46l106 46l29 -58z" />
    <glyph glyph-name="scaron" unicode="&#x161;" horiz-adv-x="330" 
d="M307 148q0 -68 -48.5 -113t-129.5 -45q-55 0 -99 15l19 98q40 -19 73 -19q31 0 46.5 15t15.5 39q0 22 -16 39t-39 31t-46 31.5t-39 48t-16 71.5q0 68 44.5 108t126.5 40q44 0 82 -11l-15 -93q-33 12 -60 12q-57 0 -57 -47q0 -21 16.5 -38t39.5 -31.5t46 -32.5t39.5 -48
t16.5 -70zM30 681l47 54l90 -76l87 76l47 -54l-134 -130z" />
    <glyph glyph-name="uni0162" unicode="&#x162;" horiz-adv-x="402" 
d="M390 571h-129v-571h-120v571h-129v104h378v-104zM242 -36q60 -89 -20 -172h-88q31 39 34 72t-25 73z" />
    <glyph glyph-name="uni0163" unicode="&#x163;" horiz-adv-x="292" 
d="M279 7q-41 -15 -91 -15q-71 0 -98 36t-27 122v254h-62v93h62v132l118 32v-164h88v-93h-88v-230q0 -46 9 -63.5t32 -17.5q24 0 46 7zM217 -36q60 -89 -20 -172h-88q31 39 34 72t-25 73z" />
    <glyph glyph-name="Tcaron" unicode="&#x164;" horiz-adv-x="402" 
d="M390 571h-129v-571h-120v571h-129v104h378v-104zM203 720l-136 73l31 59l106 -46l106 46l29 -58z" />
    <glyph glyph-name="tcaron" unicode="&#x165;" horiz-adv-x="338" 
d="M279 7q-41 -15 -91 -15q-71 0 -98 36t-27 122v254h-62v93h62v132l118 32v-164h88v-93h-88v-230q0 -46 9 -63.5t32 -17.5q24 0 46 7zM376 740l-71 -197l-72 14l47 202z" />
    <glyph glyph-name="Tbar" unicode="&#x166;" horiz-adv-x="402" 
d="M390 571h-129v-177h79v-100h-79v-294h-120v294h-79v100h79v177h-129v104h378v-104z" />
    <glyph glyph-name="tbar" unicode="&#x167;" horiz-adv-x="292" 
d="M279 7q-41 -15 -91 -15q-71 0 -98 36t-27 122v63h-52v88h52v103h-62v93h62v132l118 32v-164h88v-93h-88v-103h69v-88h-69v-43q0 -46 9 -63.5t32 -17.5q24 0 46 7z" />
    <glyph glyph-name="Utilde" unicode="&#x168;" horiz-adv-x="539" 
d="M491 241q0 -119 -55.5 -185t-168.5 -66q-122 0 -170.5 61t-48.5 176v448h120v-437q0 -75 24 -111t77 -36t77.5 34t24.5 105v445h120v-434zM370 844l60 -37q-37 -85 -111 -85q-33 0 -62 21t-42 21q-27 0 -46 -39l-60 38q35 84 110 84q34 0 62.5 -20.5t42.5 -20.5
q26 0 46 38z" />
    <glyph glyph-name="utilde" unicode="&#x169;" horiz-adv-x="455" 
d="M47 497h118v-328q0 -40 9.5 -58.5t32.5 -18.5q35 0 59 45t24 114v246h117v-497h-108q0 32 9 88h-1q-19 -45 -54 -71.5t-82 -26.5q-124 0 -124 157v350zM321 687l59 -39q-36 -88 -105 -88q-32 0 -60 21.5t-40 21.5q-21 0 -40 -40l-60 40q35 87 105 87q32 0 60 -21t40 -21
q21 0 41 39z" />
    <glyph glyph-name="Umacron" unicode="&#x16a;" horiz-adv-x="539" 
d="M491 241q0 -119 -55.5 -185t-168.5 -66q-122 0 -170.5 61t-48.5 176v448h120v-437q0 -75 24 -111t77 -36t77.5 34t24.5 105v445h120v-434zM400 740h-260v84h260v-84z" />
    <glyph glyph-name="umacron" unicode="&#x16b;" horiz-adv-x="455" 
d="M47 497h118v-328q0 -40 9.5 -58.5t32.5 -18.5q35 0 59 45t24 114v246h117v-497h-108q0 32 9 88h-1q-19 -45 -54 -71.5t-82 -26.5q-124 0 -124 157v350zM351 575h-249v88h249v-88z" />
    <glyph glyph-name="Ubreve" unicode="&#x16c;" horiz-adv-x="539" 
d="M491 241q0 -119 -55.5 -185t-168.5 -66q-122 0 -170.5 61t-48.5 176v448h120v-437q0 -75 24 -111t77 -36t77.5 34t24.5 105v445h120v-434zM402 849q0 -58 -34 -95t-101 -37t-99 37t-32 95h84q0 -23 13.5 -37.5t34.5 -14.5q23 0 37 13.5t14 38.5h83z" />
    <glyph glyph-name="ubreve" unicode="&#x16d;" horiz-adv-x="455" 
d="M47 497h118v-328q0 -40 9.5 -58.5t32.5 -18.5q35 0 59 45t24 114v246h117v-497h-108q0 32 9 88h-1q-19 -45 -54 -71.5t-82 -26.5q-124 0 -124 157v350zM355 704q0 -66 -32.5 -107.5t-96.5 -41.5t-95 42t-31 107h85q0 -26 11 -43t31 -17q42 0 42 60h86z" />
    <glyph glyph-name="Uring" unicode="&#x16e;" horiz-adv-x="539" 
d="M491 241q0 -119 -55.5 -185t-168.5 -66q-122 0 -170.5 61t-48.5 176v448h120v-437q0 -75 24 -111t77 -36t77.5 34t24.5 105v445h120v-434zM385 802q0 -43 -30.5 -70t-88.5 -27q-110 0 -110 92q0 43 30.5 70t88.5 27q110 0 110 -92zM311 799q0 46 -42 46q-39 0 -39 -45
q0 -46 42 -46q39 0 39 45z" />
    <glyph glyph-name="uring" unicode="&#x16f;" horiz-adv-x="455" 
d="M47 497h118v-328q0 -40 9.5 -58.5t32.5 -18.5q35 0 59 45t24 114v246h117v-497h-108q0 32 9 88h-1q-19 -45 -54 -71.5t-82 -26.5q-124 0 -124 157v350zM341 659q0 -47 -30.5 -78t-88.5 -31q-109 0 -109 104q0 48 30.5 78.5t88.5 30.5q109 0 109 -104zM265 654
q0 53 -38 53t-38 -48q0 -53 38 -53t38 48z" />
    <glyph glyph-name="Uhungarumlaut" unicode="&#x170;" horiz-adv-x="539" 
d="M491 241q0 -119 -55.5 -185t-168.5 -66q-122 0 -170.5 61t-48.5 176v448h120v-437q0 -75 24 -111t77 -36t77.5 34t24.5 105v445h120v-434zM319 809l-141 -98l-56 34l124 113zM510 803l-149 -92l-57 40l129 106z" />
    <glyph glyph-name="uhungarumlaut" unicode="&#x171;" horiz-adv-x="455" 
d="M47 497h118v-328q0 -40 9.5 -58.5t32.5 -18.5q35 0 59 45t24 114v246h117v-497h-108q0 32 9 88h-1q-19 -45 -54 -71.5t-82 -26.5q-124 0 -124 157v350zM276 704l-126 -143l-62 39l107 156zM454 694l-137 -133l-59 43l118 149z" />
    <glyph glyph-name="Uogonek" unicode="&#x172;" horiz-adv-x="539" 
d="M491 675v-434q0 -131 -64 -193q-11 -11 -32.5 -30.5t-29.5 -26.5q-53 -53 -53 -101q0 -32 29 -32q18 0 39 12l19 -77q-42 -21 -91 -21q-51 0 -81.5 22.5t-30.5 68.5q0 81 75 132q-12 -2 -21 -2q-102 0 -152 56t-50 178v448h120v-437q0 -75 24 -111t77 -36t77.5 34
t24.5 105v445h120z" />
    <glyph glyph-name="uogonek" unicode="&#x173;" horiz-adv-x="455" 
d="M313 8q-7 47 -5 80h-1q-19 -45 -54 -71.5t-82 -26.5q-124 0 -124 158v349h118v-328q0 -40 9.5 -58.5t32.5 -18.5q35 0 59 45t24 114v246h117v-334q0 -95 13 -163q-64 -60 -64 -110q0 -32 29 -32q19 0 38 12l20 -77q-44 -21 -91 -21q-51 0 -81.5 22.5t-30.5 68.5
q0 71 73 145z" />
    <glyph glyph-name="Wcircumflex" unicode="&#x174;" horiz-adv-x="785" 
d="M772 675l-118 -675h-179l-67 412q-12 83 -18 164h-1q-5 -72 -17 -166l-66 -410h-173l-119 675h124l69 -414q9 -54 19 -158h1q7 83 15 140l69 432h169l71 -425q7 -50 16 -147h1q8 85 19 164l65 408h120zM394 852l136 -74l-30 -58l-106 46l-106 -46l-30 58z" />
    <glyph glyph-name="wcircumflex" unicode="&#x175;" horiz-adv-x="641" 
d="M318 391h-1q-6 -80 -15 -126l-49 -265h-148l-97 497h120l47 -282q12 -78 13 -119h2q4 42 16 119l52 282h131l55 -281q13 -65 18 -120h1q4 59 13 120l43 281h114l-95 -497h-153l-51 265q-7 38 -16 126zM458 606l-47 -54l-90 76l-87 -76l-47 54l135 130z" />
    <glyph glyph-name="Ycircumflex" unicode="&#x176;" horiz-adv-x="455" 
d="M457 675l-168 -443v-232h-120v232l-170 443h131l69 -204q20 -59 32 -113h1q15 59 32 109l67 208h126zM232 852l136 -74l-30 -58l-106 46l-106 -46l-30 58z" />
    <glyph glyph-name="ycircumflex" unicode="&#x177;" horiz-adv-x="412" 
d="M412 497l-117 -474q-34 -144 -103.5 -204.5t-183.5 -46.5l12 99q63 -8 91.5 13.5t50.5 95.5l6 20h-38l-129 497h127l59 -241q17 -99 26 -171h2q15 110 26 171l50 241h121zM342 606l-47 -54l-90 76l-87 -76l-47 54l135 130z" />
    <glyph glyph-name="Ydieresis" unicode="&#x178;" horiz-adv-x="455" 
d="M457 675l-168 -443v-232h-120v232l-170 443h131l69 -204q20 -59 32 -113h1q15 59 32 109l67 208h126zM142 844q25 0 43 -18t18 -44t-18 -44t-43 -18q-26 0 -44 18t-18 44t18 44t44 18zM314 844q25 0 43 -18t18 -44t-18 -44t-43 -18q-26 0 -44 18t-18 44t18 44t44 18z" />
    <glyph glyph-name="Zacute" unicode="&#x179;" horiz-adv-x="409" 
d="M378 0h-347v95l201 473q-52 -4 -99 -4h-96v111h337v-93l-201 -474q42 5 109 5h96v-113zM146 780l175 72l32 -83l-185 -49z" />
    <glyph glyph-name="zacute" unicode="&#x17a;" horiz-adv-x="343" 
d="M313 0h-283v85l146 309q-44 -2 -74 -2h-68v105h276v-86l-144 -305q27 1 80 1h67v-107zM104 610l138 130l62 -72l-151 -113z" />
    <glyph glyph-name="Zdotaccent" unicode="&#x17b;" horiz-adv-x="409" 
d="M378 0h-347v95l201 473q-52 -4 -99 -4h-96v111h337v-93l-201 -474q42 5 109 5h96v-113zM207 860q29 0 49 -20.5t20 -49.5q0 -30 -20 -50.5t-50 -20.5q-29 0 -49 20.5t-20 50.5q0 29 20.5 49.5t49.5 20.5z" />
    <glyph glyph-name="zdotaccent" unicode="&#x17c;" horiz-adv-x="343" 
d="M313 0h-283v85l146 309q-44 -2 -74 -2h-68v105h276v-86l-144 -305q27 1 80 1h67v-107zM172 697q30 0 50.5 -21t20.5 -51q0 -29 -21 -50t-50 -21q-30 0 -50.5 21t-20.5 50q0 30 21 51t50 21z" />
    <glyph glyph-name="Zcaron" unicode="&#x17d;" horiz-adv-x="409" 
d="M378 0h-347v95l201 473q-52 -4 -99 -4h-96v111h337v-93l-201 -474q42 5 109 5h96v-113zM205 720l-136 73l31 59l106 -46l106 46l29 -58z" />
    <glyph glyph-name="zcaron" unicode="&#x17e;" horiz-adv-x="343" 
d="M313 0h-283v85l146 309q-44 -2 -74 -2h-68v105h276v-86l-144 -305q27 1 80 1h67v-107zM36 681l47 54l90 -76l87 76l47 -54l-134 -130z" />
    <glyph glyph-name="longs" unicode="&#x17f;" horiz-adv-x="218" 
d="M257 720l-10 -96q-12 4 -29 4q-28 0 -40 -25.5t-12 -80.5v-522h-118v517q0 208 155 208q29 0 54 -5z" />
    <glyph glyph-name="florin" unicode="&#x192;" horiz-adv-x="382" 
d="M232 317l-14 -229q-6 -102 -47.5 -149t-123.5 -47q-36 0 -71 8l14 99q27 -9 49 -9q29 0 43 20.5t16 66.5l14 240h-85v93h91l6 100q6 102 47.5 149t123.5 47q36 0 71 -8l-14 -99q-24 8 -49 8q-29 0 -43 -20t-16 -66l-7 -111h93v-93h-98z" />
    <glyph glyph-name="Gcaron" unicode="&#x1e6;" horiz-adv-x="518" 
d="M473 651l-35 -108q-77 34 -137 34q-80 0 -113.5 -61t-33.5 -179q0 -123 33.5 -181t103.5 -58q31 0 59 10v241h120v-318q-84 -41 -189 -41q-254 0 -254 336q0 166 68 262.5t212 96.5q85 0 166 -34zM292 720l-136 73l31 59l106 -46l106 46l29 -58z" />
    <glyph glyph-name="gcaron" unicode="&#x1e7;" horiz-adv-x="429" 
d="M419 -46q0 -79 -63.5 -132t-159.5 -53q-178 0 -178 143q0 36 20 69t49 51q-43 24 -43 79q0 59 50 88q-62 35 -62 130q0 76 46.5 127t131.5 51q38 0 69 -10h132v-93h-51q19 -29 19 -61q0 -80 -46.5 -125.5t-130.5 -45.5q-14 0 -25 3q-17 -11 -17 -31q0 -17 12.5 -24
t43.5 -9l55 -4q148 -12 148 -153zM269 337q0 85 -63 85q-29 0 -46 -22.5t-17 -62.5q0 -84 63 -84t63 84zM301 -59q0 60 -63 65l-46 2q-13 1 -24 3q-35 -33 -35 -76q0 -37 22 -55.5t57 -18.5q42 0 65.5 22.5t23.5 57.5zM75 681l47 54l90 -76l87 76l47 -54l-134 -130z" />
    <glyph glyph-name="Aringacute" unicode="&#x1fa;" horiz-adv-x="505" 
d="M505 0h-129l-33 139h-192l-34 -139h-117l164 675h174zM323 240l-49 204q-16 67 -27 141h-1q-10 -70 -26 -141l-49 -204h152zM362 917l-167 -41l-15 46l161 57zM349 781q0 -38 -27 -62t-78 -24q-98 0 -98 83q0 37 27.5 61.5t77.5 24.5q98 0 98 -83zM284 779q0 41 -37 41
q-36 0 -36 -40q0 -41 38 -41q35 0 35 40z" />
    <glyph glyph-name="aringacute" unicode="&#x1fb;" horiz-adv-x="417" 
d="M372 0h-105q0 59 4 79l-1 1q-12 -40 -46 -64.5t-78 -24.5q-58 0 -91 35.5t-33 103.5q0 83 61 129t170 45v28q0 44 -16.5 64t-53.5 20q-53 0 -114 -35l-25 85q79 41 158 41q86 0 127 -40t41 -125v-211q0 -90 2 -131zM253 200v22q-117 4 -117 -80q0 -60 43 -60
q31 0 52.5 34.5t21.5 83.5zM337 828l-176 -48l-19 56l170 63zM315 649q0 -45 -29 -74t-82 -29q-103 0 -103 98q0 44 29 73.5t83 29.5q102 0 102 -98zM244 644q0 50 -36 50t-36 -45q0 -50 36 -50t36 45z" />
    <glyph glyph-name="AEacute" unicode="&#x1fc;" horiz-adv-x="627" 
d="M592 0h-298v153h-148l-53 -153h-121l242 675h373v-103h-174v-178h166v-100h-166v-190h179v-104zM294 248v323h-8q-15 -55 -30 -95l-81 -228h119zM356 780l175 72l32 -83l-185 -49z" />
    <glyph glyph-name="aeacute" unicode="&#x1fd;" horiz-adv-x="642" 
d="M324 453q40 54 119 54q85 0 129 -57t44 -161q0 -32 -3 -65h-245v-6q0 -135 100 -135q56 0 116 30l24 -85q-77 -37 -159 -37q-117 0 -155 89q-24 -42 -63 -65.5t-85 -23.5q-58 0 -91 35.5t-33 103.5q0 83 61 129t170 45v28q0 44 -16.5 64t-53.5 20q-53 0 -114 -35l-25 85
q79 41 158 41q90 0 122 -54zM253 200v22q-117 4 -117 -80q0 -60 43 -60q31 0 52.5 34.5t21.5 83.5zM499 306q0 113 -61 113q-63 0 -69 -113h130zM276 610l138 130l62 -72l-151 -113z" />
    <glyph glyph-name="Oslashacute" unicode="&#x1fe;" horiz-adv-x="564" 
d="M491 723l-40 -95q85 -84 85 -284q0 -160 -66 -257t-198 -97q-46 0 -78 13l-35 -86l-86 35l40 95q-85 81 -85 284q0 159 66.5 256.5t197.5 97.5q41 0 79 -13l35 86zM167 175l163 397q-19 12 -46 12q-135 0 -135 -244q0 -83 16 -165h2zM280 91q135 0 135 244q0 78 -15 164
h-3l-162 -396q18 -12 45 -12zM220 812l175 72l32 -83l-185 -49z" />
    <glyph glyph-name="oslashacute" unicode="&#x1ff;" horiz-adv-x="445" 
d="M221 416q-41 0 -64 -40.5t-23 -115.5q0 -64 9 -96h1l106 244q-13 8 -29 8zM300 334l-107 -245q13 -7 32 -7q41 0 63.5 40.5t22.5 115.5q0 65 -10 96h-1zM390 538l-32 -73q63 -60 63 -211q0 -123 -52.5 -193.5t-153.5 -70.5q-37 0 -60 8l-31 -71l-70 32l32 75
q-62 58 -62 209q0 122 53 193t153 71q35 0 59 -8l30 71zM162 610l138 130l62 -72l-151 -113z" />
    <glyph glyph-name="Scommaaccent" unicode="&#x218;" horiz-adv-x="401" 
d="M372 190q0 -89 -56 -144t-155 -55q-74 0 -130 21l23 112q49 -26 102 -26q88 0 88 82q0 35 -22.5 61.5t-54.5 47t-64 44.5t-54.5 66t-22.5 99q0 81 55 134t149 53q60 0 112 -16l-22 -104q-44 19 -86 19q-40 0 -60.5 -22t-20.5 -57q0 -33 22.5 -59t54.5 -47t64.5 -45
t55 -66t22.5 -98zM52 -217v64q53 0 72 12.5t33 46.5q16 40 60 40q25 0 41.5 -16.5t16.5 -43.5q0 -45 -42 -76t-126 -31q-24 0 -55 4z" />
    <glyph glyph-name="scommaaccent" unicode="&#x219;" horiz-adv-x="330" 
d="M307 148q0 -68 -48.5 -113t-129.5 -45q-55 0 -99 15l19 98q40 -19 73 -19q31 0 46.5 15t15.5 39q0 22 -16 39t-39 31t-46 31.5t-39 48t-16 71.5q0 68 44.5 108t126.5 40q44 0 82 -11l-15 -93q-33 12 -60 12q-57 0 -57 -47q0 -21 16.5 -38t39.5 -31.5t46 -32.5t39.5 -48
t16.5 -70zM13 -217v64q53 0 72 12.5t33 46.5q16 40 60 40q25 0 41.5 -16.5t16.5 -43.5q0 -45 -42 -76t-126 -31q-24 0 -55 4z" />
    <glyph glyph-name="Tcommaaccent" unicode="&#x21a;" horiz-adv-x="402" 
d="M390 571h-129v-571h-120v571h-129v104h378v-104zM34 -217v64q53 0 72 12.5t33 46.5q16 40 60 40q25 0 41.5 -16.5t16.5 -43.5q0 -45 -42 -76t-126 -31q-24 0 -55 4z" />
    <glyph glyph-name="tcommaaccent" unicode="&#x21b;" horiz-adv-x="292" 
d="M279 7q-41 -15 -91 -15q-71 0 -98 36t-27 122v254h-62v93h62v132l118 32v-164h88v-93h-88v-230q0 -46 9 -63.5t32 -17.5q24 0 46 7zM26 -217v64q53 0 72 12.5t33 46.5q16 40 60 40q25 0 41.5 -16.5t16.5 -43.5q0 -45 -42 -76t-126 -31q-24 0 -55 4z" />
    <glyph glyph-name="dotlessj" unicode="&#x237;" horiz-adv-x="214" 
d="M166 497v-531q0 -98 -40 -146.5t-124 -48.5q-29 0 -57 10l14 98q22 -8 42 -8q26 0 36.5 20t10.5 68v538h118z" />
    <glyph glyph-name="uni02BF" unicode="&#x2bf;" horiz-adv-x="159" 
d="M143 443v-77q-62 0 -94.5 36t-32.5 100q0 63 39 101t88 38v-76q-18 0 -29.5 -17t-11.5 -44q0 -29 11 -45t30 -16z" />
    <glyph glyph-name="circumflex" unicode="&#x2c6;" horiz-adv-x="317" 
d="M294 606l-47 -54l-90 76l-87 -76l-47 54l135 130z" />
    <glyph glyph-name="caron" unicode="&#x2c7;" horiz-adv-x="317" 
d="M23 681l47 54l90 -76l87 76l47 -54l-134 -130z" />
    <glyph glyph-name="breve" unicode="&#x2d8;" horiz-adv-x="310" 
d="M281 704q0 -66 -32.5 -107.5t-96.5 -41.5t-95 42t-31 107h85q0 -26 11 -43t31 -17q42 0 42 60h86z" />
    <glyph glyph-name="dotaccent" unicode="&#x2d9;" horiz-adv-x="214" 
d="M107 697q30 0 50.5 -21t20.5 -51q0 -29 -21 -50t-50 -21q-30 0 -50.5 21t-20.5 50q0 30 21 51t50 21z" />
    <glyph glyph-name="ring" unicode="&#x2da;" horiz-adv-x="300" 
d="M264 659q0 -47 -31 -78t-88 -31q-109 0 -109 104q0 48 31 78.5t88 30.5q109 0 109 -104zM188 654q0 53 -38 53t-38 -48q0 -53 38 -53t38 48z" />
    <glyph glyph-name="ogonek" unicode="&#x2db;" horiz-adv-x="262" 
d="M99 0h126q-77 -57 -77 -110q0 -32 30 -32q18 0 38 12l20 -77q-44 -21 -92 -21q-51 0 -81 22.5t-30 68.5q0 68 66 137z" />
    <glyph glyph-name="tilde" unicode="&#x2dc;" horiz-adv-x="371" 
d="M279 687l59 -39q-36 -88 -105 -88q-32 0 -60 21.5t-40 21.5q-21 0 -40 -40l-60 40q35 87 105 87q32 0 60 -21t40 -21q21 0 41 39z" />
    <glyph glyph-name="hungarumlaut" unicode="&#x2dd;" horiz-adv-x="418" 
d="M210 704l-126 -143l-62 39l107 156zM388 694l-137 -133l-59 43l118 149z" />
    <glyph glyph-name="uni037E" unicode="&#x37e;" horiz-adv-x="244" 
d="M136 435q31 0 53 -22.5t22 -52.5q0 -31 -22 -53.5t-53 -22.5t-53 22.5t-22 53.5q0 30 22 52.5t53 22.5zM95 -167l-49 43q42 53 49 89.5t-17 62.5q-28 32 -10 73t66 41q32 0 53.5 -26.5t21.5 -67.5q0 -108 -114 -215z" />
    <glyph glyph-name="tonos" unicode="&#x384;" horiz-adv-x="307" 
d="M209 736l-33 -181l-84 8l16 182z" />
    <glyph glyph-name="dieresistonos" unicode="&#x385;" horiz-adv-x="422" 
d="M379 647q0 -25 -15.5 -41t-38.5 -16t-38 16t-15 40q0 25 15.5 41t38.5 16t38 -16t15 -40zM265 730l-32 -176l-71 7l15 176zM150 647q0 -25 -15.5 -41t-38.5 -16t-38.5 16t-15.5 40q0 25 16 41t39 16t38 -16t15 -40z" />
    <glyph glyph-name="Alphatonos" unicode="&#x386;" horiz-adv-x="535" 
d="M535 0h-129l-33 139h-192l-34 -139h-117l164 675h174zM353 240l-49 204q-16 67 -27 141h-1q-10 -70 -26 -141l-49 -204h152zM128 736l-33 -181l-84 8l16 182z" />
    <glyph glyph-name="anoteleia" unicode="&#x387;" horiz-adv-x="229" 
d="M114 568q31 0 53 -21.5t22 -52.5q0 -32 -21.5 -53.5t-53.5 -21.5q-31 0 -52.5 22t-21.5 53t21.5 52.5t52.5 21.5z" />
    <glyph glyph-name="Epsilontonos" unicode="&#x388;" horiz-adv-x="466" 
d="M430 0h-297v675h296v-103h-176v-178h166v-100h-166v-190h177v-104zM117 736l-33 -181l-84 8l16 182z" />
    <glyph glyph-name="Etatonos" unicode="&#x389;" horiz-adv-x="622" 
d="M577 0h-120v291h-204v-291h-120v675h120v-278h204v278h120v-675zM117 736l-33 -181l-84 8l16 182z" />
    <glyph glyph-name="Iotatonos" unicode="&#x38a;" horiz-adv-x="302" 
d="M253 0h-120v675h120v-675zM117 736l-33 -181l-84 8l16 182z" />
    <glyph glyph-name="Omicrontonos" unicode="&#x38c;" horiz-adv-x="611" 
d="M583 344q0 -160 -66 -257t-198 -97q-244 0 -244 341q0 159 66.5 256.5t197.5 97.5q244 0 244 -341zM457 335q0 243 -128 243q-127 0 -127 -238q0 -243 127 -243q128 0 128 238zM117 736l-33 -181l-84 8l16 182z" />
    <glyph glyph-name="Upsilontonos" unicode="&#x38e;" horiz-adv-x="574" 
d="M576 675l-168 -443v-232h-120v232l-170 443h131l69 -204q20 -59 32 -113h1q15 59 32 109l67 208h126zM117 736l-33 -181l-84 8l16 182z" />
    <glyph glyph-name="Omegatonos" unicode="&#x38f;" horiz-adv-x="563" 
d="M72 736l-33 -181l-84 8l16 182zM528 0h-208v97q46 46 68 105.5t22 148.5q0 227 -128 227q-62 0 -94.5 -59t-32.5 -168q0 -89 20.5 -145.5t70.5 -107.5v-98h-210v99h87q-93 85 -93 253q0 145 66 239t196 94q87 0 142.5 -43t77.5 -111t22 -163q0 -178 -96 -269h90v-99z" />
    <glyph glyph-name="iotadieresistonos" unicode="&#x390;" horiz-adv-x="230" 
d="M216 -2q-24 -7 -54 -7q-63 0 -88.5 32.5t-25.5 112.5v361h118v-343q0 -44 10 -56t40 -9v-91zM286 647q0 -25 -15.5 -41t-38.5 -16t-38 16t-15 40q0 25 15.5 41t38.5 16t38 -16t15 -40zM172 730l-32 -176l-71 7l15 176zM57 647q0 -25 -15.5 -41t-38.5 -16t-38.5 16
t-15.5 40q0 25 16 41t39 16t38 -16t15 -40z" />
    <glyph glyph-name="Alpha" unicode="&#x391;" horiz-adv-x="505" 
d="M505 0h-129l-33 139h-192l-34 -139h-117l164 675h174zM323 240l-49 204q-16 67 -27 141h-1q-10 -70 -26 -141l-49 -204h152z" />
    <glyph glyph-name="Beta" unicode="&#x392;" horiz-adv-x="468" 
d="M440 206q0 -92 -56.5 -150.5t-170.5 -58.5q-16 0 -70.5 1t-93.5 2v675q98 4 176 4q199 0 199 -174q0 -104 -84 -147v-1q100 -31 100 -151zM300 490q0 91 -84 91q-9 0 -47 -2v-184q15 -1 42 -1q89 0 89 96zM312 200q0 98 -103 98q-27 0 -40 -1v-197q42 -3 51 -3
q45 0 68.5 27.5t23.5 75.5z" />
    <glyph glyph-name="Gamma" unicode="&#x393;" horiz-adv-x="341" 
d="M332 570h-163v-570h-120v675h283v-105z" />
    <glyph glyph-name="Delta" unicode="&#x394;" horiz-adv-x="500" 
d="M479 0h-458v92l141 583h173l144 -583v-92zM349 110l-72 304q-27 131 -32 171h-2q-5 -40 -31 -174l-72 -301h209z" />
    <glyph glyph-name="Epsilon" unicode="&#x395;" horiz-adv-x="382" 
d="M346 0h-297v675h296v-103h-176v-178h166v-100h-166v-190h177v-104z" />
    <glyph glyph-name="Zeta" unicode="&#x396;" horiz-adv-x="409" 
d="M378 0h-347v95l201 473q-52 -4 -99 -4h-96v111h337v-93l-201 -474q42 5 109 5h96v-113z" />
    <glyph glyph-name="Eta" unicode="&#x397;" horiz-adv-x="542" 
d="M493 0h-120v291h-204v-291h-120v675h120v-278h204v278h120v-675z" />
    <glyph glyph-name="Theta" unicode="&#x398;" horiz-adv-x="569" 
d="M366 297h-163v94h163v-94zM541 344q0 -160 -66.5 -257t-199.5 -97q-247 0 -247 342q0 159 66.5 256t199.5 97q247 0 247 -341zM416 335q0 243 -132 243q-131 0 -131 -238q0 -243 131 -243q63 0 97.5 61t34.5 177z" />
    <glyph glyph-name="Iota" unicode="&#x399;" horiz-adv-x="218" 
d="M169 0h-120v675h120v-675z" />
    <glyph glyph-name="Kappa" unicode="&#x39a;" horiz-adv-x="465" 
d="M458 0h-135l-153 327h-1v-327h-120v675h120v-309h1l148 309h131l-162 -319z" />
    <glyph glyph-name="Lambda" unicode="&#x39b;" horiz-adv-x="500" 
d="M2 0l160 675h173l163 -675h-129l-95 419q-23 115 -29 157h-1q-6 -48 -30 -160l-91 -416h-121z" />
    <glyph glyph-name="Mu" unicode="&#x39c;" horiz-adv-x="732" 
d="M428 0h-131l-91 420q-8 36 -27 152h-2q2 -91 -5 -177l-27 -395h-115l57 675h177l83 -375q13 -71 21 -146h1q11 86 23 146l81 375h172l57 -675h-122l-28 395q-5 68 -5 177h-2q-15 -99 -26 -152z" />
    <glyph glyph-name="Nu" unicode="&#x39d;" horiz-adv-x="544" 
d="M494 0h-144l-141 356q-44 110 -62 185h-2q12 -130 12 -328v-213h-108v675h159l127 -314q44 -110 62 -185h2q-12 130 -12 328v171h107v-675z" />
    <glyph glyph-name="Xi" unicode="&#x39e;" horiz-adv-x="417" 
d="M376 565h-335v110h335v-110zM329 293h-245v106h245v-106zM381 0h-345v112h345v-112z" />
    <glyph glyph-name="Omicron" unicode="&#x39f;" horiz-adv-x="564" 
d="M536 344q0 -160 -66 -257t-198 -97q-244 0 -244 341q0 159 66.5 256.5t197.5 97.5q244 0 244 -341zM410 335q0 243 -128 243q-127 0 -127 -238q0 -243 127 -243q128 0 128 238z" />
    <glyph glyph-name="Pi" unicode="&#x3a0;" horiz-adv-x="528" 
d="M479 0h-120v571h-190v-571h-120v675h430v-675z" />
    <glyph glyph-name="Rho" unicode="&#x3a1;" horiz-adv-x="437" 
d="M419 470q0 -107 -60 -168.5t-160 -61.5q-20 0 -30 2v-242h-120v675q14 0 45.5 1.5t61 2t56.5 0.5q104 0 155.5 -54.5t51.5 -154.5zM296 463q0 115 -90 115q-23 0 -37 -1v-233q15 -3 34 -3q93 0 93 122z" />
    <glyph glyph-name="Sigma" unicode="&#x3a3;" horiz-adv-x="411" 
d="M387 0h-355v92l157 243l-151 235v105h343v-108h-198l142 -224l-151 -233h213v-110z" />
    <glyph glyph-name="Tau" unicode="&#x3a4;" horiz-adv-x="402" 
d="M390 571h-129v-571h-120v571h-129v104h378v-104z" />
    <glyph glyph-name="Upsilon" unicode="&#x3a5;" horiz-adv-x="455" 
d="M457 675l-168 -443v-232h-120v232l-170 443h131l69 -204q20 -59 32 -113h1q15 59 32 109l67 208h126z" />
    <glyph glyph-name="Phi" unicode="&#x3a6;" horiz-adv-x="665" 
d="M642 344q0 -137 -71 -225t-181 -100v-75h-115v73q-122 5 -187 89t-65 226q0 137 71 224.5t181 99.5v72h115v-70q114 -5 183 -86.5t69 -227.5zM518 339q0 95 -33 152t-95 64v-433q56 9 92 65.5t36 151.5zM275 120v434q-57 -8 -93 -64.5t-36 -149.5q0 -97 33 -155t96 -65z
" />
    <glyph glyph-name="Chi" unicode="&#x3a7;" horiz-adv-x="494" 
d="M486 0h-140l-60 145q-24 61 -44 127q-21 -73 -42 -128l-56 -144h-136l156 350l-145 325h137l52 -127q20 -51 43 -125h1q14 48 41 124l48 128h134l-145 -325z" />
    <glyph glyph-name="Psi" unicode="&#x3a8;" horiz-adv-x="651" 
d="M613 424q0 -132 -59.5 -201.5t-168.5 -81.5v-141h-119v140q-125 10 -176.5 77.5t-51.5 178.5v279h120v-270q0 -146 108 -159v429h119v-429q59 6 84 45.5t25 127.5v256h119v-251z" />
    <glyph glyph-name="Omega" unicode="&#x3a9;" horiz-adv-x="564" 
d="M528 0h-208v97q46 46 68 105.5t22 148.5q0 227 -128 227q-62 0 -94.5 -59t-32.5 -168q0 -89 20.5 -145.5t70.5 -107.5v-98h-210v99h87q-93 85 -93 253q0 145 66 239t196 94q87 0 142.5 -43t77.5 -111t22 -163q0 -178 -96 -269h90v-99z" />
    <glyph glyph-name="Iotadieresis" unicode="&#x3aa;" horiz-adv-x="218" 
d="M32 842q25 0 42 -18t17 -43q0 -26 -17 -43.5t-42 -17.5t-42.5 17.5t-17.5 43.5t17.5 43.5t42.5 17.5zM187 842q25 0 42.5 -18t17.5 -43q0 -26 -17.5 -43.5t-42.5 -17.5t-42.5 18t-17.5 43t17.5 43t42.5 18zM169 0h-120v675h120v-675z" />
    <glyph glyph-name="Upsilondieresis" unicode="&#x3ab;" horiz-adv-x="455" 
d="M457 675l-168 -443v-232h-120v232l-170 443h131l69 -204q20 -59 32 -113h1q15 59 32 109l67 208h126zM142 844q25 0 43 -18t18 -44t-18 -44t-43 -18q-26 0 -44 18t-18 44t18 44t44 18zM314 844q25 0 43 -18t18 -44t-18 -44t-43 -18q-26 0 -44 18t-18 44t18 44t44 18z" />
    <glyph glyph-name="alphatonos" unicode="&#x3ac;" horiz-adv-x="477" 
d="M456 90v-94q-30 -5 -52 -5q-46 0 -65.5 23t-18.5 75h-1q-13 -45 -49 -72t-83 -27q-77 0 -120 61.5t-43 187.5q0 122 48.5 195t134.5 73q88 0 118 -89q1 36 9 79h106q-31 -136 -31 -290q0 -80 8 -99t39 -18zM292 249v5q0 73 -18.5 114t-53.5 41t-55 -41.5t-20 -120.5
q0 -159 72 -159q35 0 55 45t20 116zM317 736l-33 -181l-84 8l16 182z" />
    <glyph glyph-name="epsilontonos" unicode="&#x3ad;" horiz-adv-x="359" 
d="M343 16q-70 -26 -139 -26q-180 0 -180 138q0 44 21 76.5t52 46.5v1q-56 26 -56 101q0 68 46.5 111t138.5 43q57 0 110 -16l-16 -92q-53 19 -96 19q-34 0 -50 -18t-16 -45q0 -60 71 -60h79v-82h-88q-35 0 -54 -19.5t-19 -48.5t21 -46.5t61 -17.5q53 0 100 20zM283 736
l-33 -181l-84 8l16 182z" />
    <glyph glyph-name="etatonos" unicode="&#x3ae;" horiz-adv-x="462" 
d="M35 497h112q5 -70 5 -93q43 103 135 103q127 0 127 -164v-360q0 -115 14 -204h-116q-15 81 -15 187v356q0 44 -10.5 63.5t-34.5 19.5q-33 0 -56.5 -49t-23.5 -112v-244h-118v239q0 112 -19 258zM311 736l-33 -181l-84 8l16 182z" />
    <glyph glyph-name="iotatonos" unicode="&#x3af;" horiz-adv-x="230" 
d="M216 -2q-24 -7 -54 -7q-63 0 -88.5 32.5t-25.5 112.5v361h118v-343q0 -44 10 -56t40 -9v-91zM180 736l-33 -181l-84 8l16 182z" />
    <glyph glyph-name="upsilondieresistonos" unicode="&#x3b0;" horiz-adv-x="454" 
d="M416 291q0 -152 -54 -226.5t-140 -74.5q-97 0 -136 55t-39 165v287h117v-270q0 -75 14.5 -106.5t49.5 -31.5q34 0 51.5 43.5t17.5 145.5t-17 219h122q14 -91 14 -206zM398 647q0 -25 -15.5 -41t-38.5 -16t-38 16t-15 40q0 25 15.5 41t38.5 16t38 -16t15 -40zM284 730
l-32 -176l-71 7l15 176zM169 647q0 -25 -15.5 -41t-38.5 -16t-38.5 16t-15.5 40q0 25 16 41t39 16t38 -16t15 -40z" />
    <glyph glyph-name="alpha" unicode="&#x3b1;" horiz-adv-x="474" 
d="M456 90v-94q-30 -5 -52 -5q-46 0 -65.5 23t-18.5 75h-1q-13 -45 -49 -72t-83 -27q-77 0 -120 61.5t-43 187.5q0 122 48.5 195t134.5 73q88 0 118 -89q1 36 9 79h106q-31 -136 -31 -290q0 -80 8 -99t39 -18zM292 249v5q0 73 -18.5 114t-53.5 41t-55 -41.5t-20 -120.5
q0 -159 72 -159q35 0 55 45t20 116z" />
    <glyph glyph-name="beta" unicode="&#x3b2;" horiz-adv-x="466" 
d="M167 114q27 -24 63 -24q39 0 59.5 31.5t20.5 87.5q0 115 -87 115h-18v96q40 2 62.5 33.5t22.5 86.5q0 89 -58 89q-65 0 -65 -106v-409zM167 -23q0 -119 12 -198h-115q-15 83 -15 180v556q0 104 52 157.5t139 53.5q82 0 126 -47t44 -123q0 -62 -23.5 -106t-62.5 -58v-1
q54 -7 82.5 -55t28.5 -118q0 -102 -56 -165t-153 -63q-37 0 -59 10v-23z" />
    <glyph glyph-name="gamma" unicode="&#x3b3;" horiz-adv-x="413" 
d="M248 -13v-208h-117v118q0 93 -20.5 190t-109.5 410h127q78 -296 80 -382h2q73 206 54 382h123q15 -237 -139 -510z" />
    <glyph glyph-name="delta" unicode="&#x3b4;" horiz-adv-x="439" 
d="M238 726q79 0 141 -38l-46 -85q-49 33 -92 33q-37 0 -37 -32q0 -18 14.5 -36t71.5 -64q71 -55 97.5 -114.5t26.5 -146.5q0 -110 -52 -181.5t-150 -71.5t-143 63t-45 189q0 89 31 151.5t83 84.5q-59 54 -59 116q0 55 38 93.5t121 38.5zM294 234q0 63 -17.5 100t-58.5 73
q-73 -16 -73 -155q0 -165 75 -165q34 0 54 38.5t20 108.5z" />
    <glyph glyph-name="epsilon" unicode="&#x3b5;" horiz-adv-x="359" 
d="M343 16q-70 -26 -139 -26q-180 0 -180 138q0 44 21 76.5t52 46.5v1q-56 26 -56 101q0 68 46.5 111t138.5 43q57 0 110 -16l-16 -92q-53 19 -96 19q-34 0 -50 -18t-16 -45q0 -60 71 -60h79v-82h-88q-35 0 -54 -19.5t-19 -48.5t21 -46.5t61 -17.5q53 0 100 20z" />
    <glyph glyph-name="zeta" unicode="&#x3b6;" horiz-adv-x="329" 
d="M301 73q31 -31 31 -88q0 -99 -86 -200l-82 46q50 72 50 127q0 23 -15.5 34.5t-36 15t-48 13.5t-45.5 28q-45 45 -45 144q0 121 48.5 248t102.5 178h-139v98h277v-89q-74 -65 -121 -188t-47 -216q0 -66 21 -89q12 -12 62 -25.5t73 -36.5z" />
    <glyph glyph-name="eta" unicode="&#x3b7;" horiz-adv-x="462" 
d="M35 497h112q5 -70 5 -93q43 103 135 103q127 0 127 -164v-360q0 -115 14 -204h-116q-15 81 -15 187v356q0 44 -10.5 63.5t-34.5 19.5q-33 0 -56.5 -49t-23.5 -112v-244h-118v239q0 112 -19 258z" />
    <glyph glyph-name="theta" unicode="&#x3b8;" horiz-adv-x="461" 
d="M430 372q0 -197 -55.5 -289.5t-149.5 -92.5q-194 0 -194 351q0 200 55 292.5t150 92.5q194 0 194 -354zM310 410q-6 219 -80 219q-73 0 -79 -219h159zM310 317h-159q4 -229 80 -229q38 0 57 55t22 174z" />
    <glyph glyph-name="iota" unicode="&#x3b9;" horiz-adv-x="230" 
d="M216 -2q-24 -7 -54 -7q-63 0 -88.5 32.5t-25.5 112.5v361h118v-343q0 -44 10 -56t40 -9v-91z" />
    <glyph glyph-name="kappa" unicode="&#x3ba;" horiz-adv-x="413" 
d="M411 0h-132l-112 240h-1v-240h-118v497h118v-223h1l104 223h130l-120 -232z" />
    <glyph glyph-name="lambda" unicode="&#x3bb;" horiz-adv-x="408" 
d="M150 502l-14 54q-10 41 -25 56.5t-37 15.5q-3 0 -30 -3l-4 94q25 6 60 6q55 0 90.5 -27t55.5 -101l161 -597h-129l-47 204q-13 57 -26 167h-2q-14 -107 -28 -168l-52 -203h-125z" />
    <glyph glyph-name="nu" unicode="&#x3bd;" horiz-adv-x="412" 
d="M404 497q-30 -259 -138 -497h-139l-126 497h127l54 -229q17 -86 25 -173h2q10 61 15 82q42 143 53 320h127z" />
    <glyph glyph-name="xi" unicode="&#x3be;" horiz-adv-x="329" 
d="M328 -15q0 -92 -82 -193l-82 45q46 69 46 121q0 24 -14.5 35t-35 14t-50 15t-52.5 35q-42 42 -42 127q0 67 30 114.5t75 63.5q-79 22 -79 123q0 45 19 83t53 53q-22 -2 -37 -2h-49v98h276v-98h-28q-61 0 -89.5 -34.5t-28.5 -82.5q0 -37 19 -60t59 -23h50v-97h-38
q-56 0 -83.5 -32.5t-27.5 -79.5q0 -50 22 -72q14 -14 65.5 -29t72.5 -36q31 -31 31 -88z" />
    <glyph glyph-name="omicron" unicode="&#x3bf;" horiz-adv-x="445" 
d="M421 254q0 -123 -52.5 -193.5t-153.5 -70.5q-100 0 -145.5 62.5t-45.5 190.5q0 122 53 193t153 71q101 0 146 -62t45 -191zM300 243q0 85 -18.5 126t-59.5 41q-77 0 -77 -156q0 -85 18.5 -126t59.5 -41q77 0 77 156z" />
    <glyph glyph-name="pi" unicode="&#x3c0;" horiz-adv-x="509" 
d="M484 398h-76q0 -126 6 -194t16 -90t27 -22q13 0 25 4l12 -94q-37 -11 -67 -11q-57 0 -84.5 30.5t-39.5 115.5t-12 261h-92q2 -226 -44 -413l-122 28q51 197 51 385h-73v99h473v-99z" />
    <glyph glyph-name="rho" unicode="&#x3c1;" horiz-adv-x="445" 
d="M422 260q0 -117 -55.5 -192.5t-153.5 -75.5q-39 0 -57 9q3 -35 3 -83v-139h-118v484q0 113 51 178.5t144 65.5q91 0 138.5 -62.5t47.5 -184.5zM301 251q0 159 -73 159q-34 0 -51.5 -37t-17.5 -102v-165q23 -17 56 -17q39 0 62.5 40.5t23.5 121.5z" />
    <glyph glyph-name="sigma1" unicode="&#x3c2;" horiz-adv-x="332" 
d="M328 -15q0 -94 -82 -193l-82 45q47 70 47 121q0 22 -13.5 33.5t-32 14.5t-44.5 14t-44 29q-53 53 -53 186q0 132 52.5 201t151.5 69q50 0 86 -15l-23 -103q-29 17 -61 17q-83 0 -83 -156q0 -86 30 -116q12 -12 56 -26t63 -33q32 -32 32 -88z" />
    <glyph glyph-name="sigma" unicode="&#x3c3;" horiz-adv-x="467" 
d="M454 398q-40 0 -65 3q31 -57 31 -154q0 -118 -52 -187.5t-153 -69.5q-100 0 -145.5 62.5t-45.5 190.5t55.5 196t166.5 68q22 0 91 -5t117 -5v-99zM300 243q0 103 -33 164q-18 2 -33 2q-89 0 -89 -155q0 -85 18.5 -126t59.5 -41q77 0 77 156z" />
    <glyph glyph-name="tau" unicode="&#x3c4;" horiz-adv-x="292" 
d="M278 398h-88v-232q0 -43 8.5 -59t29.5 -16q16 0 26 3l8 -95q-36 -9 -65 -9q-70 0 -97.5 36.5t-27.5 120.5v251h-70v99h276v-99z" />
    <glyph glyph-name="upsilon" unicode="&#x3c5;" horiz-adv-x="454" 
d="M416 291q0 -152 -54 -226.5t-140 -74.5q-97 0 -136 55t-39 165v287h117v-270q0 -75 14.5 -106.5t49.5 -31.5q34 0 51.5 43.5t17.5 145.5t-17 219h122q14 -91 14 -206z" />
    <glyph glyph-name="phi" unicode="&#x3c6;" horiz-adv-x="592" 
d="M569 253q0 -111 -54.5 -179.5t-159.5 -82.5v-212h-118v211q-112 8 -163.5 69.5t-51.5 184.5q0 111 54.5 180t160.5 82v169h118v-168q111 -8 162.5 -69.5t51.5 -184.5zM450 247q0 77 -23.5 115t-72.5 44v-315q96 12 96 156zM238 91v315q-96 -11 -96 -155
q0 -77 23.5 -115.5t72.5 -44.5z" />
    <glyph glyph-name="chi" unicode="&#x3c7;" horiz-adv-x="410" 
d="M409 -224q-25 -5 -49 -5q-40 0 -63 13.5t-46 61.5t-46 145q-8 29 -13 75h-1q-10 -54 -19 -89l-57 -208l-122 30l135 361q-27 92 -42.5 140.5t-27 73.5t-17.5 29.5t-16 4.5q-7 0 -15 -2l-5 94q20 4 46 4q41 0 64.5 -12.5t45.5 -55t40 -125.5q9 -38 13 -76h1q7 42 19 89
l46 173h129l-132 -355q31 -101 48 -155t29 -81t18 -32t16 -5t15 1z" />
    <glyph glyph-name="psi" unicode="&#x3c8;" horiz-adv-x="638" 
d="M598 294q0 -275 -219 -302v-213h-117v212q-66 4 -110 25t-66.5 59t-31 80.5t-8.5 101.5v240h117v-220q0 -90 21 -135.5t78 -52.5v586h117v-586q57 7 79.5 52t22.5 141q0 105 -11 215h118q10 -97 10 -203z" />
    <glyph glyph-name="omega" unicode="&#x3c9;" horiz-adv-x="646" 
d="M620 264q0 -130 -49.5 -202.5t-129.5 -72.5q-49 0 -81 25.5t-40 65.5q-26 -91 -123 -91q-78 0 -124.5 66t-46.5 187q0 156 71 274l110 -37q-60 -95 -60 -221q0 -74 19 -117t49 -43q51 0 51 110v174h115v-173q0 -111 51 -111q29 0 48 40.5t19 114.5q0 128 -61 225l113 38
q69 -114 69 -252z" />
    <glyph glyph-name="iotadieresis" unicode="&#x3ca;" horiz-adv-x="230" 
d="M216 -2q-24 -7 -54 -7q-63 0 -88.5 32.5t-25.5 112.5v361h118v-343q0 -44 10 -56t40 -9v-91zM249 626q0 -26 -18 -44.5t-43 -18.5q-26 0 -44 18.5t-18 44.5t18 44.5t44 18.5q25 0 43 -18.5t18 -44.5zM94 626q0 -26 -18 -44.5t-44 -18.5q-25 0 -43 18.5t-18 44.5t18 44.5
t43 18.5q26 0 44 -18.5t18 -44.5z" />
    <glyph glyph-name="upsilondieresis" unicode="&#x3cb;" horiz-adv-x="454" 
d="M416 291q0 -152 -54 -226.5t-140 -74.5q-97 0 -136 55t-39 165v287h117v-270q0 -75 14.5 -106.5t49.5 -31.5q34 0 51.5 43.5t17.5 145.5t-17 219h122q14 -91 14 -206zM142 689q26 0 44 -18.5t18 -44.5t-18.5 -44.5t-44.5 -18.5t-44 18.5t-18 44.5t18.5 44.5t44.5 18.5z
M308 689q26 0 44.5 -18.5t18.5 -44.5t-18.5 -44.5t-44.5 -18.5t-44 18.5t-18 44.5t18 44.5t44 18.5z" />
    <glyph glyph-name="omicrontonos" unicode="&#x3cc;" horiz-adv-x="445" 
d="M421 254q0 -123 -52.5 -193.5t-153.5 -70.5q-100 0 -145.5 62.5t-45.5 190.5q0 122 53 193t153 71q101 0 146 -62t45 -191zM300 243q0 85 -18.5 126t-59.5 41q-77 0 -77 -156q0 -85 18.5 -126t59.5 -41q77 0 77 156zM295 736l-33 -181l-84 8l16 182z" />
    <glyph glyph-name="upsilontonos" unicode="&#x3cd;" horiz-adv-x="454" 
d="M416 291q0 -152 -54 -226.5t-140 -74.5q-97 0 -136 55t-39 165v287h117v-270q0 -75 14.5 -106.5t49.5 -31.5q34 0 51.5 43.5t17.5 145.5t-17 219h122q14 -91 14 -206zM297 736l-33 -181l-84 8l16 182z" />
    <glyph glyph-name="omegatonos" unicode="&#x3ce;" horiz-adv-x="646" 
d="M620 264q0 -130 -49.5 -202.5t-129.5 -72.5q-49 0 -81 25.5t-40 65.5q-26 -91 -123 -91q-78 0 -124.5 66t-46.5 187q0 156 71 274l110 -37q-60 -95 -60 -221q0 -74 19 -117t49 -43q51 0 51 110v174h115v-173q0 -111 51 -111q29 0 48 40.5t19 114.5q0 128 -61 225l113 38
q69 -114 69 -252zM398 736l-33 -181l-84 8l16 182z" />
    <glyph glyph-name="uni0400" unicode="&#x400;" horiz-adv-x="382" 
d="M346 0h-297v675h296v-103h-176v-178h166v-100h-166v-190h177v-104zM269 780l-23 -60l-185 49l32 83z" />
    <glyph glyph-name="uni0401" unicode="&#x401;" horiz-adv-x="382" 
d="M346 0h-297v675h296v-103h-176v-178h166v-100h-166v-190h177v-104zM111 844q25 0 43 -18t18 -44t-18 -44t-43 -18q-26 0 -44 18t-18 44t18 44t44 18zM283 844q25 0 43 -18t18 -44t-18 -44t-43 -18q-26 0 -44 18t-18 44t18 44t44 18z" />
    <glyph glyph-name="uni0402" unicode="&#x402;" horiz-adv-x="562" 
d="M540 211q0 -244 -237 -257v101q58 4 85.5 37.5t27.5 105.5q0 133 -95 133q-40 0 -82 -21v-310h-120v571h-107v104h359v-104h-132v-159q50 20 103 20q99 0 148.5 -57.5t49.5 -163.5z" />
    <glyph glyph-name="uni0403" unicode="&#x403;" horiz-adv-x="341" 
d="M49 675h283v-107h-163v-568h-120v675zM122 780l175 72l32 -83l-185 -49z" />
    <glyph glyph-name="uni0404" unicode="&#x404;" horiz-adv-x="421" 
d="M381 125l26 -102q-62 -32 -138 -32q-127 0 -184.5 85.5t-57.5 247.5q0 165 64.5 262t190.5 97q66 0 120 -23l-25 -106q-45 20 -88 20q-112 0 -128 -179h194v-101h-195q8 -192 127 -192q50 0 94 23z" />
    <glyph glyph-name="uni0405" unicode="&#x405;" horiz-adv-x="401" 
d="M372 190q0 -89 -56 -144t-155 -55q-74 0 -130 21l23 112q49 -26 102 -26q88 0 88 82q0 35 -22.5 61.5t-54.5 47t-64 44.5t-54.5 66t-22.5 99q0 81 55 134t149 53q60 0 112 -16l-22 -104q-44 19 -86 19q-40 0 -60.5 -22t-20.5 -57q0 -33 22.5 -59t54.5 -47t64.5 -45
t55 -66t22.5 -98z" />
    <glyph glyph-name="uni0406" unicode="&#x406;" horiz-adv-x="218" 
d="M169 0h-120v675h120v-675z" />
    <glyph glyph-name="uni0407" unicode="&#x407;" horiz-adv-x="218" 
d="M32 842q25 0 42 -18t17 -43q0 -26 -17 -43.5t-42 -17.5t-42.5 17.5t-17.5 43.5t17.5 43.5t42.5 17.5zM187 842q25 0 42.5 -18t17.5 -43q0 -26 -17.5 -43.5t-42.5 -17.5t-42.5 18t-17.5 43t17.5 43t42.5 18zM169 0h-120v675h120v-675z" />
    <glyph glyph-name="uni0408" unicode="&#x408;" horiz-adv-x="262" 
d="M212 675v-484q0 -94 -33 -145t-115 -51q-36 0 -63 4v99q19 -4 40 -4q29 0 40.5 17.5t11.5 68.5v495h119z" />
    <glyph glyph-name="uni0409" unicode="&#x409;" horiz-adv-x="735" 
d="M75 675h373v-249q13 1 51 1q105 0 160 -52.5t55 -151.5q0 -107 -65 -167t-166 -60q-29 0 -90 2t-64 2v571h-134v-106q0 -185 -19.5 -286t-57 -141t-105.5 -49l-17 110q35 9 50 33.5t22 93.5t7 218v231zM587 215q0 112 -96 112q-19 0 -43 -2v-226q26 -2 42 -2q97 0 97 118
z" />
    <glyph glyph-name="uni040A" unicode="&#x40a;" horiz-adv-x="757" 
d="M350 0v297h-181v-297h-120v675h120v-273h181v273h120v-249q13 1 51 1q105 0 160 -52.5t55 -151.5q0 -108 -65 -167.5t-167 -59.5q-28 0 -88 2t-66 2zM608 215q0 112 -95 112q-21 0 -43 -2v-226q26 -2 42 -2q96 0 96 118z" />
    <glyph glyph-name="uni040B" unicode="&#x40b;" horiz-adv-x="562" 
d="M534 0h-120v195q0 75 -20 107.5t-72 32.5q-41 0 -83 -21v-314h-120v571h-107v104h359v-104h-132v-155q53 21 102 21q107 0 150 -58t43 -166v-213z" />
    <glyph glyph-name="uni040C" unicode="&#x40c;" horiz-adv-x="465" 
d="M458 0h-135l-153 327h-1v-327h-120v675h120v-309h1l148 309h131l-162 -319zM198 780l175 72l32 -83l-185 -49z" />
    <glyph glyph-name="uni040D" unicode="&#x40d;" horiz-adv-x="548" 
d="M499 0h-118v263q0 105 14 243h-2q-27 -90 -58 -162l-147 -344h-139v675h118v-263q0 -105 -14 -243h2q27 90 58 162l147 344h139v-675zM345 780l-23 -60l-185 49l32 83z" />
    <glyph glyph-name="uni040E" unicode="&#x40e;" horiz-adv-x="445" 
d="M444 675q-33 -121 -53.5 -194.5t-44.5 -152.5t-39.5 -121.5t-35 -87t-35 -64.5t-35.5 -37.5t-40 -22.5t-46 -5q-42 0 -73 11l18 106q27 -12 52 -12q21 0 36.5 16t32.5 57l-180 507h130l71 -217q25 -83 36 -148h1q10 62 32 151q11 44 51 214h122zM386 853
q0 -63 -41.5 -100t-118.5 -37q-78 0 -117.5 35.5t-39.5 101.5h105q0 -68 55 -68q51 0 51 68h106z" />
    <glyph glyph-name="uni040F" unicode="&#x40f;" horiz-adv-x="531" 
d="M473 0h-161v-140h-101v140h-162v675h120v-571h185v571h119v-675z" />
    <glyph glyph-name="uni0410" unicode="&#x410;" horiz-adv-x="505" 
d="M505 0h-129l-33 139h-192l-34 -139h-117l164 675h174zM323 240l-49 204q-16 67 -27 141h-1q-10 -70 -26 -141l-49 -204h152z" />
    <glyph glyph-name="uni0411" unicode="&#x411;" horiz-adv-x="467" 
d="M438 214q0 -95 -59.5 -157t-174.5 -62q-85 0 -155 7v673h352v-104h-232v-163h65q97 0 150.5 -49.5t53.5 -144.5zM311 206q0 48 -23 75t-69 27h-50v-206q24 -4 48 -4q45 0 69.5 29t24.5 79z" />
    <glyph glyph-name="uni0412" unicode="&#x412;" horiz-adv-x="468" 
d="M440 206q0 -92 -56.5 -150.5t-170.5 -58.5q-16 0 -70.5 1t-93.5 2v675q98 4 176 4q199 0 199 -174q0 -104 -84 -147v-1q100 -31 100 -151zM300 490q0 91 -84 91q-9 0 -47 -2v-184q15 -1 42 -1q89 0 89 96zM312 200q0 98 -103 98q-27 0 -40 -1v-197q42 -3 51 -3
q45 0 68.5 27.5t23.5 75.5z" />
    <glyph glyph-name="uni0413" unicode="&#x413;" horiz-adv-x="341" 
d="M49 675h283v-107h-163v-568h-120v675z" />
    <glyph glyph-name="uni0414" unicode="&#x414;" horiz-adv-x="568" 
d="M556 104v-244h-101v140h-350v-140h-101v244h46q26 51 36.5 124t10.5 216v231h393v-571h66zM371 104v467h-154v-106q0 -267 -48 -361h202z" />
    <glyph glyph-name="uni0415" unicode="&#x415;" horiz-adv-x="382" 
d="M346 0h-297v675h296v-103h-176v-178h166v-100h-166v-190h177v-104z" />
    <glyph glyph-name="uni0416" unicode="&#x416;" horiz-adv-x="687" 
d="M285 675h119v-309h1l134 309h130l-149 -319l158 -356h-133l-140 327h-1v-327h-119v327h-1l-140 -327h-133l158 353l-149 322h130l134 -309h1v309z" />
    <glyph glyph-name="uni0417" unicode="&#x417;" horiz-adv-x="396" 
d="M369 205q0 -101 -64.5 -157t-164.5 -56q-70 0 -124 16l11 109q57 -20 112 -20q53 0 77.5 27t24.5 72q0 52 -33 75t-98 23h-41v100h52q50 0 78.5 25.5t28.5 70.5q0 40 -21.5 64t-67.5 24q-54 0 -103 -22l-11 103q69 24 139 24q92 0 140.5 -46t48.5 -122q0 -108 -86 -152
q48 -14 75 -55.5t27 -102.5z" />
    <glyph glyph-name="uni0418" unicode="&#x418;" horiz-adv-x="548" 
d="M499 0h-118v263q0 105 14 243h-2q-27 -90 -58 -162l-147 -344h-139v675h118v-263q0 -105 -14 -243h2q27 90 58 162l147 344h139v-675z" />
    <glyph glyph-name="uni0419" unicode="&#x419;" horiz-adv-x="548" 
d="M499 0h-118v263q0 105 14 243h-2q-27 -90 -58 -162l-147 -344h-139v675h118v-263q0 -105 -14 -243h2q27 90 58 162l147 344h139v-675zM432 853q0 -63 -41.5 -100t-118.5 -37q-78 0 -117.5 35.5t-39.5 101.5h105q0 -68 55 -68q51 0 51 68h106z" />
    <glyph glyph-name="uni041A" unicode="&#x41a;" horiz-adv-x="465" 
d="M458 0h-135l-153 327h-1v-327h-120v675h120v-309h1l148 309h131l-162 -319z" />
    <glyph glyph-name="uni041B" unicode="&#x41b;" horiz-adv-x="506" 
d="M456 0h-119v571h-142v-106q0 -185 -19.5 -286t-57 -141t-105.5 -49l-17 110q35 9 50 33.5t22 93.5t7 218v231h381v-675z" />
    <glyph glyph-name="uni041C" unicode="&#x41c;" horiz-adv-x="732" 
d="M428 0h-131l-91 420q-8 36 -27 152h-2q2 -91 -5 -177l-27 -395h-115l57 675h177l83 -375q13 -71 21 -146h1q11 86 23 146l81 375h172l57 -675h-122l-28 395q-5 68 -5 177h-2q-15 -99 -26 -152z" />
    <glyph glyph-name="uni041D" unicode="&#x41d;" horiz-adv-x="532" 
d="M483 0h-120v291h-194v-291h-120v675h120v-278h194v278h120v-675z" />
    <glyph glyph-name="uni041E" unicode="&#x41e;" horiz-adv-x="564" 
d="M536 344q0 -160 -66 -257t-198 -97q-244 0 -244 341q0 159 66.5 256.5t197.5 97.5q244 0 244 -341zM410 335q0 243 -128 243q-127 0 -127 -238q0 -243 127 -243q128 0 128 238z" />
    <glyph glyph-name="uni041F" unicode="&#x41f;" horiz-adv-x="528" 
d="M479 0h-120v571h-190v-571h-120v675h430v-675z" />
    <glyph glyph-name="uni0420" unicode="&#x420;" horiz-adv-x="437" 
d="M419 470q0 -107 -60 -168.5t-160 -61.5q-20 0 -30 2v-242h-120v675q14 0 45.5 1.5t61 2t56.5 0.5q104 0 155.5 -54.5t51.5 -154.5zM296 463q0 115 -90 115q-23 0 -37 -1v-233q15 -3 34 -3q93 0 93 122z" />
    <glyph glyph-name="uni0421" unicode="&#x421;" horiz-adv-x="421" 
d="M407 23q-62 -32 -138 -32q-127 0 -184.5 85.5t-57.5 246.5q0 165 64.5 262.5t190.5 97.5q66 0 120 -23l-26 -107q-43 20 -87 20q-130 0 -130 -238q0 -233 128 -233q48 0 93 24z" />
    <glyph glyph-name="uni0422" unicode="&#x422;" horiz-adv-x="402" 
d="M390 571h-129v-571h-120v571h-129v104h378v-104z" />
    <glyph glyph-name="uni0423" unicode="&#x423;" horiz-adv-x="445" 
d="M444 675q-33 -121 -53.5 -194.5t-44.5 -152.5t-39.5 -121.5t-35 -87t-35 -64.5t-35.5 -37.5t-40 -22.5t-46 -5q-42 0 -73 11l18 106q27 -12 52 -12q21 0 36.5 16t32.5 57l-180 507h130l71 -217q25 -83 36 -148h1q10 62 32 151q11 44 51 214h122z" />
    <glyph glyph-name="uni0424" unicode="&#x424;" horiz-adv-x="673" 
d="M649 342q0 -141 -66 -226t-187 -97v-74h-119v72q-132 7 -192.5 87t-60.5 228q0 141 66 226.5t187 96.5v72h119v-70q132 -7 192.5 -87t60.5 -228zM525 333q0 203 -130 220v-433q130 18 130 213zM278 121v433q-130 -18 -130 -213q0 -202 130 -220z" />
    <glyph glyph-name="uni0425" unicode="&#x425;" horiz-adv-x="494" 
d="M486 0h-140l-60 145q-24 61 -44 127q-21 -73 -42 -128l-56 -144h-136l156 350l-145 325h137l52 -127q20 -51 43 -125h1q14 48 41 124l48 128h134l-145 -325z" />
    <glyph glyph-name="uni0426" unicode="&#x426;" horiz-adv-x="552" 
d="M540 104v-244h-101v140h-390v675h120v-571h186v571h119v-571h66z" />
    <glyph glyph-name="uni0427" unicode="&#x427;" horiz-adv-x="499" 
d="M330 265q-55 -20 -105 -20q-109 0 -152.5 57t-43.5 160v213h119v-194q0 -71 21 -103t74 -32q45 0 87 21v308h120v-675h-120v265z" />
    <glyph glyph-name="uni0428" unicode="&#x428;" horiz-adv-x="746" 
d="M696 0h-647v675h120v-571h145v571h117v-571h146v571h119v-675z" />
    <glyph glyph-name="uni0429" unicode="&#x429;" horiz-adv-x="774" 
d="M762 104v-244h-101v140h-612v675h120v-571h145v571h117v-571h146v571h119v-571h66z" />
    <glyph glyph-name="uni042A" unicode="&#x42a;" horiz-adv-x="526" 
d="M239 675v-249q12 1 50 1q106 0 161 -52.5t55 -151.5q0 -108 -65 -167.5t-167 -59.5q-28 0 -88 2t-66 2v571h-107v104h227zM377 215q0 112 -95 112q-21 0 -43 -2v-226q26 -2 42 -2q96 0 96 118z" />
    <glyph glyph-name="uni042B" unicode="&#x42b;" horiz-adv-x="666" 
d="M617 0h-120v675h120v-675zM432 223q0 -108 -64 -167.5t-166 -59.5q-28 0 -87.5 2t-65.5 2v675h120v-249q13 1 49 1q105 0 159.5 -52.5t54.5 -151.5zM305 215q0 112 -94 112q-20 0 -42 -2v-226q26 -2 41 -2q95 0 95 118z" />
    <glyph glyph-name="uni042C" unicode="&#x42c;" horiz-adv-x="456" 
d="M435 223q0 -108 -65 -167.5t-167 -59.5q-28 0 -88 2t-66 2v675h120v-249q13 1 51 1q105 0 160 -52.5t55 -151.5zM307 215q0 112 -95 112q-21 0 -43 -2v-226q26 -2 42 -2q96 0 96 118z" />
    <glyph glyph-name="uni042D" unicode="&#x42d;" horiz-adv-x="421" 
d="M394 350q0 -165 -63 -262t-188 -97q-73 0 -129 27l24 107q48 -23 97 -23q115 0 126 192h-195v101h195q-13 179 -129 179q-46 0 -88 -21l-25 101q58 29 133 29q242 0 242 -333z" />
    <glyph glyph-name="uni042E" unicode="&#x42e;" horiz-adv-x="752" 
d="M723 344q0 -160 -62.5 -257t-187.5 -97q-114 0 -167 79t-61 228h-73v-297h-120v675h120v-278h75q13 131 74 209.5t170 78.5q232 0 232 -341zM597 336q0 242 -115 242t-115 -238q0 -243 114 -243q116 0 116 239z" />
    <glyph glyph-name="uni042F" unicode="&#x42f;" horiz-adv-x="457" 
d="M408 0h-120v283h-26l-120 -283h-134l112 246q21 48 30 62q-54 13 -85 56t-31 109q0 97 57.5 152t170.5 55q65 0 146 -9v-671zM288 379v198q-18 3 -39 3q-91 0 -91 -101q0 -100 91 -100h39z" />
    <glyph glyph-name="uni0430" unicode="&#x430;" horiz-adv-x="417" 
d="M372 0h-105q0 59 4 79l-1 1q-12 -40 -46 -64.5t-78 -24.5q-58 0 -91 35.5t-33 103.5q0 83 61 129t170 45v28q0 44 -16.5 64t-53.5 20q-53 0 -114 -35l-25 85q79 41 158 41q86 0 127 -40t41 -125v-211q0 -90 2 -131zM253 200v22q-117 4 -117 -80q0 -60 43 -60
q31 0 52.5 34.5t21.5 83.5z" />
    <glyph glyph-name="uni0431" unicode="&#x431;" horiz-adv-x="452" 
d="M427 257q0 -130 -53.5 -198.5t-152.5 -68.5q-41 0 -72 12t-58.5 43t-42 91t-14.5 148v29q0 257 83 340q29 29 71 43.5t77 16.5t70.5 6.5t50.5 14.5v-103q-22 -14 -98 -20.5t-101 -31.5q-38 -39 -48 -163h1q15 37 47 61.5t78 24.5q74 0 118 -60.5t44 -184.5zM307 245
q0 158 -73 158q-39 0 -59.5 -40t-20.5 -106q0 -170 76 -170q77 0 77 158z" />
    <glyph glyph-name="uni0432" unicode="&#x432;" horiz-adv-x="434" 
d="M410 156q0 -71 -54 -118.5t-150 -47.5q-97 0 -158 17v488q94 12 165 12q180 0 180 -129q0 -79 -65 -108v-1q36 -8 59 -38t23 -75zM274 360q0 62 -69 62q-18 0 -40 -4v-120h43q66 0 66 62zM287 146q0 70 -78 70h-44v-132q24 -8 49 -8q36 0 54.5 19t18.5 51z" />
    <glyph glyph-name="uni0433" unicode="&#x433;" horiz-adv-x="292" 
d="M281 398h-115v-398h-118v497h233v-99z" />
    <glyph glyph-name="uni0434" unicode="&#x434;" horiz-adv-x="500" 
d="M492 101v-232h-98v131h-296v-131h-98v232h51q36 57 36 229v167h340v-396h65zM310 101v297h-110v-54q0 -178 -33 -243h143z" />
    <glyph glyph-name="uni0435" unicode="&#x435;" horiz-adv-x="420" 
d="M393 289q0 -32 -3 -65h-245v-6q0 -136 101 -136q56 0 115 30l24 -85q-76 -37 -158 -37q-103 0 -152.5 60.5t-49.5 193.5q0 114 48 188.5t147 74.5q86 0 129.5 -57t43.5 -161zM277 306q0 113 -62 113q-63 0 -68 -113h130z" />
    <glyph glyph-name="uni0436" unicode="&#x436;" horiz-adv-x="601" 
d="M242 274v223h117v-223h1l97 223h131l-117 -231l127 -266h-131l-107 240h-1v-240h-117v240h-1l-107 -240h-131l127 262l-118 235h132l97 -223h1z" />
    <glyph glyph-name="uni0437" unicode="&#x437;" horiz-adv-x="355" 
d="M331 155q0 -75 -52 -120t-146 -45q-64 0 -117 14l15 97q49 -20 104 -20q73 0 73 66q0 67 -83 67h-73v82h73q71 0 71 61t-65 61q-43 0 -95 -20l-13 84q68 25 131 25q84 0 122 -36.5t38 -92.5q0 -78 -65 -109v-1q36 -8 59 -37.5t23 -75.5z" />
    <glyph glyph-name="uni0438" unicode="&#x438;" horiz-adv-x="474" 
d="M426 0h-114v138q0 87 14 218h-1q-30 -88 -43 -122l-101 -234h-133v497h114v-138q0 -87 -14 -218h2q24 76 43 122l100 234h133v-497z" />
    <glyph glyph-name="uni0439" unicode="&#x439;" horiz-adv-x="474" 
d="M426 0h-114v138q0 87 14 218h-1q-30 -88 -43 -122l-101 -234h-133v497h114v-138q0 -87 -14 -218h2q24 76 43 122l100 234h133v-497zM395 691q0 -67 -41.5 -106t-118.5 -39q-78 0 -117.5 38t-39.5 107h103q0 -75 57 -75q52 0 52 75h105z" />
    <glyph glyph-name="uni043A" unicode="&#x43a;" horiz-adv-x="414" 
d="M411 0h-132l-112 240h-1v-240h-118v497h118v-223h1l104 223h130l-120 -232z" />
    <glyph glyph-name="uni043B" unicode="&#x43b;" horiz-adv-x="439" 
d="M390 0h-117v398h-95v-67q0 -186 -38.5 -262.5t-128.5 -78.5l-11 97q25 3 38 22t20 71t7 150v167h325v-497z" />
    <glyph glyph-name="uni043C" unicode="&#x43c;" horiz-adv-x="630" 
d="M372 0h-120l-71 289q-14 62 -20 114h-2q0 -70 -8 -142l-18 -261h-113l57 497h157l62 -261q14 -60 21 -128h2q6 65 20 128l61 261h151l59 -497h-119l-21 260q-7 60 -9 144h-2q-4 -47 -20 -114z" />
    <glyph glyph-name="uni043D" unicode="&#x43d;" horiz-adv-x="457" 
d="M408 0h-117v205h-125v-205h-118v497h118v-192h125v192h117v-497z" />
    <glyph glyph-name="uni043E" unicode="&#x43e;" horiz-adv-x="445" 
d="M421 254q0 -123 -52.5 -193.5t-153.5 -70.5q-100 0 -145.5 62.5t-45.5 190.5q0 122 53 193t153 71q101 0 146 -62t45 -191zM300 243q0 85 -18.5 126t-59.5 41q-77 0 -77 -156q0 -85 18.5 -126t59.5 -41q77 0 77 156z" />
    <glyph glyph-name="uni043F" unicode="&#x43f;" horiz-adv-x="457" 
d="M408 0h-117v396h-125v-396h-118v497h360v-497z" />
    <glyph glyph-name="uni0440" unicode="&#x440;" horiz-adv-x="449" 
d="M426 271q0 -133 -56 -204.5t-162 -71.5q-23 0 -42 4v-220h-118v718h108q0 -41 -9 -88h2q39 98 129 98q72 0 110 -59t38 -177zM303 258q0 147 -58 147q-35 0 -57 -47t-22 -119v-140q19 -9 46 -9q45 0 68 38.5t23 129.5z" />
    <glyph glyph-name="uni0441" unicode="&#x441;" horiz-adv-x="332" 
d="M318 19q-52 -27 -111 -27q-183 0 -183 243q0 132 52.5 201t152.5 69q47 0 85 -15l-23 -103q-29 17 -61 17q-83 0 -83 -156q0 -154 82 -154q33 0 67 20z" />
    <glyph glyph-name="uni0442" unicode="&#x442;" horiz-adv-x="326" 
d="M317 398h-95v-398h-118v398h-95v99h308v-99z" />
    <glyph glyph-name="uni0443" unicode="&#x443;" horiz-adv-x="412" 
d="M412 497l-117 -474q-34 -144 -103.5 -204.5t-183.5 -46.5l12 99q63 -8 91.5 13.5t50.5 95.5l6 20h-38l-129 497h127l59 -241q17 -99 26 -171h2q15 110 26 171l50 241h121z" />
    <glyph glyph-name="uni0444" unicode="&#x444;" horiz-adv-x="592" 
d="M569 253q0 -111 -54.5 -179.5t-159.5 -82.5v-212h-118v211q-112 8 -163.5 69.5t-51.5 184.5q0 111 54.5 180t160.5 82v169h118v-168q111 -8 162.5 -69.5t51.5 -184.5zM450 247q0 77 -23.5 115t-72.5 44v-315q96 12 96 156zM238 91v315q-96 -11 -96 -155
q0 -77 23.5 -115.5t72.5 -44.5z" />
    <glyph glyph-name="uni0445" unicode="&#x445;" horiz-adv-x="403" 
d="M397 0h-135l-36 97q-16 40 -29 94h-1q-13 -46 -30 -94l-35 -97h-125l109 254l-102 243h132l33 -84q15 -41 29 -95q16 57 30 95l31 84h122l-102 -243z" />
    <glyph glyph-name="uni0446" unicode="&#x446;" horiz-adv-x="480" 
d="M473 101v-232h-98v131h-327v497h118v-396h124v396h117v-396h66z" />
    <glyph glyph-name="uni0447" unicode="&#x447;" horiz-adv-x="428" 
d="M380 0h-118v186q-38 -24 -89 -24q-72 0 -110 40t-38 116v179h117v-156q0 -82 54 -82q35 0 66 24v214h118v-497z" />
    <glyph glyph-name="uni0448" unicode="&#x448;" horiz-adv-x="674" 
d="M625 0h-577v497h118v-396h114v396h114v-396h114v396h117v-497z" />
    <glyph glyph-name="uni0449" unicode="&#x449;" horiz-adv-x="698" 
d="M690 101v-232h-98v131h-544v497h118v-396h114v396h114v-396h114v396h117v-396h65z" />
    <glyph glyph-name="uni044A" unicode="&#x44a;" horiz-adv-x="465" 
d="M448 177q0 -82 -51 -134.5t-153 -52.5q-81 0 -147 16v392h-96v99h214v-161q24 4 59 4q82 0 128 -43t46 -120zM326 166q0 79 -72 79q-24 0 -39 -4v-149q21 -8 44 -8q67 0 67 82z" />
    <glyph glyph-name="uni044B" unicode="&#x44b;" horiz-adv-x="611" 
d="M397 177q0 -82 -50.5 -134.5t-151.5 -52.5q-78 0 -147 15v492h118v-161q24 4 58 4q82 0 127.5 -43t45.5 -120zM275 166q0 79 -71 79q-23 0 -38 -4v-149q21 -8 43 -8q66 0 66 82zM563 0h-118v497h118v-497z" />
    <glyph glyph-name="uni044C" unicode="&#x44c;" horiz-adv-x="417" 
d="M400 177q0 -82 -51 -134.5t-153 -52.5q-79 0 -148 15v492h118v-161q24 4 59 4q83 0 129 -43t46 -120zM278 166q0 79 -73 79q-24 0 -39 -4v-149q21 -8 45 -8q67 0 67 82z" />
    <glyph glyph-name="uni044D" unicode="&#x44d;" horiz-adv-x="341" 
d="M317 251q0 -121 -51.5 -191t-151.5 -70q-53 0 -103 22l24 96q34 -20 81 -20q40 0 58.5 31.5t20.5 94.5h-137v82h136q-8 115 -83 115q-38 0 -71 -19l-24 90q46 25 111 25q190 0 190 -256z" />
    <glyph glyph-name="uni044E" unicode="&#x44e;" horiz-adv-x="635" 
d="M612 254q0 -122 -51.5 -193t-148.5 -71q-174 0 -184 217h-62v-207h-118v497h118v-194h64q11 92 59.5 148t135.5 56q187 0 187 -253zM491 243q0 167 -75 167q-72 0 -72 -155q0 -168 75 -168q72 0 72 156z" />
    <glyph glyph-name="uni044F" unicode="&#x44f;" horiz-adv-x="423" 
d="M375 0h-118v193h-26l-100 -193h-129l90 165q24 44 30 52q-45 11 -71 44t-26 83q0 77 53 119.5t148 42.5q77 0 149 -12v-494zM257 279v135q-24 4 -38 4q-35 0 -54 -19t-19 -52q0 -32 19.5 -50t54.5 -18h37z" />
    <glyph glyph-name="uni0450" unicode="&#x450;" horiz-adv-x="420" 
d="M393 289q0 -32 -3 -65h-245v-6q0 -136 101 -136q56 0 115 30l24 -85q-76 -37 -158 -37q-103 0 -152.5 60.5t-49.5 193.5q0 114 48 188.5t147 74.5q86 0 129.5 -57t43.5 -161zM277 306q0 113 -62 113q-63 0 -68 -113h130zM287 610l-48 -55l-151 112l62 73z" />
    <glyph glyph-name="uni0451" unicode="&#x451;" horiz-adv-x="420" 
d="M393 289q0 -32 -3 -65h-245v-6q0 -136 101 -136q56 0 115 30l24 -85q-76 -37 -158 -37q-103 0 -152.5 60.5t-49.5 193.5q0 114 48 188.5t147 74.5q86 0 129.5 -57t43.5 -161zM277 306q0 113 -62 113q-63 0 -68 -113h130zM131 689q26 0 44 -18.5t18 -44.5t-18.5 -44.5
t-44.5 -18.5t-44 18.5t-18 44.5t18.5 44.5t44.5 18.5zM297 689q26 0 44.5 -18.5t18.5 -44.5t-18.5 -44.5t-44.5 -18.5t-44 18.5t-18 44.5t18 44.5t44 18.5z" />
    <glyph glyph-name="uni0452" unicode="&#x452;" horiz-adv-x="458" 
d="M414 209v-27q0 -114 -6.5 -180t-27.5 -109.5t-49.5 -63t-82.5 -39.5l-33 92q37 15 52.5 34.5t22.5 71.5t7 168v29q0 132 -11 176t-40 44q-31 0 -54 -45t-23 -113v-247h-118v561h-50v93h50v63h118v-63h91v-93h-91v-46q0 -39 -12 -96h2q16 39 49 63.5t73 24.5q75 0 104 -65
t29 -233z" />
    <glyph glyph-name="uni0453" unicode="&#x453;" horiz-adv-x="292" 
d="M281 398h-115v-398h-118v497h233v-99zM84 610l138 130l62 -72l-151 -113z" />
    <glyph glyph-name="uni0454" unicode="&#x454;" horiz-adv-x="341" 
d="M330 18q-54 -28 -120 -28q-186 0 -186 252q0 123 52.5 194t152.5 71q47 0 96 -18l-25 -97q-36 19 -73 19q-72 0 -82 -115h138v-82h-138q6 -126 84 -126q40 0 77 20z" />
    <glyph glyph-name="uni0455" unicode="&#x455;" horiz-adv-x="330" 
d="M307 148q0 -68 -48.5 -113t-129.5 -45q-55 0 -99 15l19 98q40 -19 73 -19q31 0 46.5 15t15.5 39q0 22 -16 39t-39 31t-46 31.5t-39 48t-16 71.5q0 68 44.5 108t126.5 40q44 0 82 -11l-15 -93q-33 12 -60 12q-57 0 -57 -47q0 -21 16.5 -38t39.5 -31.5t46 -32.5t39.5 -48
t16.5 -70z" />
    <glyph glyph-name="uni0456" unicode="&#x456;" horiz-adv-x="214" 
d="M166 0h-118v497h118v-497zM107 697q30 0 50.5 -21t20.5 -51q0 -29 -21 -50t-50 -21q-30 0 -50.5 21t-20.5 50q0 30 21 51t50 21z" />
    <glyph glyph-name="uni0457" unicode="&#x457;" horiz-adv-x="214" 
d="M166 0h-118v497h118v-497zM246 626q0 -26 -18 -44.5t-43 -18.5q-26 0 -44 18.5t-18 44.5t18 44.5t44 18.5q25 0 43 -18.5t18 -44.5zM91 626q0 -26 -18 -44.5t-44 -18.5q-25 0 -43 18.5t-18 44.5t18 44.5t43 18.5q26 0 44 -18.5t18 -44.5z" />
    <glyph glyph-name="uni0458" unicode="&#x458;" horiz-adv-x="214" 
d="M166 497v-531q0 -98 -40 -146.5t-124 -48.5q-29 0 -57 10l14 98q22 -8 42 -8q26 0 36.5 20t10.5 68v538h118zM107 697q30 0 50.5 -21t20.5 -51q0 -29 -21 -50t-50 -21q-30 0 -50.5 21t-20.5 50q0 30 21 51t50 21z" />
    <glyph glyph-name="uni0459" unicode="&#x459;" horiz-adv-x="633" 
d="M624 181q0 -84 -49 -137.5t-135 -53.5q-170 0 -170 173v235h-92v-67q0 -186 -38.5 -262.5t-128.5 -78.5l-11 97q25 3 38 22t20 71t7 150v167h323v-154q31 4 63 4q82 0 127.5 -43t45.5 -123zM502 169q0 84 -68 84q-24 0 -46 -5v-81q0 -83 55 -83q59 0 59 85z" />
    <glyph glyph-name="uni045A" unicode="&#x45a;" horiz-adv-x="650" 
d="M641 181q0 -84 -49 -137.5t-135 -53.5q-170 0 -170 173v42h-121v-205h-118v497h118v-192h121v192h118v-154q31 4 63 4q82 0 127.5 -43t45.5 -123zM519 169q0 84 -68 84q-24 0 -46 -5v-81q0 -83 55 -83q59 0 59 85z" />
    <glyph glyph-name="uni045B" unicode="&#x45b;" horiz-adv-x="458" 
d="M411 0h-117v327q0 41 -10 59.5t-33 18.5q-34 0 -58 -45t-24 -114v-246h-118v561h-50v93h50v63h118v-63h91v-93h-91v-46q0 -39 -12 -96h2q16 39 50 63.5t78 24.5q124 0 124 -157v-350z" />
    <glyph glyph-name="uni045C" unicode="&#x45c;" horiz-adv-x="414" 
d="M411 0h-132l-112 240h-1v-240h-118v497h118v-223h1l104 223h130l-120 -232zM164 610l138 130l62 -72l-151 -113z" />
    <glyph glyph-name="uni045D" unicode="&#x45d;" horiz-adv-x="474" 
d="M426 0h-114v138q0 87 14 218h-1q-30 -88 -43 -122l-101 -234h-133v497h114v-138q0 -87 -14 -218h2q24 76 43 122l100 234h133v-497zM302 610l-48 -55l-151 112l62 73z" />
    <glyph glyph-name="uni045E" unicode="&#x45e;" horiz-adv-x="412" 
d="M412 497l-117 -474q-34 -144 -103.5 -204.5t-183.5 -46.5l12 99q63 -8 91.5 13.5t50.5 95.5l6 20h-38l-129 497h127l59 -241q17 -99 26 -171h2q15 110 26 171l50 241h121zM364 691q0 -67 -41.5 -106t-118.5 -39q-78 0 -117.5 38t-39.5 107h103q0 -75 57 -75q52 0 52 75
h105z" />
    <glyph glyph-name="uni045F" unicode="&#x45f;" horiz-adv-x="456" 
d="M407 0h-130v-131h-98v131h-131v497h118v-396h124v396h117v-497z" />
    <glyph glyph-name="uni0472" unicode="&#x472;" horiz-adv-x="564" 
d="M536 344q0 -160 -66 -257t-198 -97q-244 0 -244 341q0 159 66.5 256.5t197.5 97.5q244 0 244 -341zM409 392q-10 188 -127 188q-60 0 -91 -51.5t-36 -136.5h254zM410 296h-255q8 -200 127 -200q61 0 92.5 53.5t35.5 146.5z" />
    <glyph glyph-name="uni0473" unicode="&#x473;" horiz-adv-x="445" 
d="M421 255q0 -124 -52 -194.5t-154 -70.5q-191 0 -191 252q0 124 52 194.5t154 70.5q191 0 191 -252zM302 292q-5 123 -80 123q-73 0 -79 -123h159zM143 212q3 -129 80 -129q76 0 79 129h-159z" />
    <glyph glyph-name="uni0490" unicode="&#x490;" horiz-adv-x="341" 
d="M332 568h-163v-568h-120v675h183v109h100v-216z" />
    <glyph glyph-name="uni0491" unicode="&#x491;" horiz-adv-x="292" 
d="M281 398h-115v-398h-118v497h135v109h98v-208z" />
    <glyph glyph-name="uni0492" unicode="&#x492;" horiz-adv-x="351" 
d="M59 388v287h283v-103h-163v-184h106v-100h-106v-288h-120v288h-53v100h53z" />
    <glyph glyph-name="uni0493" unicode="&#x493;" horiz-adv-x="302" 
d="M58 283v214h233v-99h-115v-115h76v-96h-76v-187h-118v187h-47v96h47z" />
    <glyph glyph-name="uni0496" unicode="&#x496;" horiz-adv-x="695" 
d="M285 675h119v-309h1l134 309h130l-149 -319l119 -252h56v-244h-101v140h-49l-140 327h-1v-327h-119v327h-1l-140 -327h-133l158 353l-149 322h130l134 -309h1v309z" />
    <glyph glyph-name="uni0497" unicode="&#x497;" horiz-adv-x="608" 
d="M608 101v-232h-98v131h-43l-107 240h-1v-240h-117v240h-1l-107 -240h-131l127 262l-118 235h132l97 -223h1v223h117v-223h1l97 223h131l-117 -231l86 -165h51z" />
    <glyph glyph-name="uni0498" unicode="&#x498;" horiz-adv-x="396" 
d="M369 205q0 -81 -41 -131t-107 -69v-145h-100v133q-54 2 -105 15l11 109q57 -20 112 -20q53 0 77.5 27t24.5 72q0 52 -33 75t-98 23h-41v100h52q50 0 78.5 25.5t28.5 70.5q0 40 -21.5 64t-67.5 24q-54 0 -103 -22l-11 103q69 24 139 24q92 0 140.5 -46t48.5 -122
q0 -108 -86 -152q48 -14 75 -55.5t27 -102.5z" />
    <glyph glyph-name="uni0499" unicode="&#x499;" horiz-adv-x="355" 
d="M331 155q0 -57 -31 -98.5t-93 -57.5v-130h-98v122q-53 2 -93 13l15 97q49 -20 104 -20q73 0 73 66q0 67 -83 67h-73v82h73q71 0 71 61t-65 61q-43 0 -95 -20l-13 84q68 25 131 25q84 0 122 -36.5t38 -92.5q0 -78 -65 -109v-1q36 -8 59 -37.5t23 -75.5z" />
    <glyph glyph-name="uni049A" unicode="&#x49a;" horiz-adv-x="473" 
d="M473 104v-244h-101v140h-49l-153 327h-1v-327h-120v675h120v-309h1l148 309h131l-162 -319l130 -252h56z" />
    <glyph glyph-name="uni049B" unicode="&#x49b;" horiz-adv-x="423" 
d="M166 497v-223h1l104 223h130l-120 -232l87 -164h55v-232h-98v131h-46l-112 240h-1v-240h-118v497h118z" />
    <glyph glyph-name="uni049C" unicode="&#x49c;" horiz-adv-x="564" 
d="M555 0h-133l-128 295h-20v-150h-68v150h-37v-295h-120v675h120v-280h37v146h68v-146h19l123 280h130l-149 -318z" />
    <glyph glyph-name="uni049D" unicode="&#x49d;" horiz-adv-x="523" 
d="M510 497l-112 -237l121 -260h-132l-92 207h-24v-119h-68v119h-37v-207h-118v497h118v-201h37v117h68v-117h24l84 201h131z" />
    <glyph glyph-name="uni04A0" unicode="&#x4a0;" horiz-adv-x="537" 
d="M239 675v-309h1l148 309h131l-162 -319l171 -356h-135l-153 327h-1v-327h-120v571h-107v104h227z" />
    <glyph glyph-name="uni04A1" unicode="&#x4a1;" horiz-adv-x="463" 
d="M450 497l-120 -232l130 -265h-132l-112 240h-1v-240h-118v398h-96v99h214v-223h1l104 223h130z" />
    <glyph glyph-name="uni04A2" unicode="&#x4a2;" horiz-adv-x="561" 
d="M483 104h65v-244h-101v140h-84v291h-194v-291h-120v675h120v-278h194v278h120v-571z" />
    <glyph glyph-name="uni04A3" unicode="&#x4a3;" horiz-adv-x="481" 
d="M473 92v-223h-98v124q-43 5 -63.5 38.5t-20.5 104.5v69h-125v-205h-118v497h118v-192h125v192h117v-333q0 -44 10 -58t38 -14h17z" />
    <glyph glyph-name="uni04AA" unicode="&#x4aa;" horiz-adv-x="421" 
d="M380 126l27 -103q-44 -24 -99 -29v-134h-100v137q-181 38 -181 326q0 165 64.5 262.5t190.5 97.5q66 0 120 -23l-26 -107q-43 20 -87 20q-130 0 -130 -238q0 -233 128 -233q48 0 93 24z" />
    <glyph glyph-name="uni04AB" unicode="&#x4ab;" horiz-adv-x="332" 
d="M296 114l22 -95q-32 -18 -74 -24v-126h-98v132q-122 37 -122 234q0 130 53 200t152 70q47 0 85 -15l-23 -103q-29 17 -62 17q-82 0 -82 -156q0 -154 82 -154q33 0 67 20z" />
    <glyph glyph-name="uni04AE" unicode="&#x4ae;" horiz-adv-x="455" 
d="M457 675l-168 -443v-232h-120v232l-170 443h131l69 -204q20 -59 32 -113h1q15 59 32 109l67 208h126z" />
    <glyph glyph-name="uni04AF" unicode="&#x4af;" horiz-adv-x="408" 
d="M409 497l-148 -497v-221h-117v221l-145 497h127l59 -222q17 -73 23 -132h2q5 62 22 131l57 223h120z" />
    <glyph glyph-name="uni04B0" unicode="&#x4b0;" horiz-adv-x="455" 
d="M451 675l-162 -428v-19h124v-101h-124v-127h-120v127h-124v101h124v18l-165 429h130l65 -190q21 -60 32 -112h1q15 60 32 108l63 194h124z" />
    <glyph glyph-name="uni04B1" unicode="&#x4b1;" horiz-adv-x="414" 
d="M285 93h97v-93h-118v-221h-118v221h-115v93h94l-122 404h128l53 -195q19 -78 27 -144h1q6 62 24 139l53 200h121z" />
    <glyph glyph-name="uni04B2" unicode="&#x4b2;" horiz-adv-x="502" 
d="M502 104v-244h-101v140h-55l-60 145q-24 61 -44 127q-21 -73 -42 -128l-56 -144h-136l156 350l-145 325h137l52 -127q20 -51 43 -125h1q14 48 41 124l48 128h134l-146 -325l114 -246h59z" />
    <glyph glyph-name="uni04B3" unicode="&#x4b3;" horiz-adv-x="413" 
d="M315 0h-53l-36 97q-16 40 -29 94h-1q-13 -46 -30 -94l-35 -97h-125l109 254l-102 243h132l33 -84q15 -41 29 -95q16 57 30 95l31 84h122l-102 -243l71 -154h54v-231h-98v131z" />
    <glyph glyph-name="uni04B8" unicode="&#x4b8;" horiz-adv-x="506" 
d="M337 264q-31 -12 -60 -15v-115h-68v112q-99 9 -139.5 63t-40.5 153v213h119v-194q0 -53 13.5 -83t47.5 -40v122h68v-130q34 3 60 16v309h119v-675h-119v264z" />
    <glyph glyph-name="uni04B9" unicode="&#x4b9;" horiz-adv-x="466" 
d="M256 256q24 3 44 18v223h118v-497h-118v183q-15 -10 -44 -17v-93h-68v90q-163 7 -163 169v165h117v-151q0 -81 46 -90v108h68v-108z" />
    <glyph glyph-name="uni04BA" unicode="&#x4ba;" horiz-adv-x="499" 
d="M471 0h-120v199q0 75 -21 108t-74 33q-45 0 -87 -21v-319h-120v675h120v-254q56 20 106 20q108 0 152 -58t44 -165v-218z" />
    <glyph glyph-name="uni04BB" unicode="&#x4bb;" horiz-adv-x="455" 
d="M408 0h-117v327q0 41 -10 59.5t-33 18.5q-34 0 -58 -45t-24 -114v-246h-118v717h118v-182q0 -59 -12 -116h2q16 40 50.5 64t78.5 24q123 0 123 -157v-350z" />
    <glyph glyph-name="uni04D8" unicode="&#x4d8;" horiz-adv-x="507" 
d="M32 288q0 61 7 103h313q-10 187 -130 187q-63 0 -145 -41l-29 99q98 49 187 49q244 0 244 -341q0 -163 -61.5 -258.5t-173.5 -95.5q-212 0 -212 298zM157 290v-6q0 -188 96 -188q48 0 72.5 52.5t26.5 141.5h-195z" />
    <glyph glyph-name="uni04D9" unicode="&#x4d9;" horiz-adv-x="420" 
d="M29 213q0 48 4 79h241q-4 124 -99 124q-59 0 -116 -28l-21 85q73 34 156 34q101 0 151 -62.5t50 -194.5q0 -115 -46.5 -187.5t-146.5 -72.5q-173 0 -173 223zM145 212v-15q0 -117 62 -117q66 0 67 132h-129z" />
    <glyph glyph-name="uni04E8" unicode="&#x4e8;" horiz-adv-x="564" 
d="M536 344q0 -160 -66 -257t-198 -97q-244 0 -244 341q0 159 66.5 256.5t197.5 97.5q244 0 244 -341zM409 392q-10 188 -127 188q-60 0 -91 -51.5t-36 -136.5h254zM410 296h-255q8 -200 127 -200q61 0 92.5 53.5t35.5 146.5z" />
    <glyph glyph-name="uni04E9" unicode="&#x4e9;" horiz-adv-x="445" 
d="M421 255q0 -124 -52 -194.5t-154 -70.5q-191 0 -191 252q0 124 52 194.5t154 70.5q191 0 191 -252zM302 292q-5 123 -80 123q-73 0 -79 -123h159zM143 212q3 -129 80 -129q76 0 79 129h-159z" />
    <glyph glyph-name="Wgrave" unicode="&#x1e80;" horiz-adv-x="785" 
d="M772 675l-118 -675h-179l-67 412q-12 83 -18 164h-1q-5 -72 -17 -166l-66 -410h-173l-119 675h124l69 -414q9 -54 19 -158h1q7 83 15 140l69 432h169l71 -425q7 -50 16 -147h1q8 85 19 164l65 408h120zM468 780l-23 -60l-185 49l32 83z" />
    <glyph glyph-name="wgrave" unicode="&#x1e81;" horiz-adv-x="641" 
d="M318 391h-1q-6 -80 -15 -126l-49 -265h-148l-97 497h120l47 -282q12 -78 13 -119h2q4 42 16 119l52 282h131l55 -281q13 -65 18 -120h1q4 59 13 120l43 281h114l-95 -497h-153l-51 265q-7 38 -16 126zM386 610l-48 -55l-151 112l62 73z" />
    <glyph glyph-name="Wacute" unicode="&#x1e82;" horiz-adv-x="785" 
d="M772 675l-118 -675h-179l-67 412q-12 83 -18 164h-1q-5 -72 -17 -166l-66 -410h-173l-119 675h124l69 -414q9 -54 19 -158h1q7 83 15 140l69 432h169l71 -425q7 -50 16 -147h1q8 85 19 164l65 408h120zM309 780l175 72l32 -83l-185 -49z" />
    <glyph glyph-name="wacute" unicode="&#x1e83;" horiz-adv-x="641" 
d="M318 391h-1q-6 -80 -15 -126l-49 -265h-148l-97 497h120l47 -282q12 -78 13 -119h2q4 42 16 119l52 282h131l55 -281q13 -65 18 -120h1q4 59 13 120l43 281h114l-95 -497h-153l-51 265q-7 38 -16 126zM256 610l138 130l62 -72l-151 -113z" />
    <glyph glyph-name="Wdieresis" unicode="&#x1e84;" horiz-adv-x="785" 
d="M772 675l-118 -675h-179l-67 412q-12 83 -18 164h-1q-5 -72 -17 -166l-66 -410h-173l-119 675h124l69 -414q9 -54 19 -158h1q7 83 15 140l69 432h169l71 -425q7 -50 16 -147h1q8 85 19 164l65 408h120zM308 844q25 0 43 -18t18 -44t-18 -44t-43 -18q-26 0 -44 18t-18 44
t18 44t44 18zM480 844q25 0 43 -18t18 -44t-18 -44t-43 -18q-26 0 -44 18t-18 44t18 44t44 18z" />
    <glyph glyph-name="wdieresis" unicode="&#x1e85;" horiz-adv-x="641" 
d="M318 391h-1q-6 -80 -15 -126l-49 -265h-148l-97 497h120l47 -282q12 -78 13 -119h2q4 42 16 119l52 282h131l55 -281q13 -65 18 -120h1q4 59 13 120l43 281h114l-95 -497h-153l-51 265q-7 38 -16 126zM240 689q26 0 44 -18.5t18 -44.5t-18.5 -44.5t-44.5 -18.5t-44 18.5
t-18 44.5t18.5 44.5t44.5 18.5zM406 689q26 0 44.5 -18.5t18.5 -44.5t-18.5 -44.5t-44.5 -18.5t-44 18.5t-18 44.5t18 44.5t44 18.5z" />
    <glyph glyph-name="Ygrave" unicode="&#x1ef2;" horiz-adv-x="455" 
d="M457 675l-168 -443v-232h-120v232l-170 443h131l69 -204q20 -59 32 -113h1q15 59 32 109l67 208h126zM276 780l-23 -60l-185 49l32 83z" />
    <glyph glyph-name="ygrave" unicode="&#x1ef3;" horiz-adv-x="412" 
d="M412 497l-117 -474q-34 -144 -103.5 -204.5t-183.5 -46.5l12 99q63 -8 91.5 13.5t50.5 95.5l6 20h-38l-129 497h127l59 -241q17 -99 26 -171h2q15 110 26 171l50 241h121zM260 610l-48 -55l-151 112l62 73z" />
    <glyph glyph-name="endash" unicode="&#x2013;" 
d="M440 248h-440v104h440v-104z" />
    <glyph glyph-name="emdash" unicode="&#x2014;" horiz-adv-x="800" 
d="M731 248h-662v104h662v-104z" />
    <glyph glyph-name="emdash" unicode="&#x2015;" horiz-adv-x="800" 
d="M731 248h-662v104h662v-104z" />
    <glyph glyph-name="quoteleft" unicode="&#x2018;" horiz-adv-x="217" 
d="M148 751l49 -44q-78 -97 -34 -152q27 -31 10 -72.5t-64 -41.5q-33 0 -54 26.5t-21 69.5q0 104 114 214z" />
    <glyph glyph-name="quoteright" unicode="&#x2019;" horiz-adv-x="217" 
d="M76 434l-49 45q42 53 49 89.5t-17 62.5q-27 31 -9 72.5t64 41.5q32 0 53 -27t21 -69q0 -106 -112 -215z" />
    <glyph glyph-name="quotesinglbase" unicode="&#x201a;" horiz-adv-x="217" 
d="M69 -167l-49 43q77 97 32 152q-28 32 -10 73t66 41q33 0 54 -26t21 -69q0 -105 -114 -214z" />
    <glyph glyph-name="quotedblleft" unicode="&#x201c;" horiz-adv-x="381" 
d="M314 748l46 -37q-71 -92 -30 -142q25 -29 9 -67t-59 -38q-29 0 -48 24.5t-19 63.5q0 98 101 196zM138 751l46 -37q-39 -52 -45.5 -87t14.5 -58q25 -29 8.5 -67t-58.5 -38q-30 0 -49 24.5t-19 63.5q0 97 103 199z" />
    <glyph glyph-name="quotedblright" unicode="&#x201d;" horiz-adv-x="381" 
d="M74 461l-46 37q71 93 30 142q-25 30 -9 67.5t59 37.5q29 0 48 -24.5t19 -63.5q0 -96 -101 -196zM250 458l-46 37q39 52 45.5 87t-14.5 58q-24 30 -8 67.5t58 37.5q30 0 49 -24.5t19 -63.5q0 -97 -103 -199z" />
    <glyph glyph-name="quotedblbase" unicode="&#x201e;" horiz-adv-x="381" 
d="M67 -149l-46 37q71 93 30 142q-25 30 -9 67.5t59 37.5q29 0 48 -24.5t19 -63.5q0 -98 -101 -196zM242 -152l-46 37q39 52 45.5 87t-14.5 58q-24 30 -8 67.5t58 37.5q30 0 49 -24.5t19 -63.5q0 -97 -103 -199z" />
    <glyph glyph-name="dagger" unicode="&#x2020;" horiz-adv-x="384" 
d="M351 523h-111l19 -105l-21 -252h-92l-22 252l20 105h-111v98h111l-20 135h135l-19 -135h111v-98z" />
    <glyph glyph-name="daggerdbl" unicode="&#x2021;" horiz-adv-x="384" 
d="M349 268h-108l19 -130h-137l19 130h-109v98h109l-18 83l18 82h-109v99h109l-18 126h135l-18 -126h110v-99h-110l18 -82l-18 -83h108v-98z" />
    <glyph glyph-name="bullet" unicode="&#x2022;" horiz-adv-x="346" 
d="M173 435q56 0 95.5 -39.5t39.5 -95.5t-39.5 -95.5t-95.5 -39.5t-95.5 39.5t-39.5 95.5t39.5 95.5t95.5 39.5z" />
    <glyph glyph-name="perthousand" unicode="&#x2030;" horiz-adv-x="963" 
d="M568 659l-409 -686l-76 43l409 686zM163 610q-41 0 -41 -90q0 -91 41 -91t41 91q0 90 -41 90zM169 685q131 0 131 -160q0 -79 -38 -125t-105 -46q-131 0 -131 161q0 78 38.5 124t104.5 46zM488 246q-41 0 -41 -91q0 -90 41 -90t41 90q0 91 -41 91zM494 321
q131 0 131 -161q0 -78 -38.5 -124t-104.5 -46q-131 0 -131 160q0 79 38 125t105 46zM800 246q-41 0 -41 -91q0 -90 41 -90t41 90q0 91 -41 91zM806 321q131 0 131 -161q0 -78 -38.5 -124t-104.5 -46q-131 0 -131 160q0 79 38 125t105 46z" />
    <glyph glyph-name="guilsinglleft" unicode="&#x2039;" horiz-adv-x="276" 
d="M229 113l-94 -43l-102 210l102 211l91 -43l-80 -168z" />
    <glyph glyph-name="guilsinglright" unicode="&#x203a;" horiz-adv-x="276" 
d="M47 447l94 43l102 -210l-102 -211l-91 43l80 168z" />
    <glyph glyph-name="fraction" unicode="&#x2044;" horiz-adv-x="344" 
d="M433 688l-441 -742l-76 41l441 743z" />
    <glyph glyph-name="Euro" unicode="&#x20ac;" horiz-adv-x="463" 
d="M10 303h56v20q0 33 1 49h-57v82h68q22 114 84 172.5t155 58.5q62 0 118 -25l-28 -104q-43 24 -89 24q-93 0 -116 -126h160v-82h-169q0 -5 -0.5 -17t-0.5 -18q0 -23 1 -34h169v-81h-160q22 -127 114 -127q54 0 98 29l26 -97q-64 -37 -140 -37q-196 0 -228 232h-62v81z" />
    <glyph glyph-name="uni2116" unicode="&#x2116;" horiz-adv-x="865" 
d="M480 0h-160l-135 408q-19 58 -32 116q4 -83 4 -271v-253h-108v675h174l128 -380q12 -34 26 -98q-4 89 -4 291v187h107v-675zM552 193v84h268v-84h-268zM838 508q0 -87 -40 -136.5t-117 -49.5q-78 0 -112.5 45t-34.5 132t40 136.5t117 49.5q147 0 147 -177zM736 500
q0 106 -51 106q-50 0 -50 -99q0 -106 52 -106q49 0 49 99z" />
    <glyph glyph-name="trademark" unicode="&#x2122;" horiz-adv-x="582" 
d="M209 600h-48v-206h-86v206h-50v75h184v-75zM561 394h-83l-13 143l-3 61l-7 -56l-26 -148h-95l-25 149l-7 55l-2 -51l-14 -153h-73l31 281h112l26 -129l6 -58l5 55l26 132h109z" />
    <glyph glyph-name="ohm" unicode="&#x2126;" horiz-adv-x="564" 
d="M528 0h-208v97q46 46 68 105.5t22 148.5q0 227 -128 227q-62 0 -94.5 -59t-32.5 -168q0 -89 20.5 -145.5t70.5 -107.5v-98h-210v99h87q-93 85 -93 253q0 145 66 239t196 94q87 0 142.5 -43t77.5 -111t22 -163q0 -178 -96 -269h90v-99z" />
    <glyph glyph-name="partialdiff" unicode="&#x2202;" horiz-adv-x="493" 
d="M449 391q0 -203 -81 -313q-63 -85 -158 -85q-86 0 -130.5 59t-44.5 156q0 104 55 172t144 68q31 0 57.5 -19.5t37.5 -50.5l-8 60q-11 97 -54.5 147.5t-104.5 50.5l16 102q121 -3 196 -94t75 -253zM311 235q0 51 -20 81t-59 30q-36 0 -59 -36t-23 -92q0 -58 19.5 -90
t57.5 -32q35 0 59.5 39.5t24.5 99.5z" />
    <glyph glyph-name="increment" unicode="&#x2206;" horiz-adv-x="500" 
d="M479 0h-458v92l141 583h173l144 -583v-92zM349 110l-72 304q-27 131 -32 171h-2q-5 -40 -31 -174l-72 -301h209z" />
    <glyph glyph-name="product" unicode="&#x220f;" horiz-adv-x="627" 
d="M595 616h-73v-847h-109v847h-197v-847h-110v847h-75v101h564v-101z" />
    <glyph glyph-name="summation" unicode="&#x2211;" horiz-adv-x="485" 
d="M448 -231h-413v92l210 391l-203 371v94h393v-102h-250l194 -359l-210 -381h279v-106z" />
    <glyph glyph-name="minus" unicode="&#x2212;" 
d="M406 249h-372v102h372v-102z" />
    <glyph glyph-name="uni2215" unicode="&#x2215;" horiz-adv-x="344" 
d="M433 688l-441 -742l-76 41l441 743z" />
    <glyph glyph-name="radical" unicode="&#x221a;" horiz-adv-x="442" 
d="M454 727l-178 -727h-127l-90 404h-58v93h146l50 -263q11 -60 20 -129h2q4 40 22 131l100 491h113z" />
    <glyph glyph-name="infinity" unicode="&#x221e;" horiz-adv-x="792" 
d="M317 287q-81 79 -119 79q-27 0 -42 -22t-15 -54q0 -33 15.5 -54.5t41.5 -21.5q41 0 119 73zM391 218q-116 -108 -203 -108q-75 0 -116.5 49.5t-41.5 127.5q0 80 46 132t123 52q83 0 200 -108q120 108 203 108q75 0 116 -50t41 -127q0 -81 -45.5 -132.5t-122.5 -51.5
q-83 0 -200 108zM472 293q83 -79 120 -79q27 0 42 22t15 54q0 33 -15.5 54.5t-41.5 21.5q-38 0 -120 -73z" />
    <glyph glyph-name="integral" unicode="&#x222b;" horiz-adv-x="278" 
d="M255 619q-20 4 -33 4q-23 0 -32 -28t-9 -107q0 -70 5.5 -220.5t5.5 -248.5q0 -136 -33.5 -193.5t-103.5 -57.5q-23 0 -45 5v102q22 -4 31 -4q25 0 34 25t9 102q0 61 -5.5 210.5t-5.5 255.5q0 262 142 262q20 0 40 -5v-102z" />
    <glyph glyph-name="approxequal" unicode="&#x2248;" 
d="M413 210q-48 -74 -123 -74q-41 0 -81.5 25t-59.5 25q-34 0 -64 -40l-59 55q48 78 124 78q38 0 78 -25t65 -25q35 0 62 36zM413 397q-46 -78 -123 -78q-39 0 -78.5 25t-64.5 25q-35 0 -62 -36l-59 55q50 74 124 74q40 0 80.5 -24.5t59.5 -24.5q36 0 65 40z" />
    <glyph glyph-name="notequal" unicode="&#x2260;" 
d="M323 445h79v-97h-111l-35 -95h146v-97h-178l-42 -114h-105l42 114h-81v97h113l35 95h-148v97h180l41 110h105z" />
    <glyph glyph-name="lessequal" unicode="&#x2264;" 
d="M407 0h-374v98h374v-98zM389 208l-64 -80l-308 236l308 235l63 -79l-218 -156z" />
    <glyph glyph-name="greaterequal" unicode="&#x2265;" 
d="M407 0h-374v98h374v-98zM51 519l64 80l308 -235l-308 -236l-63 80l218 155z" />
    <glyph glyph-name="lozenge" unicode="&#x25ca;" horiz-adv-x="515" 
d="M496 337l-187 -337h-101l-190 337l187 338h101zM372 334l-118 215l-112 -208l117 -215z" />
    <glyph glyph-name="zero.mono" unicode="&#xe023;" 
d="M421 307q0 -155 -53.5 -236t-153.5 -81q-96 0 -145.5 71t-49.5 230q0 155 52.5 237t154.5 82q195 0 195 -303zM301 299q0 114 -19.5 163.5t-63.5 49.5q-79 0 -79 -209q0 -116 19.5 -165t62.5 -49q42 0 61 49.5t19 160.5z" />
    <glyph glyph-name="one.mono" unicode="&#xe024;" 
d="M401 0h-345v106h118v367l-98 -78l-46 89l159 116h108v-494h104v-106z" />
    <glyph glyph-name="two.mono" unicode="&#xe025;" 
d="M400 0h-363v100l101 112q70 74 95 119t25 86t-21 65t-56 24q-50 0 -96 -49l-51 84q76 69 171 69q88 0 133.5 -51.5t45.5 -128.5q0 -62 -29.5 -118.5t-92.5 -121.5l-77 -84v-1q72 2 122 2h93v-107z" />
    <glyph glyph-name="three.mono" unicode="&#xe026;" 
d="M389 136q0 -104 -71.5 -165.5t-185.5 -61.5q-53 0 -109 18l20 107q46 -23 104 -23q54 0 85 30t31 82q0 50 -33 77t-97 27q-36 0 -54 -2v98h32q136 0 136 102q0 39 -22 63t-60 24q-47 0 -98 -34l-36 89q71 43 152 43q89 0 137.5 -47.5t48.5 -119.5q0 -104 -87 -149v-1
q48 -16 77.5 -58t29.5 -99z" />
    <glyph glyph-name="four.mono" unicode="&#xe027;" 
d="M424 76h-56v-159h-120v159h-228l-5 97l173 427h180v-417h56v-107zM249 183v197q0 84 3 125h-2q-16 -53 -36 -100l-93 -224q35 2 128 2z" />
    <glyph glyph-name="five.mono" unicode="&#xe028;" 
d="M402 148q0 -110 -72.5 -174.5t-190.5 -64.5q-52 0 -105 17l19 107q48 -23 104 -23q54 0 86.5 31.5t32.5 86.5q0 118 -131 118q-43 0 -85 -7v361h309v-107h-195v-151q7 1 26 1q95 0 148.5 -53.5t53.5 -141.5z" />
    <glyph glyph-name="six.mono" unicode="&#xe029;" 
d="M421 224q0 -107 -57 -170.5t-147 -63.5q-195 0 -195 285q0 204 76.5 306.5t208.5 102.5q40 0 72 -6l-14 -101q-25 7 -62 7q-123 0 -152 -171q-4 -18 -11 -45l2 -1q36 55 114 55t121.5 -54t43.5 -144zM301 210q0 114 -77 114q-36 0 -58 -29.5t-22 -75.5q0 -56 19 -93
t59 -37q39 0 59 32.5t20 88.5z" />
    <glyph glyph-name="seven.mono" unicode="&#xe02a;" 
d="M405 504q-102 -251 -191 -587h-132q85 305 196 574q-36 -2 -115 -2h-128v111h370v-96z" />
    <glyph glyph-name="eight.mono" unicode="&#xe02b;" 
d="M224 408q64 52 64 107q0 37 -18 58t-50 21t-50 -21.5t-18 -56.5q0 -61 72 -108zM312 355q49 -33 77 -73.5t28 -104.5q0 -86 -57.5 -136.5t-143.5 -50.5q-93 0 -143 46.5t-50 123.5q0 101 105 179q-93 65 -93 167q0 78 52.5 128.5t137.5 50.5q83 0 131.5 -44t48.5 -116
q0 -97 -93 -170zM215 286q-72 -56 -72 -117q0 -41 21 -64.5t58 -23.5q32 0 53.5 23.5t21.5 61.5q0 40 -21 67t-61 53z" />
    <glyph glyph-name="nine.mono" unicode="&#xe02c;" 
d="M418 324q0 -206 -78 -310.5t-220 -104.5q-41 0 -90 9l17 105q36 -13 82 -13q132 0 160 174q3 15 11 47l-2 1q-36 -55 -114 -55t-121.5 54t-43.5 145q0 107 57 170.5t147 63.5q195 0 195 -286zM296 380q0 56 -19 93.5t-59 37.5q-39 0 -59 -32.5t-20 -89.5q0 -114 77 -114
q36 0 58 29.5t22 75.5z" />
    <glyph glyph-name="zero.expert" unicode="&#xe02d;" 
d="M415 342q0 -352 -200 -352q-100 0 -145 79t-45 264q0 352 200 352q100 0 145 -79t45 -264zM292 334q0 141 -16.5 195t-55.5 54q-37 0 -54.5 -54t-17.5 -188q0 -141 16.5 -194.5t55.5 -53.5q37 0 54.5 53.5t17.5 187.5z" />
    <glyph glyph-name="one.expert" unicode="&#xe02e;" 
d="M413 0h-375v106h139v440l-114 -85l-45 87l182 127h100v-569h113v-106z" />
    <glyph glyph-name="two.expert" unicode="&#xe02f;" 
d="M417 0h-388v98l106 132q75 92 104 146.5t29 103.5q0 45 -21.5 72t-61.5 27q-54 0 -104 -52l-59 77q81 81 186 81q93 0 141.5 -53t48.5 -138q0 -70 -36.5 -138.5t-106.5 -151.5l-81 -96v-2q66 3 170 3h73v-109z" />
    <glyph glyph-name="three.expert" unicode="&#xe030;" 
d="M412 213q0 -97 -69 -160t-186 -63q-79 0 -138 24l30 103q54 -26 114 -26q54 0 86 29t32 80q0 47 -34 74.5t-94 27.5q-32 0 -76 -2v97h38q69 0 109 25.5t40 78.5q0 39 -24.5 62.5t-71.5 23.5q-56 0 -109 -34l-30 94q74 38 159 38q99 0 150.5 -46.5t51.5 -118.5
q0 -110 -92 -151v-1q48 -10 81 -54t33 -101z" />
    <glyph glyph-name="four.expert" unicode="&#xe031;" 
d="M431 151h-68v-151h-119v151h-228l-4 105l170 419h181v-419h68v-105zM251 256v326l-136 -327q35 1 136 1z" />
    <glyph glyph-name="five.expert" unicode="&#xe032;" 
d="M407 227q0 -109 -74.5 -173t-189.5 -64q-58 0 -118 15l21 106q50 -20 110 -20q56 0 89.5 30.5t33.5 85.5q0 119 -139 119q-46 0 -88 -8v357h321v-108h-204v-145q3 0 12.5 0.5t15.5 0.5q98 0 154 -54t56 -142z" />
    <glyph glyph-name="six.expert" unicode="&#xe033;" 
d="M423 226q0 -107 -57 -171.5t-146 -64.5q-97 0 -148.5 72t-51.5 215q0 204 77 306t212 102q34 0 66 -6l-12 -99q-23 5 -58 5q-122 0 -158 -169q-3 -11 -11 -55q34 61 118 61q79 0 124 -54.5t45 -141.5zM304 211q0 115 -80 115q-38 0 -59 -32t-21 -73q0 -60 20 -96t59 -36
q40 0 60.5 32.5t20.5 89.5z" />
    <glyph glyph-name="seven.expert" unicode="&#xe034;" 
d="M415 579q-120 -290 -195 -579h-133q80 285 199 566q-57 -3 -117 -3h-141v112h387v-96z" />
    <glyph glyph-name="eight.expert" unicode="&#xe035;" horiz-adv-x="441" 
d="M221 406q71 53 71 108q0 80 -72 80q-33 0 -52.5 -22.5t-19.5 -57.5q0 -60 73 -108zM311 354q52 -33 81 -72.5t29 -102.5q0 -87 -58.5 -138t-147.5 -51q-95 0 -145.5 46.5t-50.5 125.5q0 57 27.5 98.5t76.5 78.5q-92 64 -92 167q0 76 51.5 127.5t142.5 51.5q90 0 137 -45
t47 -116q0 -96 -98 -170zM212 285q-73 -57 -73 -116q0 -40 22 -64t61 -24q35 0 57 23.5t22 61.5q0 40 -23 66.5t-66 52.5z" />
    <glyph glyph-name="nine.expert" unicode="&#xe036;" 
d="M418 396q0 -212 -69 -309t-213 -97q-40 0 -96 13l16 100q48 -17 93 -17q65 0 99.5 41t47.5 133q2 11 3.5 27.5t2.5 22.5h-1q-32 -61 -115 -61q-78 0 -124.5 55.5t-46.5 143.5q0 110 57 173.5t148 63.5q198 0 198 -289zM294 454q0 61 -20 96.5t-59 35.5t-59.5 -33.5
t-20.5 -89.5q0 -115 78 -115q40 0 60.5 31t20.5 75z" />
    <glyph glyph-name="Euro.captab" unicode="&#xe037;" 
d="M183 372v-35v-34h161v-81h-152q20 -127 105 -127q52 0 93 28l27 -96q-62 -37 -136 -37q-99 0 -151 60t-67 172h-55v81h49q-1 7 -1 20q0 17 2 49h-50v82h60q19 107 75.5 169t154.5 62q64 0 114 -25l-29 -103q-39 23 -84 23q-85 0 -107 -126h152v-82h-161z" />
    <glyph glyph-name="cent.captab" unicode="&#xe038;" 
d="M393 215l12 -98q-58 -29 -124 -32l-15 -123h-84l17 126q-170 30 -170 247q0 128 62 198t174 75l13 100h84l-14 -106q32 -5 56 -13l-13 -104q-27 11 -56 17l-41 -315q56 5 99 28zM152 345q0 -119 61 -146l39 304q-100 -14 -100 -158z" />
    <glyph glyph-name="dollar.captab" unicode="&#xe039;" 
d="M390 669l-19 -101q-35 11 -73 16l-30 -196q75 -35 115.5 -79.5t40.5 -118.5q0 -81 -58.5 -136t-156.5 -61l-17 -111h-83l17 112q-50 5 -92 17l19 109q42 -17 88 -24l31 204q-71 36 -108 80.5t-37 113.5q0 79 55.5 130.5t147.5 58.5l14 95h83l-14 -96q42 -4 77 -13z
M248 263l-25 -167q44 3 67 25t23 57q0 28 -16.5 47.5t-48.5 37.5zM193 425l23 159q-81 -8 -81 -80q0 -43 58 -79z" />
    <glyph glyph-name="florin.captab" unicode="&#xe03a;" 
d="M261 298l-19 -212q-9 -99 -52.5 -146.5t-126.5 -47.5q-37 0 -75 8l10 99q31 -9 56 -9q32 0 48 21.5t20 72.5l20 214h-109v93h116l11 121q10 100 53 147t126 47q38 0 75 -8l-10 -99q-27 8 -56 8q-32 0 -48 -21t-20 -72l-11 -123h123v-93h-131z" />
    <glyph glyph-name="sterling.captab" unicode="&#xe03b;" 
d="M235 298q3 -48 3 -50q0 -88 -55 -148q33 3 80 3h133v-103h-352v82q39 34 56.5 68t17.5 88q0 23 -5 60h-79v93h66q-10 70 -10 101q0 95 46.5 144t136.5 49q55 0 106 -17l-24 -102q-44 21 -80 21q-66 0 -66 -85q0 -24 13 -111h122v-93h-109z" />
    <glyph glyph-name="yen.captab" unicode="&#xe03c;" 
d="M-1 675h129l50 -127q28 -78 37 -115h1q9 35 41 131l44 111h124l-153 -362v-8h113v-78h-113v-71h113v-77h-113v-79h-119v79h-112v77h112v71h-112v78h112v8z" />
    <glyph glyph-name="designer" unicode="&#xe07b;" horiz-adv-x="1175" 
d="M942 66q-7 -9 -26 -11.5t-25 -6.5q-45 -4 -54 -28q-3 -9 -12.5 -25t-14 -29.5t-1.5 -27.5q3 -12 26 -6q2 0 6 4t8 2q2 -3 1.5 -4t-3 -4t-3.5 -5q-21 -13 -38 -5q-18 18 -13 36q4 21 35 74q-10 5 -31.5 0.5t-31.5 -0.5q5 7 27 14q5 1 17 1.5t20.5 2.5t12.5 10q5 0 5 22v24
q-5 1 -5 12q-3 5 -7 9.5t-7.5 7.5t-9.5 5t-9.5 3t-11.5 2t-10.5 1t-11.5 0.5t-10 0.5q-22 -1 -41.5 -16.5t-28.5 -35.5q-12 -28 3 -65q-2 -13 12 -42.5t5 -49.5q-9 -7 -26 -1q-8 4 -12 12t-6 20.5t-4 17.5q6 4 7 17.5t5 17.5q5 19 -7 24q-6 -1 -23 -1.5t-28.5 -3t-20.5 -9.5
q5 -19 3.5 -44.5t-18.5 -37.5q-11 -3 -24 4q-5 4 -7 10t-2 11t0.5 13t0.5 12q1 3 6.5 15t8.5 17t10 12t15 10q10 -6 33 1l49 1q3 3 4 13t2 13q10 30 33 52t53 24q41 4 64 -8q1 -7 11.5 -13t11.5 -13q11 -17 1 -68q22 0 87 12zM536 46q-5 -4 -16 2t-17 2q-10 -7 -14.5 -24.5
t-9.5 -23.5q-1 -7 -4.5 -24.5t-3.5 -27.5q-10 -5 -14 -4q-5 1 -3 18t2 18q5 6 5.5 22t3.5 22q-2 4 -2.5 13.5t-1.5 11.5q-2 1 -7.5 -2t-7.5 1q2 10 14 18q10 0 19 -18q3 1 9.5 8.5t10 9t12.5 -3.5zM403 91q0 -21 2 -73t0.5 -79.5t-14 -65t-39.5 -63.5q-65 -41 -145 -19
q-12 7 -12 14q7 29 22 34q-1 -4 -4 -10.5t-5 -12t-3 -10.5q28 -15 63 -12.5t63 17.5q17 6 26.5 17.5t17 34t10.5 27.5q10 60 6 146q3 6 1 24t-1 24q-2 6 -12 1q-5 -5 -11 -17t-11 -16q2 -10 -10 -20t-12 -18q-31 -35 -72 -94q-1 -2 -3 -5t-3 -5t-3 -4t-4 -2.5t-5 -0.5
q-8 5 -5.5 29.5t1.5 31.5q2 5 5.5 21t8 27.5t12.5 21.5q22 58 66 86q15 4 46 -16q8 10 12 24q12 -5 12 -20q-5 -2 -2 -8t2 -9zM726 309q-14 -2 -62 -16t-76 -12q-5 -4 -6 -16t3.5 -21t15.5 -5q1 1 4 10t8 11q8 -15 -8 -33q-5 -1 -15 -2t-18 12.5t-5 38.5q-7 10 -5 14
q5 4 8 10t4 10.5t1.5 13t1.5 12.5q-1 0 -2 2t-2 2q-13 -9 -27.5 -31.5t-20.5 -29.5q0 -9 -12 -23.5t-10 -25.5q-2 -2 -4 -15.5t-12 -14.5q-11 3 -13.5 10t-1 19t0.5 17q-2 13 1 35t1 33q-7 -4 -12.5 -15.5t-8.5 -15.5q-2 -3 -11 -17.5t-17 -20.5t-21 -3q-16 23 13 72
q2 3 7 9t8 9.5t9 8.5t10.5 4.5t12.5 -1.5q5 -2 10 0q17 39 20 90l10 8q6 -2 7 -5.5t-0.5 -7t-3 -8t-0.5 -7.5q-2 -13 -8.5 -51.5t-8.5 -58.5q0 -6 -2 -19.5t-2 -19t2 -19.5q4 5 26.5 40t39.5 52q14 19 32 30q4 -4 14.5 -14t15.5 -14v-40q7 2 44.5 9t57.5 13q8 -5 7 -13z
M1059 681q-6 77 -60 101q5 7 10 8t10.5 -3t9 -7.5t9 -11t6.5 -8.5q57 -70 11 -182q-33 -78 -104 -108q34 24 48 48q42 42 48 80q18 29 12 83zM969 580q-8 -21 -24 -25q-9 3 -20 17l2 14q3 -1 4.5 -7.5t6.5 -8.5q6 -2 16 11q8 49 -15 87l-6 -3q-3 -3 -11 -10t-12 -11
t-9 -10.5t-8 -13.5l-8 -4q-9 -9 -23.5 -28.5t-22.5 -27.5q-7 -1 -10 3t-4 11.5t-3 10.5q4 10 -3 17q-5 1 -7 -4t-3 -6q-15 -15 -32 -16q-10 3 -13.5 9.5t-2 13t4 17t2.5 16.5q5 20 33 50q2 1 10 3.5t12 3t10 -1t10 -7.5l4 -6q-3 -8 -11 -72q2 -10 8 -10q9 0 15 11t8 13
q29 25 78 78q10 -3 11.5 -20.5t4.5 -21.5q5 -2 3 -8q11 -22 5 -64zM833 776q-9 -16 -24 -14q-6 11 -12 6q-24 -19 -38.5 -32t-31 -34t-23.5 -42q-19 -115 33 -156q6 -4 13 -5.5t18 -1t15 0.5q4 3 10.5 8.5t10.5 8.5q1 -5 -2.5 -9t-9.5 -7.5t-9 -6.5q-33 -13 -62 12
q-23 21 -27 46q-7 3 -4 11t-2 11q2 4 -1.5 14t0.5 16q-2 54 29 96.5t85 85.5q2 0 7 1t8.5 1.5t7.5 0.5t6 -3t3 -8zM650 598q-7 -18 -22.5 -30t-34.5 -12q-47 0 -64 32q-11 16 -5 50q1 6 7 15t7 15q29 24 64 12q1 -1 3.5 -2.5t4 -2t2.5 -2.5t1 -5q-3 -2 -4.5 -1t-5 3t-6.5 2
q-27 7 -50 -16q-20 -32 -10 -55q22 -30 54 -34q1 1 16.5 3.5t21.5 10.5q3 2 6 8t6.5 9t8.5 0zM496 570q-2 -5 -5.5 -15.5t-7.5 -18t-9 -14.5q-13 -6 -21 10q-16 37 -10 75q-1 1 0.5 24.5t-2.5 30.5q-6 -15 -7.5 -58t-19.5 -62q-3 -3 -10.5 -4t-17 9t-13.5 33q2 12 4 36t4 36
q0 2 -2 14.5t4 13.5q7 4 13 -4q1 -15 -2 -40.5t-3 -45t7 -30.5q8 -6 12 -0.5t5.5 16t3.5 12.5q2 11 3 40t5 44q2 2 4.5 7.5t4.5 8.5t6 5t9 -3q9 -26 7 -76t6 -76q1 -3 4.5 -4t6.5 3l2 5q2 6 4.5 12t6.5 11t8 5zM340 540q-15 -12 -84 -17q-71 -6 -127 -25q-6 -13 -28 -2
q-1 7 7 13.5t9 10.5q11 21 19 48q-1 5 9 26q57 132 74 208q-4 14 3 21q4 1 6 0t4 -4.5t3 -4.5q-10 -56 -50.5 -152t-51.5 -140l2 -2q13 2 45 8t55.5 9.5t47.5 3.5q31 -6 54 3zM701 -54q11 23 -10 54q-6 -8 -8 -27q5 -25 18 -27zM581 27l-14 -19q-6 -31 -1 -46q2 -2 4.5 -2.5
t5 0t5.5 1.5t5 3.5t3.5 5.5t1.5 7t-2 8q10 39 -8 42zM367 94q-3 10 -15 13t-21 -2q-29 -25 -40 -40q-4 -13 -15.5 -37.5t-17 -45t-3.5 -40.5q2 0 6 4q11 14 37 43.5t43 54t26 50.5zM594 308q9 22 -2 24l-5 -29q2 0 7 5zM458 310l-2 20q-13 3 -23 -14q-31 -39 -21 -63
q6 -3 11 7q24 26 35 50zM823 675q-3 3 -6.5 -0.5t-5.5 -2.5q-39 -20 -37 -80q4 -1 12 4t12 4q2 5 8.5 14t10.5 15.5t5.5 16t-5.5 16.5q6 0 6 13z" />
    <glyph glyph-name="FoFa" unicode="&#xe07d;" horiz-adv-x="960" 
d="M880 571q0 -4 -2 -4q-5 1 -42 -2q-67 -3 -90 -7q-6 -5 -7 -17t-3 -16q0 -3 2 -8.5t2 -6.5q4 -5 14 -7q17 2 23 13q0 7 -7 12q-3 2 -10 2.5t-10 4.5q2 3 5 4t9 0t8 -1q10 -3 15 -16q-1 -15 -18 -27q-4 -1 -11 -2.5t-10 -2.5q-35 9 -45 24q-4 1 -1 22l4 22q-1 3 -3.5 3.5
t-5.5 0t-6 0.5l-33 -1q0 1 -1 2t-1 2q2 2 8 3h6q5 -1 11.5 -1t14.5 0.5t12 0.5q5 4 5 17q1 3 3 14.5t6 15.5q4 1 5.5 0.5t4.5 -3.5l4 -4q4 -5 3.5 -17t1.5 -19q0 -5 10.5 -4.5t11.5 0.5q4 0 43.5 1t69.5 5q3 -2 4 -3zM651 504l-3 -2q-35 0 -51 -5q-11 5 -13 8q6 37 1 56
q-2 2 -14 -4q-39 -24 -41 -48q-10 -10 -19 -5q-4 3 -3 15t0 16l-1 31q-2 2 -8 1.5t-10 0.5q-1 1 -4 1t-5 0.5t-2 3.5q7 0 26 1.5t26 -0.5q4 -3 3 -14.5t6 -12.5q8 4 25 14t27 14q2 -1 12 -1t12 -8t2 -23.5v-19.5q1 -1 1.5 -5.5t2.5 -6.5q9 -2 13 0q2 0 7.5 -1t9.5 -1
q3 -3 0 -5zM447 559q3 -19 -7 -31q-4 -3 -12.5 -10t-15 -11t-14.5 -5q-4 1 -6.5 -3.5t-6.5 -1.5q-1 3 -12 2t-13 -1q-14 0 -21 3q-24 21 -18 36q7 21 24 30q32 16 47 13q45 -2 55 -21zM452 664q-12 -13 -29 -8q-13 18 -14 24q-6 9 -16 16t-18 9t-23 5.5t-21 5.5l-31 2
q-2 -2 -6.5 -1.5t-6.5 -0.5q-33 -10 -55 -21q-1 -2 -13.5 -11.5t-13.5 -18.5q-9 -22 -11 -70q0 -3 10.5 -2.5t11.5 0.5q19 2 86 2q1 -1 1.5 -3.5t-0.5 -3.5q-5 -5 -15.5 -0.5t-15.5 2.5q-7 0 -21 -1t-20 0q-4 -1 -12 -1.5t-14 -1.5t-10 -4l-3 -4q-2 -25 1 -63v-14t4 -14
q19 -1 38 1t31 2q2 2 13 -1q1 -1 1 -2v-2l-4 -2q-12 4 -39 0.5t-46 -2.5q-37 -3 -46 -2q-45 -2 -64 3l-2 3q3 3 9 5q4 -2 39 -7q24 3 26 4q-1 19 4.5 49.5t6.5 43.5q-1 2 -3 4q-6 0 -18.5 -0.5t-21 0.5t-16.5 5q-2 5 3 5q18 -5 56 -3l2 3q6 47 15 66v3q47 55 119 62
q31 4 70 -13q2 -1 9.5 -1.5t10.5 -2.5q43 -9 62 -35q2 -2 0 -9zM771 -58l-4 -4q-13 1 -47.5 -2.5t-49.5 -1.5q-31 1 -104 -3.5t-113 -0.5q-24 -4 -96 3q-13 1 -121 1q-68 0 -100 -8q-12 -2 -15 4q0 4 -1 19.5t0 26t4 19.5q1 10 1 37.5t2 42.5q-3 15 -1 44.5t0 44.5
q0 25 3 71.5t4 59.5q2 26 1 71.5t0 71.5q3 6 13.5 6t12.5 1q2 -4 18.5 -2.5t18.5 1.5q12 12 13 1q1 -1 0.5 -6t2.5 -6q-1 -37 -1 -54.5t3.5 -74t4.5 -72.5q22 7 59 28t57 28q3 1 9.5 5.5t11.5 6.5q8 4 10 3q3 -1 4 -3.5t0 -7.5t-1 -6q-10 -29 -5 -61q1 -2 3 -2.5t3.5 0t4 1
t3.5 0.5q6 5 17.5 12t16.5 10q25 15 41 21q36 25 48 29l20 16q1 4 6 7q3 0 11 -6q0 -9 3 -28t3 -29q1 -2 3.5 -2.5t2.5 -1.5q3 -4 -2 -20l2 -2q23 5 61 32t60 32q3 3 10.5 6t11.5 7q3 0 16 9.5t22 2.5q6 0 7 -4q-1 -3 4 -12q-1 -4 0 -14t-2 -13q0 -5 -0.5 -16t0.5 -18.5
t5 -13.5q-1 -4 2.5 -12.5t-0.5 -10.5q2 -25 4 -27q2 -14 -1 -18q1 -5 2.5 -21t4.5 -25v-16q0 -26 6 -74.5t6 -72.5l1 -4q1 -4 0 -5zM425 539q-7 31 -26 34q-1 -3 -3.5 -3.5t-6 0t-4.5 0.5q-15 7 -26 -6q-2 -3 -3.5 -6.5t-1.5 -7t-0.5 -6t1 -6.5t2 -6t3.5 -6.5t3.5 -6t3.5 -6
t4 -5.5q1 -2 3 -2.5t4 0t5 -0.5h9t8 3l8 4q2 2 7 5.5t6.5 5.5t4 7t-0.5 9zM739 -10q-11 24 -18 32q-2 4 -8 12.5t-9.5 15.5t-4.5 15q-7 14 -6 17q5 6 17 13.5t16 12.5l-9 17q-7 -1 -18 -5.5t-13 -4.5q-1 -1 -4 -3t-5 -3.5t-5 -1t-5 2.5q2 53 1 78l-2 3q-6 0 -27 7
q-5 -35 -3 -48q-2 -5 -0.5 -19.5t-1.5 -19.5q1 -18 -1 -51.5t0 -51.5l-1 -7h24q1 0 6 -1.5t6 1.5q0 18 -1 28q0 3 -1 8t-1.5 8.5t1 7t6.5 4.5q4 -2 6 -7.5t3 -7.5q-1 -5 4 -12.5t6 -10.5q7 -4 15 -16.5t14 -16.5q2 0 6 -1.5t7 -0.5q6 0 6 6zM608 179q-4 12 -12 15
q-7 7 -10 0q-13 -18 -4 -30q3 -11 19 -4q9 6 7 19zM610 15q0 13 -1 38.5t-1 37.5v26q-2 5 -13.5 2.5t-14.5 -2.5q-5 0 -5 -24v-26l-3 -26q1 -3 1 -19.5t5 -24.5q15 0 30 5q2 4 2 13zM560 123q-24 -2 -30 -13q-2 -2 -3 -5.5t-2 -6t-3.5 -4.5t-6.5 -1q-2 7 -2 29q-2 2 -7 0
t-8 0q-7 -4 -11 -13q0 -73 4 -111l3 -4q3 -3 11.5 -1.5t11.5 0.5q-2 7 -0.5 21t-1.5 20q6 31 16 44q4 3 13 6t13 7q0 4 1.5 11t2 10.5t-0.5 10.5zM458 30q3 5 4.5 10t1.5 10.5t0.5 9.5t-0.5 11t-1.5 10t-2.5 11.5t-2 10.5q1 4 -4.5 7.5t-12.5 7t-8 4.5q-6 6 -8 -1
q-11 1 -19 -4q-4 -2 -8 -8t-6 -7q-5 -3 -9 3q5 24 -3 74l-2 7h-8q-4 -1 -6 -4.5t-2 -6.5v-7.5t-1 -6.5q-2 -11 -2 -34t-2 -34q1 -11 0 -32.5t0 -31.5q0 -5 -1.5 -17t-0.5 -19q9 -5 31 5q8 2 10.5 0.5t6.5 -7t7 -7.5q8 0 13 1q12 7 24 20.5t11 24.5zM333 34q-4 12 -3 44
t-7 41q-11 7 -23 12l-8 5h-14t-19 -5q-6 -3 -8 -26q8 -3 15.5 -1t16.5 0.5t13 -8.5q0 -2 2 -6t-1 -6q-3 -6 1 -8q5 -7 -3 -9q-5 -2 -14.5 -2t-13.5 -1q-19 -7 -25 -37q-2 -3 -0.5 -10.5t-1.5 -10.5q0 -11 15 -17q5 5 8 2q5 -1 9.5 1.5t10.5 7.5t9 7q6 1 7 -2.5t-0.5 -9
t2.5 -8.5q2 -2 8 0t8 2q2 1 5 1.5t5.5 1.5t4.5 3zM248 181q-12 2 -52 0q-18 -2 -27 -8q-1 -12 -3.5 -35.5t-3.5 -29.5q2 -19 1.5 -54.5t0.5 -55.5q1 0 7 1t7 0q3 1 11.5 -0.5t11.5 0.5q1 11 1 32t1 31q2 5 16 12q2 1 8 0.5t7 2.5l-1 28q-3 4 -21 4q-4 -4 -7 -4q-3 1 -5 3.5
t-2 5.5t-0.5 7t-1.5 6q-2 4 4 10q13 4 39 8l6 4q-1 7 1 17.5t2 14.5zM430 77q14 -30 -9 -55q-1 -1 -12 -7q-6 1 -9.5 5t-4.5 7.5t-2 11t-2 9.5q1 2 2.5 14.5t5.5 17.5q3 2 9 10t12 8l3 -3q-2 -5 2.5 -10.5t4.5 -7.5zM295 42q0 -11 -14 -23l-7 -3q-6 -3 -10 -1q-4 1 -5 3.5
t1 8.5l2 6q0 6 9 10q6 0 10 4q13 -3 14 -5z" />
    <glyph glyph-name="dieresis.narrow" unicode="&#xe08c;" horiz-adv-x="346" 
d="M312 626q0 -26 -18 -44.5t-43 -18.5q-26 0 -44 18.5t-18 44.5t18 44.5t44 18.5q25 0 43 -18.5t18 -44.5zM157 626q0 -26 -18 -44.5t-44 -18.5q-25 0 -43 18.5t-18 44.5t18 44.5t43 18.5q26 0 44 -18.5t18 -44.5z" />
    <glyph glyph-name="caroncomma" unicode="&#xe08e;" horiz-adv-x="221" 
d="M172 664l-71 -197l-72 14l47 202z" />
    <glyph glyph-name="circumflex.cap" unicode="&#xe08f;" horiz-adv-x="317" 
d="M156 852l136 -74l-30 -58l-106 46l-106 -46l-30 58z" />
    <glyph glyph-name="tilde.cap" unicode="&#xe090;" horiz-adv-x="387" 
d="M294 844l60 -37q-37 -85 -111 -85q-33 0 -62 21t-42 21q-27 0 -46 -39l-60 38q35 84 110 84q34 0 62.5 -20.5t42.5 -20.5q26 0 46 38z" />
    <glyph glyph-name="ring.cap" unicode="&#xe091;" horiz-adv-x="301" 
d="M265 802q0 -43 -30.5 -70t-88.5 -27q-110 0 -110 92q0 43 30.5 70t88.5 27q110 0 110 -92zM191 799q0 46 -42 46q-39 0 -39 -45q0 -46 42 -46q39 0 39 45z" />
    <glyph glyph-name="dotaccent.cap" unicode="&#xe092;" horiz-adv-x="215" 
d="M108 860q29 0 49 -20.5t20 -49.5q0 -30 -20 -50.5t-50 -20.5q-29 0 -49 20.5t-20 50.5q0 29 20.5 49.5t49.5 20.5z" />
    <glyph glyph-name="breve.cap" unicode="&#xe093;" horiz-adv-x="323" 
d="M292 849q0 -58 -34 -95t-101 -37t-99 37t-32 95h84q0 -23 13.5 -37.5t34.5 -14.5q23 0 37 13.5t14 38.5h83z" />
    <glyph glyph-name="f_ij" unicode="&#xf003;" horiz-adv-x="730" 
d="M439 497v-328q0 -40 10 -58.5t33 -18.5q35 0 58.5 44.5t23.5 114.5v246h118v-504q0 -111 -58 -166.5t-162 -55.5q-57 0 -124 18l12 109q58 -26 122 -26q50 0 71 23t21 77v23q0 49 13 86h-2q-40 -91 -129 -91q-124 0 -124 157v257h-141v-404h-118v404h-62v93h62v53
q0 86 36.5 130.5t103.5 44.5q39 0 76 -10l-10 -95q-19 8 -39 8q-49 0 -49 -79v-52h258zM381 701q29 0 50 -21t21 -50q0 -30 -21 -51t-50 -21q-30 0 -51 21t-21 51q0 29 21 50t51 21zM623 701q30 0 50.5 -21t20.5 -50q0 -30 -21 -51t-50 -21q-30 0 -50.5 21t-20.5 51
q0 29 21 50t50 21z" />
    <glyph glyph-name="acute.cap" unicode="&#xf6c9;" horiz-adv-x="285" 
d="M32 780l175 72l32 -83l-185 -49z" />
    <glyph glyph-name="caron.cap" unicode="&#xf6ca;" horiz-adv-x="320" 
d="M157 720l-136 73l31 59l106 -46l106 46l29 -58z" />
    <glyph glyph-name="dieresis.cap" unicode="&#xf6cb;" horiz-adv-x="381" 
d="M110 844q25 0 43 -18t18 -44t-18 -44t-43 -18q-26 0 -44 18t-18 44t18 44t44 18zM282 844q25 0 43 -18t18 -44t-18 -44t-43 -18q-26 0 -44 18t-18 44t18 44t44 18z" />
    <glyph glyph-name="grave.cap" unicode="&#xf6ce;" horiz-adv-x="285" 
d="M238 780l-23 -60l-185 49l32 83z" />
    <glyph glyph-name="hungarumlaut.cap" unicode="&#xf6cf;" horiz-adv-x="500" 
d="M225 809l-141 -98l-56 34l124 113zM416 803l-149 -92l-57 40l129 106z" />
    <glyph glyph-name="macron.cap" unicode="&#xf6d0;" horiz-adv-x="336" 
d="M298 740h-260v84h260v-84z" />
    <glyph glyph-name="breve.cyr.cap" unicode="&#xf6d1;" horiz-adv-x="393" 
d="M355 853q0 -63 -41.5 -100t-118.5 -37q-78 0 -117.5 35.5t-39.5 101.5h105q0 -68 55 -68q51 0 51 68h106z" />
    <glyph glyph-name="caroncomma.cap" unicode="&#xf6d2;" horiz-adv-x="268" 
d="M217 762l-98 -170l-68 37l82 178z" />
    <glyph glyph-name="ringacute" unicode="&#xf6d3;" horiz-adv-x="320" 
d="M288 828l-176 -48l-19 56l170 63zM266 649q0 -45 -29 -74t-82 -29q-103 0 -103 98q0 44 29 73.5t83 29.5q102 0 102 -98zM195 644q0 50 -36 50t-36 -45q0 -50 36 -50t36 45z" />
    <glyph glyph-name="breve.cyr" unicode="&#xf6d4;" horiz-adv-x="393" 
d="M355 691q0 -67 -41.5 -106t-118.5 -39q-78 0 -117.5 38t-39.5 107h103q0 -75 57 -75q52 0 52 75h105z" />
    <glyph glyph-name="breve.sc" unicode="&#xf6f4;" horiz-adv-x="308" 
d="M282 721q0 -58 -33 -96t-97 -38t-95.5 38.5t-31.5 95.5h85q0 -22 11.5 -35.5t31.5 -13.5q43 0 43 49h86z" />
    <glyph glyph-name="caron.sc" unicode="&#xf6f5;" horiz-adv-x="317" 
d="M22 691l39 57l98 -61l96 61l39 -56l-136 -102z" />
    <glyph glyph-name="circumflex.sc" unicode="&#xf6f6;" horiz-adv-x="317" 
d="M293 646l-39 -56l-97 60l-97 -60l-39 56l136 101z" />
    <glyph glyph-name="dotaccent.sc" unicode="&#xf6f7;" horiz-adv-x="229" 
d="M115 731q29 0 49.5 -20.5t20.5 -49.5q0 -30 -20.5 -50.5t-49.5 -20.5q-30 0 -50.5 20.5t-20.5 50.5q0 29 20.5 49.5t50.5 20.5z" />
    <glyph glyph-name="hungarumlaut.sc" unicode="&#xf6f8;" horiz-adv-x="406" 
d="M209 687l-123 -112l-54 43l105 126zM375 684l-129 -109l-53 43l111 125z" />
    <glyph glyph-name="OE.sc" unicode="&#xf6fa;" horiz-adv-x="620" 
d="M327 0q-38 -8 -75 -8q-116 0 -166.5 70.5t-50.5 200.5q0 127 59.5 204t175.5 77q39 0 75 -8h232v-90h-148v-130h139v-87h-139v-137h149v-92h-251zM311 99v339q-21 12 -50 12q-103 0 -103 -180q0 -184 103 -184q27 0 50 13z" />
    <glyph glyph-name="ring.sc" unicode="&#xf6fc;" horiz-adv-x="300" 
d="M264 683q0 -45 -30.5 -74t-88.5 -29q-109 0 -109 99q0 45 30.5 74t88.5 29q109 0 109 -99zM188 679q0 50 -38 50t-38 -45q0 -51 38 -51t38 46z" />
    <glyph glyph-name="Scaron.sc" unicode="&#xf6fd;" horiz-adv-x="376" 
d="M344 152q0 -64 -47 -111.5t-142 -47.5q-56 0 -123 16l20 100q54 -24 102 -24q65 0 65 59q0 26 -19 45.5t-46 35t-54.5 34t-46.5 51.5t-19 78q0 64 46.5 110t139.5 46q50 0 99 -12l-21 -94q-44 17 -78 17q-31 0 -47 -16t-16 -43q0 -24 19.5 -42.5t46.5 -34t54.5 -34.5
t47 -53t19.5 -80zM54 691l39 57l98 -61l96 61l39 -56l-136 -102z" />
    <glyph glyph-name="tilde.sc" unicode="&#xf6fe;" horiz-adv-x="375" 
d="M283 717l59 -39q-35 -88 -106 -88q-32 0 -61 21.5t-41 21.5q-22 0 -41 -40l-60 39q36 88 106 88q32 0 61 -21.5t41 -21.5q22 0 42 40z" />
    <glyph glyph-name="Zcaron.sc" unicode="&#xf6ff;" horiz-adv-x="381" 
d="M343 0h-305v98l162 333q-57 -3 -87 -3h-71v108h297v-96l-162 -333q38 4 86 4h80v-111zM55 691l39 57l98 -61l96 61l39 -56l-136 -102z" />
    <glyph glyph-name="zero.oldstyle" unicode="&#xf730;" horiz-adv-x="485" 
d="M457 275q0 -135 -61.5 -210t-156.5 -75q-100 0 -155.5 69.5t-55.5 203.5t61 208.5t157 74.5q101 0 156 -70.5t55 -200.5zM340 269q0 79 -26 127.5t-74 48.5q-44 0 -69.5 -45t-25.5 -130q0 -83 25.5 -130.5t74.5 -47.5q43 0 69 44.5t26 132.5z" />
    <glyph glyph-name="one.oldstyle" unicode="&#xf731;" horiz-adv-x="288" 
d="M233 0h-120v422l-80 -41l-21 97l128 60h93v-538z" />
    <glyph glyph-name="two.oldstyle" unicode="&#xf732;" horiz-adv-x="395" 
d="M363 0h-331v98l73 82q69 73 92 114.5t23 74.5q0 32 -18 53t-53 21q-47 0 -91 -36l-28 99q70 40 151 40q82 0 126 -44t44 -119q0 -94 -121 -215l-61 -64v-1q77 4 194 4v-107z" />
    <glyph glyph-name="three.oldstyle" unicode="&#xf733;" horiz-adv-x="385" 
d="M363 70q0 -101 -69.5 -167t-185.5 -66q-55 0 -97 13l23 103q34 -15 81 -15q58 0 90 29.5t32 79.5q0 52 -32.5 82.5t-94.5 30.5q-22 0 -47 -3v95h27q61 0 95.5 29.5t34.5 74.5q0 39 -20.5 64.5t-62.5 25.5q-44 0 -84 -29l-34 88q66 41 144 41q87 0 133.5 -45.5
t46.5 -120.5q0 -52 -24.5 -92t-66.5 -59v-1q52 -15 81.5 -57t29.5 -101z" />
    <glyph glyph-name="four.oldstyle" unicode="&#xf734;" horiz-adv-x="461" 
d="M443 0h-75v-153h-115v153h-234l-7 95l186 441h170v-428h75v-108zM254 108v225q0 63 3 104h-2q-15 -51 -29 -84l-108 -248q46 3 136 3z" />
    <glyph glyph-name="five.oldstyle" unicode="&#xf735;" horiz-adv-x="387" 
d="M366 77q0 -101 -70.5 -170.5t-187.5 -69.5q-49 0 -88 9l18 104q35 -12 76 -12q60 0 92 32t32 89q0 135 -189 117v360h285v-117l-175 1v-143q93 0 150 -53t57 -147z" />
    <glyph glyph-name="six.oldstyle" unicode="&#xf736;" horiz-adv-x="463" 
d="M437 222q0 -103 -58.5 -167.5t-148.5 -64.5q-91 0 -144.5 72t-53.5 206q0 210 81.5 316t221.5 106q33 0 55 -3l-11 -104q-23 4 -55 4q-127 0 -162 -185q-3 -20 -9 -38q14 30 45 47t71 17q76 0 122 -56t46 -150zM313 211q0 55 -19.5 85t-56.5 30q-34 0 -54.5 -31.5
t-20.5 -72.5q0 -59 20 -94.5t56 -35.5t55.5 31.5t19.5 87.5z" />
    <glyph glyph-name="seven.oldstyle" unicode="&#xf737;" horiz-adv-x="382" 
d="M366 436q-105 -318 -158 -589h-133q49 231 158 574q-30 -2 -110 -2h-106v117h349v-100z" />
    <glyph glyph-name="eight.oldstyle" unicode="&#xf738;" horiz-adv-x="444" 
d="M317 358q49 -33 76 -73.5t27 -101.5q0 -84 -55 -138.5t-150 -54.5t-142.5 49t-47.5 124q0 105 97 180q-86 60 -86 162q0 78 52.5 130.5t138.5 52.5q88 0 134.5 -45.5t46.5 -116.5q0 -93 -91 -168zM226 411q62 47 62 103q0 35 -16.5 55.5t-48.5 20.5t-49.5 -21t-17.5 -55
q0 -56 70 -103zM211 288q-64 -55 -64 -111q0 -40 21 -64t56 -24q31 0 52 23t21 58q0 38 -21.5 64.5t-64.5 53.5z" />
    <glyph glyph-name="nine.oldstyle" unicode="&#xf739;" horiz-adv-x="460" 
d="M428 267q0 -118 -26 -204.5t-71 -133.5t-97.5 -68.5t-114.5 -21.5q-35 0 -68 5l12 106q35 -8 69 -8q134 0 165 184q3 24 10 43q-33 -63 -118 -63q-76 0 -121 56t-45 150q0 105 58.5 169.5t149.5 64.5q92 0 144.5 -71.5t52.5 -207.5zM297 312q0 60 -20 95.5t-55 35.5
q-37 0 -56.5 -31.5t-19.5 -87.5q0 -115 75 -115q36 0 56 30t20 73z" />
    <glyph glyph-name="grave.sc" unicode="&#xf760;" horiz-adv-x="301" 
d="M43 671l51 78l154 -101l-38 -58z" />
    <glyph glyph-name="A.sc" unicode="&#xf761;" horiz-adv-x="473" 
d="M463 0h-125l-27 105h-159l-27 -105h-115l140 536h174zM292 194l-37 143q-16 69 -23 115h-1q-8 -54 -22 -114l-37 -144h120z" />
    <glyph glyph-name="B.sc" unicode="&#xf762;" horiz-adv-x="446" 
d="M412 165q0 -73 -52.5 -120t-155.5 -47q-7 0 -153 2v536q67 3 166 3q180 0 180 -139q0 -81 -71 -115v-1q86 -26 86 -119zM274 387q0 67 -66 67q-24 0 -39 -1v-137h35q70 0 70 71zM286 160q0 72 -82 72h-35v-144q16 -3 42 -3q35 0 55 20t20 55z" />
    <glyph glyph-name="C.sc" unicode="&#xf763;" horiz-adv-x="396" 
d="M373 18q-55 -25 -122 -25q-116 0 -166 67.5t-50 196.5q0 132 58 209t170 77q54 0 106 -18l-26 -94q-33 15 -72 15q-108 0 -108 -179q0 -177 106 -177q38 0 78 18z" />
    <glyph glyph-name="D.sc" unicode="&#xf764;" horiz-adv-x="484" 
d="M448 276q0 -278 -251 -278q-86 0 -146 4v533q13 0 43.5 1.5t59.5 2t55 0.5q121 0 180 -59t59 -204zM323 270q0 96 -26 137.5t-82 41.5q-26 0 -46 -2v-355q13 -3 40 -3q114 0 114 181z" />
    <glyph glyph-name="E.sc" unicode="&#xf765;" horiz-adv-x="360" 
d="M318 0h-267v536h266v-90h-148v-130h139v-87h-139v-137h149v-92z" />
    <glyph glyph-name="F.sc" unicode="&#xf766;" horiz-adv-x="349" 
d="M310 446h-141v-139h133v-88h-133v-219h-118v536h259v-90z" />
    <glyph glyph-name="G.sc" unicode="&#xf767;" horiz-adv-x="482" 
d="M433 517l-33 -94q-64 26 -118 26q-67 0 -95 -45.5t-28 -135.5q0 -94 27.5 -137.5t85.5 -43.5q24 0 41 6v186h118v-253q-74 -34 -168 -34q-118 0 -173 66.5t-55 200.5q0 132 61.5 208.5t191.5 76.5q78 0 145 -27z" />
    <glyph glyph-name="H.sc" unicode="&#xf768;" horiz-adv-x="502" 
d="M451 0h-118v223h-164v-223h-118v536h118v-213h164v213h118v-536z" />
    <glyph glyph-name="I.sc" unicode="&#xf769;" horiz-adv-x="220" 
d="M169 0h-118v536h118v-536z" />
    <glyph glyph-name="J.sc" unicode="&#xf76a;" horiz-adv-x="259" 
d="M208 536v-373q0 -168 -137 -168q-21 0 -57 4v94q15 -4 37 -4q21 0 30 13.5t9 51.5v382h118z" />
    <glyph glyph-name="K.sc" unicode="&#xf76b;" horiz-adv-x="442" 
d="M432 0h-132l-130 260h-1v-260h-118v536h118v-242h1l122 242h131l-137 -250z" />
    <glyph glyph-name="L.sc" unicode="&#xf76c;" horiz-adv-x="325" 
d="M305 0h-254v536h118v-440h136v-96z" />
    <glyph glyph-name="M.sc" unicode="&#xf76d;" horiz-adv-x="680" 
d="M648 0h-121l-22 312q-2 25 -4 73.5t-2 55.5h-1q-10 -65 -23 -117l-76 -324h-127l-76 322q-14 58 -23 119h-1q-2 -85 -5 -130l-22 -311h-113l52 536h172l67 -276q13 -52 18 -117h2q8 72 19 117l67 276h167z" />
    <glyph glyph-name="N.sc" unicode="&#xf76e;" horiz-adv-x="511" 
d="M460 0h-142l-110 238q-41 94 -61 177h-2q10 -110 10 -256v-159h-104v536h155l97 -209q39 -87 61 -177h2q-10 110 -10 256v130h104v-536z" />
    <glyph glyph-name="O.sc" unicode="&#xf76f;" horiz-adv-x="522" 
d="M487 273q0 -127 -59.5 -204t-175.5 -77t-166.5 70.5t-50.5 200.5q0 127 59.5 204t175.5 77t166.5 -70.5t50.5 -200.5zM364 266q0 184 -103 184t-103 -180q0 -184 103 -184t103 180z" />
    <glyph glyph-name="P.sc" unicode="&#xf770;" horiz-adv-x="413" 
d="M388 367q0 -87 -54 -136.5t-142 -49.5q-16 0 -23 1v-182h-118v535q80 4 149 4q188 0 188 -172zM267 360q0 91 -72 91q-16 0 -26 -1v-179q14 -2 26 -2q72 0 72 91z" />
    <glyph glyph-name="Q.sc" unicode="&#xf771;" horiz-adv-x="522" 
d="M487 273q0 -162 -87 -215q14 2 51.5 -3.5t60.5 -1.5v-97q-66 -12 -139 12t-108 24h-13q-116 0 -166.5 70.5t-50.5 200.5q0 127 59.5 204t175.5 77t166.5 -70.5t50.5 -200.5zM364 266q0 184 -103 184t-103 -180q0 -184 103 -184t103 180z" />
    <glyph glyph-name="R.sc" unicode="&#xf772;" horiz-adv-x="429" 
d="M411 0h-133l-94 214h-15v-214h-118v536q43 3 152 3q184 0 184 -156q0 -58 -25.5 -96t-67.5 -51q22 -38 31 -57zM265 376q0 75 -67 75q-19 0 -29 -1v-149q10 -2 26 -2q70 0 70 77z" />
    <glyph glyph-name="S.sc" unicode="&#xf773;" horiz-adv-x="376" 
d="M344 152q0 -64 -47 -111.5t-142 -47.5q-56 0 -123 16l20 100q54 -24 102 -24q65 0 65 59q0 26 -19 45.5t-46 35t-54.5 34t-46.5 51.5t-19 78q0 64 46.5 110t139.5 46q50 0 99 -12l-21 -94q-44 17 -78 17q-31 0 -47 -16t-16 -43q0 -24 19.5 -42.5t46.5 -34t54.5 -34.5
t47 -53t19.5 -80z" />
    <glyph glyph-name="T.sc" unicode="&#xf774;" horiz-adv-x="376" 
d="M354 442h-107v-442h-118v442h-107v94h332v-94z" />
    <glyph glyph-name="U.sc" unicode="&#xf775;" horiz-adv-x="492" 
d="M442 536v-339q0 -205 -201 -205q-105 0 -148 49.5t-43 142.5v352h118v-345q0 -54 17.5 -79.5t60.5 -25.5t60.5 25.5t17.5 78.5v346h118z" />
    <glyph glyph-name="V.sc" unicode="&#xf776;" horiz-adv-x="463" 
d="M450 536l-131 -536h-174l-132 536h126l72 -313q16 -77 25 -136h1q11 72 25 139l69 310h119z" />
    <glyph glyph-name="W.sc" unicode="&#xf777;" horiz-adv-x="724" 
d="M703 536l-102 -536h-170l-55 311q-12 73 -15 123h-2q-3 -60 -14 -121l-56 -313h-166l-102 536h123l54 -325q8 -44 15 -113h1q8 78 14 114l58 324h161l58 -324q5 -25 14 -114h1q6 57 15 113l55 325h113z" />
    <glyph glyph-name="X.sc" unicode="&#xf778;" horiz-adv-x="464" 
d="M447 0h-134l-50 115q-27 65 -34 91h-1q-16 -51 -36 -99l-45 -107h-130l131 273l-120 263h132l44 -104q23 -59 32 -93h1q16 55 31 93l39 104h129l-120 -262z" />
    <glyph glyph-name="Y.sc" unicode="&#xf779;" horiz-adv-x="429" 
d="M419 536l-146 -353v-183h-118v182l-146 354h132l48 -137q24 -71 30 -110h2q7 45 29 110l48 137h121z" />
    <glyph glyph-name="Z.sc" unicode="&#xf77a;" horiz-adv-x="381" 
d="M343 0h-305v98l162 333q-57 -3 -87 -3h-71v108h297v-96l-162 -333q38 4 86 4h80v-111z" />
    <glyph glyph-name="dieresis.sc" unicode="&#xf7a8;" horiz-adv-x="401" 
d="M109 720q25 0 43 -18t18 -43t-18 -43.5t-44 -18.5t-43.5 17.5t-17.5 43.5t18.5 44t43.5 18zM285 720q25 0 43 -18t18 -43q0 -26 -18 -44t-43 -18t-43 17.5t-18 43.5q0 25 18 43.5t43 18.5z" />
    <glyph glyph-name="macron.sc" unicode="&#xf7af;" horiz-adv-x="326" 
d="M287 608h-249v84h249v-84z" />
    <glyph glyph-name="acute.sc" unicode="&#xf7b4;" horiz-adv-x="301" 
d="M248 671l-167 -81l-38 58l154 101z" />
    <glyph glyph-name="Agrave.sc" unicode="&#xf7e0;" horiz-adv-x="473" 
d="M463 0h-125l-27 105h-159l-27 -105h-115l140 536h174zM292 194l-37 143q-16 69 -23 115h-1q-8 -54 -22 -114l-37 -144h120zM111 671l51 78l154 -101l-38 -58z" />
    <glyph glyph-name="Aacute.sc" unicode="&#xf7e1;" horiz-adv-x="473" 
d="M463 0h-125l-27 105h-159l-27 -105h-115l140 536h174zM292 194l-37 143q-16 69 -23 115h-1q-8 -54 -22 -114l-37 -144h120zM352 671l-167 -81l-38 58l154 101z" />
    <glyph glyph-name="Acircumflex.sc" unicode="&#xf7e2;" horiz-adv-x="473" 
d="M463 0h-125l-27 105h-159l-27 -105h-115l140 536h174zM292 194l-37 143q-16 69 -23 115h-1q-8 -54 -22 -114l-37 -144h120zM371 646l-39 -56l-97 60l-97 -60l-39 56l136 101z" />
    <glyph glyph-name="Atilde.sc" unicode="&#xf7e3;" horiz-adv-x="473" 
d="M463 0h-125l-27 105h-159l-27 -105h-115l140 536h174zM292 194l-37 143q-16 69 -23 115h-1q-8 -54 -22 -114l-37 -144h120zM332 717l59 -39q-35 -88 -106 -88q-32 0 -61 21.5t-41 21.5q-22 0 -41 -40l-60 39q36 88 106 88q32 0 61 -21.5t41 -21.5q22 0 42 40z" />
    <glyph glyph-name="Adieresis.sc" unicode="&#xf7e4;" horiz-adv-x="473" 
d="M463 0h-125l-27 105h-159l-27 -105h-115l140 536h174zM292 194l-37 143q-16 69 -23 115h-1q-8 -54 -22 -114l-37 -144h120zM148 720q26 0 43.5 -18t17.5 -43t-18.5 -43.5t-43.5 -18.5t-43 17.5t-18 43.5t18 44t44 18zM324 720q26 0 43.5 -18t17.5 -43q0 -26 -18 -44
t-43 -18q-26 0 -43.5 17.5t-17.5 43.5q0 25 18 43.5t43 18.5z" />
    <glyph glyph-name="Aring.sc" unicode="&#xf7e5;" horiz-adv-x="473" 
d="M463 0h-125l-27 105h-159l-27 -105h-115l140 536h174zM292 194l-37 143q-16 69 -23 115h-1q-8 -54 -22 -114l-37 -144h120zM350 683q0 -45 -30.5 -74t-88.5 -29q-109 0 -109 99q0 45 30.5 74t88.5 29q109 0 109 -99zM274 679q0 50 -38 50t-38 -45q0 -51 38 -51t38 46z
" />
    <glyph glyph-name="AE.sc" unicode="&#xf7e6;" horiz-adv-x="581" 
d="M539 0h-267v116h-122l-43 -116h-118l202 536h344v-90h-146v-130h139v-87h-139v-137h150v-92zM272 201v245h-8q-23 -82 -38 -124l-49 -121h95z" />
    <glyph glyph-name="Ccedilla.sc" unicode="&#xf7e7;" horiz-adv-x="396" 
d="M373 18q-55 -25 -122 -25q-116 0 -166 67.5t-50 196.5q0 132 58 209t170 77q54 0 106 -18l-26 -94q-33 15 -72 15q-108 0 -108 -179q0 -177 106 -177q38 0 78 18zM272 -36q60 -89 -20 -172h-88q31 39 34 72t-25 73z" />
    <glyph glyph-name="Egrave.sc" unicode="&#xf7e8;" horiz-adv-x="360" 
d="M318 0h-267v536h266v-90h-148v-130h139v-87h-139v-137h149v-92zM52 671l51 78l154 -101l-38 -58z" />
    <glyph glyph-name="Eacute.sc" unicode="&#xf7e9;" horiz-adv-x="360" 
d="M318 0h-267v536h266v-90h-148v-130h139v-87h-139v-137h149v-92zM302 671l-167 -81l-38 58l154 101z" />
    <glyph glyph-name="Ecircumflex.sc" unicode="&#xf7ea;" horiz-adv-x="360" 
d="M318 0h-267v536h266v-90h-148v-130h139v-87h-139v-137h149v-92zM320 646l-39 -56l-97 60l-97 -60l-39 56l136 101z" />
    <glyph glyph-name="Edieresis.sc" unicode="&#xf7eb;" horiz-adv-x="360" 
d="M318 0h-267v536h266v-90h-148v-130h139v-87h-139v-137h149v-92zM97 720q25 0 43 -18t18 -43t-18 -43.5t-44 -18.5t-43.5 17.5t-17.5 43.5t18.5 44t43.5 18zM273 720q25 0 43 -18t18 -43q0 -26 -18 -44t-43 -18t-43 17.5t-18 43.5q0 25 18 43.5t43 18.5z" />
    <glyph glyph-name="Igrave.sc" unicode="&#xf7ec;" horiz-adv-x="220" 
d="M169 0h-118v536h118v-536zM-11 671l51 78l154 -101l-38 -58z" />
    <glyph glyph-name="Iacute.sc" unicode="&#xf7ed;" horiz-adv-x="220" 
d="M169 0h-118v536h118v-536zM230 671l-167 -81l-38 58l154 101z" />
    <glyph glyph-name="Icircumflex.sc" unicode="&#xf7ee;" horiz-adv-x="220" 
d="M169 0h-118v536h118v-536zM246 646l-39 -56l-97 60l-97 -60l-39 56l136 101z" />
    <glyph glyph-name="Idieresis.sc" unicode="&#xf7ef;" horiz-adv-x="220" 
d="M34 717q24 0 41.5 -17t17.5 -42t-17.5 -43t-42.5 -18t-42 17.5t-17 42.5t17.5 42.5t42.5 17.5zM187 717q25 0 42 -17t17 -42t-17.5 -43t-42.5 -18q-24 0 -41.5 17.5t-17.5 42.5t17.5 42.5t42.5 17.5zM169 0h-118v536h118v-536z" />
    <glyph glyph-name="Eth.sc" unicode="&#xf7f0;" horiz-adv-x="492" 
d="M60 316v219q13 0 43.5 1.5t59 2t54.5 0.5q121 0 180.5 -59t59.5 -204q0 -278 -251 -278q-87 0 -146 4v227h-41v87h41zM178 316h70v-87h-70v-137q13 -3 39 -3q115 0 115 181q0 96 -26 137.5t-83 41.5q-25 0 -45 -2v-131z" />
    <glyph glyph-name="Ntilde.sc" unicode="&#xf7f1;" horiz-adv-x="511" 
d="M460 0h-142l-110 238q-41 94 -61 177h-2q10 -110 10 -256v-159h-104v536h155l97 -209q39 -87 61 -177h2q-10 110 -10 256v130h104v-536zM351 717l59 -39q-35 -88 -106 -88q-32 0 -61 21.5t-41 21.5q-22 0 -41 -40l-60 39q36 88 106 88q32 0 61 -21.5t41 -21.5q22 0 42 40
z" />
    <glyph glyph-name="Ograve.sc" unicode="&#xf7f2;" horiz-adv-x="522" 
d="M487 273q0 -127 -59.5 -204t-175.5 -77t-166.5 70.5t-50.5 200.5q0 127 59.5 204t175.5 77t166.5 -70.5t50.5 -200.5zM364 266q0 184 -103 184t-103 -180q0 -184 103 -184t103 180zM131 671l51 78l154 -101l-38 -58z" />
    <glyph glyph-name="Oacute.sc" unicode="&#xf7f3;" horiz-adv-x="522" 
d="M487 273q0 -127 -59.5 -204t-175.5 -77t-166.5 70.5t-50.5 200.5q0 127 59.5 204t175.5 77t166.5 -70.5t50.5 -200.5zM364 266q0 184 -103 184t-103 -180q0 -184 103 -184t103 180zM403 671l-167 -81l-38 58l154 101z" />
    <glyph glyph-name="Ocircumflex.sc" unicode="&#xf7f4;" horiz-adv-x="522" 
d="M487 273q0 -127 -59.5 -204t-175.5 -77t-166.5 70.5t-50.5 200.5q0 127 59.5 204t175.5 77t166.5 -70.5t50.5 -200.5zM364 266q0 184 -103 184t-103 -180q0 -184 103 -184t103 180zM401 646l-39 -56l-97 60l-97 -60l-39 56l136 101z" />
    <glyph glyph-name="Otilde.sc" unicode="&#xf7f5;" horiz-adv-x="522" 
d="M487 273q0 -127 -59.5 -204t-175.5 -77t-166.5 70.5t-50.5 200.5q0 127 59.5 204t175.5 77t166.5 -70.5t50.5 -200.5zM364 266q0 184 -103 184t-103 -180q0 -184 103 -184t103 180zM356 717l59 -39q-35 -88 -106 -88q-32 0 -61 21.5t-41 21.5q-22 0 -41 -40l-60 39
q36 88 106 88q32 0 61 -21.5t41 -21.5q22 0 42 40z" />
    <glyph glyph-name="Odieresis.sc" unicode="&#xf7f6;" horiz-adv-x="522" 
d="M487 273q0 -127 -59.5 -204t-175.5 -77t-166.5 70.5t-50.5 200.5q0 127 59.5 204t175.5 77t166.5 -70.5t50.5 -200.5zM364 266q0 184 -103 184t-103 -180q0 -184 103 -184t103 180zM175 720q25 0 43 -18t18 -43t-18 -43.5t-44 -18.5t-43.5 17.5t-17.5 43.5t18.5 44
t43.5 18zM351 720q25 0 43 -18t18 -43q0 -26 -18 -44t-43 -18t-43 17.5t-18 43.5q0 25 18 43.5t43 18.5z" />
    <glyph glyph-name="Oslash.sc" unicode="&#xf7f8;" horiz-adv-x="522" 
d="M487 273q0 -127 -59.5 -204t-175.5 -77q-31 0 -59 8l-30 -69l-82 30l31 73q-77 64 -77 229q0 127 59.5 204t175.5 77q36 0 59 -8l30 69l82 -30l-31 -73q77 -63 77 -229zM369 265q0 40 -10 120h-1l-128 -296q13 -8 31 -8q108 0 108 184zM153 270q0 -33 10 -118h1l128 296
q-15 8 -31 8q-108 0 -108 -186z" />
    <glyph glyph-name="Ugrave.sc" unicode="&#xf7f9;" horiz-adv-x="492" 
d="M442 536v-339q0 -205 -201 -205q-105 0 -148 49.5t-43 142.5v352h118v-345q0 -54 17.5 -79.5t60.5 -25.5t60.5 25.5t17.5 78.5v346h118zM100 671l51 78l154 -101l-38 -58z" />
    <glyph glyph-name="Uacute.sc" unicode="&#xf7fa;" horiz-adv-x="492" 
d="M442 536v-339q0 -205 -201 -205q-105 0 -148 49.5t-43 142.5v352h118v-345q0 -54 17.5 -79.5t60.5 -25.5t60.5 25.5t17.5 78.5v346h118zM394 671l-167 -81l-38 58l154 101z" />
    <glyph glyph-name="Ucircumflex.sc" unicode="&#xf7fb;" horiz-adv-x="492" 
d="M442 536v-339q0 -205 -201 -205q-105 0 -148 49.5t-43 142.5v352h118v-345q0 -54 17.5 -79.5t60.5 -25.5t60.5 25.5t17.5 78.5v346h118zM385 646l-39 -56l-97 60l-97 -60l-39 56l136 101z" />
    <glyph glyph-name="Udieresis.sc" unicode="&#xf7fc;" horiz-adv-x="492" 
d="M442 536v-339q0 -205 -201 -205q-105 0 -148 49.5t-43 142.5v352h118v-345q0 -54 17.5 -79.5t60.5 -25.5t60.5 25.5t17.5 78.5v346h118zM161 720q25 0 43 -18t18 -43t-18 -43.5t-44 -18.5t-43.5 17.5t-17.5 43.5t18.5 44t43.5 18zM337 720q25 0 43 -18t18 -43
q0 -26 -18 -44t-43 -18t-43 17.5t-18 43.5q0 25 18 43.5t43 18.5z" />
    <glyph glyph-name="Yacute.sc" unicode="&#xf7fd;" horiz-adv-x="429" 
d="M419 536l-146 -353v-183h-118v182l-146 354h132l48 -137q24 -71 30 -110h2q7 45 29 110l48 137h121zM369 671l-167 -81l-38 58l154 101z" />
    <glyph glyph-name="Thorn.sc" unicode="&#xf7fe;" horiz-adv-x="419" 
d="M393 287q0 -90 -54 -140.5t-145 -50.5q-18 0 -25 1v-97h-118v536h118v-73q9 1 33 1q191 0 191 -177zM272 279q0 96 -75 96q-18 0 -28 -1v-188q14 -2 29 -2q74 0 74 95z" />
    <glyph glyph-name="Ydieresis.sc" unicode="&#xf7ff;" horiz-adv-x="429" 
d="M419 536l-146 -353v-183h-118v182l-146 354h132l48 -137q24 -71 30 -110h2q7 45 29 110l48 137h121zM130 720q26 0 43.5 -18t17.5 -43t-18.5 -43.5t-43.5 -18.5t-43 17.5t-18 43.5t18 44t44 18zM306 720q26 0 43.5 -18t17.5 -43q0 -26 -18 -44t-43 -18q-26 0 -43.5 17.5
t-17.5 43.5q0 25 18 43.5t43 18.5z" />
    <glyph glyph-name="apple" unicode="&#xf8ff;" horiz-adv-x="740" 
d="M572 299q0 -111 -71 -185v-55l-11 -5l26 -69l-27 -10l26 -63l-27 -10l13 -30l-30 -60h-47q-7 -43 -54 -43q-48 0 -53 43h-48l-44 124l27 9l-27 76l28 9l-16 40v44q-69 73 -69 185q0 103 60 181.5t142 78.5t142 -78t60 -182zM388 301q-19 3 -37 0l6 -146h26zM127 287
l-105 -9q-3 36 0 71l105 -9q-3 -26 0 -53zM189 569q-28 -28 -35 -37l-81 75q29 32 49 49zM404 766l-9 -114q-18 2 -51 0l-9 114q34 5 69 0zM665 607l-81 -75q-12 16 -35 37l67 87q20 -17 49 -49zM717 282l-98 8q2 24 0 48l98 8q1 -33 0 -64zM513 299q0 86 -41.5 147
t-101.5 61t-101.5 -61t-41.5 -147q0 -87 42 -144h44l-6 138q-17 -4 -30 -10q-8 -4 -11 10q-4 25 4 36q43 19 99 19q58 0 101 -19q9 -4 5 -30q-2 -17 -10 -17q-1 0 -2 1q-17 7 -32 10l-5 -138h45q42 55 42 144zM452 92v18h-164v-32l13 -34zM453 6l-12 33l-155 -47l13 -32z
M454 -69l-11 29l-156 -49l22 -59h129l10 22l-5 13l-50 -17l-15 37zM361 323h2v1h-1v5h-1v-6zM367 325v2h-1v-2h-1v2h-1v-2q1 -2 3 0zM370 324q-1 0 -1 1t1 2q-1 2 -2 0q1 -2 2 -3zM374 324l1 -1v3q0 4 -3 1q2 1 2 -1q-1 -1 0 -2zM378 328q-3 0 -2 -2t-1 -3q4 0 2 3q-1 2 1 2
zM378 321q4 5 0 9q2 -4 0 -9zM372 330q-4 -4 0 -9q-2 5 0 9zM374 325z" />
    <glyph glyph-name="LatinLowercase" horiz-adv-x="1155" 
d="M224 -221h-178v375h82v-308h96v-67zM499 -209q-39 -17 -85 -17q-81 0 -116 47.5t-35 137.5q0 92 40 146t119 54q40 0 74 -12l-18 -66q-27 10 -50 10q-76 0 -76 -125q0 -124 74 -124q23 0 55 12zM224 300h-178v375h82v-308h96v-67zM562 300h-88l-19 74h-111l-19 -74h-80
l98 375h121zM442 435l-31 124q-7 25 -10 55h-1q-6 -36 -11 -55l-31 -124h84zM772 610h-75v-310h-82v310h-75v65h232v-65zM1109 300h-112l-82 214q-9 24 -20 75h-2q4 -88 4 -157v-132h-74v375h119l76 -192q12 -37 20 -73h1q-3 72 -3 163v102h73v-375z" />
    <glyph glyph-name="f_lacute" horiz-adv-x="475" 
d="M426 0h-117v621q-21 7 -50 7q-78 0 -78 -92v-39h69v-93h-69v-404h-118v404h-62v93h62v37q0 191 203 191q71 0 160 -14v-711zM287 820l175 72l32 -83l-185 -49z" />
    <glyph glyph-name="f_lcaron" horiz-adv-x="557" 
d="M426 0h-117v621q-21 7 -50 7q-78 0 -78 -92v-39h69v-93h-69v-404h-118v404h-62v93h62v37q0 191 203 191q71 0 160 -14v-711zM599 714l-71 -197l-72 14l47 202z" />
    <glyph glyph-name="f_lcommaaccent" horiz-adv-x="475" 
d="M426 0h-117v621q-21 7 -50 7q-78 0 -78 -92v-39h69v-93h-69v-404h-118v404h-62v93h62v37q0 191 203 191q71 0 160 -14v-711zM204 -217v64q53 0 72 12.5t33 46.5q16 40 60 40q25 0 41.5 -16.5t16.5 -43.5q0 -45 -42 -76t-126 -31q-24 0 -55 4z" />
    <glyph glyph-name="i.dotaccent" horiz-adv-x="214" 
d="M166 0h-118v497h118v-497zM107 697q30 0 50.5 -21t20.5 -51q0 -29 -21 -50t-50 -21q-30 0 -50.5 21t-20.5 50q0 30 21 51t50 21z" />
    <glyph glyph-name="i_j" horiz-adv-x="455" 
d="M63 -211l12 109q58 -26 122 -26q51 0 72 23t21 77v23q0 51 12 86h-2q-40 -91 -129 -91q-124 0 -124 157v350h118v-328q0 -40 9.5 -58.5t32.5 -18.5q35 0 59 45t24 114v246h117v-504q0 -111 -58 -166.5t-162 -55.5q-57 0 -124 18zM106 697q30 0 50.5 -21t20.5 -51
q0 -29 -21 -50t-50 -21q-30 0 -50.5 21t-20.5 50q0 30 21 51t50 21zM348 697q30 0 50.5 -21t20.5 -51q0 -29 -21 -50t-50 -21q-30 0 -50.5 21t-20.5 50q0 30 21 51t50 21z" />
    <glyph glyph-name="LatinSmallCaps" horiz-adv-x="1155" 
d="M224 300h-178v375h82v-308h96v-67zM562 300h-88l-19 74h-111l-19 -74h-80l98 375h121zM442 435l-31 124q-7 25 -10 55h-1q-6 -36 -11 -55l-31 -124h84zM772 610h-75v-310h-82v310h-75v65h232v-65zM1109 300h-112l-82 214q-9 24 -20 75h-2q4 -88 4 -157v-132h-74v375h119
l76 -192q12 -37 20 -73h1q-3 72 -3 163v102h73v-375zM250 -114q0 -50 -35 -81t-94 -31q-45 0 -84 11l15 69q37 -16 66 -16q45 0 45 42q0 22 -20.5 39t-44.5 28.5t-44.5 38.5t-20.5 65q0 48 34.5 78.5t93.5 30.5q36 0 71 -8l-14 -66q-27 11 -55 11q-43 0 -43 -40
q0 -20 20.5 -36.5t44.5 -28t44.5 -39t20.5 -67.5zM535 -209q-39 -17 -86 -17q-81 0 -116 47.5t-35 137.5q0 93 40.5 146.5t119.5 53.5q38 0 74 -12l-18 -66q-27 10 -50 10q-76 0 -76 -125q0 -124 74 -124q24 0 54 12z" />
    <glyph glyph-name="Amacron.sc" horiz-adv-x="473" 
d="M463 0h-125l-27 105h-159l-27 -105h-115l140 536h174zM292 194l-37 143q-16 69 -23 115h-1q-8 -54 -22 -114l-37 -144h120zM360 608h-249v84h249v-84z" />
    <glyph glyph-name="Abreve.sc" horiz-adv-x="473" 
d="M463 0h-125l-27 105h-159l-27 -105h-115l140 536h174zM292 194l-37 143q-16 69 -23 115h-1q-8 -54 -22 -114l-37 -144h120zM364 721q0 -58 -33 -96t-97 -38t-95.5 38.5t-31.5 95.5h85q0 -22 11.5 -35.5t31.5 -13.5q43 0 43 49h86z" />
    <glyph glyph-name="Aringacute.sc" horiz-adv-x="473" 
d="M463 0h-125l-27 105h-159l-27 -105h-115l140 536h174zM292 194l-37 143q-16 69 -23 115h-1q-8 -54 -22 -114l-37 -144h120zM353 836l-177 -48l-19 56l170 63zM342 665q0 -43 -30.5 -71.5t-85.5 -28.5q-108 0 -108 96q0 43 30.5 71.5t86.5 28.5q107 0 107 -96zM268 661
q0 49 -38 49q-37 0 -37 -45q0 -49 37 -49q38 0 38 45z" />
    <glyph glyph-name="Aogonek.sc" horiz-adv-x="473" 
d="M454 -130l20 -77q-44 -21 -92 -21q-51 0 -81 22.5t-30 68.5q0 69 67 137l-27 105h-159l-27 -105h-115l140 536h174l139 -536q-77 -57 -77 -110q0 -32 29 -32q19 0 39 12zM292 194l-37 143q-16 69 -23 115h-1q-8 -54 -22 -114l-37 -144h120z" />
    <glyph glyph-name="AEacute.sc" horiz-adv-x="581" 
d="M539 0h-267v116h-122l-43 -116h-118l202 536h344v-90h-146v-130h139v-87h-139v-137h150v-92zM272 201v245h-8q-23 -82 -38 -124l-49 -121h95zM516 671l-167 -81l-38 58l154 101z" />
    <glyph glyph-name="Cacute.sc" horiz-adv-x="396" 
d="M373 18q-55 -25 -122 -25q-116 0 -166 67.5t-50 196.5q0 132 58 209t170 77q54 0 106 -18l-26 -94q-33 15 -72 15q-108 0 -108 -179q0 -177 106 -177q38 0 78 18zM388 671l-167 -81l-38 58l154 101z" />
    <glyph glyph-name="Ccircumflex.sc" horiz-adv-x="396" 
d="M373 18q-55 -25 -122 -25q-116 0 -166 67.5t-50 196.5q0 132 58 209t170 77q54 0 106 -18l-26 -94q-33 15 -72 15q-108 0 -108 -179q0 -177 106 -177q38 0 78 18zM384 646l-39 -56l-97 60l-97 -60l-39 56l136 101z" />
    <glyph glyph-name="Ccaron.sc" horiz-adv-x="396" 
d="M373 18q-55 -25 -122 -25q-116 0 -166 67.5t-50 196.5q0 132 58 209t170 77q54 0 106 -18l-26 -94q-33 15 -72 15q-108 0 -108 -179q0 -177 106 -177q38 0 78 18zM100 691l39 57l98 -61l96 61l39 -56l-136 -102z" />
    <glyph glyph-name="Cdotaccent.sc" horiz-adv-x="396" 
d="M373 18q-55 -25 -122 -25q-116 0 -166 67.5t-50 196.5q0 132 58 209t170 77q54 0 106 -18l-26 -94q-33 15 -72 15q-108 0 -108 -179q0 -177 106 -177q38 0 78 18zM250 731q29 0 49.5 -20.5t20.5 -49.5q0 -30 -20.5 -50.5t-49.5 -20.5q-30 0 -50.5 20.5t-20.5 50.5
q0 29 20.5 49.5t50.5 20.5z" />
    <glyph glyph-name="Dcaron.sc" horiz-adv-x="484" 
d="M448 276q0 -278 -251 -278q-86 0 -146 4v533q13 0 43.5 1.5t59.5 2t55 0.5q121 0 180 -59t59 -204zM323 270q0 96 -26 137.5t-82 41.5q-26 0 -46 -2v-355q13 -3 40 -3q114 0 114 181zM82 691l39 57l98 -61l96 61l39 -56l-136 -102z" />
    <glyph glyph-name="Dcroat.sc" horiz-adv-x="492" 
d="M60 316v219q13 0 43.5 1.5t59 2t54.5 0.5q121 0 180.5 -59t59.5 -204q0 -278 -251 -278q-87 0 -146 4v227h-41v87h41zM178 316h70v-87h-70v-137q13 -3 39 -3q115 0 115 181q0 96 -26 137.5t-83 41.5q-25 0 -45 -2v-131z" />
    <glyph glyph-name="Ecaron.sc" horiz-adv-x="360" 
d="M318 0h-267v536h266v-90h-148v-130h139v-87h-139v-137h149v-92zM52 691l39 57l98 -61l96 61l39 -56l-136 -102z" />
    <glyph glyph-name="Emacron.sc" horiz-adv-x="360" 
d="M318 0h-267v536h266v-90h-148v-130h139v-87h-139v-137h149v-92zM308 608h-249v84h249v-84z" />
    <glyph glyph-name="Ebreve.sc" horiz-adv-x="360" 
d="M318 0h-267v536h266v-90h-148v-130h139v-87h-139v-137h149v-92zM312 721q0 -58 -33 -96t-97 -38t-95.5 38.5t-31.5 95.5h85q0 -22 11.5 -35.5t31.5 -13.5q43 0 43 49h86z" />
    <glyph glyph-name="Edotaccent.sc" horiz-adv-x="360" 
d="M318 0h-267v536h266v-90h-148v-130h139v-87h-139v-137h149v-92zM188 731q29 0 49.5 -20.5t20.5 -49.5q0 -30 -20.5 -50.5t-49.5 -20.5q-30 0 -50.5 20.5t-20.5 50.5q0 29 20.5 49.5t50.5 20.5z" />
    <glyph glyph-name="Eogonek.sc" horiz-adv-x="360" 
d="M192 0h-141v536h266v-90h-148v-130h139v-87h-139v-137h149v-92q-77 -57 -77 -110q0 -32 29 -32q20 0 39 12l19 -77q-42 -21 -91 -21q-51 0 -81.5 22.5t-30.5 68.5q0 67 67 137z" />
    <glyph glyph-name="Gcircumflex.sc" horiz-adv-x="482" 
d="M433 517l-33 -94q-64 26 -118 26q-67 0 -95 -45.5t-28 -135.5q0 -94 27.5 -137.5t85.5 -43.5q24 0 41 6v186h118v-253q-74 -34 -168 -34q-118 0 -173 66.5t-55 200.5q0 132 61.5 208.5t191.5 76.5q78 0 145 -27zM411 646l-39 -56l-97 60l-97 -60l-39 56l136 101z" />
    <glyph glyph-name="Gbreve.sc" horiz-adv-x="482" 
d="M433 517l-33 -94q-64 26 -118 26q-67 0 -95 -45.5t-28 -135.5q0 -94 27.5 -137.5t85.5 -43.5q24 0 41 6v186h118v-253q-74 -34 -168 -34q-118 0 -173 66.5t-55 200.5q0 132 61.5 208.5t191.5 76.5q78 0 145 -27zM401 721q0 -58 -33 -96t-97 -38t-95.5 38.5t-31.5 95.5h85
q0 -22 11.5 -35.5t31.5 -13.5q43 0 43 49h86z" />
    <glyph glyph-name="Gcaron.sc" horiz-adv-x="482" 
d="M433 517l-33 -94q-64 26 -118 26q-67 0 -95 -45.5t-28 -135.5q0 -94 27.5 -137.5t85.5 -43.5q24 0 41 6v186h118v-253q-74 -34 -168 -34q-118 0 -173 66.5t-55 200.5q0 132 61.5 208.5t191.5 76.5q78 0 145 -27zM135 691l39 57l98 -61l96 61l39 -56l-136 -102z" />
    </font>
</defs>
</svg>
